<?xml version="1.0" encoding="utf-8"?>
<!-- Generator: Adobe Illustrator 16.0.0, SVG Export Plug-In . SVG Version: 6.00 Build 0)  -->
<!DOCTYPE svg PUBLIC "-//W3C//DTD SVG 1.1//EN" "http://www.w3.org/Graphics/SVG/1.1/DTD/svg11.dtd">
<svg version="1.1" id="Layer_1" xmlns="http://www.w3.org/2000/svg" xmlns:xlink="http://www.w3.org/1999/xlink" x="0px" y="0px"
	 width="88px" height="26px" viewBox="0 0 88 26" enable-background="new 0 0 88 26" xml:space="preserve">
<g>
	<path fill="#0e4b87" d="M87.972,13.203c0,7.017-5.691,12.703-12.703,12.703H12.727c-7.013,0-12.699-5.687-12.699-12.703l0,0
		C0.028,6.187,5.714,0.5,12.727,0.5h62.542C82.28,0.5,87.972,6.187,87.972,13.203L87.972,13.203z"/>
	<g>
		<path fill="#FFFFFF" d="M72.782,17.786h-1.955l3.879-3.859H61.661v-1.462h13.045L70.827,8.62h1.955l4.578,4.583L72.782,17.786z"/>
	</g>
	<g>
		<g>
			<path fill="#FFFFFF" d="M16.118,9.208h0.839v2.623h2.912V9.208h0.839v6.658h-4.591V9.208z M19.87,15.165v-2.656h-2.912v2.656
				H19.87z M23.295,8.359v3.913h1.64v0.722h-1.64v5.26h-0.847V8.359H23.295z"/>
			<path fill="#FFFFFF" d="M29.626,16.307v-1.898H26.71v-3.029h5.878V9.785h-5.901V9.095h6.736v2.962h-5.874v1.661h6.1v0.69h-3.188
				v1.898h4.081v0.701H25.58v-0.701H29.626z"/>
			<path fill="#FFFFFF" d="M38.466,13.322c0.694-0.948,1.092-2.016,1.188-3.198h-3.664V9.423h4.522c0,1.462-0.364,2.79-1.096,3.985
				c-0.732,1.193-1.866,2.175-3.402,2.944l-0.476-0.657C36.799,15.063,37.773,14.271,38.466,13.322z M43.057,8.35v4.047h1.59v0.711
				h-1.59v5.146h-0.862V8.35H43.057z"/>
			<path fill="#FFFFFF" d="M48.476,13.351c0.697-0.945,1.092-2.021,1.184-3.227h-3.756V9.423h4.615c0,1.493-0.377,2.832-1.115,4.018
				c-0.744,1.188-1.904,2.169-3.488,2.945l-0.451-0.679C46.774,15.083,47.778,14.297,48.476,13.351z M53.431,8.359v9.895h-0.844
				V8.359H53.431z"/>
		</g>
	</g>
</g>
<g>
</g>
<g>
</g>
<g>
</g>
<g>
</g>
<g>
</g>
<g>
</g>
<g>
</g>
<g>
</g>
<g>
</g>
<g>
</g>
<g>
</g>
<g>
</g>
<g>
</g>
<g>
</g>
<g>
</g>
</svg>
