<?xml version="1.0" encoding="utf-8"?>
<!-- Generator: Adobe Illustrator 16.0.0, SVG Export Plug-In . SVG Version: 6.00 Build 0)  -->
<!DOCTYPE svg PUBLIC "-//W3C//DTD SVG 1.1//EN" "http://www.w3.org/Graphics/SVG/1.1/DTD/svg11.dtd">
<svg version="1.1" id="Layer_1" xmlns="http://www.w3.org/2000/svg" xmlns:xlink="http://www.w3.org/1999/xlink" x="0px" y="0px"
	 width="22px" height="22px" viewBox="0 0 22 22" enable-background="new 0 0 22 22" xml:space="preserve">
<g>
	<path fill="#FFFFFF" d="M21.999,10.998c0,6.076-4.925,10.998-11.001,10.998l0,0C4.922,21.996,0,17.074,0,10.998l0,0
		C0,4.926,4.922,0,10.998,0l0,0C17.074,0,21.999,4.926,21.999,10.998L21.999,10.998z"/>
	<path fill="#05703C" d="M14.676,10.196L9.847,5.37c-0.44-0.442-1.158-0.442-1.603,0c-0.441,0.445-0.441,1.162,0,1.601l4.029,4.027
		l-4.029,4.028c-0.441,0.44-0.441,1.158,0,1.603c0.222,0.219,0.515,0.328,0.803,0.328s0.577-0.109,0.799-0.328l4.829-4.828
		c0.21-0.216,0.331-0.505,0.331-0.803C15.007,10.697,14.886,10.409,14.676,10.196z"/>
</g>
<g>
</g>
<g>
</g>
<g>
</g>
<g>
</g>
<g>
</g>
<g>
</g>
<g>
</g>
<g>
</g>
<g>
</g>
<g>
</g>
<g>
</g>
<g>
</g>
<g>
</g>
<g>
</g>
<g>
</g>
</svg>
