<?xml version="1.0" encoding="utf-8"?>
<!-- Generator: Adobe Illustrator 15.1.0, SVG Export Plug-In . SVG Version: 6.00 Build 0)  -->
<!DOCTYPE svg PUBLIC "-//W3C//DTD SVG 1.1//EN" "http://www.w3.org/Graphics/SVG/1.1/DTD/svg11.dtd">
<svg version="1.1" id="Layer_1" xmlns="http://www.w3.org/2000/svg" xmlns:xlink="http://www.w3.org/1999/xlink" x="0px" y="0px"
	 width="300px" height="206px" viewBox="0 0 300 206" enable-background="new 0 0 300 206" xml:space="preserve">
<g>
	<rect x="0.885" y="0.884" fill="#F9F9FA" width="298.23" height="204.23"/>
	<rect x="0.885" y="0.884" fill="#0C713C" width="298.23" height="51.18"/>
	<g>
		<path fill="#FFFFFF" d="M279.166,27.407c0,5.633-4.58,10.197-10.23,10.197l0,0c-5.649,0-10.227-4.564-10.227-10.197l0,0
			c0-5.629,4.577-10.196,10.227-10.196l0,0C274.586,17.211,279.166,21.778,279.166,27.407L279.166,27.407z"/>
		<path fill="#0C713C" d="M272.355,26.664l-4.489-4.474c-0.41-0.41-1.077-0.41-1.49,0c-0.41,0.412-0.41,1.077,0,1.484l3.746,3.733
			l-3.746,3.734c-0.41,0.409-0.41,1.074,0,1.486c0.206,0.203,0.479,0.306,0.747,0.306s0.536-0.103,0.743-0.306l4.489-4.476
			c0.196-0.201,0.309-0.468,0.309-0.745C272.664,27.128,272.552,26.861,272.355,26.664z"/>
	</g>
	<g>
		<g>
			<path fill="#231F20" d="M172.281,193.567h-3.957v-0.515l2.034-1.953c0.62-0.658,1.07-1.164,1.07-1.85
				c-0.021-0.709-0.476-1.034-1.088-1.034c-0.675,0-1.175,0.478-1.175,1.153l-0.722-0.119c0.152-1.085,0.932-1.671,1.939-1.671
				c1.005,0,1.784,0.611,1.784,1.655c0,0.872-0.562,1.483-1.232,2.147l-1.646,1.628c0.225-0.065,0.464-0.095,0.667-0.095h2.325
				V193.567z"/>
			<path fill="#231F20" d="M175.091,193.674c-1.222,0-2.161-0.954-2.161-3.035c0-2.098,0.939-3.052,2.161-3.052
				c1.215,0,2.165,0.954,2.165,3.052C177.256,192.72,176.306,193.674,175.091,193.674z M175.091,188.19
				c-0.747,0-1.414,0.609-1.414,2.448c0,1.828,0.667,2.443,1.414,2.443s1.426-0.615,1.426-2.443
				C176.517,188.8,175.838,188.19,175.091,188.19z"/>
			<path fill="#231F20" d="M181.844,193.567h-3.96v-0.515l2.038-1.953c0.62-0.658,1.069-1.164,1.069-1.85
				c-0.025-0.709-0.475-1.034-1.084-1.034c-0.679,0-1.175,0.478-1.175,1.153l-0.726-0.119c0.152-1.085,0.932-1.671,1.937-1.671
				c1.008,0,1.788,0.611,1.788,1.655c0,0.872-0.563,1.483-1.229,2.147l-1.65,1.628c0.226-0.065,0.468-0.095,0.668-0.095h2.324
				V193.567z"/>
			<path fill="#231F20" d="M186.471,193.567h-3.184v-0.595h1.313v-4.236c0-0.072,0-0.145,0.008-0.203l-1.074,0.954l-0.392-0.469
				l1.585-1.367h0.588v5.321h1.156V193.567z"/>
		</g>
		<g>
			<g>
				<path fill="#343332" d="M199.482,116.455c-0.475-1.068-1.182-1.947-2.038-2.52c-1.486-1.23-3.547-2.161-5.954-2.693
					c-0.015,0-0.033-0.004-0.048-0.004c-0.039,0-0.083,0.014-0.119,0.035c-1.327,0.877-2.825,1.338-4.33,1.338
					c-1.501,0-3.003-0.461-4.33-1.336c-0.036-0.023-0.08-0.035-0.119-0.035c-0.015,0-0.033,0.002-0.044,0.004
					c-2.411,0.53-4.472,1.461-5.94,2.678c-0.87,0.586-1.581,1.465-2.049,2.523c-0.424,0.863-0.638,1.776-0.638,2.711v18.983
					c0,3.217,1.977,5.94,4.544,6.324v30.722c0,3.515,2.317,6.371,5.171,6.371h6.814c2.85,0,5.171-2.856,5.171-6.371v-30.722
					c2.561-0.384,4.54-3.107,4.54-6.324v-18.983C200.113,118.222,199.899,117.309,199.482,116.455z"/>
				<path fill="#FFFFFF" d="M190.402,184.491h-6.814c-4.475,0-8.112-4.175-8.112-9.306v-28.687
					c-2.709-1.528-4.544-4.735-4.544-8.359v-18.983c0-1.389,0.315-2.732,0.936-4c0.646-1.462,1.712-2.767,3.043-3.662
					c1.603-1.35,4.091-2.485,6.955-3.114c0.766-0.173,1.741,0.014,2.401,0.437c1.726,1.135,3.749,1.121,5.432,0.012
					c0.664-0.438,1.668-0.623,2.427-0.45c2.864,0.633,5.355,1.774,7.198,3.303c1.08,0.703,2.146,2.006,2.851,3.587
					c0.569,1.162,0.881,2.504,0.881,3.889v18.983c0,3.622-1.835,6.829-4.54,8.357v28.688
					C198.515,180.316,194.877,184.491,190.402,184.491z M182.127,114.354c-1.443,0.42-2.764,1.061-3.688,1.822
					c-0.635,0.448-0.993,0.901-1.236,1.451c-0.272,0.563-0.389,1.041-0.389,1.528v18.983c0,1.865,1.056,3.277,2.042,3.425
					c1.439,0.217,2.502,1.449,2.502,2.899v30.722c0,2.024,1.175,3.442,2.23,3.442h6.814c1.055,0,2.229-1.418,2.229-3.442v-30.722
					c0-1.45,1.063-2.683,2.503-2.899c0.982-0.147,2.038-1.56,2.038-3.425v-18.983c0-0.487-0.112-0.964-0.334-1.416
					c-0.294-0.658-0.646-1.109-1.033-1.369c-1.124-0.915-2.43-1.565-3.946-2.009C189.017,115.846,185.22,115.939,182.127,114.354z"
					/>
			</g>
			<g>
				<path fill="#343332" d="M186.993,110.435c4.127,0,7.485-3.348,7.485-7.461c0-4.112-3.358-7.459-7.485-7.459
					s-7.485,3.347-7.485,7.459C179.508,107.087,182.866,110.435,186.993,110.435z"/>
				<path fill="#FFFFFF" d="M186.993,113.367c-5.748,0-10.426-4.664-10.426-10.394c0-5.729,4.678-10.392,10.426-10.392
					s10.426,4.663,10.426,10.392C197.419,108.703,192.741,113.367,186.993,113.367z M186.993,98.445
					c-2.506,0-4.544,2.032-4.544,4.528c0,2.498,2.038,4.529,4.544,4.529s4.544-2.031,4.544-4.529
					C191.537,100.477,189.499,98.445,186.993,98.445z"/>
			</g>
		</g>
		<g>
			<path fill="#79CBC5" d="M174.823,125.821c-0.37-0.837-0.925-1.521-1.589-1.971c-1.168-0.96-2.777-1.688-4.656-2.101
				c-0.015-0.002-0.025-0.006-0.036-0.006c-0.036,0-0.065,0.01-0.095,0.029c-1.037,0.682-2.208,1.043-3.387,1.043
				c-1.175,0-2.343-0.361-3.384-1.043c-0.028-0.02-0.062-0.025-0.094-0.025c-0.011,0-0.021,0-0.033,0.002
				c-1.882,0.412-3.492,1.141-4.642,2.093c-0.682,0.458-1.232,1.142-1.603,1.971c-0.326,0.676-0.501,1.389-0.501,2.121v15.476
				c0,2.515,1.549,4.643,3.555,4.942v28.221c0,2.748,1.813,4.983,4.039,4.983h5.327c2.227,0,4.044-2.235,4.044-4.983v-28.221
				c2.002-0.3,3.547-2.428,3.547-4.942v-15.476C175.316,127.202,175.149,126.489,174.823,125.821z"/>
			<path fill="#79CBC5" d="M165.061,121.117c3.228,0,5.854-2.617,5.854-5.832s-2.626-5.83-5.854-5.83
				c-3.221,0-5.846,2.615-5.846,5.83S161.84,121.117,165.061,121.117z"/>
		</g>
		<g>
			<g>
				<path fill="#048743" d="M199.482,116.455c-0.475-1.068-1.182-1.947-2.038-2.52c-1.486-1.23-3.547-2.161-5.954-2.693
					c-0.015,0-0.033-0.004-0.048-0.004c-0.039,0-0.083,0.014-0.119,0.035c-1.327,0.877-2.825,1.338-4.33,1.338
					c-1.501,0-3.003-0.461-4.33-1.336c-0.036-0.023-0.08-0.035-0.119-0.035c-0.015,0-0.033,0.002-0.044,0.004
					c-2.411,0.53-4.472,1.461-5.94,2.678c-0.87,0.586-1.581,1.465-2.049,2.523c-0.424,0.863-0.638,1.776-0.638,2.711v18.983
					c0,3.217,1.977,5.94,4.544,6.324v30.722c0,3.515,2.317,6.371,5.171,6.371h6.814c2.85,0,5.171-2.856,5.171-6.371v-30.722
					c2.561-0.384,4.54-3.107,4.54-6.324v-18.983C200.113,118.222,199.899,117.309,199.482,116.455z"/>
				<path fill="#048743" d="M186.993,110.435c4.127,0,7.485-3.348,7.485-7.461c0-4.112-3.358-7.459-7.485-7.459
					s-7.485,3.347-7.485,7.459C179.508,107.087,182.866,110.435,186.993,110.435z"/>
			</g>
		</g>
		<g>
			<path fill="#6E6F71" d="M156.64,104.081v-6.166l-1.733,0.772v-0.736l1.843-0.824h0.648v6.954H156.64z"/>
			<path fill="#6E6F71" d="M163.059,103.558c-0.355,0.416-0.892,0.638-1.573,0.638c-0.689,0-1.219-0.222-1.574-0.638
				c-0.464-0.559-0.689-1.357-0.689-2.954c0-1.596,0.226-2.395,0.689-2.954c0.355-0.417,0.885-0.638,1.574-0.638
				c0.682,0,1.218,0.221,1.573,0.638c0.465,0.559,0.675,1.358,0.675,2.954C163.733,102.2,163.523,102.999,163.059,103.558z
				 M162.544,98.138c-0.25-0.312-0.599-0.479-1.059-0.479c-0.457,0-0.813,0.167-1.06,0.479c-0.312,0.399-0.446,1.074-0.446,2.465
				c0,1.392,0.127,2.076,0.446,2.475c0.239,0.31,0.603,0.47,1.06,0.47c0.46,0,0.819-0.161,1.059-0.47
				c0.312-0.399,0.442-1.083,0.442-2.475C162.986,99.212,162.855,98.538,162.544,98.138z"/>
			<path fill="#6E6F71" d="M166.388,101.633c-1.262,0-2.1-0.879-2.1-2.307c0-1.436,0.896-2.314,2.18-2.314
				c0.899,0,1.556,0.399,1.893,1.206c0.207,0.479,0.287,1.109,0.287,1.917c0,1.568-0.163,2.588-0.552,3.219
				c-0.358,0.603-0.917,0.842-1.646,0.842c-1.113,0-1.86-0.577-1.99-1.702h0.783c0.087,0.699,0.529,1.056,1.218,1.056
				c1.012,0,1.386-0.817,1.429-2.732C167.649,101.304,167.117,101.633,166.388,101.633z M166.468,97.659
				c-0.87,0-1.433,0.61-1.433,1.667c0,1.046,0.563,1.659,1.433,1.659c0.845,0,1.421-0.613,1.421-1.659
				C167.889,98.27,167.313,97.659,166.468,97.659z"/>
			<path fill="#6E6F71" d="M170.595,104.081h-0.842v-1.057h0.842V104.081z"/>
			<path fill="#6E6F71" d="M175.236,100.71l-2.411,2.722h3.184v0.648h-4.174v-0.596l2.796-3.165
				c0.381-0.437,0.525-0.799,0.525-1.251c0-0.824-0.508-1.41-1.334-1.41c-0.849,0-1.335,0.595-1.335,1.41v0.195h-0.758V99.06
				c0-1.118,0.74-2.048,2.093-2.048c1.349,0,2.096,0.931,2.096,2.048C175.918,99.682,175.759,100.116,175.236,100.71z"/>
		</g>
		<g>
			<g>
				<path fill="#048743" d="M175.287,89.485V82.76l-1.748,0.779v-1.635l2.038-0.939h1.69v8.52H175.287z"/>
				<path fill="#048743" d="M181.865,89.485V82.76l-1.748,0.779v-1.635l2.038-0.939h1.69v8.52H181.865z"/>
				<path fill="#048743" d="M186.021,80.965h5.57v1.41l-2.655,7.11h-2.023l2.688-6.982h-3.579V80.965z"/>
				<path fill="#048743" d="M194.638,89.485h-1.937v-1.922h1.937V89.485z"/>
				<path fill="#048743" d="M197.694,87.35c0.044,0.544,0.291,0.811,0.762,0.811c0.696,0,0.997-0.65,1.02-2.359
					c-0.269,0.438-0.794,0.694-1.447,0.694c-1.359,0-2.455-1.014-2.455-2.809c0-1.76,1.117-2.87,2.883-2.87
					c1.048,0,1.896,0.382,2.397,1.216c0.449,0.736,0.569,1.772,0.569,2.979c0,3.374-0.943,4.623-2.988,4.623
					c-1.585,0-2.578-0.854-2.688-2.285H197.694z M198.496,82.364c-0.616,0-0.95,0.459-0.95,1.334c0,0.877,0.334,1.336,0.95,1.336
					c0.603,0,0.943-0.459,0.943-1.336C199.439,82.823,199.099,82.364,198.496,82.364z"/>
			</g>
		</g>
		<g>
			<path fill="#231F20" d="M238.873,193.567h-3.96v-0.515l2.038-1.953c0.62-0.658,1.069-1.164,1.069-1.85
				c-0.025-0.709-0.475-1.034-1.084-1.034c-0.679,0-1.175,0.478-1.175,1.153l-0.726-0.119c0.152-1.085,0.932-1.671,1.937-1.671
				c1.008,0,1.788,0.611,1.788,1.655c0,0.872-0.563,1.483-1.229,2.147l-1.65,1.628c0.225-0.065,0.468-0.095,0.668-0.095h2.324
				V193.567z"/>
			<path fill="#231F20" d="M241.684,193.674c-1.223,0-2.165-0.954-2.165-3.035c0-2.098,0.942-3.052,2.165-3.052
				c1.215,0,2.165,0.954,2.165,3.052C243.849,192.72,242.898,193.674,241.684,193.674z M241.684,188.19
				c-0.747,0-1.418,0.609-1.418,2.448c0,1.828,0.671,2.443,1.418,2.443c0.75,0,1.425-0.615,1.425-2.443
				C243.108,188.8,242.434,188.19,241.684,188.19z"/>
			<path fill="#231F20" d="M248.436,193.567h-3.956v-0.515l2.034-1.953c0.62-0.658,1.07-1.164,1.07-1.85
				c-0.022-0.709-0.476-1.034-1.088-1.034c-0.675,0-1.176,0.478-1.176,1.153l-0.722-0.119c0.152-1.085,0.933-1.671,1.94-1.671
				c1.005,0,1.784,0.611,1.784,1.655c0,0.872-0.562,1.483-1.232,2.147l-1.646,1.628c0.225-0.065,0.464-0.095,0.667-0.095h2.324
				V193.567z"/>
			<path fill="#231F20" d="M253.219,193.567h-3.96v-0.515l2.038-1.953c0.616-0.658,1.066-1.164,1.066-1.85
				c-0.021-0.709-0.472-1.034-1.084-1.034c-0.679,0-1.176,0.478-1.176,1.153l-0.722-0.119c0.152-1.085,0.933-1.671,1.937-1.671
				c1.009,0,1.785,0.611,1.785,1.655c0,0.872-0.559,1.483-1.229,2.147l-1.65,1.628c0.225-0.065,0.468-0.095,0.667-0.095h2.328
				V193.567z"/>
		</g>
		<g>
			<g>
				<path fill="#343332" d="M266.075,116.455c-0.476-1.068-1.187-1.947-2.035-2.52c-1.49-1.23-3.55-2.161-5.958-2.693
					c-0.018,0-0.032-0.004-0.047-0.004c-0.04,0-0.08,0.014-0.116,0.035c-1.331,0.877-2.829,1.338-4.334,1.338
					s-3.002-0.461-4.333-1.336c-0.033-0.023-0.076-0.035-0.116-0.035c-0.015,0-0.029,0.002-0.044,0.004
					c-2.407,0.53-4.468,1.461-5.939,2.678c-0.871,0.586-1.581,1.465-2.049,2.523c-0.425,0.863-0.639,1.776-0.639,2.711v18.983
					c0,3.217,1.977,5.94,4.544,6.324v30.722c0,3.515,2.321,6.371,5.171,6.371h6.811c2.851,0,5.172-2.856,5.172-6.371v-30.722
					c2.567-0.384,4.544-3.107,4.544-6.324v-18.983C266.706,118.222,266.492,117.309,266.075,116.455z"/>
				<path fill="#FFFFFF" d="M256.99,184.491h-6.811c-4.475,0-8.112-4.175-8.112-9.306v-28.687c-2.709-1.528-4.544-4.735-4.544-8.359
					v-18.983c0-1.389,0.316-2.732,0.937-4c0.646-1.462,1.711-2.767,3.042-3.662c1.61-1.35,4.095-2.485,6.956-3.114
					c0.819-0.183,1.838,0.031,2.517,0.519c1.486,0.972,3.634,1.043,5.323-0.072c0.656-0.431,1.657-0.621,2.419-0.448
					c2.861,0.631,5.353,1.772,7.202,3.301c1.084,0.715,2.146,2.018,2.847,3.589c0.569,1.162,0.881,2.504,0.881,3.889v18.983
					c0,3.624-1.835,6.831-4.544,8.359v28.687C265.103,180.316,261.466,184.491,256.99,184.491z M248.729,114.362
					c-1.501,0.436-2.792,1.066-3.699,1.816c-0.635,0.446-0.993,0.899-1.236,1.449c-0.272,0.563-0.388,1.041-0.388,1.528v18.983
					c0,1.865,1.055,3.277,2.041,3.425c1.44,0.217,2.503,1.449,2.503,2.899v30.722c0,2.024,1.175,3.442,2.229,3.442h6.811
					c1.056,0,2.23-1.418,2.23-3.442v-30.722c0-1.45,1.063-2.683,2.502-2.899c0.986-0.147,2.042-1.56,2.042-3.425v-18.983
					c0-0.487-0.112-0.964-0.334-1.416c-0.293-0.658-0.648-1.111-1.04-1.377c-1.117-0.909-2.423-1.558-3.935-2.001
					C255.602,115.846,251.826,115.936,248.729,114.362z"/>
			</g>
			<g>
				<path fill="#343332" d="M253.585,110.435c4.127,0,7.485-3.348,7.485-7.461c0-4.112-3.358-7.459-7.485-7.459
					c-4.123,0-7.481,3.347-7.481,7.459C246.104,107.087,249.462,110.435,253.585,110.435z"/>
				<path fill="#FFFFFF" d="M253.585,113.367c-5.747,0-10.422-4.664-10.422-10.394c0-5.729,4.675-10.392,10.422-10.392
					c5.748,0,10.427,4.663,10.427,10.392C264.012,108.703,259.333,113.367,253.585,113.367z M253.585,98.445
					c-2.502,0-4.54,2.032-4.54,4.528c0,2.498,2.038,4.529,4.54,4.529c2.506,0,4.544-2.031,4.544-4.529
					C258.129,100.477,256.091,98.445,253.585,98.445z"/>
			</g>
		</g>
		<g>
			<path fill="#79CBC5" d="M241.419,127.385c-0.374-0.837-0.929-1.522-1.596-1.971c-1.161-0.962-2.771-1.689-4.653-2.101
				c-0.014-0.002-0.025-0.006-0.039-0.006c-0.029,0-0.063,0.01-0.088,0.027c-1.044,0.686-2.212,1.046-3.387,1.046
				s-2.35-0.36-3.387-1.044c-0.029-0.02-0.062-0.025-0.095-0.025c-0.011,0-0.021,0-0.032,0.002
				c-1.883,0.411-3.492,1.139-4.643,2.091c-0.678,0.458-1.236,1.144-1.603,1.973c-0.33,0.676-0.497,1.389-0.497,2.121v14.921
				c0,2.515,1.545,4.641,3.551,4.942v27.212c0,2.748,1.813,4.983,4.043,4.983h5.324c2.227,0,4.04-2.235,4.04-4.983v-27.212
				c2.009-0.302,3.554-2.428,3.554-4.942v-14.921C241.912,128.766,241.745,128.053,241.419,127.385z"/>
			<path fill="#79CBC5" d="M231.656,122.681c3.224,0,5.85-2.617,5.85-5.832s-2.626-5.83-5.85-5.83c-3.228,0-5.85,2.615-5.85,5.83
				S228.429,122.681,231.656,122.681z"/>
		</g>
		<g>
			<g>
				<path fill="#048743" d="M266.075,116.455c-0.476-1.068-1.187-1.947-2.035-2.52c-1.49-1.23-3.55-2.161-5.958-2.693
					c-0.018,0-0.032-0.004-0.047-0.004c-0.04,0-0.08,0.014-0.116,0.035c-1.331,0.877-2.829,1.338-4.334,1.338
					s-3.002-0.461-4.333-1.336c-0.033-0.023-0.076-0.035-0.116-0.035c-0.015,0-0.029,0.002-0.044,0.004
					c-2.407,0.53-4.468,1.461-5.939,2.678c-0.871,0.586-1.581,1.465-2.049,2.523c-0.425,0.863-0.639,1.776-0.639,2.711v18.983
					c0,3.217,1.977,5.94,4.544,6.324v30.722c0,3.515,2.321,6.371,5.171,6.371h6.811c2.851,0,5.172-2.856,5.172-6.371v-30.722
					c2.567-0.384,4.544-3.107,4.544-6.324v-18.983C266.706,118.222,266.492,117.309,266.075,116.455z"/>
				<path fill="#048743" d="M253.585,110.435c4.127,0,7.485-3.348,7.485-7.461c0-4.112-3.358-7.459-7.485-7.459
					c-4.123,0-7.481,3.347-7.481,7.459C246.104,107.087,249.462,110.435,253.585,110.435z"/>
			</g>
		</g>
		<g>
			<path fill="#6E6F71" d="M223.235,105.645v-6.166l-1.733,0.772v-0.735l1.839-0.825h0.649v6.953H223.235z"/>
			<path fill="#6E6F71" d="M229.651,105.12c-0.359,0.417-0.889,0.639-1.578,0.639c-0.682,0-1.219-0.222-1.573-0.639
				c-0.461-0.557-0.683-1.357-0.683-2.953c0-1.596,0.222-2.395,0.683-2.954c0.354-0.417,0.892-0.638,1.573-0.638
				c0.689,0,1.219,0.221,1.578,0.638c0.46,0.559,0.674,1.358,0.674,2.954C230.325,103.763,230.111,104.563,229.651,105.12z
				 M229.133,99.702c-0.247-0.312-0.596-0.479-1.06-0.479c-0.449,0-0.805,0.167-1.059,0.479c-0.309,0.399-0.442,1.074-0.442,2.465
				c0,1.393,0.123,2.075,0.442,2.475c0.243,0.31,0.609,0.471,1.059,0.471c0.464,0,0.819-0.161,1.06-0.471
				c0.312-0.399,0.445-1.082,0.445-2.475C229.578,100.776,229.444,100.101,229.133,99.702z"/>
			<path fill="#6E6F71" d="M232.979,103.196c-1.266,0-2.1-0.878-2.1-2.307c0-1.436,0.899-2.314,2.18-2.314
				c0.896,0,1.556,0.399,1.896,1.207c0.203,0.479,0.283,1.108,0.283,1.916c0,1.568-0.159,2.587-0.551,3.218
				c-0.355,0.604-0.918,0.843-1.646,0.843c-1.11,0-1.86-0.576-1.995-1.701h0.783c0.091,0.699,0.537,1.055,1.219,1.055
				c1.016,0,1.389-0.817,1.437-2.731C234.242,102.867,233.709,103.196,232.979,103.196z M233.06,99.223
				c-0.874,0-1.433,0.613-1.433,1.667c0,1.047,0.559,1.659,1.433,1.659c0.845,0,1.426-0.612,1.426-1.659
				C234.485,99.835,233.904,99.223,233.06,99.223z"/>
			<path fill="#6E6F71" d="M237.19,105.645h-0.849v-1.056h0.849V105.645z"/>
			<path fill="#6E6F71" d="M241.999,105.12c-0.359,0.417-0.893,0.639-1.577,0.639c-0.686,0-1.219-0.222-1.574-0.639
				c-0.461-0.557-0.686-1.357-0.686-2.953c0-1.596,0.225-2.395,0.686-2.954c0.355-0.417,0.889-0.638,1.574-0.638
				c0.685,0,1.218,0.221,1.577,0.638c0.46,0.559,0.675,1.358,0.675,2.954C242.674,103.763,242.459,104.563,241.999,105.12z
				 M241.48,99.702c-0.25-0.312-0.599-0.479-1.059-0.479c-0.454,0-0.81,0.167-1.06,0.479c-0.308,0.399-0.446,1.074-0.446,2.465
				c0,1.393,0.127,2.075,0.446,2.475c0.243,0.31,0.605,0.471,1.06,0.471c0.46,0,0.819-0.161,1.059-0.471
				c0.312-0.399,0.446-1.082,0.446-2.475C241.927,100.776,241.792,100.101,241.48,99.702z"/>
		</g>
		<g>
			<g>
				<path fill="#048743" d="M241.876,89.485V82.76l-1.745,0.779v-1.635l2.035-0.939h1.693v8.52H241.876z"/>
				<path fill="#048743" d="M248.454,89.485V82.76l-1.744,0.779v-1.635l2.034-0.939h1.693v8.52H248.454z"/>
				<path fill="#048743" d="M252.617,80.965h5.57v1.41l-2.658,7.11h-2.023l2.687-6.982h-3.575V80.965z"/>
				<path fill="#048743" d="M261.229,89.485h-1.939v-1.922h1.939V89.485z"/>
				<path fill="#048743" d="M264.287,87.35c0.043,0.544,0.29,0.811,0.762,0.811c0.696,0,0.993-0.65,1.015-2.359
					c-0.268,0.438-0.79,0.694-1.443,0.694c-1.363,0-2.451-1.014-2.451-2.809c0-1.76,1.109-2.87,2.88-2.87
					c1.052,0,1.893,0.382,2.4,1.216c0.449,0.736,0.565,1.772,0.565,2.979c0,3.374-0.942,4.623-2.988,4.623
					c-1.584,0-2.582-0.854-2.69-2.285H264.287z M265.092,82.364c-0.624,0-0.953,0.459-0.953,1.334c0,0.877,0.329,1.336,0.953,1.336
					c0.599,0,0.943-0.459,0.943-1.336C266.035,82.823,265.69,82.364,265.092,82.364z"/>
			</g>
		</g>
		<g>
			<path fill="#231F20" d="M107.887,193.567h-3.961v-0.515l2.038-1.953c0.617-0.658,1.066-1.164,1.066-1.85
				c-0.021-0.709-0.472-1.034-1.084-1.034c-0.679,0-1.175,0.478-1.175,1.153l-0.722-0.119c0.152-1.085,0.932-1.671,1.937-1.671
				c1.008,0,1.784,0.611,1.784,1.655c0,0.872-0.559,1.483-1.229,2.147l-1.65,1.628c0.225-0.065,0.468-0.095,0.668-0.095h2.328
				V193.567z"/>
			<path fill="#231F20" d="M110.693,193.674c-1.219,0-2.161-0.954-2.161-3.035c0-2.098,0.942-3.052,2.161-3.052
				c1.218,0,2.168,0.954,2.168,3.052C112.861,192.72,111.911,193.674,110.693,193.674z M110.693,188.19
				c-0.747,0-1.414,0.609-1.414,2.448c0,1.828,0.667,2.443,1.414,2.443c0.75,0,1.429-0.615,1.429-2.443
				C112.122,188.8,111.443,188.19,110.693,188.19z"/>
			<path fill="#231F20" d="M117.293,193.567h-3.184v-0.595h1.313v-4.236c0-0.072,0-0.145,0.008-0.203l-1.074,0.954l-0.392-0.469
				l1.585-1.367h0.588v5.321h1.156V193.567z"/>
			<path fill="#231F20" d="M120.227,189.77c1.244,0,1.915,0.771,1.915,1.798c0,1.25-0.942,2.071-2.143,2.071
				c-0.704,0-1.303-0.29-1.661-0.637l0.392-0.535c0.355,0.296,0.819,0.514,1.306,0.514c0.812,0,1.399-0.506,1.399-1.374
				c0-0.77-0.5-1.218-1.346-1.218c-0.315,0-0.62,0.072-0.964,0.191l-0.476-0.139l0.482-2.782h2.825v0.676h-2.311l-0.265,1.54
				C119.654,189.803,119.937,189.77,120.227,189.77z"/>
		</g>
		<g>
			<g>
				<path fill="#343332" d="M132.948,120.849c-0.432-0.972-1.077-1.767-1.846-2.288c-1.353-1.116-3.224-1.959-5.41-2.442
					c-0.015-0.002-0.029-0.004-0.04-0.004c-0.04,0-0.076,0.01-0.105,0.031c-1.207,0.795-2.567,1.213-3.931,1.213
					c-1.367,0-2.728-0.418-3.932-1.211c-0.036-0.023-0.072-0.031-0.108-0.031c-0.015,0-0.029,0-0.04,0.004
					c-2.187,0.481-4.058,1.324-5.393,2.427c-0.79,0.535-1.433,1.33-1.856,2.292c-0.385,0.784-0.58,1.614-0.58,2.463v17.496
					c0,2.919,1.795,5.39,4.123,5.74v29.233c0,3.191,2.104,5.785,4.692,5.785h6.184c2.589,0,4.692-2.594,4.692-5.785v-29.233
					c2.328-0.351,4.123-2.821,4.123-5.74v-17.496C133.521,122.453,133.329,121.623,132.948,120.849z"/>
				<path fill="#FFFFFF" d="M124.706,184.491h-6.184c-4.21,0-7.634-3.912-7.634-8.72v-27.233c-2.466-1.465-4.123-4.417-4.123-7.74
					v-17.496c0-1.301,0.294-2.563,0.878-3.75c0.598-1.363,1.599-2.586,2.847-3.43c1.476-1.236,3.771-2.286,6.411-2.866
					c0.766-0.179,1.73,0.006,2.387,0.435c1.469,0.968,3.191,0.96,4.638,0.008c0.58-0.386,1.433-0.57,2.133-0.491
					c2.912,0.629,5.211,1.683,6.919,3.093c1.016,0.674,2.009,1.893,2.662,3.362c0.529,1.073,0.823,2.333,0.823,3.64v17.496
					c0,3.323-1.657,6.275-4.124,7.74v27.233C132.339,180.579,128.916,184.491,124.706,184.491z M117.188,119.242
					c-1.367,0.418-2.419,0.944-3.166,1.563c-0.559,0.391-0.842,0.753-1.041,1.213c-0.239,0.492-0.334,0.878-0.334,1.283v17.496
					c0,1.53,0.856,2.726,1.621,2.841c1.439,0.216,2.503,1.45,2.503,2.899v29.233c0,1.634,0.924,2.856,1.751,2.856h6.184
					c0.826,0,1.751-1.223,1.751-2.856v-29.233c0-1.449,1.063-2.684,2.502-2.899c0.766-0.115,1.621-1.311,1.621-2.841v-17.496
					c0-0.403-0.09-0.795-0.271-1.16c-0.254-0.569-0.544-0.941-0.863-1.157c-0.961-0.78-2.106-1.355-3.405-1.748
					C123.215,120.636,119.962,120.614,117.188,119.242z"/>
			</g>
			<g>
				<path fill="#343332" d="M121.616,115.387c3.742,0,6.788-3.04,6.788-6.772c0-3.733-3.046-6.771-6.788-6.771
					c-3.746,0-6.793,3.037-6.793,6.771C114.823,112.347,117.87,115.387,121.616,115.387z"/>
				<path fill="#FFFFFF" d="M121.616,118.316c-5.367,0-9.733-4.352-9.733-9.702c0-5.351,4.366-9.703,9.733-9.703
					s9.729,4.352,9.729,9.703C131.346,113.965,126.983,118.316,121.616,118.316z M121.616,104.775c-2.122,0-3.852,1.724-3.852,3.839
					c0,2.116,1.729,3.84,3.852,3.84c2.121,0,3.848-1.724,3.848-3.84C125.464,106.499,123.737,104.775,121.616,104.775z"/>
			</g>
		</g>
		<g>
			<path fill="#79CBC5" d="M111.506,128.906c-0.355-0.791-0.878-1.438-1.509-1.86c-1.096-0.907-2.618-1.597-4.396-1.988
				c-0.007-0.002-0.021-0.002-0.032-0.002c-0.029,0-0.062,0.01-0.084,0.025c-0.982,0.646-2.089,0.985-3.198,0.985
				s-2.216-0.339-3.198-0.985c-0.025-0.016-0.059-0.025-0.087-0.025c-0.008,0-0.022,0-0.029,0.004c-1.78,0.39-3.3,1.079-4.385,1.975
				c-0.642,0.435-1.164,1.081-1.512,1.862c-0.313,0.641-0.472,1.31-0.472,2.003v14.775c0,2.372,1.458,4.384,3.351,4.666v26.516
				c0,2.587,1.712,4.7,3.819,4.7h5.025c2.104,0,3.815-2.113,3.815-4.7v-26.516c1.896-0.282,3.354-2.294,3.354-4.666v-14.775
				C111.97,130.206,111.811,129.537,111.506,128.906z"/>
			<path fill="#79CBC5" d="M102.287,124.462c3.046,0,5.52-2.469,5.52-5.505c0-3.035-2.474-5.506-5.52-5.506
				s-5.523,2.471-5.523,5.506C96.764,121.993,99.241,124.462,102.287,124.462z"/>
		</g>
		<g>
			<g>
				<path fill="#048743" d="M132.948,120.849c-0.432-0.972-1.077-1.767-1.846-2.288c-1.353-1.116-3.224-1.959-5.41-2.442
					c-0.015-0.002-0.029-0.004-0.04-0.004c-0.04,0-0.076,0.01-0.105,0.031c-1.207,0.795-2.567,1.213-3.931,1.213
					c-1.367,0-2.728-0.418-3.932-1.211c-0.036-0.023-0.072-0.031-0.108-0.031c-0.015,0-0.029,0-0.04,0.004
					c-2.187,0.481-4.058,1.324-5.393,2.427c-0.79,0.535-1.433,1.33-1.856,2.292c-0.385,0.784-0.58,1.614-0.58,2.463v17.496
					c0,2.919,1.795,5.39,4.123,5.74v29.233c0,3.191,2.104,5.785,4.692,5.785h6.184c2.589,0,4.692-2.594,4.692-5.785v-29.233
					c2.328-0.351,4.123-2.821,4.123-5.74v-17.496C133.521,122.453,133.329,121.623,132.948,120.849z"/>
				<path fill="#048743" d="M121.616,115.387c3.742,0,6.788-3.04,6.788-6.772c0-3.733-3.046-6.771-6.788-6.771
					c-3.746,0-6.793,3.037-6.793,6.771C114.823,112.347,117.87,115.387,121.616,115.387z"/>
			</g>
		</g>
		<g>
			<path fill="#6E6F71" d="M93.866,107.708v-6.164l-1.733,0.772v-0.736l1.839-0.825h0.649v6.953H93.866z"/>
			<path fill="#6E6F71" d="M100.281,107.187c-0.358,0.415-0.888,0.637-1.577,0.637c-0.682,0-1.219-0.222-1.574-0.637
				c-0.46-0.559-0.682-1.359-0.682-2.954c0-1.597,0.222-2.396,0.682-2.954c0.355-0.418,0.893-0.639,1.574-0.639
				c0.689,0,1.219,0.221,1.577,0.639c0.461,0.559,0.675,1.357,0.675,2.954C100.956,105.827,100.742,106.628,100.281,107.187z
				 M99.763,101.766c-0.246-0.311-0.595-0.479-1.059-0.479c-0.449,0-0.805,0.168-1.059,0.479c-0.309,0.4-0.442,1.074-0.442,2.466
				c0,1.391,0.123,2.074,0.442,2.475c0.243,0.309,0.609,0.47,1.059,0.47c0.464,0,0.819-0.161,1.059-0.47
				c0.313-0.4,0.446-1.084,0.446-2.475C100.209,102.84,100.075,102.166,99.763,101.766z"/>
			<path fill="#6E6F71" d="M101.663,100.755h4.152v0.584l-2.419,6.369h-0.79l2.451-6.305h-3.395V100.755z"/>
			<path fill="#6E6F71" d="M107.821,107.708h-0.849v-1.055h0.849V107.708z"/>
			<path fill="#6E6F71" d="M108.981,100.755h4.152v0.584l-2.419,6.369h-0.79l2.451-6.305h-3.395V100.755z"/>
		</g>
		<g>
			<g>
				<path fill="#048743" d="M109.902,94.633v-6.726l-1.744,0.78v-1.635l2.034-0.939h1.694v8.52H109.902z"/>
				<path fill="#048743" d="M116.48,94.633v-6.726l-1.744,0.78v-1.635l2.035-0.939h1.693v8.52H116.48z"/>
				<path fill="#048743" d="M126.501,93.042h-0.889v1.591h-1.951v-1.591h-3.318v-1.538l3.225-5.392h2.045v5.392h0.889V93.042z
					 M123.661,91.505v-2.711l-1.617,2.711H123.661z"/>
				<path fill="#048743" d="M129.257,94.633h-1.94v-1.922h1.94V94.633z"/>
				<path fill="#048743" d="M134.105,92.135c0-0.897-0.366-1.228-1.204-1.228h-0.652v-1.517h0.652c0.602,0,1.001-0.277,1.001-1.003
					c0-0.567-0.29-0.886-0.776-0.886c-0.479,0-0.769,0.319-0.769,0.886v0.15h-1.907v-0.236c0-1.388,0.986-2.336,2.676-2.336
					c1.683,0,2.691,0.959,2.691,2.305c0,1.025-0.526,1.602-1.306,1.836c1.016,0.247,1.563,1.015,1.563,2.116
					c0,1.547-1.179,2.562-2.948,2.562c-1.763,0-2.93-1.015-2.93-2.562v-0.268h1.958v0.181c0,0.715,0.355,1.111,0.972,1.111
					C133.75,93.246,134.105,92.851,134.105,92.135z"/>
			</g>
		</g>
		<g>
			<path fill="#231F20" d="M47.194,193.567h-3.96v-0.515l2.038-1.953c0.62-0.658,1.069-1.164,1.069-1.85
				c-0.025-0.709-0.475-1.034-1.084-1.034c-0.678,0-1.175,0.478-1.175,1.153l-0.726-0.119c0.152-1.085,0.933-1.671,1.937-1.671
				c1.009,0,1.788,0.611,1.788,1.655c0,0.872-0.563,1.483-1.229,2.147l-1.65,1.628c0.226-0.065,0.468-0.095,0.668-0.095h2.324
				V193.567z"/>
			<path fill="#231F20" d="M50.005,193.674c-1.222,0-2.165-0.954-2.165-3.035c0-2.098,0.943-3.052,2.165-3.052
				c1.215,0,2.165,0.954,2.165,3.052C52.17,192.72,51.22,193.674,50.005,193.674z M50.005,188.19c-0.747,0-1.418,0.609-1.418,2.448
				c0,1.828,0.671,2.443,1.418,2.443c0.751,0,1.425-0.615,1.425-2.443C51.43,188.8,50.756,188.19,50.005,188.19z"/>
			<path fill="#231F20" d="M56.604,193.567h-3.188v-0.595h1.313v-4.236c0-0.072,0-0.145,0.007-0.203l-1.069,0.954l-0.396-0.469
				l1.588-1.367h0.588v5.321h1.156V193.567z"/>
			<path fill="#231F20" d="M59.567,193.674c-1.222,0-2.161-0.954-2.161-3.035c0-2.098,0.939-3.052,2.161-3.052
				c1.215,0,2.165,0.954,2.165,3.052C61.732,192.72,60.782,193.674,59.567,193.674z M59.567,188.19
				c-0.747,0-1.414,0.609-1.414,2.448c0,1.828,0.667,2.443,1.414,2.443s1.426-0.615,1.426-2.443
				C60.993,188.8,60.314,188.19,59.567,188.19z"/>
		</g>
		<g>
			<g>
				<path fill="#343332" d="M70.657,125.366c-0.384-0.869-0.961-1.582-1.653-2.051c-1.212-0.997-2.883-1.757-4.842-2.187
					c-0.011,0-0.021-0.002-0.036-0.002c-0.032,0-0.068,0.012-0.098,0.029c-1.077,0.712-2.296,1.084-3.518,1.084
					c-1.219,0-2.438-0.372-3.518-1.084c-0.029-0.018-0.065-0.029-0.098-0.029c-0.012,0-0.022,0.002-0.033,0.006
					c-1.958,0.426-3.634,1.186-4.827,2.173c-0.707,0.479-1.287,1.191-1.664,2.053c-0.345,0.7-0.519,1.442-0.519,2.204v15.971
					c0,2.611,1.606,4.823,3.688,5.137v27.709c0,2.856,1.886,5.178,4.202,5.178h5.538c2.313,0,4.199-2.321,4.199-5.178V148.67
					c2.085-0.313,3.691-2.525,3.691-5.137v-15.971C71.172,126.801,70.998,126.059,70.657,125.366z"/>
				<path fill="#FFFFFF" d="M63.281,184.491h-5.538c-3.938,0-7.144-3.64-7.144-8.112v-25.748c-2.212-1.395-3.688-4.079-3.688-7.098
					v-15.971c0-1.214,0.276-2.39,0.816-3.493c0.548-1.255,1.483-2.396,2.654-3.19c1.338-1.123,3.441-2.085,5.854-2.612
					c0.747-0.166,1.672-0.002,2.317,0.402c1.313,0.863,2.669,0.82,3.851,0.043c0.66-0.436,1.61-0.623,2.394-0.445
					c2.404,0.527,4.504,1.491,6.082,2.788c0.932,0.615,1.863,1.754,2.47,3.129c0.493,0.989,0.765,2.163,0.765,3.379v15.971
					c0,3.019-1.476,5.705-3.691,7.098v25.748C70.422,180.852,67.22,184.491,63.281,184.491z M56.525,124.256
					c-1.132,0.356-1.991,0.796-2.611,1.307c-0.475,0.337-0.696,0.621-0.849,0.97c-0.199,0.415-0.271,0.715-0.271,1.03v15.971
					c0,1.256,0.703,2.163,1.186,2.237c1.439,0.214,2.502,1.447,2.502,2.899v27.709c0,1.352,0.762,2.249,1.262,2.249h5.538
					c0.5,0,1.259-0.897,1.259-2.249V148.67c0-1.452,1.063-2.686,2.502-2.899c0.497-0.076,1.189-0.962,1.189-2.237v-15.971
					c0-0.312-0.072-0.615-0.214-0.904c-0.211-0.465-0.432-0.757-0.664-0.915c-0.827-0.666-1.773-1.152-2.839-1.489
					C62.052,125.438,59.053,125.469,56.525,124.256z"/>
			</g>
			<g>
				<path fill="#343332" d="M60.511,120.475c3.351,0,6.081-2.719,6.081-6.062c0-3.342-2.73-6.063-6.081-6.063
					s-6.078,2.721-6.078,6.063C54.433,117.756,57.16,120.475,60.511,120.475z"/>
				<path fill="#FFFFFF" d="M60.511,123.407c-4.972,0-9.02-4.035-9.02-8.994c0-4.958,4.048-8.993,9.02-8.993
					c4.976,0,9.022,4.035,9.022,8.993C69.533,119.372,65.486,123.407,60.511,123.407z M60.511,111.283
					c-1.729,0-3.137,1.406-3.137,3.13c0,1.725,1.407,3.129,3.137,3.129s3.141-1.404,3.141-3.129
					C63.651,112.689,62.24,111.283,60.511,111.283z"/>
			</g>
		</g>
		<g>
			<path fill="#79CBC5" d="M50.437,132.689c-0.313-0.705-0.78-1.279-1.342-1.659c-0.979-0.811-2.336-1.424-3.92-1.772
				c-0.012,0-0.019-0.004-0.033-0.004c-0.025,0-0.051,0.01-0.076,0.023c-0.874,0.577-1.86,0.881-2.851,0.881
				c-0.989,0-1.976-0.304-2.854-0.879c-0.021-0.016-0.051-0.021-0.076-0.021c-0.011,0-0.019,0-0.029,0.002
				c-1.585,0.347-2.94,0.96-3.909,1.761c-0.573,0.39-1.041,0.964-1.349,1.661c-0.279,0.57-0.421,1.172-0.421,1.785v13.498
				c0,2.119,1.302,3.91,2.992,4.163v25.234c0,2.313,1.522,4.194,3.401,4.194h4.485c1.875,0,3.405-1.881,3.405-4.194v-25.234
				c1.69-0.253,2.988-2.044,2.988-4.163v-13.498C50.85,133.854,50.712,133.252,50.437,132.689z"/>
			<path fill="#79CBC5" d="M42.215,128.727c2.717,0,4.929-2.204,4.929-4.911c0-2.708-2.212-4.912-4.929-4.912
				c-2.716,0-4.928,2.204-4.928,4.912C37.287,126.522,39.499,128.727,42.215,128.727z"/>
		</g>
		<g>
			<g>
				<path fill="#048743" d="M70.657,125.366c-0.384-0.869-0.961-1.582-1.653-2.051c-1.212-0.997-2.883-1.757-4.842-2.187
					c-0.011,0-0.021-0.002-0.036-0.002c-0.032,0-0.068,0.012-0.098,0.029c-1.077,0.712-2.296,1.084-3.518,1.084
					c-1.219,0-2.438-0.372-3.518-1.084c-0.029-0.018-0.065-0.029-0.098-0.029c-0.012,0-0.022,0.002-0.033,0.006
					c-1.958,0.426-3.634,1.186-4.827,2.173c-0.707,0.479-1.287,1.191-1.664,2.053c-0.345,0.7-0.519,1.442-0.519,2.204v15.971
					c0,2.611,1.606,4.823,3.688,5.137v27.709c0,2.856,1.886,5.178,4.202,5.178h5.538c2.313,0,4.199-2.321,4.199-5.178V148.67
					c2.085-0.313,3.691-2.525,3.691-5.137v-15.971C71.172,126.801,70.998,126.059,70.657,125.366z"/>
				<path fill="#048743" d="M60.511,120.475c3.351,0,6.081-2.719,6.081-6.062c0-3.342-2.73-6.063-6.081-6.063
					s-6.078,2.721-6.078,6.063C54.433,117.756,57.16,120.475,60.511,120.475z"/>
			</g>
		</g>
		<g>
			<path fill="#6E6F71" d="M33.791,112.639v-6.165l-1.733,0.771v-0.736l1.842-0.823h0.649v6.953H33.791z"/>
			<path fill="#6E6F71" d="M40.21,112.115c-0.355,0.416-0.893,0.639-1.574,0.639c-0.688,0-1.218-0.223-1.573-0.639
				c-0.465-0.56-0.689-1.357-0.689-2.954c0-1.595,0.225-2.396,0.689-2.954c0.355-0.417,0.885-0.637,1.573-0.637
				c0.682,0,1.219,0.22,1.574,0.637c0.464,0.559,0.675,1.359,0.675,2.954C40.885,110.758,40.674,111.556,40.21,112.115z
				 M39.695,106.696c-0.251-0.313-0.599-0.479-1.06-0.479c-0.457,0-0.813,0.167-1.059,0.479c-0.312,0.398-0.446,1.072-0.446,2.465
				s0.127,2.075,0.446,2.475c0.239,0.31,0.602,0.472,1.059,0.472c0.461,0,0.819-0.162,1.06-0.472
				c0.312-0.399,0.442-1.082,0.442-2.475S40.007,107.095,39.695,106.696z"/>
			<path fill="#6E6F71" d="M45.983,111.087H45.12v1.552h-0.754v-1.552h-2.963v-0.648l2.89-4.753h0.827v4.753h0.863V111.087z
				 M44.366,110.438v-3.521l-2.137,3.521H44.366z"/>
			<path fill="#6E6F71" d="M47.745,112.639h-0.841v-1.058h0.841V112.639z"/>
			<path fill="#6E6F71" d="M51.097,108.133c1.272,0,2.1,0.876,2.1,2.306c0,1.437-0.899,2.315-2.173,2.315
				c-0.906,0-1.566-0.399-1.899-1.206c-0.207-0.479-0.287-1.109-0.287-1.916c0-1.571,0.16-2.592,0.541-3.221
				c0.366-0.604,0.928-0.841,1.668-0.841c1.091,0,1.838,0.576,1.979,1.702h-0.783c-0.087-0.701-0.522-1.056-1.219-1.056
				c-1.015,0-1.385,0.815-1.429,2.732C49.834,108.46,50.367,108.133,51.097,108.133z M51.023,112.107
				c0.863,0,1.426-0.613,1.426-1.669c0-1.038-0.563-1.659-1.426-1.659c-0.862,0-1.429,0.621-1.429,1.659
				C49.595,111.494,50.161,112.107,51.023,112.107z"/>
		</g>
		<g>
			<g>
				<path fill="#048743" d="M48.805,100.576v-6.725l-1.748,0.78v-1.635l2.038-0.939h1.689v8.519H48.805z"/>
				<path fill="#048743" d="M55.383,100.576v-6.725l-1.748,0.78v-1.635l2.038-0.939h1.69v8.519H55.383z"/>
				<path fill="#048743" d="M64.445,99.904c-0.468,0.545-1.179,0.823-2.121,0.823c-0.95,0-1.657-0.277-2.129-0.823
					c-0.62-0.725-0.889-1.814-0.889-3.586c0-1.773,0.269-2.862,0.889-3.589c0.472-0.543,1.179-0.821,2.129-0.821
					c0.942,0,1.653,0.277,2.121,0.821c0.62,0.727,0.889,1.816,0.889,3.589C65.334,98.09,65.065,99.179,64.445,99.904z
					 M63.063,93.841c-0.182-0.278-0.417-0.396-0.739-0.396c-0.319,0-0.577,0.117-0.747,0.396c-0.226,0.373-0.302,1.143-0.302,2.477
					c0,1.333,0.076,2.091,0.302,2.477c0.17,0.278,0.428,0.396,0.747,0.396c0.322,0,0.558-0.117,0.739-0.396
					c0.225-0.385,0.301-1.143,0.301-2.477C63.364,94.984,63.288,94.214,63.063,93.841z"/>
				<path fill="#048743" d="M68.155,100.576h-1.937v-1.921h1.937V100.576z"/>
				<path fill="#048743" d="M72.884,94.203c-0.043-0.544-0.29-0.81-0.769-0.81c-0.689,0-0.979,0.65-1.008,2.359
					c0.268-0.437,0.801-0.705,1.443-0.705c1.363,0,2.451,1.025,2.451,2.818c0,1.752-1.124,2.862-2.869,2.862
					c-1.059,0-1.903-0.385-2.411-1.206c-0.449-0.737-0.565-1.773-0.565-2.979c0-3.373,0.953-4.633,2.988-4.633
					c1.584,0,2.582,0.854,2.69,2.295H72.884z M72.094,99.19c0.609,0,0.938-0.458,0.938-1.336c0-0.886-0.329-1.345-0.938-1.345
					c-0.624,0-0.943,0.458-0.943,1.345C71.15,98.731,71.47,99.19,72.094,99.19z"/>
			</g>
		</g>
		<rect x="25.059" y="182.474" fill="#231F20" width="249.752" height="0.446"/>
	</g>
	<g>
		<g>
			<path fill="#048743" d="M166.366,65.57h6.237v0.808h-2.665v2.456h-0.954v-2.456h-2.618V65.57z M169.992,61.875v0.352
				c0,0.288,0.095,0.573,0.283,0.855c0.185,0.284,0.457,0.528,0.819,0.732c0.355,0.207,0.783,0.344,1.276,0.412l-0.369,0.792
				c-0.588-0.096-1.096-0.28-1.523-0.552c-0.436-0.272-0.762-0.605-0.986-1c-0.225,0.4-0.559,0.734-0.99,1.003
				c-0.436,0.27-0.946,0.452-1.526,0.548l-0.381-0.792c0.497-0.068,0.925-0.206,1.287-0.412c0.359-0.204,0.631-0.448,0.819-0.728
				c0.188-0.278,0.283-0.565,0.283-0.859v-0.352H169.992z"/>
			<path fill="#048743" d="M178.609,62.156v0.798h-3.826v1.913h3.884v0.792h-1.98v1.536h2.655v0.815h-6.245v-0.815h2.633v-1.536
				h-1.9v-3.503H178.609z"/>
			<path fill="#048743" d="M182.583,64.306c0.084-0.563,0.131-1.063,0.139-1.495h-2.325v-0.784h3.282v0.247
				c0,0.306-0.007,0.607-0.021,0.909c-0.015,0.3-0.059,0.649-0.116,1.043c0.152-0.016,0.377-0.045,0.675-0.089l0.058,0.705
				c-0.529,0.097-1.106,0.17-1.727,0.225v1.543h-0.877v1.295h4.141v0.792h-5.099v-2.184h0.878v-1.383
				c-0.675,0.027-1.244,0.04-1.701,0.04l-0.115-0.792C180.897,64.378,181.836,64.355,182.583,64.306z M185.658,61.66v5.397h-0.957
				v-0.799h-1.349v-0.759h1.349V61.66H185.658z"/>
		</g>
		<ellipse fill="#048743" cx="157.692" cy="65.486" rx="5.055" ry="5.039"/>
		<g>
			<path fill="#289297" d="M128.593,64.415c0.283-0.414,0.425-0.862,0.425-1.349v-0.119h-1.386v-0.792h3.71v0.792h-1.363v0.112
				c0,0.454,0.138,0.875,0.406,1.264c0.269,0.389,0.66,0.674,1.175,0.857l-0.472,0.766c-0.369-0.126-0.686-0.314-0.95-0.563
				c-0.261-0.249-0.471-0.54-0.627-0.875c-0.156,0.373-0.37,0.698-0.649,0.971c-0.282,0.274-0.616,0.479-1.008,0.613l-0.486-0.785
				C127.904,65.125,128.311,64.829,128.593,64.415z M128.626,66.45h0.953v1.456h3.75v0.792h-4.703V66.45z M132.212,63.53v-1.863
				h0.958v5.222h-0.958v-2.566h-1.116V63.53H132.212z"/>
			<path fill="#289297" d="M139.646,61.979v0.559c0,0.374-0.007,0.702-0.021,0.985c-0.015,0.283-0.055,0.595-0.116,0.935h0.885
				v0.792h-2.654v1.042h1.922v2.543h-0.943v-1.76h-3.945v-0.783h2.009V65.25h-2.633v-0.792h4.414
				c0.104-0.533,0.155-1.097,0.155-1.696h-3.8v-0.783H139.646z"/>
		</g>
		<ellipse fill="#79CBC5" cx="118.744" cy="65.486" rx="5.055" ry="5.039"/>
	</g>
	<path fill="#D1D2D2" d="M300,206H0V0h300V206z M1.77,204.231H298.23V1.768H1.77V204.231z"/>
</g>
</svg>
