<?xml version="1.0" encoding="utf-8"?>
<!-- Generator: Adobe Illustrator 15.1.0, SVG Export Plug-In . SVG Version: 6.00 Build 0)  -->
<!DOCTYPE svg PUBLIC "-//W3C//DTD SVG 1.1//EN" "http://www.w3.org/Graphics/SVG/1.1/DTD/svg11.dtd">
<svg version="1.1" id="Layer_1" xmlns="http://www.w3.org/2000/svg" xmlns:xlink="http://www.w3.org/1999/xlink" x="0px" y="0px"
	 width="300px" height="206px" viewBox="0 0 300 206" enable-background="new 0 0 300 206" xml:space="preserve">
<g>
	<rect x="0.885" y="0.884" fill="#F9F9FA" width="298.23" height="204.231"/>
	<rect x="0.885" y="0.884" fill="#0C713C" width="298.23" height="51.181"/>
	<g>
		<path fill="#FFFFFF" d="M279.166,27.407c0,5.633-4.58,10.197-10.23,10.197l0,0c-5.65,0-10.227-4.564-10.227-10.197l0,0
			c0-5.629,4.576-10.196,10.227-10.196l0,0C274.586,17.211,279.166,21.778,279.166,27.407L279.166,27.407z"/>
		<path fill="#0C713C" d="M272.355,26.664l-4.486-4.474c-0.413-0.41-1.08-0.41-1.49,0c-0.41,0.412-0.41,1.077,0,1.484l3.746,3.733
			l-3.746,3.734c-0.41,0.409-0.41,1.074,0,1.486c0.207,0.202,0.476,0.305,0.743,0.305c0.269,0,0.541-0.103,0.747-0.305l4.486-4.476
			c0.199-0.201,0.309-0.468,0.309-0.745C272.664,27.128,272.555,26.861,272.355,26.664z"/>
	</g>
	<g>
		<path fill="none" stroke="#000000" stroke-width="0.5118" stroke-miterlimit="10" d="M26.158,179.18"/>
		<g>
			<g>
				<path fill="#6E6F71" d="M24.41,109.514v-5.575l-1.566,0.698v-0.667l1.665-0.745h0.587v6.289H24.41z"/>
				<path fill="#6E6F71" d="M30.869,108.109h-0.78v1.404h-0.686v-1.404h-2.68v-0.586l2.615-4.298h0.75v4.298h0.78V108.109z
					 M29.403,107.523v-3.186l-1.933,3.186H29.403z"/>
				<path fill="#6E6F71" d="M33.309,106.465h-0.638v-0.586h0.653c0.692,0,1.07-0.48,1.07-1.082c0-0.65-0.46-1.091-1.121-1.091
					c-0.682,0-1.117,0.441-1.117,1.091v0.088h-0.682v-0.145c0-0.915,0.667-1.62,1.799-1.62s1.799,0.705,1.799,1.62
					c0,0.707-0.363,1.244-0.983,1.428c0.7,0.184,1.164,0.73,1.164,1.605c0,1.139-0.805,1.844-1.98,1.844
					c-1.164,0-1.987-0.721-1.987-1.885v-0.08h0.678v0.049c0,0.85,0.555,1.33,1.309,1.33c0.75,0,1.306-0.471,1.306-1.283
					C34.579,106.955,34.078,106.465,33.309,106.465z"/>
				<path fill="#6E6F71" d="M36.127,110.188c0.29-0.041,0.442-0.209,0.442-0.521v-0.152h-0.37v-0.953h0.766v1.057
					c0,0.586-0.283,0.865-0.838,0.932V110.188z"/>
				<path fill="#6E6F71" d="M41.149,106.465l-2.179,2.463h2.879v0.586h-3.775v-0.539l2.531-2.863
					c0.345-0.393,0.472-0.721,0.472-1.131c0-0.744-0.457-1.275-1.204-1.275c-0.769,0-1.211,0.537-1.211,1.275v0.178H37.98v-0.186
					c0-1.01,0.667-1.852,1.893-1.852c1.219,0,1.896,0.842,1.896,1.852C41.77,105.535,41.625,105.928,41.149,106.465z"/>
				<path fill="#6E6F71" d="M44.508,105.438c1.153,0,1.9,0.795,1.9,2.086c0,1.301-0.813,2.094-1.966,2.094
					c-0.819,0-1.414-0.359-1.719-1.09c-0.189-0.434-0.261-1.004-0.261-1.734c0-1.418,0.145-2.34,0.493-2.912
					c0.33-0.544,0.834-0.761,1.501-0.761c0.994,0,1.668,0.521,1.799,1.54h-0.711c-0.08-0.635-0.472-0.955-1.103-0.955
					c-0.914,0-1.255,0.738-1.294,2.472C43.365,105.736,43.848,105.438,44.508,105.438z M44.442,109.031
					c0.783,0,1.288-0.553,1.288-1.508c0-0.938-0.504-1.5-1.288-1.5c-0.78,0-1.294,0.563-1.294,1.5
					C43.148,108.479,43.663,109.031,44.442,109.031z"/>
				<path fill="#6E6F71" d="M46.851,107.797c0-0.836,0.471-1.404,1.218-1.613c-0.638-0.199-1.03-0.762-1.03-1.436
					c0-0.947,0.714-1.627,1.889-1.627c1.175,0,1.882,0.681,1.882,1.627c0,0.674-0.384,1.236-1.022,1.436
					c0.75,0.209,1.218,0.777,1.218,1.613c0,1.131-0.849,1.82-2.078,1.82C47.699,109.617,46.851,108.928,46.851,107.797z
					 M48.928,109.031c0.823,0,1.4-0.471,1.4-1.273c0-0.797-0.577-1.285-1.4-1.285c-0.819,0-1.4,0.488-1.4,1.285
					C47.528,108.561,48.109,109.031,48.928,109.031z M48.928,103.706c-0.722,0-1.208,0.433-1.208,1.099s0.486,1.09,1.208,1.09
					c0.714,0,1.208-0.424,1.208-1.09S49.643,103.706,48.928,103.706z"/>
			</g>
		</g>
		<g>
			<g>
				<path fill="#6E6F71" d="M250.328,72.596v-5.574l-1.57,0.697v-0.667l1.668-0.745h0.588v6.289H250.328z"/>
				<path fill="#6E6F71" d="M254.571,70.382c-1.143,0-1.896-0.794-1.896-2.086c0-1.3,0.813-2.094,1.969-2.094
					c0.813,0,1.411,0.361,1.716,1.09c0.181,0.435,0.254,1.004,0.254,1.734c0,1.419-0.146,2.343-0.497,2.912
					c-0.323,0.544-0.831,0.761-1.49,0.761c-1.001,0-1.68-0.521-1.799-1.54h0.707c0.08,0.635,0.482,0.954,1.103,0.954
					c0.917,0,1.255-0.737,1.294-2.469C255.714,70.085,255.231,70.382,254.571,70.382z M254.644,66.789
					c-0.787,0-1.295,0.553-1.295,1.508c0,0.947,0.508,1.5,1.295,1.5c0.766,0,1.287-0.553,1.287-1.5
					C255.931,67.341,255.409,66.789,254.644,66.789z"/>
				<path fill="#6E6F71" d="M260.479,69.547l-2.18,2.464h2.88v0.585h-3.775v-0.538l2.531-2.863c0.345-0.393,0.472-0.722,0.472-1.132
					c0-0.745-0.457-1.274-1.204-1.274c-0.769,0-1.211,0.537-1.211,1.274v0.177h-0.682v-0.185c0-1.01,0.667-1.853,1.893-1.853
					c1.219,0,1.896,0.843,1.896,1.853C261.099,68.618,260.954,69.01,260.479,69.547z"/>
				<path fill="#6E6F71" d="M262.045,73.269c0.29-0.04,0.442-0.208,0.442-0.521v-0.152h-0.369v-0.954h0.762V72.7
					c0,0.586-0.279,0.866-0.835,0.931V73.269z"/>
				<path fill="#6E6F71" d="M267.064,69.547l-2.176,2.464h2.879v0.585h-3.774v-0.538l2.527-2.863
					c0.345-0.393,0.475-0.722,0.475-1.132c0-0.745-0.46-1.274-1.207-1.274c-0.766,0-1.208,0.537-1.208,1.274v0.177h-0.686v-0.185
					c0-1.01,0.668-1.853,1.894-1.853c1.222,0,1.9,0.843,1.9,1.853C267.688,68.618,267.543,69.01,267.064,69.547z"/>
				<path fill="#6E6F71" d="M271.742,72.124c-0.318,0.376-0.805,0.576-1.421,0.576c-0.62,0-1.103-0.2-1.426-0.576
					c-0.417-0.507-0.62-1.228-0.62-2.672s0.203-2.166,0.62-2.672c0.323-0.376,0.806-0.577,1.426-0.577
					c0.616,0,1.103,0.201,1.421,0.577c0.421,0.506,0.613,1.228,0.613,2.672S272.163,71.617,271.742,72.124z M271.278,67.22
					c-0.225-0.28-0.54-0.432-0.957-0.432c-0.414,0-0.732,0.151-0.958,0.432c-0.282,0.361-0.406,0.971-0.406,2.231
					c0,1.26,0.116,1.876,0.406,2.237c0.218,0.28,0.544,0.425,0.958,0.425c0.417,0,0.739-0.145,0.957-0.425
					c0.283-0.361,0.398-0.978,0.398-2.237C271.677,68.191,271.562,67.582,271.278,67.22z"/>
				<path fill="#6E6F71" d="M272.968,66.307h3.761v0.528l-2.187,5.761h-0.718l2.22-5.705h-3.076V66.307z"/>
			</g>
		</g>
		<g>
			<g>
				<g>
					<path fill="#FDD35A" d="M29.211,179.828v1.893c0,0.037,0.003,0.07,0.011,0.105c0.047,0.242,0.257,0.422,0.508,0.422h13.327
						c0.25,0,0.457-0.18,0.508-0.422c0.007-0.035,0.007-0.068,0.007-0.105v-1.893c0-0.293-0.229-0.529-0.515-0.529H29.73
						C29.443,179.299,29.211,179.535,29.211,179.828z"/>
					<path fill="#F8BC34" d="M42.042,179.299v2.949h1.016c0.25,0,0.457-0.18,0.508-0.422c0.007-0.035,0.007-0.068,0.007-0.105
						v-1.893c0-0.293-0.229-0.529-0.515-0.529H42.042z"/>
					<path fill="#ECA423" d="M43.565,181.826c-0.051,0.242-0.258,0.422-0.508,0.422h-1.016v-0.422H43.565z"/>
					<rect x="40.265" y="179.299" fill="#FDD35A" width="1.777" height="2.527"/>
					<rect x="40.265" y="181.826" fill="#ECA423" width="1.777" height="0.422"/>
					<rect x="30.542" y="179.299" fill="#F8BC34" width="5.447" height="2.949"/>
					<path fill="#ECA423" d="M40.265,181.826v0.422H29.73c-0.25,0-0.461-0.18-0.508-0.422H40.265z"/>
				</g>
				<g>
					<path fill="#FDD35A" d="M29.211,177.059v1.895c0,0.035,0.003,0.072,0.011,0.104c0.047,0.242,0.257,0.424,0.508,0.424h13.327
						c0.25,0,0.457-0.182,0.508-0.424c0.007-0.031,0.007-0.068,0.007-0.104v-1.895c0-0.291-0.229-0.527-0.515-0.527H29.73
						C29.443,176.531,29.211,176.768,29.211,177.059z"/>
					<path fill="#F8BC34" d="M42.042,176.531v2.949h1.016c0.25,0,0.457-0.182,0.508-0.424c0.007-0.031,0.007-0.068,0.007-0.104
						v-1.895c0-0.291-0.229-0.527-0.515-0.527H42.042z"/>
					<path fill="#ECA423" d="M43.565,179.057c-0.051,0.242-0.258,0.424-0.508,0.424h-1.016v-0.424H43.565z"/>
					<rect x="40.265" y="176.531" fill="#FDD35A" width="1.777" height="2.525"/>
					<rect x="40.265" y="179.057" fill="#ECA423" width="1.777" height="0.424"/>
					<rect x="30.542" y="176.531" fill="#F8BC34" width="5.447" height="2.949"/>
					<path fill="#ECA423" d="M40.265,179.057v0.424H29.73c-0.25,0-0.461-0.182-0.508-0.424H40.265z"/>
				</g>
				<g>
					<path fill="#FDD35A" d="M29.211,174.203v1.895c0,0.037,0.003,0.07,0.011,0.105c0.047,0.242,0.257,0.422,0.508,0.422h13.327
						c0.25,0,0.457-0.18,0.508-0.422c0.007-0.035,0.007-0.068,0.007-0.105v-1.895c0-0.293-0.229-0.527-0.515-0.527H29.73
						C29.443,173.676,29.211,173.91,29.211,174.203z"/>
					<path fill="#F8BC34" d="M42.042,173.676v2.949h1.016c0.25,0,0.457-0.18,0.508-0.422c0.007-0.035,0.007-0.068,0.007-0.105
						v-1.895c0-0.293-0.229-0.527-0.515-0.527H42.042z"/>
					<path fill="#ECA423" d="M43.565,176.203c-0.051,0.242-0.258,0.422-0.508,0.422h-1.016v-0.422H43.565z"/>
					<rect x="40.265" y="173.676" fill="#FDD35A" width="1.777" height="2.527"/>
					<rect x="40.265" y="176.203" fill="#ECA423" width="1.777" height="0.422"/>
					<rect x="30.542" y="173.676" fill="#F8BC34" width="5.447" height="2.949"/>
					<path fill="#ECA423" d="M40.265,176.203v0.422H29.73c-0.25,0-0.461-0.18-0.508-0.422H40.265z"/>
				</g>
				<g>
					<path fill="#FDD35A" d="M29.211,171.348v1.895c0,0.035,0.003,0.07,0.011,0.105c0.047,0.242,0.257,0.42,0.508,0.42h13.327
						c0.25,0,0.457-0.178,0.508-0.42c0.007-0.035,0.007-0.07,0.007-0.105v-1.895c0-0.291-0.229-0.525-0.515-0.525H29.73
						C29.443,170.822,29.211,171.057,29.211,171.348z"/>
					<path fill="#F8BC34" d="M42.042,170.822v2.945h1.016c0.25,0,0.457-0.178,0.508-0.42c0.007-0.035,0.007-0.07,0.007-0.105v-1.895
						c0-0.291-0.229-0.525-0.515-0.525H42.042z"/>
					<path fill="#ECA423" d="M43.565,173.348c-0.051,0.242-0.258,0.42-0.508,0.42h-1.016v-0.42H43.565z"/>
					<rect x="40.265" y="170.822" fill="#FDD35A" width="1.777" height="2.525"/>
					<rect x="40.265" y="173.348" fill="#ECA423" width="1.777" height="0.42"/>
					<rect x="30.542" y="170.822" fill="#F8BC34" width="5.447" height="2.945"/>
					<path fill="#ECA423" d="M40.265,173.348v0.42H29.73c-0.25,0-0.461-0.178-0.508-0.42H40.265z"/>
				</g>
				<g>
					<path fill="#FDD35A" d="M29.211,168.398v1.895c0,0.039,0.003,0.072,0.011,0.105c0.047,0.242,0.257,0.424,0.508,0.424h13.327
						c0.25,0,0.457-0.182,0.508-0.424c0.007-0.033,0.007-0.066,0.007-0.105v-1.895c0-0.291-0.229-0.525-0.515-0.525H29.73
						C29.443,167.873,29.211,168.107,29.211,168.398z"/>
					<path fill="#F8BC34" d="M42.042,167.873v2.949h1.016c0.25,0,0.457-0.182,0.508-0.424c0.007-0.033,0.007-0.066,0.007-0.105
						v-1.895c0-0.291-0.229-0.525-0.515-0.525H42.042z"/>
					<path fill="#ECA423" d="M43.565,170.398c-0.051,0.242-0.258,0.424-0.508,0.424h-1.016v-0.424H43.565z"/>
					<rect x="40.265" y="167.873" fill="#FDD35A" width="1.777" height="2.525"/>
					<rect x="40.265" y="170.398" fill="#ECA423" width="1.777" height="0.424"/>
					<rect x="30.542" y="167.873" fill="#F8BC34" width="5.447" height="2.949"/>
					<path fill="#ECA423" d="M40.265,170.398v0.424H29.73c-0.25,0-0.461-0.182-0.508-0.424H40.265z"/>
				</g>
			</g>
			<g>
				<g>
					<path fill="#E7E6E6" d="M29.211,151.078v1.893c0,0.037,0.003,0.072,0.011,0.105c0.047,0.24,0.257,0.422,0.508,0.422h13.327
						c0.25,0,0.457-0.182,0.508-0.422c0.007-0.033,0.007-0.068,0.007-0.105v-1.893c0-0.293-0.229-0.527-0.515-0.527H29.73
						C29.443,150.551,29.211,150.785,29.211,151.078z"/>
					<path fill="#D1D2D2" d="M42.042,150.551v2.947h1.016c0.25,0,0.457-0.182,0.508-0.422c0.007-0.033,0.007-0.068,0.007-0.105
						v-1.893c0-0.293-0.229-0.527-0.515-0.527H42.042z"/>
					<path fill="#BBBCBE" d="M43.565,153.076c-0.051,0.24-0.258,0.422-0.508,0.422h-1.016v-0.422H43.565z"/>
					<rect x="40.265" y="150.551" fill="#E7E6E6" width="1.777" height="2.525"/>
					<rect x="40.265" y="153.076" fill="#BBBCBE" width="1.777" height="0.422"/>
					<rect x="30.542" y="150.551" fill="#D1D2D2" width="5.447" height="2.947"/>
					<path fill="#BBBCBE" d="M40.265,153.076v0.422H29.73c-0.25,0-0.461-0.182-0.508-0.422H40.265z"/>
				</g>
				<g>
					<path fill="#E7E6E6" d="M29.211,148.311v1.893c0,0.037,0.003,0.072,0.011,0.105c0.047,0.24,0.257,0.422,0.508,0.422h13.327
						c0.25,0,0.457-0.182,0.508-0.422c0.007-0.033,0.007-0.068,0.007-0.105v-1.893c0-0.291-0.229-0.529-0.515-0.529H29.73
						C29.443,147.781,29.211,148.02,29.211,148.311z"/>
					<path fill="#D1D2D2" d="M42.042,147.781v2.949h1.016c0.25,0,0.457-0.182,0.508-0.422c0.007-0.033,0.007-0.068,0.007-0.105
						v-1.893c0-0.291-0.229-0.529-0.515-0.529H42.042z"/>
					<path fill="#BBBCBE" d="M43.565,150.309c-0.051,0.24-0.258,0.422-0.508,0.422h-1.016v-0.422H43.565z"/>
					<rect x="40.265" y="147.781" fill="#E7E6E6" width="1.777" height="2.527"/>
					<rect x="40.265" y="150.309" fill="#BBBCBE" width="1.777" height="0.422"/>
					<rect x="30.542" y="147.781" fill="#D1D2D2" width="5.447" height="2.949"/>
					<path fill="#BBBCBE" d="M40.265,150.309v0.422H29.73c-0.25,0-0.461-0.182-0.508-0.422H40.265z"/>
				</g>
				<g>
					<path fill="#E7E6E6" d="M29.211,145.455v1.893c0,0.039,0.003,0.072,0.011,0.107c0.047,0.24,0.257,0.422,0.508,0.422h13.327
						c0.25,0,0.457-0.182,0.508-0.422c0.007-0.035,0.007-0.068,0.007-0.107v-1.893c0-0.293-0.229-0.527-0.515-0.527H29.73
						C29.443,144.928,29.211,145.162,29.211,145.455z"/>
					<path fill="#D1D2D2" d="M42.042,144.928v2.949h1.016c0.25,0,0.457-0.182,0.508-0.422c0.007-0.035,0.007-0.068,0.007-0.107
						v-1.893c0-0.293-0.229-0.527-0.515-0.527H42.042z"/>
					<path fill="#BBBCBE" d="M43.565,147.455c-0.051,0.24-0.258,0.422-0.508,0.422h-1.016v-0.422H43.565z"/>
					<rect x="40.265" y="144.928" fill="#E7E6E6" width="1.777" height="2.527"/>
					<rect x="40.265" y="147.455" fill="#BBBCBE" width="1.777" height="0.422"/>
					<rect x="30.542" y="144.928" fill="#D1D2D2" width="5.447" height="2.949"/>
					<path fill="#BBBCBE" d="M40.265,147.455v0.422H29.73c-0.25,0-0.461-0.182-0.508-0.422H40.265z"/>
				</g>
				<g>
					<path fill="#E7E6E6" d="M29.211,142.6v1.895c0,0.035,0.003,0.07,0.011,0.104c0.047,0.242,0.257,0.424,0.508,0.424h13.327
						c0.25,0,0.457-0.182,0.508-0.424c0.007-0.033,0.007-0.068,0.007-0.104V142.6c0-0.291-0.229-0.527-0.515-0.527H29.73
						C29.443,142.072,29.211,142.309,29.211,142.6z"/>
					<path fill="#D1D2D2" d="M42.042,142.072v2.949h1.016c0.25,0,0.457-0.182,0.508-0.424c0.007-0.033,0.007-0.068,0.007-0.104
						V142.6c0-0.291-0.229-0.527-0.515-0.527H42.042z"/>
					<path fill="#BBBCBE" d="M43.565,144.598c-0.051,0.242-0.258,0.424-0.508,0.424h-1.016v-0.424H43.565z"/>
					<rect x="40.265" y="142.072" fill="#E7E6E6" width="1.777" height="2.525"/>
					<rect x="40.265" y="144.598" fill="#BBBCBE" width="1.777" height="0.424"/>
					<rect x="30.542" y="142.072" fill="#D1D2D2" width="5.447" height="2.949"/>
					<path fill="#BBBCBE" d="M40.265,144.598v0.424H29.73c-0.25,0-0.461-0.182-0.508-0.424H40.265z"/>
				</g>
				<g>
					<path fill="#E7E6E6" d="M29.211,139.652v1.891c0,0.039,0.003,0.072,0.011,0.109c0.047,0.24,0.257,0.42,0.508,0.42h13.327
						c0.25,0,0.457-0.18,0.508-0.42c0.007-0.037,0.007-0.07,0.007-0.109v-1.891c0-0.293-0.229-0.529-0.515-0.529H29.73
						C29.443,139.123,29.211,139.359,29.211,139.652z"/>
					<path fill="#D1D2D2" d="M42.042,139.123v2.949h1.016c0.25,0,0.457-0.18,0.508-0.42c0.007-0.037,0.007-0.07,0.007-0.109v-1.891
						c0-0.293-0.229-0.529-0.515-0.529H42.042z"/>
					<path fill="#BBBCBE" d="M43.565,141.652c-0.051,0.24-0.258,0.42-0.508,0.42h-1.016v-0.42H43.565z"/>
					<rect x="40.265" y="139.123" fill="#E7E6E6" width="1.777" height="2.529"/>
					<rect x="40.265" y="141.652" fill="#BBBCBE" width="1.777" height="0.42"/>
					<rect x="30.542" y="139.123" fill="#D1D2D2" width="5.447" height="2.949"/>
					<path fill="#BBBCBE" d="M40.265,141.652v0.42H29.73c-0.25,0-0.461-0.18-0.508-0.42H40.265z"/>
				</g>
			</g>
			<g>
				<g>
					<path fill="#E7E6E6" d="M29.211,136.705v1.893c0,0.035,0.003,0.07,0.011,0.105c0.047,0.238,0.257,0.42,0.508,0.42h13.327
						c0.25,0,0.457-0.182,0.508-0.42c0.007-0.035,0.007-0.07,0.007-0.105v-1.893c0-0.293-0.229-0.527-0.515-0.527H29.73
						C29.443,136.178,29.211,136.412,29.211,136.705z"/>
					<path fill="#D1D2D2" d="M42.042,136.178v2.945h1.016c0.25,0,0.457-0.182,0.508-0.42c0.007-0.035,0.007-0.07,0.007-0.105v-1.893
						c0-0.293-0.229-0.527-0.515-0.527H42.042z"/>
					<path fill="#BBBCBE" d="M43.565,138.703c-0.051,0.238-0.258,0.42-0.508,0.42h-1.016v-0.42H43.565z"/>
					<rect x="40.265" y="136.178" fill="#E7E6E6" width="1.777" height="2.525"/>
					<rect x="40.265" y="138.703" fill="#BBBCBE" width="1.777" height="0.42"/>
					<rect x="30.542" y="136.178" fill="#D1D2D2" width="5.447" height="2.945"/>
					<path fill="#BBBCBE" d="M40.265,138.703v0.42H29.73c-0.25,0-0.461-0.182-0.508-0.42H40.265z"/>
				</g>
				<g>
					<path fill="#E7E6E6" d="M29.211,133.938v1.893c0,0.035,0.003,0.072,0.011,0.104c0.047,0.24,0.257,0.422,0.508,0.422h13.327
						c0.25,0,0.457-0.182,0.508-0.422c0.007-0.031,0.007-0.068,0.007-0.104v-1.893c0-0.291-0.229-0.529-0.515-0.529H29.73
						C29.443,133.408,29.211,133.646,29.211,133.938z"/>
					<path fill="#D1D2D2" d="M42.042,133.408v2.947h1.016c0.25,0,0.457-0.182,0.508-0.422c0.007-0.031,0.007-0.068,0.007-0.104
						v-1.893c0-0.291-0.229-0.529-0.515-0.529H42.042z"/>
					<path fill="#BBBCBE" d="M43.565,135.934c-0.051,0.24-0.258,0.422-0.508,0.422h-1.016v-0.422H43.565z"/>
					<rect x="40.265" y="133.408" fill="#E7E6E6" width="1.777" height="2.525"/>
					<rect x="40.265" y="135.934" fill="#BBBCBE" width="1.777" height="0.422"/>
					<rect x="30.542" y="133.408" fill="#D1D2D2" width="5.447" height="2.947"/>
					<path fill="#BBBCBE" d="M40.265,135.934v0.422H29.73c-0.25,0-0.461-0.182-0.508-0.422H40.265z"/>
				</g>
				<g>
					<path fill="#E7E6E6" d="M29.211,131.08v1.893c0,0.039,0.003,0.072,0.011,0.107c0.047,0.24,0.257,0.42,0.508,0.42h13.327
						c0.25,0,0.457-0.18,0.508-0.42c0.007-0.035,0.007-0.068,0.007-0.107v-1.893c0-0.291-0.229-0.525-0.515-0.525H29.73
						C29.443,130.555,29.211,130.789,29.211,131.08z"/>
					<path fill="#D1D2D2" d="M42.042,130.555v2.945h1.016c0.25,0,0.457-0.18,0.508-0.42c0.007-0.035,0.007-0.068,0.007-0.107v-1.893
						c0-0.291-0.229-0.525-0.515-0.525H42.042z"/>
					<path fill="#BBBCBE" d="M43.565,133.08c-0.051,0.24-0.258,0.42-0.508,0.42h-1.016v-0.42H43.565z"/>
					<rect x="40.265" y="130.555" fill="#E7E6E6" width="1.777" height="2.525"/>
					<rect x="40.265" y="133.08" fill="#BBBCBE" width="1.777" height="0.42"/>
					<rect x="30.542" y="130.555" fill="#D1D2D2" width="5.447" height="2.945"/>
					<path fill="#BBBCBE" d="M40.265,133.08v0.42H29.73c-0.25,0-0.461-0.18-0.508-0.42H40.265z"/>
				</g>
				<g>
					<path fill="#E7E6E6" d="M29.211,128.225v1.895c0,0.037,0.003,0.07,0.011,0.104c0.047,0.242,0.257,0.422,0.508,0.422h13.327
						c0.25,0,0.457-0.18,0.508-0.422c0.007-0.033,0.007-0.066,0.007-0.104v-1.895c0-0.291-0.229-0.527-0.515-0.527H29.73
						C29.443,127.697,29.211,127.934,29.211,128.225z"/>
					<path fill="#D1D2D2" d="M42.042,127.697v2.947h1.016c0.25,0,0.457-0.18,0.508-0.422c0.007-0.033,0.007-0.066,0.007-0.104
						v-1.895c0-0.291-0.229-0.527-0.515-0.527H42.042z"/>
					<path fill="#BBBCBE" d="M43.565,130.223c-0.051,0.242-0.258,0.422-0.508,0.422h-1.016v-0.422H43.565z"/>
					<rect x="40.265" y="127.697" fill="#E7E6E6" width="1.777" height="2.525"/>
					<rect x="40.265" y="130.223" fill="#BBBCBE" width="1.777" height="0.422"/>
					<rect x="30.542" y="127.697" fill="#D1D2D2" width="5.447" height="2.947"/>
					<path fill="#BBBCBE" d="M40.265,130.223v0.422H29.73c-0.25,0-0.461-0.18-0.508-0.422H40.265z"/>
				</g>
				<g>
					<path fill="#E7E6E6" d="M29.211,125.277v1.893c0,0.039,0.003,0.072,0.011,0.107c0.047,0.24,0.257,0.42,0.508,0.42h13.327
						c0.25,0,0.457-0.18,0.508-0.42c0.007-0.035,0.007-0.068,0.007-0.107v-1.893c0-0.291-0.229-0.527-0.515-0.527H29.73
						C29.443,124.75,29.211,124.986,29.211,125.277z"/>
					<path fill="#D1D2D2" d="M42.042,124.75v2.947h1.016c0.25,0,0.457-0.18,0.508-0.42c0.007-0.035,0.007-0.068,0.007-0.107v-1.893
						c0-0.291-0.229-0.527-0.515-0.527H42.042z"/>
					<path fill="#BBBCBE" d="M43.565,127.277c-0.051,0.24-0.258,0.42-0.508,0.42h-1.016v-0.42H43.565z"/>
					<rect x="40.265" y="124.75" fill="#E7E6E6" width="1.777" height="2.527"/>
					<rect x="40.265" y="127.277" fill="#BBBCBE" width="1.777" height="0.42"/>
					<rect x="30.542" y="124.75" fill="#D1D2D2" width="5.447" height="2.947"/>
					<path fill="#BBBCBE" d="M40.265,127.277v0.42H29.73c-0.25,0-0.461-0.18-0.508-0.42H40.265z"/>
				</g>
			</g>
			<g>
				<g>
					<path fill="#E7E6E6" d="M29.211,122.33v1.895c0,0.035,0.003,0.07,0.011,0.105c0.047,0.238,0.257,0.42,0.508,0.42h13.327
						c0.25,0,0.457-0.182,0.508-0.42c0.007-0.035,0.007-0.07,0.007-0.105v-1.895c0-0.291-0.229-0.527-0.515-0.527H29.73
						C29.443,121.803,29.211,122.039,29.211,122.33z"/>
					<path fill="#D1D2D2" d="M42.042,121.803v2.947h1.016c0.25,0,0.457-0.182,0.508-0.42c0.007-0.035,0.007-0.07,0.007-0.105v-1.895
						c0-0.291-0.229-0.527-0.515-0.527H42.042z"/>
					<path fill="#BBBCBE" d="M43.565,124.33c-0.051,0.238-0.258,0.42-0.508,0.42h-1.016v-0.42H43.565z"/>
					<rect x="40.265" y="121.803" fill="#E7E6E6" width="1.777" height="2.527"/>
					<rect x="40.265" y="124.33" fill="#BBBCBE" width="1.777" height="0.42"/>
					<rect x="30.542" y="121.803" fill="#D1D2D2" width="5.447" height="2.947"/>
					<path fill="#BBBCBE" d="M40.265,124.33v0.42H29.73c-0.25,0-0.461-0.182-0.508-0.42H40.265z"/>
				</g>
				<g>
					<path fill="#E7E6E6" d="M29.211,119.561v1.895c0,0.037,0.003,0.072,0.011,0.104c0.047,0.242,0.257,0.424,0.508,0.424h13.327
						c0.25,0,0.457-0.182,0.508-0.424c0.007-0.031,0.007-0.066,0.007-0.104v-1.895c0-0.291-0.229-0.527-0.515-0.527H29.73
						C29.443,119.033,29.211,119.27,29.211,119.561z"/>
					<path fill="#D1D2D2" d="M42.042,119.033v2.949h1.016c0.25,0,0.457-0.182,0.508-0.424c0.007-0.031,0.007-0.066,0.007-0.104
						v-1.895c0-0.291-0.229-0.527-0.515-0.527H42.042z"/>
					<path fill="#BBBCBE" d="M43.565,121.559c-0.051,0.242-0.258,0.424-0.508,0.424h-1.016v-0.424H43.565z"/>
					<rect x="40.265" y="119.033" fill="#E7E6E6" width="1.777" height="2.525"/>
					<rect x="40.265" y="121.559" fill="#BBBCBE" width="1.777" height="0.424"/>
					<rect x="30.542" y="119.033" fill="#D1D2D2" width="5.447" height="2.949"/>
					<path fill="#BBBCBE" d="M40.265,121.559v0.424H29.73c-0.25,0-0.461-0.182-0.508-0.424H40.265z"/>
				</g>
				<g>
					<path fill="#E7E6E6" d="M29.211,116.707v1.891c0,0.039,0.003,0.074,0.011,0.107c0.047,0.242,0.257,0.42,0.508,0.42h13.327
						c0.25,0,0.457-0.178,0.508-0.42c0.007-0.033,0.007-0.068,0.007-0.107v-1.891c0-0.293-0.229-0.527-0.515-0.527H29.73
						C29.443,116.18,29.211,116.414,29.211,116.707z"/>
					<path fill="#D1D2D2" d="M42.042,116.18v2.945h1.016c0.25,0,0.457-0.178,0.508-0.42c0.007-0.033,0.007-0.068,0.007-0.107v-1.891
						c0-0.293-0.229-0.527-0.515-0.527H42.042z"/>
					<path fill="#BBBCBE" d="M43.565,118.705c-0.051,0.242-0.258,0.42-0.508,0.42h-1.016v-0.42H43.565z"/>
					<rect x="40.265" y="116.18" fill="#E7E6E6" width="1.777" height="2.525"/>
					<rect x="40.265" y="118.705" fill="#BBBCBE" width="1.777" height="0.42"/>
					<rect x="30.542" y="116.18" fill="#D1D2D2" width="5.447" height="2.945"/>
					<path fill="#BBBCBE" d="M40.265,118.705v0.42H29.73c-0.25,0-0.461-0.178-0.508-0.42H40.265z"/>
				</g>
			</g>
			<g>
				<g>
					<path fill="#E7E6E6" d="M29.211,165.453v1.895c0,0.035,0.003,0.068,0.011,0.105c0.047,0.238,0.257,0.42,0.508,0.42h13.327
						c0.25,0,0.457-0.182,0.508-0.42c0.007-0.037,0.007-0.07,0.007-0.105v-1.895c0-0.293-0.229-0.527-0.515-0.527H29.73
						C29.443,164.926,29.211,165.16,29.211,165.453z"/>
					<path fill="#D1D2D2" d="M42.042,164.926v2.947h1.016c0.25,0,0.457-0.182,0.508-0.42c0.007-0.037,0.007-0.07,0.007-0.105v-1.895
						c0-0.293-0.229-0.527-0.515-0.527H42.042z"/>
					<path fill="#BBBCBE" d="M43.565,167.453c-0.051,0.238-0.258,0.42-0.508,0.42h-1.016v-0.42H43.565z"/>
					<rect x="40.265" y="164.926" fill="#E7E6E6" width="1.777" height="2.527"/>
					<rect x="40.265" y="167.453" fill="#BBBCBE" width="1.777" height="0.42"/>
					<rect x="30.542" y="164.926" fill="#D1D2D2" width="5.447" height="2.947"/>
					<path fill="#BBBCBE" d="M40.265,167.453v0.42H29.73c-0.25,0-0.461-0.182-0.508-0.42H40.265z"/>
				</g>
				<g>
					<path fill="#E7E6E6" d="M29.211,162.684v1.895c0,0.037,0.003,0.072,0.011,0.105c0.047,0.24,0.257,0.422,0.508,0.422h13.327
						c0.25,0,0.457-0.182,0.508-0.422c0.007-0.033,0.007-0.068,0.007-0.105v-1.895c0-0.289-0.229-0.527-0.515-0.527H29.73
						C29.443,162.156,29.211,162.395,29.211,162.684z"/>
					<path fill="#D1D2D2" d="M42.042,162.156v2.949h1.016c0.25,0,0.457-0.182,0.508-0.422c0.007-0.033,0.007-0.068,0.007-0.105
						v-1.895c0-0.289-0.229-0.527-0.515-0.527H42.042z"/>
					<path fill="#BBBCBE" d="M43.565,164.684c-0.051,0.24-0.258,0.422-0.508,0.422h-1.016v-0.422H43.565z"/>
					<rect x="40.265" y="162.156" fill="#E7E6E6" width="1.777" height="2.527"/>
					<rect x="40.265" y="164.684" fill="#BBBCBE" width="1.777" height="0.422"/>
					<rect x="30.542" y="162.156" fill="#D1D2D2" width="5.447" height="2.949"/>
					<path fill="#BBBCBE" d="M40.265,164.684v0.422H29.73c-0.25,0-0.461-0.182-0.508-0.422H40.265z"/>
				</g>
				<g>
					<path fill="#E7E6E6" d="M29.211,159.828v1.893c0,0.041,0.003,0.072,0.011,0.107c0.047,0.242,0.257,0.424,0.508,0.424h13.327
						c0.25,0,0.457-0.182,0.508-0.424c0.007-0.035,0.007-0.066,0.007-0.107v-1.893c0-0.291-0.229-0.527-0.515-0.527H29.73
						C29.443,159.301,29.211,159.537,29.211,159.828z"/>
					<path fill="#D1D2D2" d="M42.042,159.301v2.951h1.016c0.25,0,0.457-0.182,0.508-0.424c0.007-0.035,0.007-0.066,0.007-0.107
						v-1.893c0-0.291-0.229-0.527-0.515-0.527H42.042z"/>
					<path fill="#BBBCBE" d="M43.565,161.828c-0.051,0.242-0.258,0.424-0.508,0.424h-1.016v-0.424H43.565z"/>
					<rect x="40.265" y="159.301" fill="#E7E6E6" width="1.777" height="2.527"/>
					<rect x="40.265" y="161.828" fill="#BBBCBE" width="1.777" height="0.424"/>
					<rect x="30.542" y="159.301" fill="#D1D2D2" width="5.447" height="2.951"/>
					<path fill="#BBBCBE" d="M40.265,161.828v0.424H29.73c-0.25,0-0.461-0.182-0.508-0.424H40.265z"/>
				</g>
				<g>
					<path fill="#E7E6E6" d="M29.211,156.973v1.895c0,0.037,0.003,0.072,0.011,0.105c0.047,0.242,0.257,0.422,0.508,0.422h13.327
						c0.25,0,0.457-0.18,0.508-0.422c0.007-0.033,0.007-0.068,0.007-0.105v-1.895c0-0.291-0.229-0.525-0.515-0.525H29.73
						C29.443,156.447,29.211,156.682,29.211,156.973z"/>
					<path fill="#D1D2D2" d="M42.042,156.447v2.947h1.016c0.25,0,0.457-0.18,0.508-0.422c0.007-0.033,0.007-0.068,0.007-0.105
						v-1.895c0-0.291-0.229-0.525-0.515-0.525H42.042z"/>
					<path fill="#BBBCBE" d="M43.565,158.973c-0.051,0.242-0.258,0.422-0.508,0.422h-1.016v-0.422H43.565z"/>
					<rect x="40.265" y="156.447" fill="#E7E6E6" width="1.777" height="2.525"/>
					<rect x="40.265" y="158.973" fill="#BBBCBE" width="1.777" height="0.422"/>
					<rect x="30.542" y="156.447" fill="#D1D2D2" width="5.447" height="2.947"/>
					<path fill="#BBBCBE" d="M40.265,158.973v0.422H29.73c-0.25,0-0.461-0.18-0.508-0.422H40.265z"/>
				</g>
				<g>
					<path fill="#E7E6E6" d="M29.211,154.025v1.893c0,0.039,0.003,0.072,0.011,0.107c0.047,0.24,0.257,0.422,0.508,0.422h13.327
						c0.25,0,0.457-0.182,0.508-0.422c0.007-0.035,0.007-0.068,0.007-0.107v-1.893c0-0.293-0.229-0.527-0.515-0.527H29.73
						C29.443,153.498,29.211,153.732,29.211,154.025z"/>
					<path fill="#D1D2D2" d="M42.042,153.498v2.949h1.016c0.25,0,0.457-0.182,0.508-0.422c0.007-0.035,0.007-0.068,0.007-0.107
						v-1.893c0-0.293-0.229-0.527-0.515-0.527H42.042z"/>
					<path fill="#BBBCBE" d="M43.565,156.025c-0.051,0.24-0.258,0.422-0.508,0.422h-1.016v-0.422H43.565z"/>
					<rect x="40.265" y="153.498" fill="#E7E6E6" width="1.777" height="2.527"/>
					<rect x="40.265" y="156.025" fill="#BBBCBE" width="1.777" height="0.422"/>
					<rect x="30.542" y="153.498" fill="#D1D2D2" width="5.447" height="2.949"/>
					<path fill="#BBBCBE" d="M40.265,156.025v0.422H29.73c-0.25,0-0.461-0.182-0.508-0.422H40.265z"/>
				</g>
			</g>
		</g>
		<g>
			<g>
				<g>
					<g>
						<path fill="#E7E6E6" d="M255.395,86.997v1.894c0,0.036,0.004,0.072,0.007,0.104c0.051,0.242,0.262,0.423,0.508,0.423h13.331
							c0.247,0,0.457-0.181,0.508-0.423c0.007-0.032,0.007-0.068,0.007-0.104v-1.894c0-0.292-0.231-0.525-0.515-0.525h-13.331
							C255.626,86.471,255.395,86.705,255.395,86.997z"/>
						<path fill="#D1D2D2" d="M268.225,86.471v2.946h1.016c0.247,0,0.457-0.181,0.508-0.423c0.007-0.032,0.007-0.068,0.007-0.104
							v-1.894c0-0.292-0.231-0.525-0.515-0.525H268.225z"/>
						<path fill="#BBBCBE" d="M269.748,88.995c-0.051,0.242-0.261,0.423-0.508,0.423h-1.016v-0.423H269.748z"/>
						<rect x="266.448" y="86.471" fill="#E7E6E6" width="1.776" height="2.523"/>
						<rect x="266.448" y="88.995" fill="#BBBCBE" width="1.776" height="0.423"/>
						<rect x="256.726" y="86.471" fill="#D1D2D2" width="5.446" height="2.946"/>
						<path fill="#BBBCBE" d="M266.448,88.995v0.423h-10.539c-0.246,0-0.457-0.181-0.508-0.423H266.448z"/>
					</g>
				</g>
				<g>
					<g>
						<path fill="#E7E6E6" d="M255.395,84.05v1.893c0,0.036,0.004,0.07,0.007,0.105c0.051,0.242,0.262,0.423,0.508,0.423h13.331
							c0.247,0,0.457-0.181,0.508-0.423c0.007-0.035,0.007-0.069,0.007-0.105V84.05c0-0.293-0.231-0.527-0.515-0.527h-13.331
							C255.626,83.523,255.395,83.757,255.395,84.05z"/>
						<path fill="#D1D2D2" d="M268.225,83.523v2.948h1.016c0.247,0,0.457-0.181,0.508-0.423c0.007-0.035,0.007-0.069,0.007-0.105
							V84.05c0-0.293-0.231-0.527-0.515-0.527H268.225z"/>
						<path fill="#BBBCBE" d="M269.748,86.048c-0.051,0.242-0.261,0.423-0.508,0.423h-1.016v-0.423H269.748z"/>
						<rect x="266.448" y="83.523" fill="#E7E6E6" width="1.776" height="2.525"/>
						<rect x="266.448" y="86.048" fill="#BBBCBE" width="1.776" height="0.423"/>
						<rect x="256.726" y="83.523" fill="#D1D2D2" width="5.446" height="2.948"/>
						<path fill="#BBBCBE" d="M266.448,86.048v0.423h-10.539c-0.246,0-0.457-0.181-0.508-0.423H266.448z"/>
					</g>
				</g>
				<g>
					<g>
						<path fill="#E7E6E6" d="M255.395,81.104v1.893c0,0.036,0.004,0.072,0.007,0.104c0.051,0.242,0.262,0.422,0.508,0.422h13.331
							c0.247,0,0.457-0.18,0.508-0.422c0.007-0.032,0.007-0.068,0.007-0.104v-1.893c0-0.293-0.231-0.528-0.515-0.528h-13.331
							C255.626,80.576,255.395,80.811,255.395,81.104z"/>
						<path fill="#D1D2D2" d="M268.225,80.576v2.947h1.016c0.247,0,0.457-0.18,0.508-0.422c0.007-0.032,0.007-0.068,0.007-0.104
							v-1.893c0-0.293-0.231-0.528-0.515-0.528H268.225z"/>
						<path fill="#BBBCBE" d="M269.748,83.101c-0.051,0.242-0.261,0.422-0.508,0.422h-1.016v-0.422H269.748z"/>
						<rect x="266.448" y="80.576" fill="#E7E6E6" width="1.776" height="2.525"/>
						<rect x="266.448" y="83.101" fill="#BBBCBE" width="1.776" height="0.422"/>
						<rect x="256.726" y="80.576" fill="#D1D2D2" width="5.446" height="2.947"/>
						<path fill="#BBBCBE" d="M266.448,83.101v0.422h-10.539c-0.246,0-0.457-0.18-0.508-0.422H266.448z"/>
					</g>
				</g>
				<g>
					<g>
						<path fill="#E7E6E6" d="M255.395,78.158v1.893c0,0.036,0.004,0.072,0.007,0.104c0.051,0.242,0.262,0.421,0.508,0.421h13.331
							c0.247,0,0.457-0.179,0.508-0.421c0.007-0.032,0.007-0.068,0.007-0.104v-1.893c0-0.293-0.231-0.528-0.515-0.528h-13.331
							C255.626,77.629,255.395,77.865,255.395,78.158z"/>
						<path fill="#D1D2D2" d="M268.225,77.629v2.946h1.016c0.247,0,0.457-0.179,0.508-0.421c0.007-0.032,0.007-0.068,0.007-0.104
							v-1.893c0-0.293-0.231-0.528-0.515-0.528H268.225z"/>
						<path fill="#BBBCBE" d="M269.748,80.155c-0.051,0.242-0.261,0.421-0.508,0.421h-1.016v-0.421H269.748z"/>
						<rect x="266.448" y="77.629" fill="#E7E6E6" width="1.776" height="2.525"/>
						<rect x="266.448" y="80.155" fill="#BBBCBE" width="1.776" height="0.421"/>
						<rect x="256.726" y="77.629" fill="#D1D2D2" width="5.446" height="2.946"/>
						<path fill="#BBBCBE" d="M266.448,80.155v0.421h-10.539c-0.246,0-0.457-0.179-0.508-0.421H266.448z"/>
					</g>
				</g>
			</g>
			<g>
				<g>
					<g>
						<g>
							<path fill="#E7E6E6" d="M255.395,136.014v1.895c0,0.037,0.004,0.072,0.007,0.107c0.051,0.24,0.262,0.42,0.508,0.42h13.327
								c0.251,0,0.461-0.18,0.512-0.42c0.007-0.035,0.007-0.07,0.007-0.107v-1.895c0-0.291-0.231-0.525-0.519-0.525h-13.327
								C255.626,135.488,255.395,135.723,255.395,136.014z"/>
							<path fill="#D1D2D2" d="M268.225,135.488v2.947h1.012c0.251,0,0.461-0.18,0.512-0.42c0.007-0.035,0.007-0.07,0.007-0.107
								v-1.895c0-0.291-0.231-0.525-0.519-0.525H268.225z"/>
							<path fill="#BBBCBE" d="M269.748,138.016c-0.051,0.24-0.261,0.42-0.512,0.42h-1.012v-0.42H269.748z"/>
							<rect x="266.448" y="135.488" fill="#E7E6E6" width="1.776" height="2.527"/>
							<rect x="266.448" y="138.016" fill="#BBBCBE" width="1.776" height="0.42"/>
							<rect x="256.722" y="135.488" fill="#D1D2D2" width="5.45" height="2.947"/>
							<path fill="#BBBCBE" d="M266.448,138.016v0.42h-10.539c-0.246,0-0.457-0.18-0.508-0.42H266.448z"/>
						</g>
						<g>
							<path fill="#E7E6E6" d="M255.395,133.066v1.893c0,0.039,0.004,0.072,0.007,0.107c0.051,0.24,0.262,0.422,0.508,0.422h13.327
								c0.251,0,0.461-0.182,0.512-0.422c0.007-0.035,0.007-0.068,0.007-0.107v-1.893c0-0.291-0.231-0.527-0.519-0.527h-13.327
								C255.626,132.539,255.395,132.775,255.395,133.066z"/>
							<path fill="#D1D2D2" d="M268.225,132.539v2.949h1.012c0.251,0,0.461-0.182,0.512-0.422c0.007-0.035,0.007-0.068,0.007-0.107
								v-1.893c0-0.291-0.231-0.527-0.519-0.527H268.225z"/>
							<path fill="#BBBCBE" d="M269.748,135.066c-0.051,0.24-0.261,0.422-0.512,0.422h-1.012v-0.422H269.748z"/>
							<rect x="266.448" y="132.539" fill="#E7E6E6" width="1.776" height="2.527"/>
							<rect x="266.448" y="135.066" fill="#BBBCBE" width="1.776" height="0.422"/>
							<rect x="256.722" y="132.539" fill="#D1D2D2" width="5.45" height="2.949"/>
							<path fill="#BBBCBE" d="M266.448,135.066v0.422h-10.539c-0.246,0-0.457-0.182-0.508-0.422H266.448z"/>
						</g>
					</g>
					<g>
						<g>
							<path fill="#E7E6E6" d="M255.395,130.121v1.893c0,0.035,0.004,0.07,0.007,0.105c0.051,0.24,0.262,0.42,0.508,0.42h13.331
								c0.247,0,0.457-0.18,0.508-0.42c0.007-0.035,0.007-0.07,0.007-0.105v-1.893c0-0.291-0.231-0.529-0.515-0.529h-13.331
								C255.626,129.592,255.395,129.83,255.395,130.121z"/>
							<path fill="#D1D2D2" d="M268.225,129.592v2.947h1.016c0.247,0,0.457-0.18,0.508-0.42c0.007-0.035,0.007-0.07,0.007-0.105
								v-1.893c0-0.291-0.231-0.529-0.515-0.529H268.225z"/>
							<path fill="#BBBCBE" d="M269.748,132.119c-0.051,0.24-0.261,0.42-0.508,0.42h-1.016v-0.42H269.748z"/>
							<rect x="266.448" y="129.592" fill="#E7E6E6" width="1.776" height="2.527"/>
							<rect x="266.448" y="132.119" fill="#BBBCBE" width="1.776" height="0.42"/>
							<rect x="256.726" y="129.592" fill="#D1D2D2" width="5.446" height="2.947"/>
							<path fill="#BBBCBE" d="M266.448,132.119v0.42h-10.539c-0.246,0-0.457-0.18-0.508-0.42H266.448z"/>
						</g>
						<g>
							<path fill="#E7E6E6" d="M255.395,127.354v1.893c0,0.035,0.004,0.072,0.007,0.105c0.051,0.24,0.262,0.42,0.508,0.42h13.331
								c0.247,0,0.457-0.18,0.508-0.42c0.007-0.033,0.007-0.07,0.007-0.105v-1.893c0-0.293-0.231-0.529-0.515-0.529h-13.331
								C255.626,126.824,255.395,127.061,255.395,127.354z"/>
							<path fill="#D1D2D2" d="M268.225,126.824v2.947h1.016c0.247,0,0.457-0.18,0.508-0.42c0.007-0.033,0.007-0.07,0.007-0.105
								v-1.893c0-0.293-0.231-0.529-0.515-0.529H268.225z"/>
							<path fill="#BBBCBE" d="M269.748,129.352c-0.051,0.24-0.261,0.42-0.508,0.42h-1.016v-0.42H269.748z"/>
							<rect x="266.448" y="126.824" fill="#E7E6E6" width="1.776" height="2.527"/>
							<rect x="266.448" y="129.352" fill="#BBBCBE" width="1.776" height="0.42"/>
							<rect x="256.726" y="126.824" fill="#D1D2D2" width="5.446" height="2.947"/>
							<path fill="#BBBCBE" d="M266.448,129.352v0.42h-10.539c-0.246,0-0.457-0.18-0.508-0.42H266.448z"/>
						</g>
						<g>
							<path fill="#E7E6E6" d="M255.395,124.496v1.893c0,0.039,0.004,0.07,0.007,0.107c0.051,0.24,0.262,0.422,0.508,0.422h13.331
								c0.247,0,0.457-0.182,0.508-0.422c0.007-0.037,0.007-0.068,0.007-0.107v-1.893c0-0.293-0.231-0.525-0.515-0.525h-13.331
								C255.626,123.971,255.395,124.203,255.395,124.496z"/>
							<path fill="#D1D2D2" d="M268.225,123.971v2.947h1.016c0.247,0,0.457-0.182,0.508-0.422c0.007-0.037,0.007-0.068,0.007-0.107
								v-1.893c0-0.293-0.231-0.525-0.515-0.525H268.225z"/>
							<path fill="#BBBCBE" d="M269.748,126.496c-0.051,0.24-0.261,0.422-0.508,0.422h-1.016v-0.422H269.748z"/>
							<rect x="266.448" y="123.971" fill="#E7E6E6" width="1.776" height="2.525"/>
							<rect x="266.448" y="126.496" fill="#BBBCBE" width="1.776" height="0.422"/>
							<rect x="256.726" y="123.971" fill="#D1D2D2" width="5.446" height="2.947"/>
							<path fill="#BBBCBE" d="M266.448,126.496v0.422h-10.539c-0.246,0-0.457-0.182-0.508-0.422H266.448z"/>
						</g>
						<g>
							<path fill="#E7E6E6" d="M255.395,121.641v1.895c0,0.035,0.004,0.07,0.007,0.105c0.051,0.24,0.262,0.422,0.508,0.422h13.327
								c0.251,0,0.461-0.182,0.512-0.422c0.007-0.035,0.007-0.07,0.007-0.105v-1.895c0-0.293-0.231-0.527-0.519-0.527h-13.327
								C255.626,121.113,255.395,121.348,255.395,121.641z"/>
							<path fill="#D1D2D2" d="M268.225,121.113v2.949h1.012c0.251,0,0.461-0.182,0.512-0.422c0.007-0.035,0.007-0.07,0.007-0.105
								v-1.895c0-0.293-0.231-0.527-0.519-0.527H268.225z"/>
							<path fill="#BBBCBE" d="M269.748,123.641c-0.051,0.24-0.261,0.422-0.512,0.422h-1.012v-0.422H269.748z"/>
							<rect x="266.448" y="121.113" fill="#E7E6E6" width="1.776" height="2.527"/>
							<rect x="266.448" y="123.641" fill="#BBBCBE" width="1.776" height="0.422"/>
							<rect x="256.722" y="121.113" fill="#D1D2D2" width="5.45" height="2.949"/>
							<path fill="#BBBCBE" d="M266.448,123.641v0.422h-10.539c-0.246,0-0.457-0.182-0.508-0.422H266.448z"/>
						</g>
						<g>
							<path fill="#E7E6E6" d="M255.395,118.693v1.893c0,0.037,0.004,0.072,0.007,0.105c0.051,0.24,0.262,0.422,0.508,0.422h13.327
								c0.251,0,0.461-0.182,0.512-0.422c0.007-0.033,0.007-0.068,0.007-0.105v-1.893c0-0.293-0.231-0.529-0.519-0.529h-13.327
								C255.626,118.164,255.395,118.4,255.395,118.693z"/>
							<path fill="#D1D2D2" d="M268.225,118.164v2.949h1.012c0.251,0,0.461-0.182,0.512-0.422c0.007-0.033,0.007-0.068,0.007-0.105
								v-1.893c0-0.293-0.231-0.529-0.519-0.529H268.225z"/>
							<path fill="#BBBCBE" d="M269.748,120.691c-0.051,0.24-0.261,0.422-0.512,0.422h-1.012v-0.422H269.748z"/>
							<rect x="266.448" y="118.164" fill="#E7E6E6" width="1.776" height="2.527"/>
							<rect x="266.448" y="120.691" fill="#BBBCBE" width="1.776" height="0.422"/>
							<rect x="256.722" y="118.164" fill="#D1D2D2" width="5.45" height="2.949"/>
							<path fill="#BBBCBE" d="M266.448,120.691v0.422h-10.539c-0.246,0-0.457-0.182-0.508-0.422H266.448z"/>
						</g>
					</g>
					<g>
						<g>
							<path fill="#E7E6E6" d="M255.395,115.746v1.893c0,0.035,0.004,0.072,0.007,0.105c0.051,0.24,0.262,0.42,0.508,0.42h13.331
								c0.247,0,0.457-0.18,0.508-0.42c0.007-0.033,0.007-0.07,0.007-0.105v-1.893c0-0.293-0.231-0.527-0.515-0.527h-13.331
								C255.626,115.219,255.395,115.453,255.395,115.746z"/>
							<path fill="#D1D2D2" d="M268.225,115.219v2.945h1.016c0.247,0,0.457-0.18,0.508-0.42c0.007-0.033,0.007-0.07,0.007-0.105
								v-1.893c0-0.293-0.231-0.527-0.515-0.527H268.225z"/>
							<path fill="#BBBCBE" d="M269.748,117.744c-0.051,0.24-0.261,0.42-0.508,0.42h-1.016v-0.42H269.748z"/>
							<rect x="266.448" y="115.219" fill="#E7E6E6" width="1.776" height="2.525"/>
							<rect x="266.448" y="117.744" fill="#BBBCBE" width="1.776" height="0.42"/>
							<rect x="256.726" y="115.219" fill="#D1D2D2" width="5.446" height="2.945"/>
							<path fill="#BBBCBE" d="M266.448,117.744v0.42h-10.539c-0.246,0-0.457-0.18-0.508-0.42H266.448z"/>
						</g>
						<g>
							<path fill="#E7E6E6" d="M255.395,112.979v1.895c0,0.033,0.004,0.07,0.007,0.104c0.051,0.24,0.262,0.422,0.508,0.422h13.331
								c0.247,0,0.457-0.182,0.508-0.422c0.007-0.033,0.007-0.07,0.007-0.104v-1.895c0-0.293-0.231-0.529-0.515-0.529h-13.331
								C255.626,112.449,255.395,112.686,255.395,112.979z"/>
							<path fill="#D1D2D2" d="M268.225,112.449v2.949h1.016c0.247,0,0.457-0.182,0.508-0.422c0.007-0.033,0.007-0.07,0.007-0.104
								v-1.895c0-0.293-0.231-0.529-0.515-0.529H268.225z"/>
							<path fill="#BBBCBE" d="M269.748,114.977c-0.051,0.24-0.261,0.422-0.508,0.422h-1.016v-0.422H269.748z"/>
							<rect x="266.448" y="112.449" fill="#E7E6E6" width="1.776" height="2.527"/>
							<rect x="266.448" y="114.977" fill="#BBBCBE" width="1.776" height="0.422"/>
							<rect x="256.726" y="112.449" fill="#D1D2D2" width="5.446" height="2.949"/>
							<path fill="#BBBCBE" d="M266.448,114.977v0.422h-10.539c-0.246,0-0.457-0.182-0.508-0.422H266.448z"/>
						</g>
						<g>
							<path fill="#E7E6E6" d="M255.395,110.121v1.895c0,0.037,0.004,0.07,0.007,0.107c0.051,0.24,0.262,0.42,0.508,0.42h13.331
								c0.247,0,0.457-0.18,0.508-0.42c0.007-0.037,0.007-0.07,0.007-0.107v-1.895c0-0.293-0.231-0.525-0.515-0.525h-13.331
								C255.626,109.596,255.395,109.828,255.395,110.121z"/>
							<path fill="#D1D2D2" d="M268.225,109.596v2.947h1.016c0.247,0,0.457-0.18,0.508-0.42c0.007-0.037,0.007-0.07,0.007-0.107
								v-1.895c0-0.293-0.231-0.525-0.515-0.525H268.225z"/>
							<path fill="#BBBCBE" d="M269.748,112.123c-0.051,0.24-0.261,0.42-0.508,0.42h-1.016v-0.42H269.748z"/>
							<rect x="266.448" y="109.596" fill="#E7E6E6" width="1.776" height="2.527"/>
							<rect x="266.448" y="112.123" fill="#BBBCBE" width="1.776" height="0.42"/>
							<rect x="256.726" y="109.596" fill="#D1D2D2" width="5.446" height="2.947"/>
							<path fill="#BBBCBE" d="M266.448,112.123v0.42h-10.539c-0.246,0-0.457-0.18-0.508-0.42H266.448z"/>
						</g>
						<g>
							<path fill="#E7E6E6" d="M255.395,107.268v1.893c0,0.035,0.004,0.07,0.007,0.105c0.051,0.242,0.262,0.422,0.508,0.422h13.327
								c0.251,0,0.461-0.18,0.512-0.422c0.007-0.035,0.007-0.07,0.007-0.105v-1.893c0-0.293-0.231-0.527-0.519-0.527h-13.327
								C255.626,106.74,255.395,106.975,255.395,107.268z"/>
							<path fill="#D1D2D2" d="M268.225,106.74v2.947h1.012c0.251,0,0.461-0.18,0.512-0.422c0.007-0.035,0.007-0.07,0.007-0.105
								v-1.893c0-0.293-0.231-0.527-0.519-0.527H268.225z"/>
							<path fill="#BBBCBE" d="M269.748,109.266c-0.051,0.242-0.261,0.422-0.512,0.422h-1.012v-0.422H269.748z"/>
							<rect x="266.448" y="106.74" fill="#E7E6E6" width="1.776" height="2.525"/>
							<rect x="266.448" y="109.266" fill="#BBBCBE" width="1.776" height="0.422"/>
							<rect x="256.722" y="106.74" fill="#D1D2D2" width="5.45" height="2.947"/>
							<path fill="#BBBCBE" d="M266.448,109.266v0.422h-10.539c-0.246,0-0.457-0.18-0.508-0.422H266.448z"/>
						</g>
						<g>
							<path fill="#E7E6E6" d="M255.395,104.318v1.895c0,0.037,0.004,0.07,0.007,0.105c0.051,0.242,0.262,0.422,0.508,0.422h13.327
								c0.251,0,0.461-0.18,0.512-0.422c0.007-0.035,0.007-0.068,0.007-0.105v-1.895c0-0.291-0.231-0.528-0.519-0.528h-13.327
								C255.626,103.791,255.395,104.027,255.395,104.318z"/>
							<path fill="#D1D2D2" d="M268.225,103.791v2.95h1.012c0.251,0,0.461-0.18,0.512-0.422c0.007-0.035,0.007-0.068,0.007-0.105
								v-1.895c0-0.291-0.231-0.528-0.519-0.528H268.225z"/>
							<path fill="#BBBCBE" d="M269.748,106.318c-0.051,0.242-0.261,0.422-0.512,0.422h-1.012v-0.422H269.748z"/>
							<rect x="266.448" y="103.791" fill="#E7E6E6" width="1.776" height="2.528"/>
							<rect x="266.448" y="106.318" fill="#BBBCBE" width="1.776" height="0.422"/>
							<rect x="256.722" y="103.791" fill="#D1D2D2" width="5.45" height="2.95"/>
							<path fill="#BBBCBE" d="M266.448,106.318v0.422h-10.539c-0.246,0-0.457-0.18-0.508-0.422H266.448z"/>
						</g>
					</g>
					<g>
						<g>
							<path fill="#E7E6E6" d="M255.395,101.371v1.895c0,0.036,0.004,0.07,0.007,0.104c0.051,0.242,0.262,0.421,0.508,0.421h13.331
								c0.247,0,0.457-0.179,0.508-0.421c0.007-0.034,0.007-0.068,0.007-0.104v-1.895c0-0.291-0.231-0.526-0.515-0.526h-13.331
								C255.626,100.844,255.395,101.08,255.395,101.371z"/>
							<path fill="#D1D2D2" d="M268.225,100.844v2.946h1.016c0.247,0,0.457-0.179,0.508-0.421c0.007-0.034,0.007-0.068,0.007-0.104
								v-1.895c0-0.291-0.231-0.526-0.515-0.526H268.225z"/>
							<path fill="#BBBCBE" d="M269.748,103.37c-0.051,0.242-0.261,0.421-0.508,0.421h-1.016v-0.421H269.748z"/>
							<rect x="266.448" y="100.844" fill="#E7E6E6" width="1.776" height="2.525"/>
							<rect x="266.448" y="103.37" fill="#BBBCBE" width="1.776" height="0.421"/>
							<rect x="256.726" y="100.844" fill="#D1D2D2" width="5.446" height="2.946"/>
							<path fill="#BBBCBE" d="M266.448,103.37v0.421h-10.539c-0.246,0-0.457-0.179-0.508-0.421H266.448z"/>
						</g>
						<g>
							<path fill="#E7E6E6" d="M255.395,98.603v1.895c0,0.034,0.004,0.07,0.007,0.104c0.051,0.242,0.262,0.421,0.508,0.421h13.331
								c0.247,0,0.457-0.179,0.508-0.421c0.007-0.034,0.007-0.07,0.007-0.104v-1.895c0-0.291-0.231-0.528-0.515-0.528h-13.331
								C255.626,98.075,255.395,98.312,255.395,98.603z"/>
							<path fill="#D1D2D2" d="M268.225,98.075v2.948h1.016c0.247,0,0.457-0.179,0.508-0.421c0.007-0.034,0.007-0.07,0.007-0.104
								v-1.895c0-0.291-0.231-0.528-0.515-0.528H268.225z"/>
							<path fill="#BBBCBE" d="M269.748,100.602c-0.051,0.242-0.261,0.421-0.508,0.421h-1.016v-0.421H269.748z"/>
							<rect x="266.448" y="98.075" fill="#E7E6E6" width="1.776" height="2.527"/>
							<rect x="266.448" y="100.602" fill="#BBBCBE" width="1.776" height="0.421"/>
							<rect x="256.726" y="98.075" fill="#D1D2D2" width="5.446" height="2.948"/>
							<path fill="#BBBCBE" d="M266.448,100.602v0.421h-10.539c-0.246,0-0.457-0.179-0.508-0.421H266.448z"/>
						</g>
						<g>
							<path fill="#E7E6E6" d="M255.395,95.749v1.893c0,0.036,0.004,0.07,0.007,0.106c0.051,0.24,0.262,0.421,0.508,0.421h13.331
								c0.247,0,0.457-0.181,0.508-0.421c0.007-0.036,0.007-0.07,0.007-0.106v-1.893c0-0.293-0.231-0.528-0.515-0.528h-13.331
								C255.626,95.22,255.395,95.456,255.395,95.749z"/>
							<path fill="#D1D2D2" d="M268.225,95.22v2.948h1.016c0.247,0,0.457-0.181,0.508-0.421c0.007-0.036,0.007-0.07,0.007-0.106
								v-1.893c0-0.293-0.231-0.528-0.515-0.528H268.225z"/>
							<path fill="#BBBCBE" d="M269.748,97.748c-0.051,0.24-0.261,0.421-0.508,0.421h-1.016v-0.421H269.748z"/>
							<rect x="266.448" y="95.22" fill="#E7E6E6" width="1.776" height="2.527"/>
							<rect x="266.448" y="97.748" fill="#BBBCBE" width="1.776" height="0.421"/>
							<rect x="256.726" y="95.22" fill="#D1D2D2" width="5.446" height="2.948"/>
							<path fill="#BBBCBE" d="M266.448,97.748v0.421h-10.539c-0.246,0-0.457-0.181-0.508-0.421H266.448z"/>
						</g>
						<g>
							<path fill="#E7E6E6" d="M255.395,92.892v1.895c0,0.034,0.004,0.07,0.007,0.104c0.051,0.241,0.262,0.423,0.508,0.423h13.327
								c0.251,0,0.461-0.182,0.512-0.423c0.007-0.034,0.007-0.07,0.007-0.104v-1.895c0-0.291-0.231-0.526-0.519-0.526h-13.327
								C255.626,92.366,255.395,92.601,255.395,92.892z"/>
							<path fill="#D1D2D2" d="M268.225,92.366v2.948h1.012c0.251,0,0.461-0.182,0.512-0.423c0.007-0.034,0.007-0.07,0.007-0.104
								v-1.895c0-0.291-0.231-0.526-0.519-0.526H268.225z"/>
							<path fill="#BBBCBE" d="M269.748,94.891c-0.051,0.241-0.261,0.423-0.512,0.423h-1.012v-0.423H269.748z"/>
							<rect x="266.448" y="92.366" fill="#E7E6E6" width="1.776" height="2.525"/>
							<rect x="266.448" y="94.891" fill="#BBBCBE" width="1.776" height="0.423"/>
							<rect x="256.722" y="92.366" fill="#D1D2D2" width="5.45" height="2.948"/>
							<path fill="#BBBCBE" d="M266.448,94.891v0.423h-10.539c-0.246,0-0.457-0.182-0.508-0.423H266.448z"/>
						</g>
						<g>
							<path fill="#E7E6E6" d="M255.395,89.944v1.895c0,0.036,0.004,0.072,0.007,0.104c0.051,0.242,0.262,0.423,0.508,0.423h13.327
								c0.251,0,0.461-0.181,0.512-0.423c0.007-0.032,0.007-0.068,0.007-0.104v-1.895c0-0.291-0.231-0.526-0.519-0.526h-13.327
								C255.626,89.417,255.395,89.653,255.395,89.944z"/>
							<path fill="#D1D2D2" d="M268.225,89.417v2.948h1.012c0.251,0,0.461-0.181,0.512-0.423c0.007-0.032,0.007-0.068,0.007-0.104
								v-1.895c0-0.291-0.231-0.526-0.519-0.526H268.225z"/>
							<path fill="#BBBCBE" d="M269.748,91.943c-0.051,0.242-0.261,0.423-0.512,0.423h-1.012v-0.423H269.748z"/>
							<rect x="266.448" y="89.417" fill="#E7E6E6" width="1.776" height="2.525"/>
							<rect x="266.448" y="91.943" fill="#BBBCBE" width="1.776" height="0.423"/>
							<rect x="256.722" y="89.417" fill="#D1D2D2" width="5.45" height="2.948"/>
							<path fill="#BBBCBE" d="M266.448,91.943v0.423h-10.539c-0.246,0-0.457-0.181-0.508-0.423H266.448z"/>
						</g>
					</g>
				</g>
				<g>
					<g>
						<path fill="#FDD35A" d="M255.395,179.828v1.893c0,0.037,0.004,0.07,0.007,0.105c0.051,0.242,0.262,0.422,0.508,0.422h13.331
							c0.247,0,0.457-0.18,0.508-0.422c0.007-0.035,0.007-0.068,0.007-0.105v-1.893c0-0.293-0.231-0.529-0.515-0.529h-13.331
							C255.626,179.299,255.395,179.535,255.395,179.828z"/>
						<path fill="#F8BC34" d="M268.225,179.299v2.949h1.016c0.247,0,0.457-0.18,0.508-0.422c0.007-0.035,0.007-0.068,0.007-0.105
							v-1.893c0-0.293-0.231-0.529-0.515-0.529H268.225z"/>
						<path fill="#ECA423" d="M269.748,181.826c-0.051,0.242-0.261,0.422-0.508,0.422h-1.016v-0.422H269.748z"/>
						<rect x="266.448" y="179.299" fill="#FDD35A" width="1.776" height="2.527"/>
						<rect x="266.448" y="181.826" fill="#ECA423" width="1.776" height="0.422"/>
						<rect x="256.726" y="179.299" fill="#F8BC34" width="5.446" height="2.949"/>
						<path fill="#ECA423" d="M266.448,181.826v0.422h-10.539c-0.246,0-0.457-0.18-0.508-0.422H266.448z"/>
					</g>
					<g>
						<path fill="#FDD35A" d="M255.395,177.059v1.895c0,0.035,0.004,0.072,0.007,0.104c0.051,0.242,0.262,0.424,0.508,0.424h13.331
							c0.247,0,0.457-0.182,0.508-0.424c0.007-0.031,0.007-0.068,0.007-0.104v-1.895c0-0.291-0.231-0.527-0.515-0.527h-13.331
							C255.626,176.531,255.395,176.768,255.395,177.059z"/>
						<path fill="#F8BC34" d="M268.225,176.531v2.949h1.016c0.247,0,0.457-0.182,0.508-0.424c0.007-0.031,0.007-0.068,0.007-0.104
							v-1.895c0-0.291-0.231-0.527-0.515-0.527H268.225z"/>
						<path fill="#ECA423" d="M269.748,179.057c-0.051,0.242-0.261,0.424-0.508,0.424h-1.016v-0.424H269.748z"/>
						<rect x="266.448" y="176.531" fill="#FDD35A" width="1.776" height="2.525"/>
						<rect x="266.448" y="179.057" fill="#ECA423" width="1.776" height="0.424"/>
						<rect x="256.726" y="176.531" fill="#F8BC34" width="5.446" height="2.949"/>
						<path fill="#ECA423" d="M266.448,179.057v0.424h-10.539c-0.246,0-0.457-0.182-0.508-0.424H266.448z"/>
					</g>
					<g>
						<path fill="#FDD35A" d="M255.395,174.203v1.895c0,0.037,0.004,0.07,0.007,0.105c0.051,0.242,0.262,0.422,0.508,0.422h13.331
							c0.247,0,0.457-0.18,0.508-0.422c0.007-0.035,0.007-0.068,0.007-0.105v-1.895c0-0.293-0.231-0.527-0.515-0.527h-13.331
							C255.626,173.676,255.395,173.91,255.395,174.203z"/>
						<path fill="#F8BC34" d="M268.225,173.676v2.949h1.016c0.247,0,0.457-0.18,0.508-0.422c0.007-0.035,0.007-0.068,0.007-0.105
							v-1.895c0-0.293-0.231-0.527-0.515-0.527H268.225z"/>
						<path fill="#ECA423" d="M269.748,176.203c-0.051,0.242-0.261,0.422-0.508,0.422h-1.016v-0.422H269.748z"/>
						<rect x="266.448" y="173.676" fill="#FDD35A" width="1.776" height="2.527"/>
						<rect x="266.448" y="176.203" fill="#ECA423" width="1.776" height="0.422"/>
						<rect x="256.726" y="173.676" fill="#F8BC34" width="5.446" height="2.949"/>
						<path fill="#ECA423" d="M266.448,176.203v0.422h-10.539c-0.246,0-0.457-0.18-0.508-0.422H266.448z"/>
					</g>
					<g>
						<path fill="#FDD35A" d="M255.395,171.348v1.895c0,0.035,0.004,0.07,0.007,0.105c0.051,0.242,0.262,0.42,0.508,0.42h13.327
							c0.251,0,0.461-0.178,0.512-0.42c0.007-0.035,0.007-0.07,0.007-0.105v-1.895c0-0.291-0.231-0.525-0.519-0.525h-13.327
							C255.626,170.822,255.395,171.057,255.395,171.348z"/>
						<path fill="#F8BC34" d="M268.225,170.822v2.945h1.012c0.251,0,0.461-0.178,0.512-0.42c0.007-0.035,0.007-0.07,0.007-0.105
							v-1.895c0-0.291-0.231-0.525-0.519-0.525H268.225z"/>
						<path fill="#ECA423" d="M269.748,173.348c-0.051,0.242-0.261,0.42-0.512,0.42h-1.012v-0.42H269.748z"/>
						<rect x="266.448" y="170.822" fill="#FDD35A" width="1.776" height="2.525"/>
						<rect x="266.448" y="173.348" fill="#ECA423" width="1.776" height="0.42"/>
						<rect x="256.722" y="170.822" fill="#F8BC34" width="5.45" height="2.945"/>
						<path fill="#ECA423" d="M266.448,173.348v0.42h-10.539c-0.246,0-0.457-0.178-0.508-0.42H266.448z"/>
					</g>
					<g>
						<path fill="#FDD35A" d="M255.395,168.398v1.895c0,0.039,0.004,0.072,0.007,0.105c0.051,0.242,0.262,0.424,0.508,0.424h13.327
							c0.251,0,0.461-0.182,0.512-0.424c0.007-0.033,0.007-0.066,0.007-0.105v-1.895c0-0.291-0.231-0.525-0.519-0.525h-13.327
							C255.626,167.873,255.395,168.107,255.395,168.398z"/>
						<path fill="#F8BC34" d="M268.225,167.873v2.949h1.012c0.251,0,0.461-0.182,0.512-0.424c0.007-0.033,0.007-0.066,0.007-0.105
							v-1.895c0-0.291-0.231-0.525-0.519-0.525H268.225z"/>
						<path fill="#ECA423" d="M269.748,170.398c-0.051,0.242-0.261,0.424-0.512,0.424h-1.012v-0.424H269.748z"/>
						<rect x="266.448" y="167.873" fill="#FDD35A" width="1.776" height="2.525"/>
						<rect x="266.448" y="170.398" fill="#ECA423" width="1.776" height="0.424"/>
						<rect x="256.722" y="167.873" fill="#F8BC34" width="5.45" height="2.949"/>
						<path fill="#ECA423" d="M266.448,170.398v0.424h-10.539c-0.246,0-0.457-0.182-0.508-0.424H266.448z"/>
					</g>
					<g>
						<path fill="#FDD35A" d="M255.395,165.453v1.895c0,0.035,0.004,0.068,0.007,0.105c0.051,0.238,0.262,0.42,0.508,0.42h13.327
							c0.251,0,0.461-0.182,0.512-0.42c0.007-0.037,0.007-0.07,0.007-0.105v-1.895c0-0.293-0.231-0.527-0.519-0.527h-13.327
							C255.626,164.926,255.395,165.16,255.395,165.453z"/>
						<path fill="#F8BC34" d="M268.225,164.926v2.947h1.012c0.251,0,0.461-0.182,0.512-0.42c0.007-0.037,0.007-0.07,0.007-0.105
							v-1.895c0-0.293-0.231-0.527-0.519-0.527H268.225z"/>
						<path fill="#ECA423" d="M269.748,167.453c-0.051,0.238-0.261,0.42-0.512,0.42h-1.012v-0.42H269.748z"/>
						<rect x="266.448" y="164.926" fill="#FDD35A" width="1.776" height="2.527"/>
						<rect x="266.448" y="167.453" fill="#ECA423" width="1.776" height="0.42"/>
						<rect x="256.722" y="164.926" fill="#F8BC34" width="5.45" height="2.947"/>
						<path fill="#ECA423" d="M266.448,167.453v0.42h-10.539c-0.246,0-0.457-0.182-0.508-0.42H266.448z"/>
					</g>
					<g>
						<path fill="#FDD35A" d="M255.395,162.506v1.893c0,0.037,0.004,0.07,0.007,0.107c0.051,0.24,0.262,0.42,0.508,0.42h13.327
							c0.251,0,0.461-0.18,0.512-0.42c0.007-0.037,0.007-0.07,0.007-0.107v-1.893c0-0.293-0.231-0.525-0.519-0.525h-13.327
							C255.626,161.98,255.395,162.213,255.395,162.506z"/>
						<path fill="#F8BC34" d="M268.225,161.98v2.945h1.012c0.251,0,0.461-0.18,0.512-0.42c0.007-0.037,0.007-0.07,0.007-0.107
							v-1.893c0-0.293-0.231-0.525-0.519-0.525H268.225z"/>
						<path fill="#ECA423" d="M269.748,164.506c-0.051,0.24-0.261,0.42-0.512,0.42h-1.012v-0.42H269.748z"/>
						<rect x="266.448" y="161.98" fill="#FDD35A" width="1.776" height="2.525"/>
						<rect x="266.448" y="164.506" fill="#ECA423" width="1.776" height="0.42"/>
						<rect x="256.722" y="161.98" fill="#F8BC34" width="5.45" height="2.945"/>
						<path fill="#ECA423" d="M266.448,164.506v0.42h-10.539c-0.246,0-0.457-0.18-0.508-0.42H266.448z"/>
					</g>
					<g>
						<path fill="#FDD35A" d="M255.395,159.557v1.895c0,0.037,0.004,0.072,0.007,0.105c0.051,0.242,0.262,0.424,0.508,0.424h13.327
							c0.251,0,0.461-0.182,0.512-0.424c0.007-0.033,0.007-0.068,0.007-0.105v-1.895c0-0.291-0.231-0.525-0.519-0.525h-13.327
							C255.626,159.031,255.395,159.266,255.395,159.557z"/>
						<path fill="#F8BC34" d="M268.225,159.031v2.949h1.012c0.251,0,0.461-0.182,0.512-0.424c0.007-0.033,0.007-0.068,0.007-0.105
							v-1.895c0-0.291-0.231-0.525-0.519-0.525H268.225z"/>
						<path fill="#ECA423" d="M269.748,161.557c-0.051,0.242-0.261,0.424-0.512,0.424h-1.012v-0.424H269.748z"/>
						<rect x="266.448" y="159.031" fill="#FDD35A" width="1.776" height="2.525"/>
						<rect x="266.448" y="161.557" fill="#ECA423" width="1.776" height="0.424"/>
						<rect x="256.722" y="159.031" fill="#F8BC34" width="5.45" height="2.949"/>
						<path fill="#ECA423" d="M266.448,161.557v0.424h-10.539c-0.246,0-0.457-0.182-0.508-0.424H266.448z"/>
					</g>
					<g>
						<path fill="#FDD35A" d="M255.395,156.609v1.895c0,0.035,0.004,0.07,0.007,0.105c0.051,0.242,0.262,0.422,0.508,0.422h13.327
							c0.251,0,0.461-0.18,0.512-0.422c0.007-0.035,0.007-0.07,0.007-0.105v-1.895c0-0.293-0.231-0.525-0.519-0.525h-13.327
							C255.626,156.084,255.395,156.316,255.395,156.609z"/>
						<path fill="#F8BC34" d="M268.225,156.084v2.947h1.012c0.251,0,0.461-0.18,0.512-0.422c0.007-0.035,0.007-0.07,0.007-0.105
							v-1.895c0-0.293-0.231-0.525-0.519-0.525H268.225z"/>
						<path fill="#ECA423" d="M269.748,158.609c-0.051,0.242-0.261,0.422-0.512,0.422h-1.012v-0.422H269.748z"/>
						<rect x="266.448" y="156.084" fill="#FDD35A" width="1.776" height="2.525"/>
						<rect x="266.448" y="158.609" fill="#ECA423" width="1.776" height="0.422"/>
						<rect x="256.722" y="156.084" fill="#F8BC34" width="5.45" height="2.947"/>
						<path fill="#ECA423" d="M266.448,158.609v0.422h-10.539c-0.246,0-0.457-0.18-0.508-0.422H266.448z"/>
					</g>
					<g>
						<path fill="#FDD35A" d="M255.395,153.662v1.893c0,0.037,0.004,0.07,0.007,0.107c0.051,0.24,0.262,0.422,0.508,0.422h13.327
							c0.251,0,0.461-0.182,0.512-0.422c0.007-0.037,0.007-0.07,0.007-0.107v-1.893c0-0.293-0.231-0.527-0.519-0.527h-13.327
							C255.626,153.135,255.395,153.369,255.395,153.662z"/>
						<path fill="#F8BC34" d="M268.225,153.135v2.949h1.012c0.251,0,0.461-0.182,0.512-0.422c0.007-0.037,0.007-0.07,0.007-0.107
							v-1.893c0-0.293-0.231-0.527-0.519-0.527H268.225z"/>
						<path fill="#ECA423" d="M269.748,155.662c-0.051,0.24-0.261,0.422-0.512,0.422h-1.012v-0.422H269.748z"/>
						<rect x="266.448" y="153.135" fill="#FDD35A" width="1.776" height="2.527"/>
						<rect x="266.448" y="155.662" fill="#ECA423" width="1.776" height="0.422"/>
						<rect x="256.722" y="153.135" fill="#F8BC34" width="5.45" height="2.949"/>
						<path fill="#ECA423" d="M266.448,155.662v0.422h-10.539c-0.246,0-0.457-0.182-0.508-0.422H266.448z"/>
					</g>
					<g>
						<path fill="#FDD35A" d="M255.395,150.715v1.895c0,0.033,0.004,0.07,0.007,0.104c0.051,0.24,0.262,0.422,0.508,0.422h13.327
							c0.251,0,0.461-0.182,0.512-0.422c0.007-0.033,0.007-0.07,0.007-0.104v-1.895c0-0.293-0.231-0.529-0.519-0.529h-13.327
							C255.626,150.186,255.395,150.422,255.395,150.715z"/>
						<path fill="#F8BC34" d="M268.225,150.186v2.949h1.012c0.251,0,0.461-0.182,0.512-0.422c0.007-0.033,0.007-0.07,0.007-0.104
							v-1.895c0-0.293-0.231-0.529-0.519-0.529H268.225z"/>
						<path fill="#ECA423" d="M269.748,152.713c-0.051,0.24-0.261,0.422-0.512,0.422h-1.012v-0.422H269.748z"/>
						<rect x="266.448" y="150.186" fill="#FDD35A" width="1.776" height="2.527"/>
						<rect x="266.448" y="152.713" fill="#ECA423" width="1.776" height="0.422"/>
						<rect x="256.722" y="150.186" fill="#F8BC34" width="5.45" height="2.949"/>
						<path fill="#ECA423" d="M266.448,152.713v0.422h-10.539c-0.246,0-0.457-0.182-0.508-0.422H266.448z"/>
					</g>
					<g>
						<path fill="#FDD35A" d="M255.395,147.766v1.895c0,0.037,0.004,0.072,0.007,0.104c0.051,0.242,0.262,0.422,0.508,0.422h13.327
							c0.251,0,0.461-0.18,0.512-0.422c0.007-0.031,0.007-0.066,0.007-0.104v-1.895c0-0.291-0.231-0.527-0.519-0.527h-13.327
							C255.626,147.238,255.395,147.475,255.395,147.766z"/>
						<path fill="#F8BC34" d="M268.225,147.238v2.947h1.012c0.251,0,0.461-0.18,0.512-0.422c0.007-0.031,0.007-0.066,0.007-0.104
							v-1.895c0-0.291-0.231-0.527-0.519-0.527H268.225z"/>
						<path fill="#ECA423" d="M269.748,149.764c-0.051,0.242-0.261,0.422-0.512,0.422h-1.012v-0.422H269.748z"/>
						<rect x="266.448" y="147.238" fill="#FDD35A" width="1.776" height="2.525"/>
						<rect x="266.448" y="149.764" fill="#ECA423" width="1.776" height="0.422"/>
						<rect x="256.722" y="147.238" fill="#F8BC34" width="5.45" height="2.947"/>
						<path fill="#ECA423" d="M266.448,149.764v0.422h-10.539c-0.246,0-0.457-0.18-0.508-0.422H266.448z"/>
					</g>
					<g>
						<path fill="#FDD35A" d="M255.395,144.816v1.895c0,0.037,0.004,0.072,0.007,0.104c0.051,0.242,0.262,0.424,0.508,0.424h13.327
							c0.251,0,0.461-0.182,0.512-0.424c0.007-0.031,0.007-0.066,0.007-0.104v-1.895c0-0.291-0.231-0.527-0.519-0.527h-13.327
							C255.626,144.289,255.395,144.525,255.395,144.816z"/>
						<path fill="#F8BC34" d="M268.225,144.289v2.949h1.012c0.251,0,0.461-0.182,0.512-0.424c0.007-0.031,0.007-0.066,0.007-0.104
							v-1.895c0-0.291-0.231-0.527-0.519-0.527H268.225z"/>
						<path fill="#ECA423" d="M269.748,146.814c-0.051,0.242-0.261,0.424-0.512,0.424h-1.012v-0.424H269.748z"/>
						<rect x="266.448" y="144.289" fill="#FDD35A" width="1.776" height="2.525"/>
						<rect x="266.448" y="146.814" fill="#ECA423" width="1.776" height="0.424"/>
						<rect x="256.722" y="144.289" fill="#F8BC34" width="5.45" height="2.949"/>
						<path fill="#ECA423" d="M266.448,146.814v0.424h-10.539c-0.246,0-0.457-0.182-0.508-0.424H266.448z"/>
					</g>
					<g>
						<path fill="#FDD35A" d="M255.395,141.869v1.895c0,0.035,0.004,0.07,0.007,0.104c0.051,0.242,0.262,0.422,0.508,0.422h13.327
							c0.251,0,0.461-0.18,0.512-0.422c0.007-0.033,0.007-0.068,0.007-0.104v-1.895c0-0.293-0.231-0.527-0.519-0.527h-13.327
							C255.626,141.342,255.395,141.576,255.395,141.869z"/>
						<path fill="#F8BC34" d="M268.225,141.342v2.947h1.012c0.251,0,0.461-0.18,0.512-0.422c0.007-0.033,0.007-0.068,0.007-0.104
							v-1.895c0-0.293-0.231-0.527-0.519-0.527H268.225z"/>
						<path fill="#ECA423" d="M269.748,143.867c-0.051,0.242-0.261,0.422-0.512,0.422h-1.012v-0.422H269.748z"/>
						<rect x="266.448" y="141.342" fill="#FDD35A" width="1.776" height="2.525"/>
						<rect x="266.448" y="143.867" fill="#ECA423" width="1.776" height="0.422"/>
						<rect x="256.722" y="141.342" fill="#F8BC34" width="5.45" height="2.947"/>
						<path fill="#ECA423" d="M266.448,143.867v0.422h-10.539c-0.246,0-0.457-0.18-0.508-0.422H266.448z"/>
					</g>
					<g>
						<path fill="#FDD35A" d="M255.395,138.92v1.893c0,0.039,0.004,0.072,0.007,0.105c0.051,0.242,0.262,0.424,0.508,0.424h13.327
							c0.251,0,0.461-0.182,0.512-0.424c0.007-0.033,0.007-0.066,0.007-0.105v-1.893c0-0.291-0.231-0.527-0.519-0.527h-13.327
							C255.626,138.393,255.395,138.629,255.395,138.92z"/>
						<path fill="#F8BC34" d="M268.225,138.393v2.949h1.012c0.251,0,0.461-0.182,0.512-0.424c0.007-0.033,0.007-0.066,0.007-0.105
							v-1.893c0-0.291-0.231-0.527-0.519-0.527H268.225z"/>
						<path fill="#ECA423" d="M269.748,140.918c-0.051,0.242-0.261,0.424-0.512,0.424h-1.012v-0.424H269.748z"/>
						<rect x="266.448" y="138.393" fill="#FDD35A" width="1.776" height="2.525"/>
						<rect x="266.448" y="140.918" fill="#ECA423" width="1.776" height="0.424"/>
						<rect x="256.722" y="138.393" fill="#F8BC34" width="5.45" height="2.949"/>
						<path fill="#ECA423" d="M266.448,140.918v0.424h-10.539c-0.246,0-0.457-0.182-0.508-0.424H266.448z"/>
					</g>
				</g>
			</g>
		</g>
		<g>
			<g>
				<line fill="none" x1="36.392" y1="182.492" x2="36.392" y2="180.018"/>
				<line fill="none" x1="56.954" y1="182.492" x2="56.954" y2="180.018"/>
				<line fill="none" x1="77.509" y1="182.492" x2="77.509" y2="180.018"/>
				<line fill="none" x1="98.063" y1="182.492" x2="98.063" y2="180.018"/>
				<line fill="none" x1="118.626" y1="182.492" x2="118.626" y2="180.018"/>
				<line fill="none" x1="139.181" y1="182.492" x2="139.181" y2="180.018"/>
				<line fill="none" x1="159.739" y1="182.492" x2="159.739" y2="180.018"/>
				<line fill="none" x1="180.298" y1="182.492" x2="180.298" y2="180.018"/>
				<line fill="none" x1="200.853" y1="182.492" x2="200.853" y2="180.018"/>
				<line fill="none" x1="221.414" y1="182.492" x2="221.414" y2="180.018"/>
				<line fill="none" x1="241.969" y1="182.492" x2="241.969" y2="180.018"/>
			</g>
			<rect x="20.123" y="182.432" width="260.972" height="0.525"/>
		</g>
		<g>
			<g>
				
					<rect x="45.947" y="156.744" transform="matrix(0.0849 0.9964 -0.9964 0.0849 209.2022 106.3239)" fill="#048743" width="1.535" height="20.632"/>
				
					<rect x="66.504" y="155.131" transform="matrix(0.0707 0.9975 -0.9975 0.0707 227.5362 86.636)" fill="#048743" width="1.533" height="20.609"/>
				
					<rect x="87.064" y="153.44" transform="matrix(0.0899 0.996 -0.996 0.0899 243.0291 61.5624)" fill="#048743" width="1.532" height="20.638"/>
				
					<rect x="107.62" y="151.649" transform="matrix(0.0846 0.9964 -0.9964 0.0846 260.6002 40.2606)" fill="#048743" width="1.535" height="20.635"/>
				
					<rect x="128.179" y="149.643" transform="matrix(0.1087 0.9941 -0.9941 0.1087 273.9656 14.4106)" fill="#048743" width="1.536" height="20.676"/>
				
					<rect x="148.738" y="147.454" transform="matrix(0.1038 0.9946 -0.9946 0.1038 290.9257 -7.2844)" fill="#048743" width="1.534" height="20.673"/>
				
					<rect x="169.298" y="144.984" transform="matrix(0.1327 0.9912 -0.9912 0.1327 301.4804 -33.8184)" fill="#048743" width="1.531" height="20.736"/>
				
					<rect x="189.853" y="142.182" transform="matrix(0.1375 0.9905 -0.9905 0.1375 315.5206 -57.2268)" fill="#048743" width="1.534" height="20.756"/>
				
					<rect x="210.411" y="140.035" transform="matrix(0.0751 0.9972 -0.9972 0.0751 345.2294 -71.5341)" fill="#048743" width="1.534" height="20.618"/>
				<polygon fill="#048743" points="221.479,150.322 221.437,148.789 241.854,148.213 262.125,139.938 262.705,141.355 
					242.038,149.742 				"/>
			</g>
		</g>
		<g>
			<rect x="33.824" y="165.332" fill="#048743" width="5.222" height="5.201"/>
			<rect x="54.386" y="163.588" fill="#048743" width="5.218" height="5.203"/>
			<rect x="74.941" y="162.082" fill="#048743" width="5.222" height="5.201"/>
			<rect x="95.5" y="160.232" fill="#048743" width="5.218" height="5.203"/>
			<rect x="116.058" y="158.498" fill="#048743" width="5.223" height="5.205"/>
			<rect x="136.616" y="156.26" fill="#048743" width="5.219" height="5.203"/>
			<rect x="157.175" y="154.117" fill="#048743" width="5.219" height="5.199"/>
			<rect x="177.729" y="151.385" fill="#048743" width="5.223" height="5.203"/>
			<rect x="198.292" y="148.531" fill="#048743" width="5.215" height="5.201"/>
			<rect x="218.847" y="146.953" fill="#048743" width="5.223" height="5.203"/>
			<rect x="239.405" y="146.371" fill="#048743" width="5.219" height="5.205"/>
			<rect x="259.964" y="138.182" fill="#048743" width="5.222" height="5.205"/>
		</g>
		<g>
			<g>
				
					<rect x="46.203" y="104.338" transform="matrix(0.1772 0.9842 -0.9842 0.1772 151.3954 48.4597)" fill="#79CBC5" width="1.022" height="20.881"/>
				
					<rect x="66.761" y="101.377" transform="matrix(0.1203 0.9927 -0.9927 0.1203 170.099 31.5061)" fill="#79CBC5" width="1.023" height="20.703"/>
				<polygon fill="#79CBC5" points="77.636,111.012 77.469,110.002 98.023,106.676 98.19,107.686 				"/>
				<polygon fill="#79CBC5" points="98.194,107.686 98.02,106.676 118.582,103.216 118.756,104.225 				"/>
				<polygon fill="#79CBC5" points="118.749,104.225 118.589,103.216 139.145,100.045 139.304,101.054 				"/>
				
					<rect x="148.994" y="88.406" transform="matrix(0.1633 0.9866 -0.9866 0.1633 222.5912 -64.8084)" fill="#79CBC5" width="1.023" height="20.847"/>
				
					<rect x="169.553" y="84.79" transform="matrix(0.1779 0.9841 -0.9841 0.1779 233.5314 -89.055)" fill="#79CBC5" width="1.021" height="20.893"/>
				
					<rect x="190.11" y="81.129" transform="matrix(0.1705 0.9854 -0.9854 0.1705 248.353 -111.8735)" fill="#79CBC5" width="1.02" height="20.871"/>
				
					<rect x="210.667" y="77.97" transform="matrix(0.1347 0.9909 -0.9909 0.1347 270.2675 -132.809)" fill="#79CBC5" width="1.022" height="20.753"/>
				<polygon fill="#79CBC5" points="242.118,88.284 221.437,87.438 221.479,86.418 241.915,87.253 262.288,77.918 262.716,78.848 
									"/>
			</g>
		</g>
		<g>
			<rect x="33.824" y="114.004" fill="#79CBC5" width="5.222" height="5.205"/>
			<rect x="54.386" y="110.348" fill="#79CBC5" width="5.218" height="5.207"/>
			<rect x="74.941" y="107.904" fill="#79CBC5" width="5.222" height="5.205"/>
			<rect x="95.5" y="104.578" fill="#79CBC5" width="5.218" height="5.201"/>
			<rect x="116.058" y="101.119" fill="#79CBC5" width="5.223" height="5.204"/>
			<rect x="136.616" y="97.947" fill="#79CBC5" width="5.219" height="5.202"/>
			<rect x="157.175" y="94.504" fill="#79CBC5" width="5.219" height="5.203"/>
			<rect x="177.729" y="90.762" fill="#79CBC5" width="5.223" height="5.203"/>
			<rect x="198.292" y="87.162" fill="#79CBC5" width="5.215" height="5.204"/>
			<rect x="218.847" y="84.327" fill="#79CBC5" width="5.223" height="5.205"/>
			<rect x="239.405" y="85.166" fill="#79CBC5" width="5.219" height="5.205"/>
			<rect x="259.964" y="76.053" fill="#79CBC5" width="5.222" height="5.204"/>
		</g>
		<g>
			<g>
				<path fill="#231F20" d="M53.146,193.791h-3.514v-0.455l1.806-1.73c0.547-0.584,0.95-1.033,0.95-1.645
					c-0.022-0.627-0.424-0.918-0.965-0.918c-0.598,0-1.041,0.428-1.041,1.025l-0.646-0.107c0.138-0.961,0.83-1.48,1.722-1.48
					s1.585,0.541,1.585,1.467c0,0.775-0.5,1.316-1.095,1.908l-1.461,1.443c0.199-0.057,0.417-0.084,0.591-0.084h2.067V193.791z"/>
				<path fill="#231F20" d="M55.111,193.891c-1.088,0-1.922-0.846-1.922-2.697c0-1.859,0.834-2.705,1.922-2.705
					c1.077,0,1.918,0.846,1.918,2.705C57.03,193.045,56.188,193.891,55.111,193.891z M55.111,189.021
					c-0.667,0-1.258,0.541-1.258,2.172c0,1.623,0.591,2.17,1.258,2.17c0.66,0,1.262-0.547,1.262-2.17
					C56.374,189.563,55.771,189.021,55.111,189.021z"/>
				<path fill="#231F20" d="M60.439,193.791h-2.825v-0.527h1.161v-3.758c0-0.064,0-0.129,0.007-0.178l-0.95,0.848l-0.348-0.422
					l1.407-1.209h0.522v4.719h1.026V193.791z"/>
				<path fill="#231F20" d="M64.156,193.791h-2.829v-0.527h1.164v-3.758c0-0.064,0-0.129,0.007-0.178l-0.95,0.848l-0.352-0.422
					l1.407-1.209h0.522v4.719h1.03V193.791z"/>
			</g>
		</g>
		<g>
			<g>
				<path fill="#231F20" d="M73.701,193.791h-3.51v-0.455l1.806-1.73c0.547-0.584,0.95-1.033,0.95-1.645
					c-0.021-0.627-0.424-0.918-0.964-0.918c-0.602,0-1.044,0.428-1.044,1.025l-0.642-0.107c0.134-0.961,0.827-1.48,1.723-1.48
					c0.892,0,1.581,0.541,1.581,1.467c0,0.775-0.5,1.316-1.091,1.908l-1.461,1.443c0.196-0.057,0.413-0.084,0.591-0.084h2.063
					V193.791z"/>
				<path fill="#231F20" d="M75.667,193.891c-1.084,0-1.922-0.846-1.922-2.697c0-1.859,0.838-2.705,1.922-2.705
					c1.081,0,1.922,0.846,1.922,2.705C77.588,193.045,76.747,193.891,75.667,193.891z M75.667,189.021
					c-0.664,0-1.255,0.541-1.255,2.172c0,1.623,0.591,2.17,1.255,2.17s1.262-0.547,1.262-2.17
					C76.928,189.563,76.33,189.021,75.667,189.021z"/>
				<path fill="#231F20" d="M80.997,193.791h-2.829v-0.527h1.164v-3.758c0-0.064,0-0.129,0.007-0.178l-0.95,0.848l-0.352-0.422
					l1.407-1.209h0.522v4.719h1.03V193.791z"/>
				<path fill="#231F20" d="M84.849,193.791h-3.514v-0.455l1.806-1.73c0.547-0.584,0.95-1.033,0.95-1.645
					c-0.022-0.627-0.424-0.918-0.965-0.918c-0.598,0-1.041,0.428-1.041,1.025l-0.646-0.107c0.138-0.961,0.831-1.48,1.723-1.48
					s1.585,0.541,1.585,1.467c0,0.775-0.5,1.316-1.095,1.908l-1.461,1.443c0.199-0.057,0.417-0.084,0.591-0.084h2.067V193.791z"/>
			</g>
		</g>
		<g>
			<g>
				<path fill="#231F20" d="M94.256,193.791h-3.511v-0.455l1.806-1.73c0.552-0.584,0.95-1.033,0.95-1.645
					c-0.021-0.627-0.42-0.918-0.964-0.918c-0.603,0-1.045,0.428-1.045,1.025l-0.638-0.107c0.134-0.961,0.826-1.48,1.719-1.48
					c0.892,0,1.585,0.541,1.585,1.467c0,0.775-0.501,1.316-1.092,1.908l-1.466,1.443c0.2-0.057,0.414-0.084,0.596-0.084h2.06
					V193.791z"/>
				<path fill="#231F20" d="M96.222,193.891c-1.081,0-1.919-0.846-1.919-2.697c0-1.859,0.838-2.705,1.919-2.705
					c1.08,0,1.922,0.846,1.922,2.705C98.144,193.045,97.302,193.891,96.222,193.891z M96.222,189.021
					c-0.66,0-1.255,0.541-1.255,2.172c0,1.623,0.595,2.17,1.255,2.17c0.667,0,1.266-0.547,1.266-2.17
					C97.487,189.563,96.889,189.021,96.222,189.021z"/>
				<path fill="#231F20" d="M101.552,193.791h-2.828v-0.527h1.168v-3.758c0-0.064,0-0.129,0.007-0.178l-0.95,0.848l-0.352-0.422
					l1.407-1.209h0.519v4.719h1.029V193.791z"/>
				<path fill="#231F20" d="M103.739,188.488c0.91,0,1.548,0.555,1.548,1.352c0,0.684-0.348,1.025-0.921,1.217
					c0.689,0.17,1.045,0.605,1.045,1.26c0,0.955-0.791,1.566-1.771,1.566c-1.131,0-1.537-0.605-1.784-1.373l0.584-0.242
					c0.015,0.078,0.047,0.186,0.105,0.32c0.225,0.457,0.544,0.732,1.088,0.732c0.747,0,1.113-0.525,1.113-0.988
					c0-0.563-0.235-0.977-1.356-0.977v-0.469c0.921-0.021,1.251-0.398,1.251-0.939c0-0.598-0.388-0.889-0.936-0.889
					c-0.602,0-1.037,0.439-1.037,1.023l-0.649-0.105C102.154,189.029,102.847,188.488,103.739,188.488z"/>
			</g>
		</g>
		<g>
			<g>
				<path fill="#231F20" d="M114.817,193.791h-3.514v-0.455l1.806-1.73c0.548-0.584,0.95-1.033,0.95-1.645
					c-0.021-0.627-0.424-0.918-0.965-0.918c-0.598,0-1.04,0.428-1.04,1.025l-0.646-0.107c0.138-0.961,0.83-1.48,1.723-1.48
					c0.892,0,1.584,0.541,1.584,1.467c0,0.775-0.5,1.316-1.095,1.908l-1.462,1.443c0.2-0.057,0.417-0.084,0.592-0.084h2.066V193.791
					z"/>
				<path fill="#231F20" d="M116.783,193.891c-1.088,0-1.922-0.846-1.922-2.697c0-1.859,0.834-2.705,1.922-2.705
					c1.077,0,1.919,0.846,1.919,2.705C118.702,193.045,117.86,193.891,116.783,193.891z M116.783,189.021
					c-0.667,0-1.258,0.541-1.258,2.172c0,1.623,0.591,2.17,1.258,2.17c0.66,0,1.262-0.547,1.262-2.17
					C118.045,189.563,117.443,189.021,116.783,189.021z"/>
				<path fill="#231F20" d="M122.11,193.791h-2.825v-0.527h1.161v-3.758c0-0.064,0-0.129,0.007-0.178l-0.95,0.848l-0.348-0.422
					l1.407-1.209h0.521v4.719h1.026V193.791z"/>
				<path fill="#231F20" d="M126.212,192.402h-0.79v1.389h-0.58v-1.389h-2.611v-0.484l2.574-3.402h0.617v3.375h0.79V192.402z
					 M124.842,189.713c0-0.121,0.007-0.293,0.028-0.441l-1.929,2.619h1.9V189.713z"/>
			</g>
		</g>
		<g>
			<g>
				<path fill="#231F20" d="M135.373,193.791h-3.511v-0.455l1.806-1.73c0.552-0.584,0.95-1.033,0.95-1.645
					c-0.021-0.627-0.421-0.918-0.965-0.918c-0.602,0-1.044,0.428-1.044,1.025l-0.639-0.107c0.135-0.961,0.827-1.48,1.719-1.48
					c0.893,0,1.585,0.541,1.585,1.467c0,0.775-0.5,1.316-1.091,1.908l-1.466,1.443c0.2-0.057,0.414-0.084,0.595-0.084h2.061V193.791
					z"/>
				<path fill="#231F20" d="M137.338,193.891c-1.08,0-1.918-0.846-1.918-2.697c0-1.859,0.838-2.705,1.918-2.705
					c1.081,0,1.922,0.846,1.922,2.705C139.26,193.045,138.419,193.891,137.338,193.891z M137.338,189.021
					c-0.66,0-1.255,0.541-1.255,2.172c0,1.623,0.595,2.17,1.255,2.17c0.668,0,1.266-0.547,1.266-2.17
					C138.604,189.563,138.006,189.021,137.338,189.021z"/>
				<path fill="#231F20" d="M142.669,193.791h-2.828v-0.527h1.167v-3.758c0-0.064,0-0.129,0.008-0.178l-0.95,0.848l-0.352-0.422
					l1.406-1.209h0.52v4.719h1.029V193.791z"/>
				<path fill="#231F20" d="M144.743,190.424c1.106,0,1.697,0.684,1.697,1.596c0,1.109-0.834,1.834-1.9,1.834
					c-0.623,0-1.153-0.254-1.476-0.563l0.352-0.475c0.312,0.262,0.726,0.455,1.153,0.455c0.726,0,1.244-0.449,1.244-1.219
					c0-0.684-0.442-1.08-1.193-1.08c-0.275,0-0.551,0.063-0.855,0.17l-0.421-0.121l0.428-2.469h2.506v0.598h-2.049l-0.235,1.367
					C144.235,190.451,144.486,190.424,144.743,190.424z"/>
			</g>
		</g>
		<g>
			<g>
				<path fill="#231F20" d="M155.931,193.791h-3.514v-0.455l1.806-1.73c0.552-0.584,0.95-1.033,0.95-1.645
					c-0.021-0.627-0.42-0.918-0.964-0.918c-0.599,0-1.041,0.428-1.041,1.025l-0.643-0.107c0.139-0.961,0.827-1.48,1.72-1.48
					c0.892,0,1.588,0.541,1.588,1.467c0,0.775-0.5,1.316-1.095,1.908l-1.466,1.443c0.203-0.057,0.417-0.084,0.595-0.084h2.063
					V193.791z"/>
				<path fill="#231F20" d="M157.896,193.891c-1.084,0-1.918-0.846-1.918-2.697c0-1.859,0.834-2.705,1.918-2.705
					c1.077,0,1.919,0.846,1.919,2.705C159.815,193.045,158.974,193.891,157.896,193.891z M157.896,189.021
					c-0.663,0-1.258,0.541-1.258,2.172c0,1.623,0.595,2.17,1.258,2.17c0.664,0,1.266-0.547,1.266-2.17
					C159.162,189.563,158.561,189.021,157.896,189.021z"/>
				<path fill="#231F20" d="M163.224,193.791h-2.825v-0.527h1.165v-3.758c0-0.064,0-0.129,0.007-0.178l-0.95,0.848l-0.348-0.422
					l1.406-1.209h0.519v4.719h1.026V193.791z"/>
				<path fill="#231F20" d="M164.656,190.859c0.258-0.172,0.548-0.271,0.899-0.271c0.859,0,1.57,0.568,1.57,1.572
					c0,0.969-0.74,1.723-1.813,1.723c-1.063,0-1.755-0.713-1.755-1.793c0-0.463,0.192-0.988,0.649-1.588l1.454-1.957h0.823
					l-1.578,1.973C164.783,190.688,164.707,190.801,164.656,190.859z M166.47,192.211c0-0.691-0.479-1.117-1.128-1.117
					c-0.7,0-1.149,0.512-1.149,1.102c0,0.684,0.396,1.141,1.105,1.141C165.991,193.336,166.47,192.857,166.47,192.211z"/>
			</g>
		</g>
		<g>
			<g>
				<path fill="#231F20" d="M176.489,193.791h-3.51v-0.455l1.806-1.73c0.551-0.584,0.95-1.033,0.95-1.645
					c-0.021-0.627-0.421-0.918-0.965-0.918c-0.602,0-1.044,0.428-1.044,1.025l-0.639-0.107c0.134-0.961,0.827-1.48,1.719-1.48
					c0.893,0,1.585,0.541,1.585,1.467c0,0.775-0.5,1.316-1.092,1.908l-1.465,1.443c0.199-0.057,0.413-0.084,0.595-0.084h2.06
					V193.791z"/>
				<path fill="#231F20" d="M178.455,193.891c-1.081,0-1.918-0.846-1.918-2.697c0-1.859,0.837-2.705,1.918-2.705
					s1.922,0.846,1.922,2.705C180.377,193.045,179.536,193.891,178.455,193.891z M178.455,189.021c-0.66,0-1.255,0.541-1.255,2.172
					c0,1.623,0.595,2.17,1.255,2.17c0.667,0,1.266-0.547,1.266-2.17C179.721,189.563,179.122,189.021,178.455,189.021z"/>
				<path fill="#231F20" d="M183.786,193.791h-2.829v-0.527h1.168v-3.758c0-0.064,0-0.129,0.008-0.178l-0.95,0.848l-0.353-0.422
					l1.407-1.209h0.519v4.719h1.03V193.791z"/>
				<path fill="#231F20" d="M187.681,188.992l-2.364,4.799h-0.718l2.132-4.266l0.243-0.396h-2.734v-0.555h3.441V188.992z"/>
			</g>
		</g>
		<g>
			<g>
				<path fill="#231F20" d="M197.048,193.791h-3.514v-0.455l1.806-1.73c0.552-0.584,0.95-1.033,0.95-1.645
					c-0.021-0.627-0.421-0.918-0.965-0.918c-0.598,0-1.041,0.428-1.041,1.025l-0.642-0.107c0.138-0.961,0.827-1.48,1.719-1.48
					c0.893,0,1.589,0.541,1.589,1.467c0,0.775-0.501,1.316-1.096,1.908l-1.465,1.443c0.203-0.057,0.417-0.084,0.595-0.084h2.063
					V193.791z"/>
				<path fill="#231F20" d="M199.014,193.891c-1.084,0-1.919-0.846-1.919-2.697c0-1.859,0.835-2.705,1.919-2.705
					c1.077,0,1.918,0.846,1.918,2.705C200.932,193.045,200.091,193.891,199.014,193.891z M199.014,189.021
					c-0.664,0-1.259,0.541-1.259,2.172c0,1.623,0.595,2.17,1.259,2.17c0.663,0,1.266-0.547,1.266-2.17
					C200.279,189.563,199.677,189.021,199.014,189.021z"/>
				<path fill="#231F20" d="M204.341,193.791h-2.825v-0.527h1.164v-3.758c0-0.064,0-0.129,0.008-0.178l-0.95,0.848l-0.349-0.422
					l1.407-1.209h0.519v4.719h1.026V193.791z"/>
				<path fill="#231F20" d="M208.229,192.389c0,0.932-0.74,1.523-1.799,1.523c-1.069,0-1.813-0.592-1.813-1.523
					c0-0.684,0.377-1.141,1.037-1.316c-0.544-0.207-0.841-0.627-0.841-1.225c0-0.77,0.624-1.402,1.617-1.402
					c0.957,0,1.621,0.633,1.621,1.402c0,0.604-0.286,1.018-0.855,1.225C207.858,191.248,208.229,191.705,208.229,192.389z
					 M207.539,192.381c0-0.732-0.515-1.037-1.109-1.037c-0.599,0-1.12,0.305-1.12,1.037c0,0.598,0.409,0.998,1.12,0.998
					C207.145,193.379,207.539,192.979,207.539,192.381z M205.458,189.867c0,0.479,0.254,0.955,0.972,0.955
					c0.707,0,0.957-0.477,0.957-0.955c0-0.496-0.312-0.902-0.957-0.902C205.773,188.965,205.458,189.371,205.458,189.867z"/>
			</g>
		</g>
		<g>
			<g>
				<path fill="#231F20" d="M217.606,193.791h-3.511v-0.455l1.807-1.73c0.547-0.584,0.95-1.033,0.95-1.645
					c-0.022-0.627-0.425-0.918-0.965-0.918c-0.603,0-1.045,0.428-1.045,1.025l-0.642-0.107c0.134-0.961,0.827-1.48,1.723-1.48
					c0.893,0,1.581,0.541,1.581,1.467c0,0.775-0.5,1.316-1.092,1.908l-1.461,1.443c0.195-0.057,0.413-0.084,0.591-0.084h2.063
					V193.791z"/>
				<path fill="#231F20" d="M219.572,193.891c-1.085,0-1.922-0.846-1.922-2.697c0-1.859,0.837-2.705,1.922-2.705
					c1.08,0,1.922,0.846,1.922,2.705C221.494,193.045,220.652,193.891,219.572,193.891z M219.572,189.021
					c-0.664,0-1.255,0.541-1.255,2.172c0,1.623,0.591,2.17,1.255,2.17c0.663,0,1.262-0.547,1.262-2.17
					C220.834,189.563,220.235,189.021,219.572,189.021z"/>
				<path fill="#231F20" d="M224.903,193.791h-2.829v-0.527h1.164v-3.758c0-0.064,0-0.129,0.008-0.178l-0.95,0.848l-0.353-0.422
					l1.407-1.209h0.522v4.719h1.03V193.791z"/>
				<path fill="#231F20" d="M227.753,191.32c-0.278,0.221-0.616,0.336-1.008,0.336c-0.819,0-1.505-0.541-1.505-1.531
					c0-0.934,0.736-1.68,1.777-1.68c1.026,0,1.708,0.713,1.708,1.73c0,0.617-0.232,1.096-0.631,1.643l-1.437,1.973h-0.819
					l1.628-2.072C227.615,191.52,227.702,191.385,227.753,191.32z M226.963,191.143c0.711,0,1.124-0.498,1.124-1.047
					c0-0.684-0.464-1.088-1.077-1.088c-0.663,0-1.105,0.434-1.105,1.068C225.904,190.766,226.303,191.143,226.963,191.143z"/>
			</g>
		</g>
		<g>
			<g>
				<path fill="#231F20" d="M238.165,193.791h-3.514v-0.455l1.806-1.73c0.551-0.584,0.95-1.033,0.95-1.645
					c-0.021-0.627-0.421-0.918-0.965-0.918c-0.599,0-1.041,0.428-1.041,1.025l-0.642-0.107c0.138-0.961,0.827-1.48,1.719-1.48
					c0.893,0,1.589,0.541,1.589,1.467c0,0.775-0.501,1.316-1.096,1.908l-1.465,1.443c0.203-0.057,0.417-0.084,0.595-0.084h2.063
					V193.791z"/>
				<path fill="#231F20" d="M240.131,193.891c-1.085,0-1.919-0.846-1.919-2.697c0-1.859,0.834-2.705,1.919-2.705
					c1.077,0,1.918,0.846,1.918,2.705C242.049,193.045,241.208,193.891,240.131,193.891z M240.131,189.021
					c-0.664,0-1.259,0.541-1.259,2.172c0,1.623,0.595,2.17,1.259,2.17c0.663,0,1.266-0.547,1.266-2.17
					C241.396,189.563,240.794,189.021,240.131,189.021z"/>
				<path fill="#231F20" d="M245.596,193.791h-3.511v-0.455l1.807-1.73c0.547-0.584,0.95-1.033,0.95-1.645
					c-0.022-0.627-0.425-0.918-0.965-0.918c-0.603,0-1.045,0.428-1.045,1.025l-0.642-0.107c0.134-0.961,0.827-1.48,1.723-1.48
					c0.892,0,1.581,0.541,1.581,1.467c0,0.775-0.501,1.316-1.092,1.908l-1.461,1.443c0.195-0.057,0.413-0.084,0.591-0.084h2.063
					V193.791z"/>
				<path fill="#231F20" d="M247.562,193.891c-1.085,0-1.922-0.846-1.922-2.697c0-1.859,0.837-2.705,1.922-2.705
					c1.08,0,1.922,0.846,1.922,2.705C249.483,193.045,248.642,193.891,247.562,193.891z M247.562,189.021
					c-0.664,0-1.255,0.541-1.255,2.172c0,1.623,0.591,2.17,1.255,2.17c0.663,0,1.262-0.547,1.262-2.17
					C248.823,189.563,248.225,189.021,247.562,189.021z"/>
			</g>
		</g>
		<g>
			<g>
				<path fill="#231F20" d="M258.767,193.791h-3.51v-0.455l1.806-1.73c0.548-0.584,0.95-1.033,0.95-1.645
					c-0.021-0.627-0.424-0.918-0.965-0.918c-0.602,0-1.044,0.428-1.044,1.025l-0.643-0.107c0.135-0.961,0.827-1.48,1.723-1.48
					c0.893,0,1.581,0.541,1.581,1.467c0,0.775-0.5,1.316-1.091,1.908l-1.462,1.443c0.196-0.057,0.413-0.084,0.591-0.084h2.063
					V193.791z"/>
				<path fill="#231F20" d="M260.732,193.891c-1.084,0-1.922-0.846-1.922-2.697c0-1.859,0.838-2.705,1.922-2.705
					c1.081,0,1.922,0.846,1.922,2.705C262.654,193.045,261.813,193.891,260.732,193.891z M260.732,189.021
					c-0.663,0-1.255,0.541-1.255,2.172c0,1.623,0.592,2.17,1.255,2.17c0.664,0,1.262-0.547,1.262-2.17
					C261.994,189.563,261.396,189.021,260.732,189.021z"/>
				<path fill="#231F20" d="M266.197,193.791h-3.514v-0.455l1.806-1.73c0.552-0.584,0.95-1.033,0.95-1.645
					c-0.021-0.627-0.421-0.918-0.965-0.918c-0.598,0-1.04,0.428-1.04,1.025l-0.643-0.107c0.139-0.961,0.827-1.48,1.72-1.48
					c0.892,0,1.588,0.541,1.588,1.467c0,0.775-0.5,1.316-1.095,1.908l-1.466,1.443c0.203-0.057,0.417-0.084,0.595-0.084h2.063
					V193.791z"/>
				<path fill="#231F20" d="M269.777,193.791h-2.829v-0.527h1.168v-3.758c0-0.064,0-0.129,0.007-0.178l-0.95,0.848l-0.352-0.422
					l1.407-1.209h0.519v4.719h1.03V193.791z"/>
			</g>
		</g>
		<g>
			<g>
				<path fill="#231F20" d="M32.584,193.791h-3.511v-0.455l1.806-1.73c0.551-0.584,0.95-1.033,0.95-1.645
					c-0.022-0.627-0.421-0.918-0.965-0.918c-0.602,0-1.044,0.428-1.044,1.025l-0.638-0.107c0.134-0.961,0.827-1.48,1.719-1.48
					s1.584,0.541,1.584,1.467c0,0.775-0.5,1.316-1.091,1.908l-1.465,1.443c0.2-0.057,0.414-0.084,0.595-0.084h2.06V193.791z"/>
				<path fill="#231F20" d="M34.549,193.891c-1.081,0-1.918-0.846-1.918-2.697c0-1.859,0.838-2.705,1.918-2.705
					s1.922,0.846,1.922,2.705C36.472,193.045,35.63,193.891,34.549,193.891z M34.549,189.021c-0.66,0-1.255,0.541-1.255,2.172
					c0,1.623,0.595,2.17,1.255,2.17c0.667,0,1.266-0.547,1.266-2.17C35.815,189.563,35.217,189.021,34.549,189.021z"/>
				<path fill="#231F20" d="M39.88,193.791h-2.829v-0.527h1.167v-3.758c0-0.064,0-0.129,0.007-0.178l-0.95,0.848l-0.352-0.422
					l1.407-1.209h0.519v4.719h1.03V193.791z"/>
				<path fill="#231F20" d="M41.984,193.891c-1.088,0-1.922-0.846-1.922-2.697c0-1.859,0.834-2.705,1.922-2.705
					c1.077,0,1.918,0.846,1.918,2.705C43.902,193.045,43.061,193.891,41.984,193.891z M41.984,189.021
					c-0.667,0-1.259,0.541-1.259,2.172c0,1.623,0.591,2.17,1.259,2.17c0.66,0,1.262-0.547,1.262-2.17
					C43.246,189.563,42.644,189.021,41.984,189.021z"/>
			</g>
		</g>
		<g>
			<rect x="19.507" y="144.111" fill="#048743" width="33.77" height="13.512"/>
			<g>
				<g>
					<path fill="#FFFFFF" d="M22.557,147.379h4.627v1.172l-2.208,5.906h-1.679l2.23-5.801h-2.97V147.379z"/>
					<path fill="#FFFFFF" d="M31.891,153.898c-0.388,0.453-0.976,0.682-1.759,0.682c-0.794,0-1.378-0.229-1.77-0.682
						c-0.519-0.604-0.74-1.508-0.74-2.98s0.221-2.377,0.74-2.98c0.392-0.451,0.976-0.682,1.77-0.682c0.783,0,1.371,0.23,1.759,0.682
						c0.519,0.604,0.74,1.508,0.74,2.98S32.41,153.295,31.891,153.898z M30.745,148.861c-0.152-0.232-0.348-0.33-0.613-0.33
						c-0.269,0-0.482,0.098-0.624,0.33c-0.189,0.309-0.25,0.949-0.25,2.057c0,1.109,0.062,1.738,0.25,2.059
						c0.141,0.23,0.355,0.328,0.624,0.328c0.265,0,0.46-0.098,0.613-0.328c0.185-0.32,0.25-0.949,0.25-2.059
						C30.996,149.811,30.93,149.17,30.745,148.861z"/>
					<path fill="#FFFFFF" d="M34.767,154.457c0,0.779-0.581,1.338-1.61,1.365v-0.701c0.533-0.016,0.798-0.229,0.798-0.664h-0.798
						v-1.598h1.61V154.457z"/>
					<path fill="#FFFFFF" d="M38.582,152.381c0-0.744-0.305-1.02-1.001-1.02h-0.54v-1.26h0.54c0.5,0,0.831-0.23,0.831-0.834
						c0-0.469-0.243-0.736-0.642-0.736s-0.638,0.268-0.638,0.736v0.125h-1.584v-0.195c0-1.152,0.816-1.941,2.223-1.941
						c1.4,0,2.234,0.797,2.234,1.914c0,0.852-0.435,1.33-1.088,1.525c0.849,0.205,1.302,0.844,1.302,1.758
						c0,1.285-0.979,2.127-2.448,2.127c-1.465,0-2.437-0.842-2.437-2.127v-0.223h1.628v0.15c0,0.596,0.294,0.924,0.809,0.924
						C38.285,153.305,38.582,152.977,38.582,152.381z"/>
					<path fill="#FFFFFF" d="M45.61,153.135h-0.74v1.322h-1.617v-1.322h-2.76v-1.275l2.68-4.48h1.697v4.48h0.74V153.135z
						 M43.253,151.859v-2.254l-1.345,2.254H43.253z"/>
					<path fill="#FFFFFF" d="M48.011,154.457v-5.588l-1.451,0.648v-1.357l1.694-0.781h1.403v7.078H48.011z"/>
				</g>
			</g>
			<polygon fill="#048743" points="38.774,155.816 36.392,161.672 34.009,155.816 			"/>
		</g>
		<g>
			<rect x="242.832" y="119.168" fill="#048743" width="39.485" height="13.51"/>
			<g>
				<g>
					<path fill="#FFFFFF" d="M248.055,129.514v-5.588l-1.451,0.648v-1.357l1.694-0.781h1.403v7.078H248.055z"/>
					<path fill="#FFFFFF" d="M255.38,128.955c-0.392,0.453-0.979,0.684-1.763,0.684c-0.79,0-1.378-0.23-1.77-0.684
						c-0.515-0.604-0.74-1.508-0.74-2.98s0.226-2.377,0.74-2.98c0.392-0.451,0.979-0.682,1.77-0.682c0.783,0,1.371,0.23,1.763,0.682
						c0.515,0.604,0.74,1.508,0.74,2.98S255.895,128.352,255.38,128.955z M254.233,123.918c-0.151-0.23-0.348-0.328-0.616-0.328
						c-0.265,0-0.479,0.098-0.62,0.328c-0.185,0.309-0.25,0.949-0.25,2.057c0,1.109,0.065,1.738,0.25,2.059
						c0.142,0.23,0.355,0.328,0.62,0.328c0.269,0,0.465-0.098,0.616-0.328c0.189-0.32,0.247-0.949,0.247-2.059
						C254.48,124.867,254.423,124.227,254.233,123.918z"/>
					<path fill="#FFFFFF" d="M260.442,126.232l-1.752,2.004h2.601v1.277h-4.664v-1.18l2.455-2.82
						c0.338-0.391,0.461-0.674,0.461-1.072c0-0.541-0.221-0.852-0.692-0.852c-0.461,0-0.692,0.301-0.692,0.852v0.311h-1.64v-0.303
						c0-1.162,0.827-2.137,2.332-2.137c1.52,0,2.332,0.975,2.332,2.137C261.183,125.186,260.993,125.604,260.442,126.232z"/>
					<path fill="#FFFFFF" d="M263.518,129.514c0,0.781-0.58,1.34-1.61,1.365v-0.701c0.529-0.016,0.798-0.229,0.798-0.664h-0.798
						v-1.598h1.61V129.514z"/>
					<path fill="#FFFFFF" d="M268.305,128.955c-0.392,0.453-0.979,0.684-1.763,0.684c-0.79,0-1.378-0.23-1.77-0.684
						c-0.515-0.604-0.74-1.508-0.74-2.98s0.226-2.377,0.74-2.98c0.392-0.451,0.979-0.682,1.77-0.682c0.783,0,1.371,0.23,1.763,0.682
						c0.515,0.604,0.739,1.508,0.739,2.98S268.819,128.352,268.305,128.955z M267.158,123.918c-0.151-0.23-0.348-0.328-0.616-0.328
						c-0.265,0-0.479,0.098-0.62,0.328c-0.185,0.309-0.25,0.949-0.25,2.057c0,1.109,0.065,1.738,0.25,2.059
						c0.142,0.23,0.355,0.328,0.62,0.328c0.269,0,0.465-0.098,0.616-0.328c0.189-0.32,0.247-0.949,0.247-2.059
						C267.405,124.867,267.348,124.227,267.158,123.918z"/>
					<path fill="#FFFFFF" d="M274.357,128.191h-0.736v1.322H272v-1.322h-2.76v-1.275l2.68-4.48h1.701v4.48h0.736V128.191z
						 M272,126.916v-2.254l-1.346,2.254H272z"/>
					<path fill="#FFFFFF" d="M279.395,124.219c0,0.729-0.428,1.314-1.041,1.535c0.766,0.273,1.244,0.85,1.244,1.756
						c0,1.313-0.994,2.129-2.531,2.129c-1.553,0-2.546-0.816-2.546-2.129c0-0.906,0.479-1.482,1.247-1.756
						c-0.616-0.221-1.033-0.807-1.033-1.535c0-1.127,0.881-1.906,2.332-1.906C278.506,122.313,279.395,123.092,279.395,124.219z
						 M277.973,127.357c0-0.646-0.366-0.992-0.906-0.992c-0.552,0-0.918,0.346-0.918,0.992c0,0.648,0.366,1.004,0.918,1.004
						C277.606,128.361,277.973,128.006,277.973,127.357z M277.784,124.369c0-0.486-0.269-0.779-0.718-0.779
						c-0.465,0-0.74,0.293-0.74,0.779c0,0.488,0.275,0.773,0.74,0.773C277.516,125.143,277.784,124.857,277.784,124.369z"/>
				</g>
			</g>
			<polygon fill="#048743" points="265.983,130.875 262.575,136.727 259.166,130.875 			"/>
		</g>
	</g>
	<g>
		<g>
			<path fill="#048743" d="M166.364,65.57h6.237v0.809h-2.661v2.456h-0.958v-2.456h-2.618V65.57z M169.991,61.875v0.352
				c0,0.288,0.094,0.573,0.282,0.855c0.188,0.284,0.461,0.528,0.82,0.732c0.358,0.206,0.783,0.343,1.276,0.412L172,65.019
				c-0.584-0.097-1.092-0.28-1.523-0.552c-0.432-0.273-0.762-0.605-0.986-1c-0.225,0.399-0.555,0.734-0.986,1.004
				c-0.435,0.27-0.946,0.451-1.53,0.548l-0.377-0.792c0.497-0.069,0.925-0.206,1.283-0.412c0.363-0.204,0.635-0.448,0.82-0.729
				c0.188-0.278,0.282-0.566,0.282-0.859v-0.352H169.991z"/>
			<path fill="#048743" d="M178.607,62.155v0.8h-3.826v1.912h3.884v0.792h-1.979v1.536h2.654v0.815h-6.245v-0.815h2.633v-1.536
				h-1.899v-3.504H178.607z"/>
			<path fill="#048743" d="M182.586,64.306c0.083-0.563,0.127-1.063,0.138-1.495h-2.325v-0.784h3.278v0.248
				c0,0.305-0.007,0.607-0.021,0.909c-0.015,0.3-0.055,0.648-0.116,1.043c0.152-0.017,0.381-0.045,0.679-0.089l0.055,0.705
				c-0.53,0.096-1.103,0.17-1.727,0.225v1.543h-0.878v1.295h4.142v0.792h-5.099v-2.185h0.881V65.13
				c-0.678,0.027-1.244,0.04-1.7,0.04l-0.116-0.792C180.899,64.378,181.835,64.355,182.586,64.306z M185.657,61.66v5.398h-0.954
				v-0.8h-1.349V65.5h1.349v-3.84H185.657z"/>
		</g>
		<ellipse fill="#048743" cx="157.69" cy="65.487" rx="5.055" ry="5.038"/>
		<g>
			<path fill="#289297" d="M128.595,64.415c0.283-0.414,0.424-0.862,0.424-1.349v-0.119h-1.385v-0.792h3.71v0.792h-1.363v0.112
				c0,0.454,0.134,0.875,0.402,1.264c0.271,0.389,0.663,0.674,1.175,0.856l-0.468,0.767c-0.37-0.126-0.686-0.314-0.95-0.563
				c-0.265-0.248-0.475-0.539-0.627-0.875c-0.156,0.372-0.37,0.697-0.653,0.971c-0.279,0.274-0.616,0.479-1.005,0.612l-0.485-0.784
				C127.902,65.125,128.312,64.829,128.595,64.415z M128.627,66.451h0.954v1.455h3.75v0.792h-4.704V66.451z M132.214,63.531v-1.864
				h0.954v5.223h-0.954v-2.567h-1.117v-0.792H132.214z"/>
			<path fill="#289297" d="M139.645,61.98v0.559c0,0.374-0.007,0.701-0.021,0.985c-0.015,0.282-0.055,0.595-0.116,0.935h0.885v0.792
				h-2.654v1.041h1.922v2.543h-0.943v-1.761h-3.945v-0.782h2.009V65.25h-2.633v-0.792h4.414c0.104-0.533,0.155-1.098,0.155-1.696
				h-3.8V61.98H139.645z"/>
		</g>
		<ellipse fill="#79CBC5" cx="118.742" cy="65.487" rx="5.055" ry="5.038"/>
	</g>
	<path fill="#D1D2D2" d="M300,206H0V0h300V206z M1.77,204.232H298.23V1.768H1.77V204.232z"/>
</g>
</svg>
