<?xml version="1.0" encoding="utf-8"?>
<!-- Generator: Adobe Illustrator 15.1.0, SVG Export Plug-In . SVG Version: 6.00 Build 0)  -->
<!DOCTYPE svg PUBLIC "-//W3C//DTD SVG 1.1//EN" "http://www.w3.org/Graphics/SVG/1.1/DTD/svg11.dtd">
<svg version="1.1" id="Layer_1" xmlns="http://www.w3.org/2000/svg" xmlns:xlink="http://www.w3.org/1999/xlink" x="0px" y="0px"
	 width="300px" height="206px" viewBox="0 0 300 206" enable-background="new 0 0 300 206" xml:space="preserve">
<g>
	<rect x="0.885" y="0.884" fill="#F9F9FA" width="298.23" height="204.229"/>
	<rect x="0.885" y="0.884" fill="#0C713C" width="298.23" height="51.18"/>
	<g>
		<path fill="#FFFFFF" d="M279.166,27.406c0,5.633-4.584,10.197-10.23,10.197l0,0c-5.65,0-10.23-4.564-10.23-10.197l0,0
			c0-5.629,4.58-10.195,10.23-10.195l0,0C274.582,17.211,279.166,21.777,279.166,27.406L279.166,27.406z"/>
		<path fill="#0C713C" d="M272.355,26.664l-4.489-4.475c-0.414-0.41-1.081-0.41-1.491,0c-0.409,0.412-0.409,1.078,0,1.484
			l3.746,3.732l-3.746,3.735c-0.409,0.408-0.409,1.073,0,1.485c0.207,0.202,0.476,0.306,0.744,0.306c0.271,0,0.54-0.104,0.747-0.306
			l4.489-4.476c0.195-0.201,0.309-0.468,0.309-0.745C272.664,27.128,272.551,26.86,272.355,26.664z"/>
	</g>
	<g>
		<g>
			<g>
				<path fill="#4EA547" d="M252.722,138.061c0,2.813-2.285,5.088-5.106,5.088c-2.813,0-5.099-2.274-5.099-5.088
					c0-2.809,2.285-5.082,5.099-5.082C250.437,132.979,252.722,135.252,252.722,138.061z"/>
				<path fill="#4EA547" d="M251.445,131.741c0,2.104-1.712,3.812-3.83,3.812c-2.11,0-3.825-1.707-3.825-3.812
					c0-2.108,1.715-3.818,3.825-3.818C249.733,127.923,251.445,129.633,251.445,131.741z"/>
				<g>
					<rect x="247.34" y="134.271" fill="#3B5581" width="0.552" height="14.499"/>
					<path fill="#3B5581" d="M247.304,139.564c-0.711,0-1.291-0.209-1.727-0.629c-0.812-0.78-0.779-2.003-0.775-2.053l0.551,0.018
						l-0.275-0.011l0.275,0.011c0,0.011-0.025,1.034,0.609,1.646c0.374,0.354,0.906,0.506,1.581,0.459l0.04,0.549
						C247.488,139.562,247.398,139.564,247.304,139.564z"/>
					<path fill="#3B5581" d="M247.877,137.092c-0.203,0-0.334-0.015-0.349-0.021l0.073-0.542l-0.037,0.271l0.037-0.271
						c0.007,0,1.156,0.134,1.842-0.506c0.392-0.369,0.565-0.934,0.515-1.686l0.555-0.036c0.059,0.926-0.174,1.639-0.692,2.123
						C249.204,137.002,248.348,137.092,247.877,137.092z"/>
				</g>
			</g>
			<g>
				<path fill="#4EA547" d="M260.142,142.035c0,2.078-1.687,3.763-3.771,3.763c-2.082,0-3.771-1.685-3.771-3.763
					c0-2.075,1.689-3.761,3.771-3.761C258.455,138.274,260.142,139.96,260.142,142.035z"/>
				<path fill="#4EA547" d="M259.198,137.359c0,1.559-1.262,2.82-2.828,2.82c-1.56,0-2.829-1.262-2.829-2.82
					c0-1.554,1.27-2.82,2.829-2.82C257.937,134.539,259.198,135.806,259.198,137.359z"/>
				<g>
					<rect x="256.167" y="139.232" fill="#3B5581" width="0.409" height="9.538"/>
					<path fill="#3B5581" d="M256.142,143.148c-0.529,0-0.958-0.156-1.28-0.463c-0.602-0.583-0.573-1.486-0.573-1.522l0.406,0.015
						l-0.203-0.007l0.203,0.007c0,0.008-0.015,0.767,0.457,1.215c0.269,0.261,0.664,0.376,1.168,0.34l0.025,0.405
						C256.275,143.145,256.207,143.148,256.142,143.148z"/>
					<path fill="#3B5581" d="M256.559,141.315c-0.146,0-0.239-0.008-0.254-0.011l0.051-0.402l-0.021,0.199l0.021-0.199
						c0.007,0,0.859,0.102,1.363-0.376c0.29-0.271,0.421-0.689,0.385-1.247l0.406-0.025c0.043,0.684-0.127,1.212-0.508,1.573
						C257.545,141.25,256.914,141.315,256.559,141.315z"/>
				</g>
			</g>
		</g>
		<g>
			<rect x="206.622" y="139.283" fill="#7DBAE6" width="19.746" height="9.487"/>
			<polygon fill="#2A586E" points="205.926,141.344 226.88,141.344 226.368,139.283 206.622,139.283 			"/>
			<polygon fill="#7DBAE6" points="217.139,141.387 221.856,141.387 219.496,139.63 			"/>
			<path fill="#2A586E" d="M218.067,148.771h2.857v-3.941c0-0.784-0.639-1.421-1.429-1.421l0,0c-0.791,0-1.429,0.637-1.429,1.421
				V148.771z"/>
			<path fill="#FFFFFF" d="M222.774,146.864h1.748v-2.411c0-0.481-0.392-0.871-0.874-0.871l0,0c-0.482,0-0.874,0.39-0.874,0.871
				V146.864z"/>
			<path fill="#FFFFFF" d="M213.403,146.864h1.748v-2.411c0-0.481-0.392-0.871-0.874-0.871l0,0c-0.482,0-0.874,0.39-0.874,0.871
				V146.864z"/>
			<path fill="#FFFFFF" d="M209.302,146.864h1.752v-2.411c0-0.481-0.392-0.871-0.878-0.871l0,0c-0.479,0-0.874,0.39-0.874,0.871
				V146.864z"/>
			<path fill="#FFFFFF" d="M218.988,141.528c0,0.271,0.218,0.495,0.493,0.495s0.493-0.224,0.493-0.495s-0.218-0.495-0.493-0.495
				S218.988,141.257,218.988,141.528z"/>
			<rect x="216.675" y="134.395" fill="#7DBAE6" width="8.508" height="4.889"/>
			<polygon fill="#2A586E" points="216.159,135.426 225.697,135.426 225.059,133.368 216.766,133.368 			"/>
			<polygon fill="#7DBAE6" points="218.567,135.508 223.285,135.508 220.925,133.759 			"/>
			<path fill="#FFFFFF" d="M220.432,135.356c0,0.271,0.221,0.492,0.493,0.492c0.275,0,0.5-0.221,0.5-0.492
				c0-0.274-0.225-0.495-0.5-0.495C220.652,134.861,220.432,135.082,220.432,135.356z"/>
			<path fill="#FFFFFF" d="M221.824,138.268v-1.035c0-0.379,0.309-0.689,0.688-0.689c0.385,0,0.689,0.311,0.689,0.689v1.035H221.824
				z"/>
			<path fill="#FFFFFF" d="M218.651,138.268v-1.035c0-0.379,0.308-0.689,0.688-0.689s0.692,0.311,0.692,0.689v1.035H218.651z"/>
		</g>
		<g>
			<rect x="227.742" y="122.757" fill="#7DBAE6" width="12.7" height="26.014"/>
			<rect x="228.642" y="143.687" fill="#2A586E" width="10.901" height="0.763"/>
			<rect x="228.642" y="139.941" fill="#FFFFFF" width="10.901" height="1.746"/>
			<rect x="228.642" y="136.199" fill="#FFFFFF" width="10.901" height="1.746"/>
			<rect x="228.642" y="132.457" fill="#FFFFFF" width="10.901" height="1.747"/>
			<rect x="228.642" y="128.715" fill="#FFFFFF" width="10.901" height="1.746"/>
			<rect x="228.642" y="124.973" fill="#FFFFFF" width="10.901" height="1.751"/>
			<g>
				<defs>
					<rect id="SVGID_1_" x="229.52" y="144.449" width="9.143" height="4.321"/>
				</defs>
				<clipPath id="SVGID_2_">
					<use xlink:href="#SVGID_1_"  overflow="visible"/>
				</clipPath>
				<rect x="229.52" y="144.449" clip-path="url(#SVGID_2_)" fill="#9CD1F1" width="9.143" height="4.321"/>
				<rect x="236.123" y="144.449" clip-path="url(#SVGID_2_)" fill="#2A586E" width="0.315" height="4.321"/>
				<rect x="231.739" y="144.449" clip-path="url(#SVGID_2_)" fill="#2A586E" width="0.318" height="4.321"/>
				<rect x="229.52" y="146.911" clip-path="url(#SVGID_2_)" fill="#2A586E" width="9.143" height="0.261"/>
				<path clip-path="url(#SVGID_2_)" fill="#FFFFFF" d="M234.299,147.526L234.299,147.526c-0.054,0-0.094-0.043-0.094-0.094v-0.767
					c0-0.051,0.04-0.094,0.094-0.094l0,0c0.051,0,0.095,0.043,0.095,0.094v0.767C234.394,147.483,234.35,147.526,234.299,147.526z"
					/>
				<path clip-path="url(#SVGID_2_)" fill="#FFFFFF" d="M233.886,147.526L233.886,147.526c0.051,0,0.095-0.043,0.095-0.094v-0.767
					c0-0.051-0.044-0.094-0.095-0.094l0,0c-0.055,0-0.095,0.043-0.095,0.094v0.767C233.791,147.483,233.831,147.526,233.886,147.526
					z"/>
			</g>
			<g>
				<defs>
					<rect id="SVGID_3_" x="228.642" y="128.715" width="10.901" height="1.746"/>
				</defs>
				<clipPath id="SVGID_4_">
					<use xlink:href="#SVGID_3_"  overflow="visible"/>
				</clipPath>
			</g>
			<g>
				<defs>
					<rect id="SVGID_5_" x="228.642" y="124.973" width="10.901" height="1.751"/>
				</defs>
				<clipPath id="SVGID_6_">
					<use xlink:href="#SVGID_5_"  overflow="visible"/>
				</clipPath>
			</g>
		</g>
		<path fill="#929497" d="M278.734,149.02h-2.19l0.036-0.518l2.154,0.037V149.02z M274.499,149.02h-2.228l0.037-0.518l2.19,0.037
			V149.02z M270.23,149.02h-2.19v-0.518l2.19,0.037V149.02z M265.958,149.02h-2.19v-0.518l2.19,0.037V149.02z M261.689,149.02
			h-2.229l0.036-0.518l2.193,0.037V149.02z M257.418,149.02h-2.19l0.036-0.518l2.154,0.037V149.02z M253.146,149.02h-2.19
			l0.037-0.518l2.153,0.037V149.02z M248.878,149.02h-2.19l0.036-0.518l2.154,0.037V149.02z M244.605,149.02h-2.19l0.036-0.518
			l2.154,0.037V149.02z M240.337,149.02h-2.193l0.04-0.518l2.153,0.037V149.02z M236.065,149.02h-2.19l0.036-0.518l2.154,0.037
			V149.02z M231.793,149.02h-2.19l0.036-0.518l2.154,0.037V149.02z M227.525,149.02h-2.19l0.036-0.518l2.154,0.037V149.02z
			 M223.289,149.02h-2.227l0.036-0.518l2.19,0.037V149.02z M219.021,149.02h-2.229l0.039-0.518l2.19,0.037V149.02z M214.749,149.02
			h-2.227l0.036-0.518l2.19,0.037V149.02z M210.48,149.02h-2.194v-0.518l2.194,0.037V149.02z M206.209,149.02h-2.19v-0.518
			l2.19,0.037V149.02z M201.937,149.02h-2.19l0.04-0.518l2.15,0.037V149.02z M197.668,149.02h-2.19l0.036-0.518l2.154,0.037V149.02z
			 M193.396,149.02h-2.19l0.036-0.518l2.154,0.037V149.02z M189.128,149.02h-2.194l0.04-0.518l2.154,0.037V149.02z M184.855,149.02
			h-2.19l0.037-0.518l2.153,0.037V149.02z M180.584,149.02h-2.19l0.04-0.518l2.15,0.037V149.02z M176.315,149.02h-2.19l0.036-0.518
			l2.154,0.037V149.02z M172.08,149.02h-2.227l0.036-0.518l2.19,0.037V149.02z M167.812,149.02h-2.23l0.04-0.518l2.19,0.037V149.02z
			 M163.539,149.02h-2.19l0.037-0.518l2.153,0.037V149.02z M159.271,149.02h-2.19v-0.518l2.19,0.037V149.02z M154.999,149.02h-2.19
			l0.036-0.518l2.154,0.037V149.02z M150.728,149.02h-2.19l0.039-0.518l2.151,0.037V149.02z M146.459,149.02h-2.19l0.036-0.518
			l2.154,0.037V149.02z M142.187,149.02h-2.19l0.036-0.518l2.154,0.037V149.02z M137.918,149.02h-2.19l0.037-0.518l2.153,0.037
			V149.02z M133.646,149.02h-2.19l0.036-0.518l2.154,0.037V149.02z M129.374,149.02h-2.19l0.04-0.518l2.15,0.037V149.02z
			 M125.143,149.02h-2.227l0.036-0.518l2.19,0.037V149.02z M120.874,149.02h-2.194v-0.518l2.194,0.037V149.02z M116.602,149.02
			h-2.227l0.036-0.518l2.19,0.037V149.02z M112.33,149.02h-2.19l0.036-0.518l2.154,0.037V149.02z M108.062,149.02h-2.19l0.036-0.518
			l2.154,0.037V149.02z M103.79,149.02h-2.19l0.036-0.518l2.154,0.037V149.02z M99.521,149.02h-2.194l0.04-0.518l2.154,0.037V149.02
			z M95.249,149.02h-2.19l0.036-0.518l2.154,0.037V149.02z M90.978,149.02h-2.19l0.036-0.518l2.154,0.037V149.02z M86.709,149.02
			h-2.19l0.036-0.518l2.154,0.037V149.02z M82.474,149.02h-2.227l0.036-0.518l2.19,0.037V149.02z M78.169,149.02h-2.194l0.04-0.518
			l2.154,0.037V149.02z M73.933,149.02h-2.227l0.036-0.518l2.19,0.037V149.02z M69.664,149.02h-2.193v-0.518l2.193,0.037V149.02z
			 M65.393,149.02h-2.19l0.036-0.518l2.154,0.037V149.02z M61.12,149.02h-2.189v-0.518l2.189,0.037V149.02z M56.853,149.02h-2.19
			l0.036-0.518l2.154,0.037V149.02z M52.58,149.02h-2.19l0.036-0.518l2.154,0.037V149.02z M48.312,149.02h-2.193l0.04-0.518
			l2.153,0.037V149.02z M44.04,149.02h-2.19l0.036-0.518l2.154,0.037V149.02z M39.768,149.02h-2.19l0.036-0.518l2.154,0.037V149.02z
			 M35.5,149.02h-2.19l0.036-0.518l2.154,0.037V149.02z M31.228,149.02h-2.19l0.036-0.518l2.154,0.037V149.02z M26.996,149.02h-2.23
			l0.04-0.518l2.19,0.037V149.02z M22.724,149.02h-2.19v-0.518l2.19,0.037V149.02z"/>
		<rect x="20.547" y="182.209" width="259.747" height="0.532"/>
		<g>
			<g>
				<g>
					<line fill="none" x1="30.622" y1="182.474" x2="30.622" y2="180.123"/>
					<line fill="none" x1="50.611" y1="182.474" x2="50.611" y2="180.123"/>
					<line fill="none" x1="70.601" y1="182.474" x2="70.601" y2="180.123"/>
					<line fill="none" x1="90.586" y1="182.474" x2="90.586" y2="180.123"/>
					<line fill="none" x1="110.575" y1="182.474" x2="110.575" y2="180.123"/>
					<line fill="none" x1="130.561" y1="182.474" x2="130.561" y2="180.123"/>
					<line fill="none" x1="150.55" y1="182.474" x2="150.55" y2="180.123"/>
					<line fill="none" x1="170.538" y1="182.474" x2="170.538" y2="180.123"/>
					<line fill="none" x1="190.527" y1="182.474" x2="190.527" y2="180.123"/>
					<line fill="none" x1="210.517" y1="182.474" x2="210.517" y2="180.123"/>
					<line fill="none" x1="230.506" y1="182.474" x2="230.506" y2="180.123"/>
					<line fill="none" x1="250.495" y1="182.474" x2="250.495" y2="180.123"/>
				</g>
				<g>
					<g>
						<g>
							<path fill="#231F20" d="M26.546,193.79h-3.514v-0.456l1.806-1.729c0.547-0.586,0.95-1.033,0.95-1.645
								c-0.022-0.625-0.424-0.919-0.965-0.919c-0.599,0-1.041,0.428-1.041,1.024l-0.646-0.105c0.138-0.962,0.831-1.479,1.723-1.479
								s1.585,0.538,1.585,1.465c0,0.776-0.5,1.315-1.095,1.904l-1.461,1.446c0.199-0.058,0.417-0.087,0.591-0.087h2.067V193.79z"/>
							<path fill="#231F20" d="M28.686,193.892c-1.081,0-1.918-0.847-1.918-2.697c0-1.858,0.837-2.704,1.918-2.704
								c1.081,0,1.922,0.846,1.922,2.704C30.607,193.045,29.766,193.892,28.686,193.892z M28.686,189.021
								c-0.66,0-1.255,0.539-1.255,2.174c0,1.619,0.595,2.169,1.255,2.169c0.667,0,1.266-0.55,1.266-2.169
								C29.951,189.56,29.353,189.021,28.686,189.021z"/>
							<path fill="#231F20" d="M34.198,193.79h-2.829v-0.527h1.164v-3.757c0-0.065,0-0.127,0.007-0.178l-0.95,0.846l-0.352-0.419
								l1.407-1.211h0.522v4.719h1.03V193.79z"/>
							<path fill="#231F20" d="M36.475,193.892c-1.084,0-1.922-0.847-1.922-2.697c0-1.858,0.837-2.704,1.922-2.704
								c1.081,0,1.922,0.846,1.922,2.704C38.397,193.045,37.556,193.892,36.475,193.892z M36.475,189.021
								c-0.664,0-1.255,0.539-1.255,2.174c0,1.619,0.591,2.169,1.255,2.169s1.262-0.55,1.262-2.169
								C37.737,189.56,37.139,189.021,36.475,189.021z"/>
						</g>
					</g>
					<g>
						<g>
							<path fill="#231F20" d="M46.535,193.79h-3.515v-0.456l1.807-1.729c0.547-0.586,0.95-1.033,0.95-1.645
								c-0.022-0.625-0.425-0.919-0.965-0.919c-0.599,0-1.041,0.428-1.041,1.024l-0.646-0.105c0.138-0.962,0.83-1.479,1.723-1.479
								c0.892,0,1.585,0.538,1.585,1.465c0,0.776-0.501,1.315-1.096,1.904l-1.461,1.446c0.199-0.058,0.417-0.087,0.591-0.087h2.067
								V193.79z"/>
							<path fill="#231F20" d="M48.675,193.892c-1.081,0-1.919-0.847-1.919-2.697c0-1.858,0.838-2.704,1.919-2.704
								c1.08,0,1.922,0.846,1.922,2.704C50.597,193.045,49.755,193.892,48.675,193.892z M48.675,189.021
								c-0.66,0-1.255,0.539-1.255,2.174c0,1.619,0.595,2.169,1.255,2.169c0.667,0,1.266-0.55,1.266-2.169
								C49.94,189.56,49.342,189.021,48.675,189.021z"/>
							<path fill="#231F20" d="M54.187,193.79h-2.828v-0.527h1.164v-3.757c0-0.065,0-0.127,0.007-0.178l-0.95,0.846l-0.352-0.419
								l1.407-1.211h0.522v4.719h1.029V193.79z"/>
							<path fill="#231F20" d="M58.078,193.79h-2.825v-0.527h1.16v-3.757c0-0.065,0-0.127,0.008-0.178l-0.95,0.846l-0.349-0.419
								l1.407-1.211h0.522v4.719h1.026V193.79z"/>
						</g>
					</g>
					<g>
						<g>
							<path fill="#231F20" d="M66.524,193.79H63.01v-0.456l1.807-1.729c0.547-0.586,0.949-1.033,0.949-1.645
								c-0.021-0.625-0.424-0.919-0.964-0.919c-0.599,0-1.041,0.428-1.041,1.024l-0.646-0.105c0.138-0.962,0.83-1.479,1.723-1.479
								c0.892,0,1.585,0.538,1.585,1.465c0,0.776-0.501,1.315-1.096,1.904l-1.461,1.446c0.199-0.058,0.417-0.087,0.591-0.087h2.067
								V193.79z"/>
							<path fill="#231F20" d="M68.664,193.892c-1.081,0-1.919-0.847-1.919-2.697c0-1.858,0.838-2.704,1.919-2.704
								c1.08,0,1.922,0.846,1.922,2.704C70.586,193.045,69.744,193.892,68.664,193.892z M68.664,189.021
								c-0.66,0-1.255,0.539-1.255,2.174c0,1.619,0.595,2.169,1.255,2.169c0.667,0,1.266-0.55,1.266-2.169
								C69.93,189.56,69.331,189.021,68.664,189.021z"/>
							<path fill="#231F20" d="M74.176,193.79h-2.828v-0.527h1.164v-3.757c0-0.065,0-0.127,0.007-0.178l-0.95,0.846l-0.352-0.419
								l1.407-1.211h0.521v4.719h1.03V193.79z"/>
							<path fill="#231F20" d="M78.201,193.79H74.69v-0.456l1.807-1.729c0.551-0.586,0.95-1.033,0.95-1.645
								c-0.022-0.625-0.421-0.919-0.965-0.919c-0.603,0-1.045,0.428-1.045,1.024l-0.638-0.105c0.134-0.962,0.827-1.479,1.719-1.479
								c0.893,0,1.585,0.538,1.585,1.465c0,0.776-0.501,1.315-1.092,1.904l-1.465,1.446c0.199-0.058,0.413-0.087,0.595-0.087h2.06
								V193.79z"/>
						</g>
					</g>
					<g>
						<g>
							<path fill="#231F20" d="M86.513,193.79h-3.514v-0.456l1.806-1.729c0.548-0.586,0.95-1.033,0.95-1.645
								c-0.021-0.625-0.424-0.919-0.964-0.919c-0.599,0-1.041,0.428-1.041,1.024l-0.646-0.105c0.138-0.962,0.83-1.479,1.723-1.479
								c0.892,0,1.584,0.538,1.584,1.465c0,0.776-0.5,1.315-1.095,1.904l-1.462,1.446c0.2-0.058,0.418-0.087,0.592-0.087h2.066
								V193.79z"/>
							<path fill="#231F20" d="M88.652,193.892c-1.08,0-1.918-0.847-1.918-2.697c0-1.858,0.838-2.704,1.918-2.704
								c1.081,0,1.923,0.846,1.923,2.704C90.575,193.045,89.733,193.892,88.652,193.892z M88.652,189.021
								c-0.659,0-1.254,0.539-1.254,2.174c0,1.619,0.595,2.169,1.254,2.169c0.668,0,1.266-0.55,1.266-2.169
								C89.918,189.56,89.32,189.021,88.652,189.021z"/>
							<path fill="#231F20" d="M94.165,193.79h-2.829v-0.527H92.5v-3.757c0-0.065,0-0.127,0.008-0.178l-0.95,0.846l-0.352-0.419
								l1.407-1.211h0.521v4.719h1.03V193.79z"/>
							<path fill="#231F20" d="M96.529,188.49c0.907,0,1.549,0.552,1.549,1.352c0,0.68-0.352,1.023-0.921,1.215
								c0.685,0.17,1.04,0.607,1.04,1.258c0,0.955-0.79,1.569-1.77,1.569c-1.128,0-1.534-0.607-1.784-1.374l0.588-0.246
								c0.015,0.08,0.047,0.188,0.104,0.325c0.222,0.456,0.541,0.73,1.085,0.73c0.75,0,1.117-0.527,1.117-0.99
								c0-0.561-0.24-0.977-1.356-0.977v-0.466c0.917-0.021,1.247-0.401,1.247-0.939c0-0.597-0.385-0.891-0.936-0.891
								c-0.602,0-1.037,0.441-1.037,1.024l-0.646-0.105C94.941,189.028,95.638,188.49,96.529,188.49z"/>
						</g>
					</g>
					<g>
						<g>
							<path fill="#231F20" d="M106.499,193.79h-3.515v-0.456l1.807-1.729c0.551-0.586,0.949-1.033,0.949-1.645
								c-0.021-0.625-0.42-0.919-0.964-0.919c-0.599,0-1.041,0.428-1.041,1.024l-0.642-0.105c0.138-0.962,0.826-1.479,1.719-1.479
								c0.892,0,1.588,0.538,1.588,1.465c0,0.776-0.5,1.315-1.095,1.904l-1.465,1.446c0.203-0.058,0.417-0.087,0.595-0.087h2.063
								V193.79z"/>
							<path fill="#231F20" d="M108.642,193.892c-1.084,0-1.922-0.847-1.922-2.697c0-1.858,0.838-2.704,1.922-2.704
								c1.081,0,1.922,0.846,1.922,2.704C110.563,193.045,109.723,193.892,108.642,193.892z M108.642,189.021
								c-0.663,0-1.255,0.539-1.255,2.174c0,1.619,0.592,2.169,1.255,2.169c0.664,0,1.263-0.55,1.263-2.169
								C109.904,189.56,109.306,189.021,108.642,189.021z"/>
							<path fill="#231F20" d="M114.15,193.79h-2.825v-0.527h1.161v-3.757c0-0.065,0-0.127,0.007-0.178l-0.95,0.846l-0.348-0.419
								l1.406-1.211h0.522v4.719h1.026V193.79z"/>
							<path fill="#231F20" d="M118.43,192.401h-0.794v1.389h-0.577v-1.389h-2.614v-0.484l2.578-3.402h0.613v3.373h0.794V192.401z
								 M117.059,189.712c0-0.123,0.008-0.294,0.029-0.441l-1.93,2.617h1.9V189.712z"/>
						</g>
					</g>
					<g>
						<g>
							<path fill="#231F20" d="M126.487,193.79h-3.514v-0.456l1.806-1.729c0.552-0.586,0.95-1.033,0.95-1.645
								c-0.021-0.625-0.42-0.919-0.964-0.919c-0.599,0-1.041,0.428-1.041,1.024l-0.643-0.105c0.139-0.962,0.827-1.479,1.72-1.479
								c0.892,0,1.588,0.538,1.588,1.465c0,0.776-0.5,1.315-1.095,1.904l-1.466,1.446c0.203-0.058,0.418-0.087,0.595-0.087h2.063
								V193.79z"/>
							<path fill="#231F20" d="M128.631,193.892c-1.084,0-1.922-0.847-1.922-2.697c0-1.858,0.838-2.704,1.922-2.704
								c1.081,0,1.922,0.846,1.922,2.704C130.553,193.045,129.712,193.892,128.631,193.892z M128.631,189.021
								c-0.663,0-1.255,0.539-1.255,2.174c0,1.619,0.592,2.169,1.255,2.169c0.664,0,1.262-0.55,1.262-2.169
								C129.893,189.56,129.295,189.021,128.631,189.021z"/>
							<path fill="#231F20" d="M134.14,193.79h-2.825v-0.527h1.16v-3.757c0-0.065,0-0.127,0.008-0.178l-0.95,0.846l-0.349-0.419
								l1.407-1.211h0.522v4.719h1.026V193.79z"/>
							<path fill="#231F20" d="M136.392,190.424c1.106,0,1.697,0.684,1.697,1.595c0,1.109-0.834,1.836-1.9,1.836
								c-0.624,0-1.153-0.257-1.476-0.563l0.352-0.478c0.312,0.264,0.726,0.456,1.153,0.456c0.726,0,1.244-0.449,1.244-1.215
								c0-0.688-0.442-1.085-1.193-1.085c-0.275,0-0.552,0.065-0.856,0.173l-0.42-0.123l0.428-2.469h2.506v0.597h-2.049
								l-0.236,1.366C135.884,190.449,136.134,190.424,136.392,190.424z"/>
						</g>
					</g>
					<g>
						<g>
							<path fill="#231F20" d="M146.477,193.79h-3.514v-0.456l1.806-1.729c0.552-0.586,0.95-1.033,0.95-1.645
								c-0.021-0.625-0.421-0.919-0.965-0.919c-0.598,0-1.04,0.428-1.04,1.024l-0.643-0.105c0.138-0.962,0.827-1.479,1.72-1.479
								c0.892,0,1.588,0.538,1.588,1.465c0,0.776-0.5,1.315-1.095,1.904l-1.466,1.446c0.203-0.058,0.417-0.087,0.595-0.087h2.063
								V193.79z"/>
							<path fill="#231F20" d="M148.62,193.892c-1.084,0-1.922-0.847-1.922-2.697c0-1.858,0.838-2.704,1.922-2.704
								c1.081,0,1.922,0.846,1.922,2.704C150.542,193.045,149.701,193.892,148.62,193.892z M148.62,189.021
								c-0.664,0-1.255,0.539-1.255,2.174c0,1.619,0.591,2.169,1.255,2.169s1.262-0.55,1.262-2.169
								C149.882,189.56,149.284,189.021,148.62,189.021z"/>
							<path fill="#231F20" d="M154.129,193.79h-2.825v-0.527h1.16v-3.757c0-0.065,0-0.127,0.008-0.178l-0.95,0.846l-0.349-0.419
								l1.407-1.211h0.522v4.719h1.026V193.79z"/>
							<path fill="#231F20" d="M155.735,190.857c0.261-0.169,0.551-0.271,0.899-0.271c0.859,0,1.574,0.57,1.574,1.572
								c0,0.969-0.744,1.725-1.813,1.725c-1.066,0-1.756-0.716-1.756-1.793c0-0.464,0.189-0.991,0.646-1.591l1.458-1.956h0.82
								l-1.574,1.97C155.866,190.688,155.786,190.8,155.735,190.857z M157.549,192.21c0-0.69-0.479-1.117-1.125-1.117
								c-0.703,0-1.152,0.513-1.152,1.103c0,0.684,0.395,1.139,1.109,1.139C157.069,193.334,157.549,192.856,157.549,192.21z"/>
						</g>
					</g>
					<g>
						<g>
							<path fill="#231F20" d="M166.462,193.79h-3.51v-0.456l1.806-1.729c0.552-0.586,0.95-1.033,0.95-1.645
								c-0.021-0.625-0.421-0.919-0.965-0.919c-0.602,0-1.044,0.428-1.044,1.024l-0.639-0.105c0.135-0.962,0.827-1.479,1.719-1.479
								c0.893,0,1.585,0.538,1.585,1.465c0,0.776-0.5,1.315-1.092,1.904l-1.465,1.446c0.199-0.058,0.414-0.087,0.595-0.087h2.06
								V193.79z"/>
							<path fill="#231F20" d="M168.609,193.892c-1.088,0-1.922-0.847-1.922-2.697c0-1.858,0.834-2.704,1.922-2.704
								c1.077,0,1.918,0.846,1.918,2.704C170.527,193.045,169.687,193.892,168.609,193.892z M168.609,189.021
								c-0.667,0-1.259,0.539-1.259,2.174c0,1.619,0.592,2.169,1.259,2.169c0.66,0,1.262-0.55,1.262-2.169
								C169.871,189.56,169.27,189.021,168.609,189.021z"/>
							<path fill="#231F20" d="M174.114,193.79h-2.825v-0.527h1.164v-3.757c0-0.065,0-0.127,0.008-0.178l-0.95,0.846l-0.349-0.419
								l1.407-1.211h0.519v4.719h1.026V193.79z"/>
							<path fill="#231F20" d="M178.19,188.992l-2.364,4.798h-0.722l2.136-4.267l0.239-0.397h-2.734v-0.554h3.445V188.992z"/>
						</g>
					</g>
					<g>
						<g>
							<path fill="#231F20" d="M186.451,193.79h-3.51v-0.456l1.806-1.729c0.551-0.586,0.95-1.033,0.95-1.645
								c-0.021-0.625-0.421-0.919-0.965-0.919c-0.602,0-1.044,0.428-1.044,1.024l-0.639-0.105c0.134-0.962,0.827-1.479,1.719-1.479
								c0.893,0,1.585,0.538,1.585,1.465c0,0.776-0.5,1.315-1.092,1.904l-1.465,1.446c0.199-0.058,0.413-0.087,0.595-0.087h2.06
								V193.79z"/>
							<path fill="#231F20" d="M188.599,193.892c-1.088,0-1.922-0.847-1.922-2.697c0-1.858,0.834-2.704,1.922-2.704
								c1.077,0,1.918,0.846,1.918,2.704C190.517,193.045,189.676,193.892,188.599,193.892z M188.599,189.021
								c-0.668,0-1.259,0.539-1.259,2.174c0,1.619,0.591,2.169,1.259,2.169c0.66,0,1.262-0.55,1.262-2.169
								C189.86,189.56,189.259,189.021,188.599,189.021z"/>
							<path fill="#231F20" d="M194.104,193.79h-2.825v-0.527h1.164v-3.757c0-0.065,0-0.127,0.007-0.178l-0.949,0.846l-0.349-0.419
								l1.407-1.211h0.519v4.719h1.026V193.79z"/>
							<path fill="#231F20" d="M198.172,192.387c0,0.933-0.747,1.526-1.802,1.526c-1.07,0-1.813-0.594-1.813-1.526
								c0-0.683,0.381-1.139,1.033-1.315c-0.54-0.206-0.841-0.629-0.841-1.223c0-0.773,0.631-1.403,1.621-1.403
								c0.957,0,1.621,0.63,1.621,1.403c0,0.601-0.283,1.017-0.856,1.223C197.799,191.248,198.172,191.704,198.172,192.387z
								 M197.476,192.38c0-0.73-0.515-1.038-1.105-1.038c-0.599,0-1.121,0.308-1.121,1.038c0,0.6,0.406,0.998,1.121,0.998
								C197.084,193.378,197.476,192.979,197.476,192.38z M195.401,189.867c0,0.478,0.247,0.954,0.969,0.954
								c0.707,0,0.957-0.477,0.957-0.954c0-0.495-0.315-0.904-0.957-0.904C195.714,188.963,195.401,189.372,195.401,189.867z"/>
						</g>
					</g>
					<g>
						<g>
							<path fill="#231F20" d="M206.44,193.79h-3.511v-0.456l1.807-1.729c0.551-0.586,0.95-1.033,0.95-1.645
								c-0.022-0.625-0.421-0.919-0.965-0.919c-0.602,0-1.044,0.428-1.044,1.024l-0.639-0.105c0.134-0.962,0.827-1.479,1.719-1.479
								c0.893,0,1.585,0.538,1.585,1.465c0,0.776-0.501,1.315-1.092,1.904l-1.465,1.446c0.199-0.058,0.413-0.087,0.595-0.087h2.06
								V193.79z"/>
							<path fill="#231F20" d="M208.588,193.892c-1.088,0-1.923-0.847-1.923-2.697c0-1.858,0.835-2.704,1.923-2.704
								c1.076,0,1.918,0.846,1.918,2.704C210.506,193.045,209.664,193.892,208.588,193.892z M208.588,189.021
								c-0.668,0-1.259,0.539-1.259,2.174c0,1.619,0.591,2.169,1.259,2.169c0.659,0,1.262-0.55,1.262-2.169
								C209.85,189.56,209.247,189.021,208.588,189.021z"/>
							<path fill="#231F20" d="M214.093,193.79h-2.825v-0.527h1.164v-3.757c0-0.065,0-0.127,0.007-0.178l-0.95,0.846l-0.348-0.419
								l1.407-1.211h0.519v4.719h1.026V193.79z"/>
							<path fill="#231F20" d="M217.124,191.32c-0.279,0.221-0.616,0.337-1.008,0.337c-0.819,0-1.505-0.543-1.505-1.533
								c0-0.934,0.736-1.679,1.776-1.679c1.026,0,1.708,0.709,1.708,1.729c0,0.619-0.231,1.096-0.631,1.642l-1.436,1.975h-0.82
								l1.629-2.072C216.986,191.52,217.073,191.382,217.124,191.32z M216.334,191.143c0.711,0,1.124-0.499,1.124-1.048
								c0-0.684-0.464-1.088-1.077-1.088c-0.664,0-1.106,0.434-1.106,1.066C215.274,190.767,215.674,191.143,216.334,191.143z"/>
						</g>
					</g>
					<g>
						<g>
							<path fill="#231F20" d="M226.43,193.79h-3.514v-0.456l1.806-1.729c0.548-0.586,0.95-1.033,0.95-1.645
								c-0.021-0.625-0.425-0.919-0.965-0.919c-0.599,0-1.041,0.428-1.041,1.024l-0.646-0.105c0.138-0.962,0.831-1.479,1.723-1.479
								c0.893,0,1.585,0.538,1.585,1.465c0,0.776-0.5,1.315-1.095,1.904l-1.462,1.446c0.199-0.058,0.417-0.087,0.591-0.087h2.067
								V193.79z"/>
							<path fill="#231F20" d="M228.569,193.892c-1.081,0-1.918-0.847-1.918-2.697c0-1.858,0.837-2.704,1.918-2.704
								s1.922,0.846,1.922,2.704C230.491,193.045,229.65,193.892,228.569,193.892z M228.569,189.021
								c-0.66,0-1.255,0.539-1.255,2.174c0,1.619,0.595,2.169,1.255,2.169c0.667,0,1.266-0.55,1.266-2.169
								C229.835,189.56,229.236,189.021,228.569,189.021z"/>
							<path fill="#231F20" d="M234.216,193.79h-3.514v-0.456l1.806-1.729c0.551-0.586,0.95-1.033,0.95-1.645
								c-0.021-0.625-0.421-0.919-0.965-0.919c-0.599,0-1.041,0.428-1.041,1.024l-0.642-0.105c0.138-0.962,0.827-1.479,1.719-1.479
								c0.893,0,1.589,0.538,1.589,1.465c0,0.776-0.501,1.315-1.096,1.904l-1.465,1.446c0.203-0.058,0.417-0.087,0.595-0.087h2.063
								V193.79z"/>
							<path fill="#231F20" d="M236.359,193.892c-1.085,0-1.923-0.847-1.923-2.697c0-1.858,0.838-2.704,1.923-2.704
								c1.08,0,1.922,0.846,1.922,2.704C238.281,193.045,237.439,193.892,236.359,193.892z M236.359,189.021
								c-0.664,0-1.255,0.539-1.255,2.174c0,1.619,0.591,2.169,1.255,2.169c0.663,0,1.262-0.55,1.262-2.169
								C237.621,189.56,237.022,189.021,236.359,189.021z"/>
						</g>
					</g>
					<g>
						<g>
							<path fill="#231F20" d="M246.419,193.79h-3.511v-0.456l1.807-1.729c0.547-0.586,0.949-1.033,0.949-1.645
								c-0.021-0.625-0.424-0.919-0.964-0.919c-0.603,0-1.045,0.428-1.045,1.024l-0.642-0.105c0.134-0.962,0.827-1.479,1.723-1.479
								c0.892,0,1.581,0.538,1.581,1.465c0,0.776-0.501,1.315-1.092,1.904l-1.461,1.446c0.195-0.058,0.413-0.087,0.591-0.087h2.063
								V193.79z"/>
							<path fill="#231F20" d="M248.563,193.892c-1.085,0-1.919-0.847-1.919-2.697c0-1.858,0.834-2.704,1.919-2.704
								c1.076,0,1.918,0.846,1.918,2.704C250.48,193.045,249.639,193.892,248.563,193.892z M248.563,189.021
								c-0.664,0-1.259,0.539-1.259,2.174c0,1.619,0.595,2.169,1.259,2.169c0.663,0,1.266-0.55,1.266-2.169
								C249.828,189.56,249.226,189.021,248.563,189.021z"/>
							<path fill="#231F20" d="M254.209,193.79h-3.515v-0.456l1.806-1.729c0.548-0.586,0.95-1.033,0.95-1.645
								c-0.021-0.625-0.424-0.919-0.964-0.919c-0.599,0-1.041,0.428-1.041,1.024l-0.646-0.105c0.138-0.962,0.83-1.479,1.723-1.479
								c0.892,0,1.585,0.538,1.585,1.465c0,0.776-0.501,1.315-1.096,1.904l-1.461,1.446c0.199-0.058,0.417-0.087,0.591-0.087h2.067
								V193.79z"/>
							<path fill="#231F20" d="M257.966,193.79h-2.829v-0.527h1.164v-3.757c0-0.065,0-0.127,0.008-0.178l-0.95,0.846l-0.353-0.419
								l1.407-1.211h0.522v4.719h1.03V193.79z"/>
						</g>
					</g>
					<g>
						<g>
							<path fill="#231F20" d="M266.089,193.79h-3.514v-0.456l1.806-1.729c0.548-0.586,0.95-1.033,0.95-1.645
								c-0.021-0.625-0.425-0.919-0.965-0.919c-0.599,0-1.041,0.428-1.041,1.024l-0.646-0.105c0.138-0.962,0.831-1.479,1.723-1.479
								c0.893,0,1.585,0.538,1.585,1.465c0,0.776-0.5,1.315-1.095,1.904l-1.462,1.446c0.199-0.058,0.417-0.087,0.591-0.087h2.067
								V193.79z"/>
							<path fill="#231F20" d="M268.229,193.892c-1.081,0-1.918-0.847-1.918-2.697c0-1.858,0.837-2.704,1.918-2.704
								s1.922,0.846,1.922,2.704C270.15,193.045,269.31,193.892,268.229,193.892z M268.229,189.021c-0.66,0-1.255,0.539-1.255,2.174
								c0,1.619,0.595,2.169,1.255,2.169c0.667,0,1.266-0.55,1.266-2.169C269.494,189.56,268.896,189.021,268.229,189.021z"/>
							<path fill="#231F20" d="M273.875,193.79h-3.514v-0.456l1.806-1.729c0.551-0.586,0.95-1.033,0.95-1.645
								c-0.022-0.625-0.421-0.919-0.965-0.919c-0.599,0-1.041,0.428-1.041,1.024l-0.642-0.105c0.138-0.962,0.827-1.479,1.719-1.479
								c0.893,0,1.589,0.538,1.589,1.465c0,0.776-0.501,1.315-1.096,1.904l-1.465,1.446c0.203-0.058,0.417-0.087,0.595-0.087h2.063
								V193.79z"/>
							<path fill="#231F20" d="M277.766,193.79h-3.51v-0.456l1.806-1.729c0.552-0.586,0.95-1.033,0.95-1.645
								c-0.021-0.625-0.421-0.919-0.965-0.919c-0.602,0-1.044,0.428-1.044,1.024l-0.639-0.105c0.135-0.962,0.827-1.479,1.719-1.479
								c0.893,0,1.585,0.538,1.585,1.465c0,0.776-0.5,1.315-1.092,1.904l-1.465,1.446c0.199-0.058,0.414-0.087,0.595-0.087h2.06
								V193.79z"/>
						</g>
					</g>
				</g>
			</g>
		</g>
		<g>
			<g>
				<g>
					<polygon fill="#048743" points="50.184,154.686 30.194,124.626 31.05,124.063 51.039,154.121 					"/>
					<polygon fill="#048743" points="50.865,154.851 50.357,153.962 70.347,142.688 70.854,143.578 					"/>
					
						<rect x="69.551" y="147.317" transform="matrix(0.905 0.4255 -0.4255 0.905 70.5579 -20.2422)" fill="#048743" width="22.084" height="1.023"/>
					<polygon fill="#048743" points="110.321,164.244 90.332,152.972 90.84,152.082 110.829,163.355 					"/>
					
						<rect x="109.526" y="167.985" transform="matrix(0.905 0.4253 -0.4253 0.905 83.1183 -35.2807)" fill="#048743" width="22.082" height="1.023"/>
					<polygon fill="#048743" points="130.959,173.515 130.161,172.87 150.15,148.444 150.948,149.096 					"/>
					<polygon fill="#048743" points="150.804,149.215 150.296,148.325 170.285,137.049 170.792,137.938 					"/>
					
						<rect x="180.019" y="100.946" transform="matrix(0.8615 0.5078 -0.5078 0.8615 86.2355 -74.9666)" fill="#048743" width="1.027" height="39.284"/>
					
						<rect x="200.011" y="83.659" transform="matrix(0.602 0.7985 -0.7985 0.602 156.5989 -121.8443)" fill="#048743" width="1.024" height="25.009"/>
					
						<rect x="220" y="76.601" transform="matrix(0.1843 0.9829 -0.9829 0.1843 265.1437 -145.9577)" fill="#048743" width="1.022" height="20.338"/>
					<polygon fill="#048743" points="250.11,107.774 230.121,85.229 230.891,84.553 250.88,107.099 					"/>
				</g>
			</g>
			
				<rect x="248.247" y="113.93" transform="matrix(0.8133 0.5818 -0.5818 0.8133 115.1681 -130.0731)" fill="#048743" width="24.087" height="1.023"/>
		</g>
		<g>
			<g>
				<g>
					<g>
						<path fill="#FFFFFF" d="M32.765,124.344c0,1.183-0.961,2.141-2.143,2.141c-1.189,0-2.147-0.958-2.147-2.141
							c0-1.178,0.958-2.14,2.147-2.14C31.804,122.204,32.765,123.166,32.765,124.344z"/>
						<path fill="#048743" d="M30.622,127.251c-1.606,0-2.916-1.302-2.916-2.907c0-1.602,1.31-2.906,2.916-2.906
							s2.912,1.305,2.912,2.906C33.534,125.949,32.229,127.251,30.622,127.251z M30.622,122.97c-0.762,0-1.378,0.618-1.378,1.374
							c0,0.76,0.617,1.374,1.378,1.374c0.758,0,1.375-0.614,1.375-1.374C31.997,123.588,31.38,122.97,30.622,122.97z"/>
					</g>
					<g>
						<path fill="#FFFFFF" d="M52.751,154.403c0,1.182-0.958,2.14-2.14,2.14c-1.189,0-2.147-0.958-2.147-2.14
							c0-1.179,0.958-2.137,2.147-2.137C51.793,152.267,52.751,153.225,52.751,154.403z"/>
						<path fill="#048743" d="M50.611,157.31c-1.606,0-2.916-1.301-2.916-2.906c0-1.599,1.31-2.903,2.916-2.903
							c1.603,0,2.908,1.305,2.908,2.903C53.52,156.009,52.214,157.31,50.611,157.31z M50.611,153.032
							c-0.762,0-1.378,0.618-1.378,1.371c0,0.759,0.616,1.374,1.378,1.374c0.754,0,1.37-0.615,1.37-1.374
							C51.981,153.65,51.365,153.032,50.611,153.032z"/>
					</g>
					<g>
						<path fill="#FFFFFF" d="M72.74,143.13c0,1.186-0.958,2.141-2.14,2.141c-1.187,0-2.147-0.955-2.147-2.141
							c0-1.179,0.961-2.133,2.147-2.133C71.782,140.997,72.74,141.951,72.74,143.13z"/>
						<path fill="#048743" d="M70.601,146.036c-1.606,0-2.916-1.301-2.916-2.906c0-1.598,1.31-2.899,2.916-2.899
							c1.603,0,2.908,1.302,2.908,2.899C73.509,144.735,72.203,146.036,70.601,146.036z M70.601,141.763
							c-0.762,0-1.379,0.615-1.379,1.367c0,0.76,0.617,1.374,1.379,1.374c0.754,0,1.37-0.614,1.37-1.374
							C71.971,142.378,71.354,141.763,70.601,141.763z"/>
					</g>
					<g>
						<ellipse fill="#FFFFFF" cx="90.583" cy="152.526" rx="2.145" ry="2.138"/>
						<path fill="#048743" d="M90.586,155.43c-1.606,0-2.916-1.302-2.916-2.903s1.31-2.903,2.916-2.903s2.912,1.302,2.912,2.903
							S92.192,155.43,90.586,155.43z M90.586,151.156c-0.762,0-1.378,0.614-1.378,1.37s0.616,1.37,1.378,1.37
							c0.758,0,1.374-0.614,1.374-1.37S91.344,151.156,90.586,151.156z"/>
					</g>
					<g>
						<path fill="#FFFFFF" d="M112.718,163.8c0,1.182-0.961,2.137-2.143,2.137c-1.187,0-2.144-0.955-2.144-2.137
							c0-1.183,0.957-2.137,2.144-2.137C111.757,161.663,112.718,162.617,112.718,163.8z"/>
						<path fill="#048743" d="M110.575,166.703c-1.606,0-2.912-1.302-2.912-2.903c0-1.603,1.306-2.903,2.912-2.903
							s2.912,1.301,2.912,2.903C113.487,165.401,112.182,166.703,110.575,166.703z M110.575,162.43c-0.759,0-1.375,0.614-1.375,1.37
							c0,0.755,0.616,1.37,1.375,1.37c0.758,0,1.374-0.615,1.374-1.37C111.949,163.044,111.333,162.43,110.575,162.43z"/>
					</g>
					<g>
						<ellipse fill="#FFFFFF" cx="130.562" cy="173.192" rx="2.145" ry="2.137"/>
						<path fill="#048743" d="M130.561,176.096c-1.606,0-2.912-1.302-2.912-2.903s1.306-2.903,2.912-2.903s2.915,1.302,2.915,2.903
							S132.167,176.096,130.561,176.096z M130.561,171.822c-0.758,0-1.375,0.615-1.375,1.37c0,0.756,0.617,1.37,1.375,1.37
							c0.762,0,1.378-0.614,1.378-1.37C131.938,172.438,131.322,171.822,130.561,171.822z"/>
					</g>
					<g>
						<ellipse fill="#FFFFFF" cx="150.551" cy="148.771" rx="2.145" ry="2.137"/>
						<path fill="#048743" d="M150.55,151.673c-1.606,0-2.912-1.301-2.912-2.902c0-1.603,1.306-2.907,2.912-2.907
							s2.915,1.305,2.915,2.907C153.465,150.372,152.156,151.673,150.55,151.673z M150.55,147.396c-0.759,0-1.375,0.618-1.375,1.375
							c0,0.756,0.616,1.37,1.375,1.37c0.761,0,1.378-0.614,1.378-1.37C151.928,148.014,151.311,147.396,150.55,147.396z"/>
					</g>
					<g>
						<path fill="#FFFFFF" d="M172.686,137.497c0,1.179-0.965,2.137-2.147,2.137c-1.182,0-2.146-0.958-2.146-2.137
							s0.965-2.141,2.146-2.141C171.721,135.356,172.686,136.318,172.686,137.497z"/>
						<path fill="#048743" d="M170.538,140.4c-1.606,0-2.915-1.305-2.915-2.903c0-1.605,1.309-2.906,2.915-2.906
							c1.607,0,2.916,1.301,2.916,2.906C173.454,139.096,172.146,140.4,170.538,140.4z M170.538,136.123
							c-0.761,0-1.378,0.614-1.378,1.374c0,0.752,0.617,1.37,1.378,1.37c0.762,0,1.379-0.618,1.379-1.37
							C171.917,136.737,171.3,136.123,170.538,136.123z"/>
					</g>
					<g>
						<path fill="#FFFFFF" d="M192.675,103.679c0,1.182-0.965,2.14-2.147,2.14c-1.182,0-2.146-0.958-2.146-2.14
							c0-1.179,0.965-2.138,2.146-2.138C191.71,101.541,192.675,102.5,192.675,103.679z"/>
						<path fill="#048743" d="M190.527,106.585c-1.606,0-2.915-1.305-2.915-2.906c0-1.603,1.309-2.903,2.915-2.903
							s2.916,1.301,2.916,2.903C193.443,105.28,192.134,106.585,190.527,106.585z M190.527,102.308
							c-0.762,0-1.378,0.614-1.378,1.371c0,0.755,0.616,1.373,1.378,1.373s1.378-0.618,1.378-1.373
							C191.905,102.922,191.289,102.308,190.527,102.308z"/>
					</g>
					<g>
						<circle fill="#FFFFFF" cx="210.515" cy="88.648" r="2.145"/>
						<path fill="#048743" d="M210.517,91.556c-1.606,0-2.915-1.304-2.915-2.907c0-1.602,1.309-2.903,2.915-2.903
							s2.912,1.302,2.912,2.903C213.429,90.252,212.123,91.556,210.517,91.556z M210.517,87.278c-0.762,0-1.378,0.615-1.378,1.37
							c0,0.758,0.616,1.374,1.378,1.374c0.758,0,1.375-0.616,1.375-1.374C211.892,87.894,211.274,87.278,210.517,87.278z"/>
					</g>
					<g>
						<ellipse fill="#FFFFFF" cx="230.504" cy="84.891" rx="2.145" ry="2.139"/>
						<path fill="#048743" d="M230.506,87.796c-1.606,0-2.916-1.304-2.916-2.905s1.31-2.905,2.916-2.905s2.912,1.304,2.912,2.905
							S232.112,87.796,230.506,87.796z M230.506,83.519c-0.762,0-1.378,0.616-1.378,1.372s0.616,1.372,1.378,1.372
							c0.758,0,1.374-0.616,1.374-1.372S231.264,83.519,230.506,83.519z"/>
					</g>
					<g>
						<path fill="#FFFFFF" d="M252.635,107.438c0,1.18-0.957,2.138-2.14,2.138c-1.186,0-2.147-0.958-2.147-2.138
							c0-1.182,0.962-2.14,2.147-2.14C251.678,105.298,252.635,106.256,252.635,107.438z"/>
						<path fill="#048743" d="M250.495,110.342c-1.606,0-2.916-1.306-2.916-2.904c0-1.604,1.31-2.906,2.916-2.906
							c1.603,0,2.908,1.302,2.908,2.906C253.403,109.036,252.098,110.342,250.495,110.342z M250.495,106.064
							c-0.762,0-1.378,0.614-1.378,1.373c0,0.752,0.616,1.371,1.378,1.371c0.754,0,1.371-0.619,1.371-1.371
							C251.866,106.679,251.249,106.064,250.495,106.064z"/>
					</g>
					<g>
						<g>
							<path fill="#048743" d="M19.88,117.619c-0.392,0.456-0.979,0.684-1.763,0.684c-0.791,0-1.378-0.228-1.77-0.684
								c-0.515-0.6-0.74-1.508-0.74-2.979c0-1.475,0.225-2.378,0.74-2.979c0.392-0.456,0.979-0.684,1.77-0.684
								c0.784,0,1.371,0.228,1.763,0.684c0.515,0.601,0.74,1.504,0.74,2.979C20.62,116.111,20.396,117.02,19.88,117.619z
								 M18.734,112.583c-0.152-0.231-0.348-0.329-0.617-0.329c-0.268,0-0.479,0.098-0.624,0.329
								c-0.185,0.308-0.247,0.951-0.247,2.057c0,1.106,0.062,1.735,0.247,2.058c0.145,0.231,0.355,0.329,0.624,0.329
								c0.269,0,0.464-0.098,0.617-0.329c0.185-0.322,0.247-0.951,0.247-2.058C18.981,113.534,18.919,112.891,18.734,112.583z"/>
							<path fill="#048743" d="M22.756,118.176h-1.61v-1.594h1.61V118.176z"/>
							<path fill="#048743" d="M25.479,118.176v-5.586l-1.451,0.647v-1.355l1.694-0.781h1.403v7.075H25.479z"/>
							<path fill="#048743" d="M31.826,116.101c0-0.744-0.301-1.019-0.994-1.019h-0.544v-1.26h0.544c0.497,0,0.827-0.23,0.827-0.83
								c0-0.471-0.239-0.738-0.642-0.738c-0.399,0-0.642,0.268-0.642,0.738v0.123h-1.582v-0.196c0-1.152,0.82-1.941,2.223-1.941
								c1.396,0,2.234,0.8,2.234,1.913c0,0.854-0.438,1.33-1.084,1.525c0.841,0.206,1.298,0.846,1.298,1.758
								c0,1.286-0.979,2.129-2.448,2.129s-2.437-0.843-2.437-2.129v-0.221h1.628v0.147c0,0.597,0.294,0.926,0.809,0.926
								C31.536,117.026,31.826,116.697,31.826,116.101z"/>
						</g>
					</g>
					<g>
						<g>
							<path fill="#048743" d="M32.087,162.621h3.416v1.294h-3.416V162.621z"/>
							<path fill="#048743" d="M40.015,166.001c-0.392,0.452-0.979,0.681-1.763,0.681c-0.791,0-1.378-0.229-1.77-0.681
								c-0.515-0.604-0.74-1.511-0.74-2.979c0-1.476,0.225-2.38,0.74-2.982c0.392-0.452,0.979-0.684,1.77-0.684
								c0.783,0,1.371,0.231,1.763,0.684c0.515,0.603,0.74,1.507,0.74,2.982C40.754,164.49,40.529,165.397,40.015,166.001z
								 M38.869,160.961c-0.152-0.231-0.348-0.325-0.617-0.325c-0.265,0-0.479,0.094-0.62,0.325c-0.185,0.312-0.25,0.951-0.25,2.062
								c0,1.106,0.065,1.735,0.25,2.054c0.142,0.231,0.355,0.332,0.62,0.332c0.269,0,0.464-0.101,0.617-0.332
								c0.188-0.318,0.247-0.947,0.247-2.054C39.115,161.912,39.057,161.272,38.869,160.961z"/>
							<path fill="#048743" d="M42.891,166.559h-1.61v-1.599h1.61V166.559z"/>
							<path fill="#048743" d="M47.681,166.001c-0.392,0.452-0.979,0.681-1.763,0.681c-0.79,0-1.378-0.229-1.77-0.681
								c-0.515-0.604-0.739-1.511-0.739-2.979c0-1.476,0.225-2.38,0.739-2.982c0.392-0.452,0.979-0.684,1.77-0.684
								c0.784,0,1.371,0.231,1.763,0.684c0.516,0.603,0.74,1.507,0.74,2.982C48.421,164.49,48.196,165.397,47.681,166.001z
								 M46.535,160.961c-0.152-0.231-0.349-0.325-0.617-0.325c-0.265,0-0.479,0.094-0.62,0.325c-0.185,0.312-0.25,0.951-0.25,2.062
								c0,1.106,0.065,1.735,0.25,2.054c0.142,0.231,0.355,0.332,0.62,0.332c0.269,0,0.465-0.101,0.617-0.332
								c0.188-0.318,0.246-0.947,0.246-2.054C46.781,161.912,46.724,161.272,46.535,160.961z"/>
							<path fill="#048743" d="M51.96,164.483c0-0.745-0.301-1.021-0.993-1.021h-0.544v-1.258h0.544
								c0.496,0,0.826-0.231,0.826-0.836c0-0.469-0.239-0.733-0.642-0.733c-0.398,0-0.642,0.265-0.642,0.733v0.127h-1.581v-0.194
								c0-1.158,0.819-1.945,2.223-1.945c1.396,0,2.234,0.799,2.234,1.916c0,0.854-0.439,1.33-1.085,1.525
								c0.842,0.203,1.299,0.843,1.299,1.757c0,1.288-0.979,2.127-2.448,2.127s-2.437-0.839-2.437-2.127v-0.224h1.628v0.152
								c0,0.593,0.294,0.925,0.809,0.925C51.67,165.408,51.96,165.076,51.96,164.483z"/>
						</g>
					</g>
					<g>
						<g>
							<path fill="#048743" d="M72.072,160.578h3.416v1.294h-3.416V160.578z"/>
							<path fill="#048743" d="M80,163.955c-0.392,0.455-0.979,0.684-1.763,0.684c-0.79,0-1.378-0.229-1.77-0.684
								c-0.515-0.6-0.74-1.508-0.74-2.979c0-1.475,0.226-2.379,0.74-2.979c0.392-0.456,0.979-0.684,1.77-0.684
								c0.783,0,1.371,0.228,1.763,0.684c0.515,0.6,0.74,1.504,0.74,2.979C80.74,162.447,80.515,163.355,80,163.955z
								 M78.854,158.918c-0.152-0.23-0.349-0.328-0.617-0.328c-0.265,0-0.479,0.098-0.62,0.328c-0.185,0.308-0.25,0.951-0.25,2.058
								s0.065,1.735,0.25,2.058c0.142,0.231,0.355,0.329,0.62,0.329c0.269,0,0.465-0.098,0.617-0.329
								c0.188-0.322,0.246-0.951,0.246-2.058S79.043,159.226,78.854,158.918z"/>
							<path fill="#048743" d="M82.876,164.512h-1.61v-1.595h1.61V164.512z"/>
							<path fill="#048743" d="M87.666,163.955c-0.392,0.455-0.979,0.684-1.762,0.684c-0.791,0-1.379-0.229-1.771-0.684
								c-0.515-0.6-0.739-1.508-0.739-2.979c0-1.475,0.225-2.379,0.739-2.979c0.392-0.456,0.979-0.684,1.771-0.684
								c0.783,0,1.37,0.228,1.762,0.684c0.516,0.6,0.74,1.504,0.74,2.979C88.406,162.447,88.182,163.355,87.666,163.955z
								 M86.521,158.918c-0.152-0.23-0.349-0.328-0.616-0.328c-0.266,0-0.479,0.098-0.62,0.328
								c-0.186,0.308-0.251,0.951-0.251,2.058s0.065,1.735,0.251,2.058c0.141,0.231,0.354,0.329,0.62,0.329
								c0.268,0,0.464-0.098,0.616-0.329c0.188-0.322,0.246-0.951,0.246-2.058S86.709,159.226,86.521,158.918z"/>
							<path fill="#048743" d="M92.729,161.232l-1.751,2.007h2.6v1.272h-4.663v-1.179l2.455-2.82c0.337-0.391,0.46-0.672,0.46-1.069
								c0-0.543-0.221-0.854-0.692-0.854c-0.46,0-0.692,0.304-0.692,0.854v0.311h-1.64v-0.304c0-1.164,0.827-2.137,2.332-2.137
								c1.52,0,2.332,0.973,2.332,2.137C93.469,160.188,93.28,160.604,92.729,161.232z"/>
						</g>
					</g>
					<g>
						<g>
							<path fill="#048743" d="M91.945,172.162h3.416v1.294h-3.416V172.162z"/>
							<path fill="#048743" d="M99.873,175.539c-0.392,0.456-0.979,0.684-1.763,0.684c-0.79,0-1.378-0.228-1.77-0.684
								c-0.515-0.601-0.739-1.508-0.739-2.979c0-1.476,0.225-2.38,0.739-2.98c0.392-0.455,0.979-0.683,1.77-0.683
								c0.783,0,1.371,0.228,1.763,0.683c0.515,0.601,0.74,1.505,0.74,2.98C100.613,174.031,100.388,174.938,99.873,175.539z
								 M98.728,170.503c-0.152-0.231-0.349-0.329-0.617-0.329c-0.265,0-0.479,0.098-0.62,0.329c-0.185,0.307-0.25,0.951-0.25,2.058
								c0,1.105,0.065,1.734,0.25,2.057c0.142,0.23,0.355,0.329,0.62,0.329c0.269,0,0.465-0.099,0.617-0.329
								c0.188-0.322,0.246-0.951,0.246-2.057C98.974,171.454,98.916,170.81,98.728,170.503z"/>
							<path fill="#048743" d="M102.749,176.096h-1.61v-1.594h1.61V176.096z"/>
							<path fill="#048743" d="M107.539,175.539c-0.392,0.456-0.979,0.684-1.762,0.684c-0.791,0-1.379-0.228-1.771-0.684
								c-0.515-0.601-0.739-1.508-0.739-2.979c0-1.476,0.225-2.38,0.739-2.98c0.392-0.455,0.979-0.683,1.771-0.683
								c0.783,0,1.37,0.228,1.762,0.683c0.516,0.601,0.74,1.505,0.74,2.98C108.279,174.031,108.055,174.938,107.539,175.539z
								 M106.394,170.503c-0.152-0.231-0.349-0.329-0.616-0.329c-0.265,0-0.479,0.098-0.62,0.329
								c-0.186,0.307-0.251,0.951-0.251,2.058c0,1.105,0.065,1.734,0.251,2.057c0.141,0.23,0.355,0.329,0.62,0.329
								c0.268,0,0.464-0.099,0.616-0.329c0.188-0.322,0.246-0.951,0.246-2.057C106.64,171.454,106.582,170.81,106.394,170.503z"/>
							<path fill="#048743" d="M113.367,170.803c0,0.729-0.424,1.315-1.041,1.533c0.766,0.274,1.248,0.854,1.248,1.757
								c0,1.316-0.998,2.13-2.539,2.13c-1.545,0-2.542-0.813-2.542-2.13c0-0.903,0.482-1.482,1.244-1.757
								c-0.613-0.218-1.03-0.804-1.03-1.533c0-1.128,0.878-1.905,2.328-1.905C112.479,168.897,113.367,169.675,113.367,170.803z
								 M111.942,173.94c0-0.643-0.363-0.99-0.907-0.99c-0.551,0-0.914,0.348-0.914,0.99c0,0.651,0.363,1.006,0.914,1.006
								C111.579,174.946,111.942,174.592,111.942,173.94z M111.757,170.955c0-0.488-0.265-0.781-0.722-0.781
								c-0.46,0-0.736,0.293-0.736,0.781s0.276,0.773,0.736,0.773C111.492,171.729,111.757,171.443,111.757,170.955z"/>
						</g>
					</g>
					<g>
						<g>
							<path fill="#048743" d="M134.601,172.162h3.416v1.294h-3.416V172.162z"/>
							<path fill="#048743" d="M142.524,175.539c-0.389,0.456-0.976,0.684-1.759,0.684c-0.795,0-1.379-0.228-1.771-0.684
								c-0.519-0.601-0.739-1.508-0.739-2.979c0-1.476,0.221-2.38,0.739-2.98c0.392-0.455,0.976-0.683,1.771-0.683
								c0.783,0,1.37,0.228,1.759,0.683c0.519,0.601,0.739,1.505,0.739,2.98C143.264,174.031,143.043,174.938,142.524,175.539z
								 M141.378,170.503c-0.152-0.231-0.348-0.329-0.612-0.329c-0.269,0-0.482,0.098-0.624,0.329
								c-0.188,0.307-0.25,0.951-0.25,2.058c0,1.105,0.062,1.734,0.25,2.057c0.142,0.23,0.355,0.329,0.624,0.329
								c0.265,0,0.46-0.099,0.612-0.329c0.186-0.322,0.25-0.951,0.25-2.057C141.628,171.454,141.563,170.81,141.378,170.503z"/>
							<path fill="#048743" d="M145.399,176.096h-1.609v-1.594h1.609V176.096z"/>
							<path fill="#048743" d="M148.127,176.096v-5.586l-1.45,0.646v-1.355l1.689-0.78h1.407v7.075H148.127z"/>
							<path fill="#048743" d="M154.474,174.021c0-0.745-0.305-1.02-1.001-1.02h-0.541v-1.259h0.541c0.5,0,0.83-0.231,0.83-0.831
								c0-0.471-0.243-0.737-0.642-0.737c-0.399,0-0.639,0.267-0.639,0.737v0.123h-1.585v-0.195c0-1.153,0.816-1.941,2.224-1.941
								c1.399,0,2.233,0.799,2.233,1.912c0,0.854-0.435,1.33-1.088,1.526c0.849,0.206,1.302,0.846,1.302,1.757
								c0,1.287-0.979,2.13-2.447,2.13c-1.465,0-2.438-0.843-2.438-2.13v-0.221h1.629v0.148c0,0.597,0.293,0.926,0.809,0.926
								C154.176,174.946,154.474,174.617,154.474,174.021z"/>
						</g>
					</g>
					<g>
						<g>
							<path fill="#048743" d="M139.735,143.174c-0.392,0.452-0.979,0.679-1.763,0.679c-0.79,0-1.378-0.227-1.77-0.679
								c-0.515-0.604-0.74-1.512-0.74-2.979c0-1.475,0.226-2.379,0.74-2.983c0.392-0.451,0.979-0.683,1.77-0.683
								c0.783,0,1.371,0.231,1.763,0.683c0.515,0.604,0.739,1.509,0.739,2.983C140.475,141.662,140.25,142.569,139.735,143.174z
								 M138.589,138.134c-0.152-0.231-0.348-0.326-0.616-0.326c-0.265,0-0.479,0.095-0.62,0.326c-0.185,0.311-0.25,0.95-0.25,2.061
								c0,1.106,0.065,1.735,0.25,2.053c0.142,0.231,0.355,0.333,0.62,0.333c0.269,0,0.464-0.102,0.616-0.333
								c0.189-0.317,0.247-0.946,0.247-2.053C138.836,139.084,138.778,138.444,138.589,138.134z"/>
							<path fill="#048743" d="M142.614,143.729h-1.609v-1.598h1.609V143.729z"/>
							<path fill="#048743" d="M147.401,143.174c-0.392,0.452-0.979,0.679-1.763,0.679c-0.79,0-1.378-0.227-1.77-0.679
								c-0.515-0.604-0.739-1.512-0.739-2.979c0-1.475,0.225-2.379,0.739-2.983c0.392-0.451,0.979-0.683,1.77-0.683
								c0.784,0,1.371,0.231,1.763,0.683c0.516,0.604,0.74,1.509,0.74,2.983C148.142,141.662,147.917,142.569,147.401,143.174z
								 M146.256,138.134c-0.152-0.231-0.349-0.326-0.617-0.326c-0.265,0-0.479,0.095-0.619,0.326
								c-0.186,0.311-0.251,0.95-0.251,2.061c0,1.106,0.065,1.735,0.251,2.053c0.141,0.231,0.354,0.333,0.619,0.333
								c0.269,0,0.465-0.102,0.617-0.333c0.188-0.317,0.246-0.946,0.246-2.053C146.502,139.084,146.444,138.444,146.256,138.134z"/>
							<path fill="#048743" d="M152.66,143.174c-0.389,0.452-0.976,0.679-1.759,0.679c-0.794,0-1.378-0.227-1.77-0.679
								c-0.519-0.604-0.74-1.512-0.74-2.979c0-1.475,0.222-2.379,0.74-2.983c0.392-0.451,0.976-0.683,1.77-0.683
								c0.783,0,1.37,0.231,1.759,0.683c0.519,0.604,0.739,1.509,0.739,2.983C153.399,141.662,153.179,142.569,152.66,143.174z
								 M151.514,138.134c-0.152-0.231-0.348-0.326-0.612-0.326s-0.482,0.095-0.62,0.326c-0.188,0.311-0.254,0.95-0.254,2.061
								c0,1.106,0.065,1.735,0.254,2.053c0.138,0.231,0.355,0.333,0.62,0.333s0.46-0.102,0.612-0.333
								c0.189-0.317,0.251-0.946,0.251-2.053C151.765,139.084,151.703,138.444,151.514,138.134z"/>
						</g>
					</g>
					<g>
						<g>
							<path fill="#048743" d="M159.775,130.906c-0.392,0.452-0.979,0.683-1.763,0.683c-0.791,0-1.378-0.23-1.77-0.683
								c-0.516-0.604-0.74-1.508-0.74-2.979s0.225-2.375,0.74-2.982c0.392-0.448,0.979-0.68,1.77-0.68
								c0.783,0,1.371,0.231,1.763,0.68c0.515,0.607,0.739,1.511,0.739,2.982S160.29,130.303,159.775,130.906z M158.629,125.87
								c-0.152-0.231-0.348-0.329-0.616-0.329s-0.479,0.098-0.624,0.329c-0.185,0.311-0.246,0.946-0.246,2.057
								s0.062,1.739,0.246,2.058c0.146,0.231,0.355,0.329,0.624,0.329s0.464-0.098,0.616-0.329c0.186-0.318,0.247-0.947,0.247-2.058
								S158.814,126.181,158.629,125.87z"/>
							<path fill="#048743" d="M162.651,131.466h-1.61v-1.598h1.61V131.466z"/>
							<path fill="#048743" d="M167.441,130.906c-0.392,0.452-0.979,0.683-1.763,0.683c-0.79,0-1.378-0.23-1.77-0.683
								c-0.515-0.604-0.739-1.508-0.739-2.979s0.225-2.375,0.739-2.982c0.392-0.448,0.979-0.68,1.77-0.68
								c0.783,0,1.371,0.231,1.763,0.68c0.515,0.607,0.74,1.511,0.74,2.982S167.956,130.303,167.441,130.906z M166.296,125.87
								c-0.152-0.231-0.349-0.329-0.617-0.329c-0.268,0-0.479,0.098-0.623,0.329c-0.186,0.311-0.247,0.946-0.247,2.057
								s0.062,1.739,0.247,2.058c0.145,0.231,0.355,0.329,0.623,0.329c0.269,0,0.465-0.098,0.617-0.329
								c0.185-0.318,0.246-0.947,0.246-2.058S166.48,126.181,166.296,125.87z"/>
							<path fill="#048743" d="M171.627,126.17c-0.037-0.452-0.243-0.672-0.643-0.672c-0.569,0-0.809,0.538-0.838,1.959
								c0.226-0.365,0.668-0.586,1.204-0.586c1.128,0,2.035,0.85,2.035,2.34c0,1.457-0.933,2.378-2.383,2.378
								c-0.882,0-1.585-0.317-2.002-1.001c-0.377-0.611-0.472-1.472-0.472-2.477c0-2.802,0.791-3.847,2.48-3.847
								c1.316,0,2.147,0.708,2.234,1.905H171.627z M170.967,130.313c0.508,0,0.783-0.38,0.783-1.11c0-0.737-0.275-1.117-0.783-1.117
								c-0.516,0-0.783,0.38-0.783,1.117C170.184,129.934,170.451,130.313,170.967,130.313z"/>
						</g>
					</g>
					<g>
						<g>
							<path fill="#048743" d="M179.765,98.88c-0.392,0.452-0.979,0.684-1.763,0.684c-0.791,0-1.378-0.231-1.77-0.684
								c-0.516-0.602-0.74-1.507-0.74-2.979c0-1.473,0.225-2.378,0.74-2.981c0.392-0.451,0.979-0.682,1.77-0.682
								c0.783,0,1.371,0.23,1.763,0.682c0.515,0.604,0.739,1.509,0.739,2.981C180.504,97.373,180.279,98.278,179.765,98.88z
								 M178.618,93.844c-0.152-0.231-0.348-0.328-0.616-0.328s-0.479,0.097-0.624,0.328c-0.185,0.31-0.246,0.949-0.246,2.058
								s0.062,1.737,0.246,2.058c0.146,0.231,0.355,0.329,0.624,0.329s0.464-0.098,0.616-0.329c0.186-0.32,0.247-0.949,0.247-2.058
								S178.804,94.153,178.618,93.844z"/>
							<path fill="#048743" d="M182.64,99.44h-1.609v-1.598h1.609V99.44z"/>
							<path fill="#048743" d="M187.234,96.158l-1.755,2.005h2.601v1.277h-4.66v-1.18l2.451-2.82
								c0.341-0.391,0.465-0.674,0.465-1.074c0-0.54-0.226-0.851-0.697-0.851c-0.46,0-0.688,0.302-0.688,0.851v0.312h-1.64v-0.302
								c0-1.162,0.827-2.138,2.328-2.138c1.523,0,2.336,0.976,2.336,2.138C187.975,95.111,187.786,95.528,187.234,96.158z"/>
							<path fill="#048743" d="M193.479,98.117h-0.736v1.323h-1.621v-1.323h-2.756v-1.275l2.677-4.48h1.7v4.48h0.736V98.117z
								 M191.122,96.842v-2.253l-1.342,2.253H191.122z"/>
						</g>
					</g>
					<g>
						<g>
							<path fill="#048743" d="M199.652,83.207c-0.393,0.454-0.979,0.684-1.763,0.684c-0.791,0-1.378-0.229-1.77-0.684
								c-0.516-0.602-0.74-1.508-0.74-2.979c0-1.474,0.225-2.378,0.74-2.981c0.392-0.451,0.979-0.682,1.77-0.682
								c0.783,0,1.37,0.23,1.763,0.682c0.515,0.604,0.739,1.508,0.739,2.981C200.392,81.699,200.167,82.605,199.652,83.207z
								 M198.506,78.171c-0.152-0.231-0.348-0.328-0.616-0.328s-0.479,0.097-0.624,0.328c-0.185,0.31-0.246,0.949-0.246,2.058
								s0.062,1.737,0.246,2.057c0.146,0.231,0.355,0.33,0.624,0.33s0.464-0.099,0.616-0.33c0.185-0.319,0.247-0.948,0.247-2.057
								S198.69,78.48,198.506,78.171z"/>
							<path fill="#048743" d="M202.527,83.767h-1.609V82.17h1.609V83.767z"/>
							<path fill="#048743" d="M206.339,81.691c0-0.745-0.305-1.021-0.997-1.021h-0.54v-1.26h0.54c0.497,0,0.83-0.229,0.83-0.834
								c0-0.47-0.242-0.734-0.646-0.734c-0.398,0-0.638,0.265-0.638,0.734v0.126h-1.581v-0.196c0-1.152,0.815-1.941,2.219-1.941
								c1.4,0,2.234,0.797,2.234,1.915c0,0.852-0.436,1.33-1.084,1.525c0.845,0.204,1.298,0.843,1.298,1.757
								c0,1.285-0.976,2.128-2.448,2.128c-1.465,0-2.437-0.843-2.437-2.128v-0.222h1.632v0.15c0,0.594,0.29,0.924,0.805,0.924
								C206.045,82.615,206.339,82.285,206.339,81.691z"/>
							<path fill="#048743" d="M212.381,80.484l-1.752,2.005h2.601v1.277h-4.664v-1.18l2.455-2.819
								c0.338-0.391,0.461-0.675,0.461-1.074c0-0.541-0.222-0.851-0.692-0.851c-0.461,0-0.693,0.302-0.693,0.851v0.312h-1.639
								v-0.302c0-1.163,0.827-2.138,2.332-2.138c1.52,0,2.331,0.975,2.331,2.138C213.12,79.438,212.932,79.855,212.381,80.484z"/>
						</g>
					</g>
					<g>
						<g>
							<path fill="#048743" d="M219.771,79.118c-0.392,0.453-0.979,0.684-1.763,0.684c-0.79,0-1.378-0.23-1.77-0.684
								c-0.515-0.602-0.739-1.508-0.739-2.979c0-1.474,0.225-2.378,0.739-2.981c0.392-0.452,0.979-0.682,1.77-0.682
								c0.783,0,1.371,0.229,1.763,0.682c0.515,0.604,0.74,1.508,0.74,2.981C220.512,77.61,220.286,78.517,219.771,79.118z
								 M218.626,74.082c-0.152-0.231-0.349-0.329-0.617-0.329s-0.479,0.098-0.623,0.329c-0.186,0.309-0.247,0.948-0.247,2.058
								c0,1.107,0.062,1.737,0.247,2.057c0.145,0.231,0.354,0.329,0.623,0.329s0.465-0.098,0.617-0.329
								c0.185-0.319,0.246-0.949,0.246-2.057C218.872,75.03,218.811,74.391,218.626,74.082z"/>
							<path fill="#048743" d="M222.647,79.677h-1.61v-1.596h1.61V79.677z"/>
							<path fill="#048743" d="M226.459,77.602c0-0.745-0.305-1.02-0.997-1.02h-0.541v-1.26h0.541c0.496,0,0.83-0.229,0.83-0.833
								c0-0.471-0.243-0.736-0.646-0.736c-0.399,0-0.639,0.266-0.639,0.736v0.124h-1.581v-0.195c0-1.153,0.816-1.941,2.22-1.941
								c1.399,0,2.233,0.798,2.233,1.914c0,0.852-0.435,1.331-1.084,1.526c0.845,0.204,1.299,0.842,1.299,1.757
								c0,1.285-0.976,2.128-2.448,2.128c-1.465,0-2.438-0.843-2.438-2.128v-0.222h1.633v0.149c0,0.595,0.29,0.924,0.805,0.924
								C226.165,78.525,226.459,78.196,226.459,77.602z"/>
							<path fill="#048743" d="M233.487,78.355h-0.736v1.321h-1.621v-1.321h-2.757v-1.276l2.677-4.479h1.701v4.479h0.736V78.355z
								 M231.13,77.079v-2.253l-1.342,2.253H231.13z"/>
						</g>
					</g>
					<g>
						<g>
							<path fill="#048743" d="M252.881,101.606c-0.392,0.451-0.979,0.683-1.762,0.683c-0.791,0-1.379-0.231-1.771-0.683
								c-0.515-0.604-0.739-1.508-0.739-2.979c0-1.473,0.225-2.377,0.739-2.98c0.392-0.452,0.979-0.682,1.771-0.682
								c0.783,0,1.37,0.229,1.762,0.682c0.516,0.604,0.74,1.508,0.74,2.98C253.621,100.099,253.396,101.003,252.881,101.606z
								 M251.735,96.57c-0.152-0.231-0.349-0.329-0.616-0.329c-0.269,0-0.479,0.098-0.624,0.329
								c-0.185,0.31-0.247,0.949-0.247,2.057c0,1.11,0.063,1.739,0.247,2.058c0.145,0.231,0.355,0.329,0.624,0.329
								c0.268,0,0.464-0.098,0.616-0.329c0.185-0.318,0.246-0.947,0.246-2.058C251.981,97.52,251.92,96.88,251.735,96.57z"/>
							<path fill="#048743" d="M255.757,102.167h-1.61v-1.599h1.61V102.167z"/>
							<path fill="#048743" d="M260.352,98.884l-1.755,2.003h2.6v1.28h-4.659v-1.179l2.451-2.822
								c0.341-0.39,0.464-0.674,0.464-1.074c0-0.54-0.225-0.851-0.696-0.851c-0.46,0-0.688,0.302-0.688,0.851v0.312h-1.64v-0.302
								c0-1.162,0.827-2.137,2.328-2.137c1.523,0,2.336,0.975,2.336,2.137C261.092,97.837,260.903,98.255,260.352,98.884z"/>
							<path fill="#048743" d="M265.61,98.884l-1.752,2.003h2.601v1.28h-4.664v-1.179l2.455-2.822
								c0.338-0.39,0.461-0.674,0.461-1.074c0-0.54-0.222-0.851-0.692-0.851c-0.461,0-0.693,0.302-0.693,0.851v0.312h-1.639v-0.302
								c0-1.162,0.826-2.137,2.332-2.137c1.52,0,2.331,0.975,2.331,2.137C266.35,97.837,266.161,98.255,265.61,98.884z"/>
						</g>
					</g>
					<g>
						<g>
							<path fill="#048743" d="M271.782,115.327c-0.388,0.455-0.976,0.683-1.759,0.683c-0.794,0-1.378-0.228-1.77-0.683
								c-0.519-0.6-0.74-1.508-0.74-2.979c0-1.475,0.222-2.379,0.74-2.979c0.392-0.456,0.976-0.684,1.77-0.684
								c0.783,0,1.371,0.228,1.759,0.684c0.519,0.6,0.74,1.504,0.74,2.979C272.522,113.819,272.301,114.728,271.782,115.327z
								 M270.637,110.291c-0.152-0.231-0.349-0.329-0.613-0.329s-0.482,0.098-0.62,0.329c-0.188,0.307-0.254,0.95-0.254,2.057
								s0.065,1.735,0.254,2.058c0.138,0.231,0.355,0.329,0.62,0.329s0.461-0.098,0.613-0.329c0.188-0.322,0.25-0.951,0.25-2.058
								S270.825,110.598,270.637,110.291z"/>
							<path fill="#048743" d="M274.662,115.884h-1.61v-1.595h1.61V115.884z"/>
							<path fill="#048743" d="M277.389,115.884v-5.585l-1.45,0.646v-1.355l1.689-0.781h1.407v7.075H277.389z"/>
							<path fill="#048743" d="M285.505,114.564h-0.739v1.319h-1.618v-1.319h-2.76v-1.276l2.681-4.479h1.697v4.479h0.739V114.564z
								 M283.147,113.288v-2.252l-1.345,2.252H283.147z"/>
						</g>
					</g>
					<g>
						<g>
							<path fill="#048743" d="M59.854,136.698c-0.388,0.452-0.975,0.684-1.759,0.684c-0.794,0-1.378-0.231-1.77-0.684
								c-0.519-0.604-0.739-1.508-0.739-2.979c0-1.471,0.221-2.376,0.739-2.982c0.392-0.448,0.976-0.68,1.77-0.68
								c0.784,0,1.371,0.231,1.759,0.68c0.519,0.606,0.74,1.512,0.74,2.982C60.595,135.19,60.373,136.094,59.854,136.698z
								 M58.709,131.662c-0.152-0.231-0.349-0.33-0.613-0.33c-0.268,0-0.481,0.099-0.623,0.33c-0.188,0.311-0.251,0.947-0.251,2.057
								c0,1.11,0.063,1.739,0.251,2.058c0.142,0.23,0.355,0.328,0.623,0.328c0.265,0,0.461-0.098,0.613-0.328
								c0.185-0.318,0.25-0.947,0.25-2.058C58.959,132.609,58.894,131.973,58.709,131.662z"/>
							<path fill="#048743" d="M62.73,137.259h-1.61v-1.598h1.61V137.259z"/>
							<path fill="#048743" d="M67.521,136.698c-0.389,0.452-0.976,0.684-1.759,0.684c-0.794,0-1.378-0.231-1.77-0.684
								c-0.519-0.604-0.74-1.508-0.74-2.979c0-1.471,0.222-2.376,0.74-2.982c0.392-0.448,0.976-0.68,1.77-0.68
								c0.783,0,1.37,0.231,1.759,0.68c0.519,0.606,0.739,1.512,0.739,2.982C68.261,135.19,68.04,136.094,67.521,136.698z
								 M66.375,131.662c-0.152-0.231-0.348-0.33-0.612-0.33c-0.269,0-0.482,0.099-0.624,0.33c-0.188,0.311-0.25,0.947-0.25,2.057
								c0,1.11,0.062,1.739,0.25,2.058c0.142,0.23,0.355,0.328,0.624,0.328c0.265,0,0.46-0.098,0.612-0.328
								c0.186-0.318,0.251-0.947,0.251-2.058C66.626,132.609,66.561,131.973,66.375,131.662z"/>
							<path fill="#048743" d="M71.804,135.184c0-0.745-0.304-1.021-0.997-1.021h-0.54v-1.262h0.54c0.497,0,0.831-0.228,0.831-0.835
								c0-0.47-0.243-0.734-0.646-0.734c-0.399,0-0.639,0.265-0.639,0.734v0.127h-1.581v-0.195c0-1.153,0.816-1.941,2.22-1.941
								c1.399,0,2.233,0.795,2.233,1.916c0,0.85-0.435,1.33-1.084,1.525c0.845,0.203,1.298,0.839,1.298,1.757
								c0,1.284-0.976,2.127-2.447,2.127c-1.466,0-2.438-0.843-2.438-2.127v-0.224h1.632v0.152c0,0.593,0.29,0.921,0.806,0.921
								C71.511,136.104,71.804,135.776,71.804,135.184z"/>
						</g>
					</g>
					<g>
						<path fill="#FFFFFF" d="M272.229,121.444c0,1.183-0.961,2.141-2.144,2.141c-1.186,0-2.146-0.958-2.146-2.141
							c0-1.179,0.961-2.137,2.146-2.137C271.268,119.308,272.229,120.266,272.229,121.444z"/>
						<path fill="#048743" d="M270.085,124.351c-1.606,0-2.915-1.301-2.915-2.906c0-1.598,1.309-2.903,2.915-2.903
							s2.912,1.306,2.912,2.903C272.997,123.05,271.691,124.351,270.085,124.351z M270.085,120.074c-0.762,0-1.378,0.618-1.378,1.37
							c0,0.76,0.616,1.374,1.378,1.374c0.758,0,1.375-0.614,1.375-1.374C271.46,120.692,270.843,120.074,270.085,120.074z"/>
					</g>
				</g>
			</g>
		</g>
		<g>
			<g>
				
					<linearGradient id="SVGID_7_" gradientUnits="userSpaceOnUse" x1="314.7236" y1="256.5801" x2="321.85" y2="256.5801" gradientTransform="matrix(-0.6586 -0.7525 -0.7525 0.6586 578.5851 238.1072)">
					<stop  offset="0" style="stop-color:#FBD5DB"/>
					<stop  offset="1" style="stop-color:#ECAFB9"/>
				</linearGradient>
				<path fill="url(#SVGID_7_)" d="M176.069,165.264c0.231,0.112,0.464,0.225,0.696,0.336c-0.736,1.746-0.482,3.07-0.167,3.865
					c0.025,0.047,0.051,0.09,0.083,0.13c0.12,0.146,0.319,0.203,0.385,0.388c0.065,0.169,0.098,0.499,0.108,0.646
					c0.008,0.04-0.036,0.072-0.072,0.058c-0.072-0.018-0.167-0.079-0.196-0.249c-0.051-0.268-0.282-0.062-0.102,0.318
					c0.127,0.264,0.203,0.538,0.102,0.665c-0.062,0.068-0.384-0.22-0.587-0.373c-0.349-0.253-0.453-1.362-0.461-1.359
					c-0.692-1.894-0.671-3.499-0.301-4.844C175.714,164.996,175.884,165.141,176.069,165.264z"/>
				
					<linearGradient id="SVGID_8_" gradientUnits="userSpaceOnUse" x1="328.1104" y1="244.9678" x2="334.3446" y2="244.3267" gradientTransform="matrix(-0.7624 0.6471 -0.6471 -0.7624 587.5453 135.328)">
					<stop  offset="0" style="stop-color:#2F5C90"/>
					<stop  offset="1" style="stop-color:#11274A"/>
				</linearGradient>
				<path fill="url(#SVGID_8_)" d="M178.589,161.323c0.051,0.274,0.019,0.527-0.17,0.807c-0.222,0.328-0.428,0.668-0.616,1.022
					c-0.243,0.441-0.457,0.9-0.653,1.366c-0.104,0.253-0.446,1.696-0.631,1.772c-0.185,0.071-1.338-0.269-1.338-0.269
					c-0.12-0.036,0.203-1.771,0.225-1.88c0.134-0.737,0.312-1.464,0.519-2.184c0.199-0.679,0.599-2.003,1.411-2.205
					c0.297-0.072,0.341,0.036,0.583,0.221c0.247,0.191,0.396,0.478,0.497,0.77C178.495,160.954,178.561,161.143,178.589,161.323z"/>
				
					<linearGradient id="SVGID_9_" gradientUnits="userSpaceOnUse" x1="-310.7437" y1="-733.8457" x2="-310.0768" y2="-732.7437" gradientTransform="matrix(0.4982 0.7873 -0.7497 0.4744 -219.2526 758.3226)">
					<stop  offset="0" style="stop-color:#2F5C90"/>
					<stop  offset="1" style="stop-color:#11274A"/>
				</linearGradient>
				<path fill="url(#SVGID_9_)" d="M176.726,165.867c0,0-1.422-0.271-1.53-0.387c-0.109-0.115-0.226,0.112-0.124,0.326
					c0.102,0.216-0.104,0.347,0.029,0.502c0.138,0.155,1.27,0.373,1.465,0.344c0.196-0.029,0.059-0.333,0.059-0.333
					S176.899,166.113,176.726,165.867z"/>
				<g>
					<g>
						
							<linearGradient id="SVGID_10_" gradientUnits="userSpaceOnUse" x1="1849.417" y1="922.8809" x2="1851.6904" y2="922.8809" gradientTransform="matrix(-1 -5.000000e-004 -5.000000e-004 1 2027.7197 -750.916)">
							<stop  offset="0" style="stop-color:#2F5C90"/>
							<stop  offset="1" style="stop-color:#11274A"/>
						</linearGradient>
						<path fill="url(#SVGID_10_)" d="M177.52,171.573v-0.269c0-0.264-0.214-0.477-0.479-0.477h-0.671
							c-0.262,0-0.479,0.213-0.479,0.477v0.265h-0.323v-0.265c0-0.44,0.359-0.799,0.802-0.799h0.671
							c0.442,0,0.801,0.362,0.801,0.799v0.269H177.52z"/>
					</g>
					
						<linearGradient id="SVGID_11_" gradientUnits="userSpaceOnUse" x1="1852.5596" y1="923.3916" x2="1848.5452" y2="927.4061" gradientTransform="matrix(-1 -5.000000e-004 -5.000000e-004 1 2027.7197 -750.916)">
						<stop  offset="0" style="stop-color:#6BA7DA"/>
						<stop  offset="1" style="stop-color:#3E70AE"/>
					</linearGradient>
					<path fill="url(#SVGID_11_)" d="M174.637,171.765h4.134c0.21,0,0.377,0.17,0.377,0.375l-0.003,2.835
						c0,0.21-0.167,0.376-0.374,0.376h-4.134c-0.211,0-0.377-0.17-0.377-0.38l0.003-2.834
						C174.263,171.931,174.434,171.765,174.637,171.765z"/>
					
						<linearGradient id="SVGID_12_" gradientUnits="userSpaceOnUse" x1="1847.9297" y1="924.1826" x2="1853.1758" y2="924.5618" gradientTransform="matrix(-1 -5.000000e-004 -5.000000e-004 1 2027.7197 -750.916)">
						<stop  offset="0" style="stop-color:#6BA7DA"/>
						<stop  offset="1" style="stop-color:#3E70AE"/>
					</linearGradient>
					<path fill="url(#SVGID_12_)" d="M174.451,171.359l4.508,0.008c0.178,0,0.319,0.141,0.319,0.318v1.691
						c0,0.181-0.142,0.325-0.319,0.325l-4.511-0.004c-0.175,0-0.319-0.145-0.319-0.321v-1.691
						C174.129,171.504,174.273,171.359,174.451,171.359z"/>
					
						<linearGradient id="SVGID_13_" gradientUnits="userSpaceOnUse" x1="1850.791" y1="925.3633" x2="1850.3145" y2="925.8399" gradientTransform="matrix(-1 -5.000000e-004 -5.000000e-004 1 2027.7197 -750.916)">
						<stop  offset="0" style="stop-color:#2F5C90"/>
						<stop  offset="1" style="stop-color:#11274A"/>
					</linearGradient>
					<path fill="url(#SVGID_13_)" d="M176.703,173.377c0.124,0,0.226,0.101,0.226,0.224v0.322c0,0.119-0.102,0.221-0.226,0.221
						c-0.123,0-0.225-0.102-0.225-0.221v-0.322C176.479,173.478,176.58,173.377,176.703,173.377z"/>
				</g>
				
					<linearGradient id="SVGID_14_" gradientUnits="userSpaceOnUse" x1="496.4561" y1="103.1475" x2="503.5979" y2="103.1475" gradientTransform="matrix(-0.9419 0.336 0.336 0.9419 619.7106 -100.2707)">
					<stop  offset="0" style="stop-color:#FBD5DB"/>
					<stop  offset="1" style="stop-color:#ECAFB9"/>
				</linearGradient>
				<path fill="url(#SVGID_14_)" d="M187.351,165.357c-0.083-0.144-0.37-0.173-0.656-0.151c-0.207,0.015-0.5-0.13-0.559-0.17
					c-0.083-0.058-0.229-0.163-0.322-0.231c-0.011-0.008-0.029-0.019-0.036-0.029c-0.069,0.044-0.139,0.091-0.211,0.116
					c-0.051,0.018-0.102,0.024-0.152,0.032c-0.863,0-2.19-0.253-3.547-1.576c-0.188,0.174-0.38,0.347-0.572,0.521
					c-0.182,0.13-0.377,0.231-0.573,0.317c1.117,0.84,2.604,1.454,4.627,1.505c0-0.007,1.074,0.3,1.437,0.072
					C187.003,165.629,187.395,165.438,187.351,165.357z"/>
				
					<linearGradient id="SVGID_15_" gradientUnits="userSpaceOnUse" x1="-2097.2212" y1="806.1094" x2="-2095.7251" y2="806.1094" gradientTransform="matrix(-0.9734 0.2293 0.2293 0.9734 -2044.1589 -123.2331)">
					<stop  offset="0" style="stop-color:#FBD5DB"/>
					<stop  offset="1" style="stop-color:#ECAFB9"/>
				</linearGradient>
				<path fill="url(#SVGID_15_)" d="M180.863,179.542l0.131,1.745c0,0-0.338,0.254-0.037,0.546c0.298,0.294,1.193-0.018,1.367-0.061
					c0.363-0.099-0.775-0.322-0.775-0.322l0.028-2.035L180.863,179.542z"/>
				
					<linearGradient id="SVGID_16_" gradientUnits="userSpaceOnUse" x1="-2093.0601" y1="883.127" x2="-2091.3052" y2="883.127" gradientTransform="matrix(-0.9386 0.345 0.345 0.9386 -2090.6157 73.2335)">
					<stop  offset="0" style="stop-color:#FBD5DB"/>
					<stop  offset="1" style="stop-color:#ECAFB9"/>
				</linearGradient>
				<path fill="url(#SVGID_16_)" d="M177.338,178.887l0.091,2.343c0,0-0.305,0.297,0.029,0.55c0.333,0.253,1.182-0.159,1.349-0.225
					c0.349-0.141-0.805-0.224-0.805-0.224l0.232-2.321L177.338,178.887z"/>
				
					<linearGradient id="SVGID_17_" gradientUnits="userSpaceOnUse" x1="3311.8496" y1="-250.7969" x2="3316.4817" y2="-249.9011" gradientTransform="matrix(0.9994 0.0332 -0.0332 0.9994 -3143.0369 313.8908)">
					<stop  offset="0" style="stop-color:#D6ECFA"/>
					<stop  offset="1" style="stop-color:#A8CFED"/>
				</linearGradient>
				<path fill="url(#SVGID_17_)" d="M176.896,167.075c-0.345-0.018-0.874,1.066-0.591,3.315c0.007,0.039,0.116,1.482,0.569,5.741
					c0.069,0.65-0.315-1.916,0.424,4.085c0.232,0.065,0.671,0.065,0.987,0.037c0.115-0.008,0.442-1.237,0.652-3.103
					c0.301-2.697,0.896-7.81,0.906-8.309C179.852,167.932,177.276,167.097,176.896,167.075z"/>
				
					<linearGradient id="SVGID_18_" gradientUnits="userSpaceOnUse" x1="3438.1426" y1="689.3115" x2="3442.8091" y2="690.2139" gradientTransform="matrix(0.9837 -0.1796 0.1796 0.9837 -3328.5535 113.5145)">
					<stop  offset="0" style="stop-color:#D6ECFA"/>
					<stop  offset="1" style="stop-color:#A8CFED"/>
				</linearGradient>
				<path fill="url(#SVGID_18_)" d="M178.045,167.866c-0.341,0.084-1.146,1.624-0.214,2.85c0.004,0,0.679,3.186,2.013,5.777
					c0.283,0.542-0.508-2.061,0.998,3.923c0.445,0.025,0.547,0.008,1.008-0.098c0.065-0.015,0.265-1.576,0.199-3.478
					c-0.087-2.741-0.823-7.65-0.889-8.143C181.048,167.799,178.419,167.766,178.045,167.866z"/>
				<g>
					<path fill="#223365" d="M178.067,181.28c0,0,0.906,0.047,1.008,0.321c0.167,0.438-1.545,0.532-1.799,0.301
						c-0.348-0.318,0.123-0.658,0.123-0.658S177.697,181.425,178.067,181.28z"/>
				</g>
				<g>
					<path fill="#223365" d="M181.643,181.197c0,0,0.921,0.141,1.022,0.423c0.156,0.44-1.584,0.507-1.835,0.268
						c-0.341-0.325,0.139-0.658,0.139-0.658S181.266,181.342,181.643,181.197z"/>
				</g>
				
					<linearGradient id="SVGID_19_" gradientUnits="userSpaceOnUse" x1="2766.8438" y1="-39.6641" x2="2769.6885" y2="-40.5083" gradientTransform="matrix(0.9985 0.0552 -0.0552 0.9985 -2587.988 46.2184)">
					<stop  offset="0" style="stop-color:#DBBBC2"/>
					<stop  offset="1" style="stop-color:#D9A1AB"/>
				</linearGradient>
				<path fill="url(#SVGID_19_)" d="M177.037,159.942c0,0,0.254-0.253,0.537-0.814c0.043-0.075,0.736-2.158,0.957-2.237
					c0.261-0.095,0.54-0.297,0.769-0.21c0.116,0.043-0.319,0.767-0.261,2.05c0.036,0.944,0.849,1.493,0.957,1.765
					C180.265,161.139,177.712,160.961,177.037,159.942z"/>
				
					<linearGradient id="SVGID_20_" gradientUnits="userSpaceOnUse" x1="2745.3994" y1="9.2266" x2="2750.834" y2="9.2266" gradientTransform="matrix(0.9999 0.0075 -0.0075 0.9999 -2569.1067 134.3345)">
					<stop  offset="0" style="stop-color:#2F5C90"/>
					<stop  offset="1" style="stop-color:#11274A"/>
				</linearGradient>
				<path fill="url(#SVGID_20_)" d="M177.255,159.595c0,0-1.223,0.958-1.284,3.681c-0.062,2.838,0.186,2.133-0.051,4.751
					c-0.003,1.063,3.858,1.511,5.426-0.637c0.142-0.191-0.965-0.217-0.755-1.858c0.396-3.008,0.885-3.08-0.75-5.333
					C179.634,159.92,178.419,159.049,177.255,159.595z"/>
				
					<linearGradient id="SVGID_21_" gradientUnits="userSpaceOnUse" x1="2285.7129" y1="536.624" x2="2283.0742" y2="536.624" gradientTransform="matrix(0.9907 -0.2873 0.2684 0.9643 -2228.3962 295.4755)">
					<stop  offset="0" style="stop-color:#FBD5DB"/>
					<stop  offset="1" style="stop-color:#ECAFB9"/>
				</linearGradient>
				<path fill="url(#SVGID_21_)" d="M178.444,154.917c-0.102,0.082-1.581,1.077-0.675,2.964c0.188,0.521,1.85,1.117,2.234-0.325
					C180.381,156.124,179.576,153.99,178.444,154.917z"/>
				<path fill="#223365" d="M178.241,157.115c-0.051-0.149-0.146-0.376,0.029-0.529c0.181-0.158,0.369,0.283,0.369,0.283
					s1.146-0.21,1.106-1.129c0-0.036,0.123-0.015,0.214,0.448c0.109,0.048,0.58-1.113-1.033-1.641
					c-0.649-0.102-1.426-0.059-2.057,0.81c-0.301,0.387-0.269,0.99-0.174,1.453c0.116,0.575,0.646,1.374,1.262,1.327
					C178.031,158.134,178.292,157.284,178.241,157.115z"/>
				<path fill="#223365" d="M180.083,155.676c0,0,0.037,0.94-0.71,1.353c-0.751,0.411-1.03,0.372-1.005,0.863
					c-0.004,0.011-0.192-0.444,0.381-0.752c0.718-0.379,0.936-0.636,0.823-1.432C179.46,154.913,180.083,155.676,180.083,155.676z"
					/>
				<g>
					<path fill="#223365" d="M175.902,156.132c-0.809,0.115-1.136,0.679-1.266,2.017c-0.105,1.165-2.071,1.453-1.756,0.824
						c0.315-0.632,0.573,0.145,0.595,0.08c0.037-0.102-0.119-0.991-0.921-0.412c-0.66,0.47-0.297,1.67,0.595,1.966
						c0.893,0.298,3.098,0.116,3.134-1.156c0.036-1.113-0.396-2.44,0.674-2.502c0.109-0.008,0.037-0.004,0.051-0.043
						C177.008,156.905,177.146,155.95,175.902,156.132z"/>
					<path fill="#223365" d="M175.492,155.976c-0.936,0.474-1.131,0.633-1.073,1.341c0.051,0.713,0.312,1.678-0.599,1.932
						c0.171,0.028,0.972-0.333,0.794-1.682c-0.163-1.255,0.965-1.555,1.364-1.544c0.398,0.015,0.965,0.459,1.022,0.579
						c0,0,0.261,0.111,0.091-0.135C176.692,155.893,176,155.715,175.492,155.976z"/>
				</g>
				
					<linearGradient id="SVGID_22_" gradientUnits="userSpaceOnUse" x1="181.0986" y1="427.9873" x2="187.2984" y2="427.3498" gradientTransform="matrix(0.3128 0.9498 -0.9498 0.3128 528.5532 -146.1229)">
					<stop  offset="0" style="stop-color:#2F5C90"/>
					<stop  offset="1" style="stop-color:#11274A"/>
				</linearGradient>
				<path fill="url(#SVGID_22_)" d="M179.532,160.589c0.29,0.278,0.819,0.893,1.063,1.211c0.906,1.172,2.161,1.953,2.161,2.155
					c0,0.198-0.584,1.077-0.587,1.077c-0.076,0.094-1.462-0.586-1.553-0.647c-0.635-0.4-3.107-1.905-3.427-3.156
					C176.986,160.412,178.299,159.385,179.532,160.589z"/>
				
					<linearGradient id="SVGID_23_" gradientUnits="userSpaceOnUse" x1="-510.7173" y1="-874.2842" x2="-510.055" y2="-873.1896" gradientTransform="matrix(0.9727 -0.1849 0.1673 0.8799 824.8375 838.7935)">
					<stop  offset="0" style="stop-color:#2F5C90"/>
					<stop  offset="1" style="stop-color:#11274A"/>
				</linearGradient>
				<path fill="url(#SVGID_23_)" d="M182.368,163.471c0,0-0.838,1.24-0.994,1.301c-0.159,0.059,0.022,0.254,0.272,0.235
					c0.25-0.018,0.297,0.221,0.504,0.148c0.211-0.068,0.878-1.056,0.925-1.251s-0.309-0.173-0.309-0.173
					S182.677,163.398,182.368,163.471z"/>
				<linearGradient id="SVGID_24_" gradientUnits="userSpaceOnUse" x1="177.0479" y1="159.7207" x2="180.3994" y2="159.7207">
					<stop  offset="0" style="stop-color:#2F5C90"/>
					<stop  offset="1" style="stop-color:#11274A"/>
				</linearGradient>
				<path fill="url(#SVGID_24_)" d="M177.048,159.794l0.25-0.424c0,0,1.023-0.411,2.024,0.239c0.13,0.05,0.471,0.589,0.471,0.589
					S178.51,159.437,177.048,159.794z"/>
			</g>
			<g>
				
					<linearGradient id="SVGID_25_" gradientUnits="userSpaceOnUse" x1="-625.2046" y1="-403.8091" x2="-629.979" y2="-407.9789" gradientTransform="matrix(0.7956 -0.6807 0.6669 0.7794 966.9931 50.5748)">
					<stop  offset="0" style="stop-color:#FBD5DB"/>
					<stop  offset="1" style="stop-color:#ECAFB9"/>
				</linearGradient>
				<path fill="url(#SVGID_25_)" d="M196.954,160.231c-0.37-0.514-1.212,0.52-1.255,0.563c-0.232,0.231-1.041,1.002-1.259,1.193
					c0.098,0.347,0.577,0.499,0.722,0.773c0.298-0.69,0.882-1.172,0.882-1.172s0.206-0.162,0.46-0.281
					C197.2,160.982,197.259,160.65,196.954,160.231z"/>
				
					<linearGradient id="SVGID_26_" gradientUnits="userSpaceOnUse" x1="-701.9683" y1="-407.6274" x2="-701.9683" y2="-412.4714" gradientTransform="matrix(0.7731 -0.6342 0.6342 0.7731 994.4189 32.8696)">
					<stop  offset="0" style="stop-color:#A0C4E6"/>
					<stop  offset="1" style="stop-color:#68A1D6"/>
				</linearGradient>
				<path fill="url(#SVGID_26_)" d="M189.937,159.414c0,0,1.186-1.204,1.94,0.846c0.609,1.656,0.667,2.679,0.921,2.733
					c0.254,0.051,1.433-1.041,1.886-1.504c0.171-0.166,1.059,0.781,0.903,1.049c-0.055,0.141-2.325,2.754-3.619,2.255
					C191.137,164.483,188.853,160.321,189.937,159.414z"/>
				
					<linearGradient id="SVGID_27_" gradientUnits="userSpaceOnUse" x1="-965.2451" y1="707.5273" x2="-963.5737" y2="707.1616" gradientTransform="matrix(0.8909 0.4542 -0.4542 0.8909 1366.9861 -12.1262)">
					<stop  offset="0" style="stop-color:#FBD5DB"/>
					<stop  offset="1" style="stop-color:#ECAFB9"/>
				</linearGradient>
				<path fill="url(#SVGID_27_)" d="M186.14,178.095c0,0-0.421,1.552-0.624,2.419c-0.087,0.373-0.218,0.831-0.152,0.954
					c0.109,0.203,1.458,0.484,1.661-0.021c0.138-0.344-0.599-0.542-0.599-0.542l1.056-2.483L186.14,178.095z"/>
				
					<linearGradient id="SVGID_28_" gradientUnits="userSpaceOnUse" x1="-1090.4009" y1="448.2383" x2="-1085.9761" y2="449.094" gradientTransform="matrix(0.9586 0.2847 -0.2847 0.9586 1358.976 52.7341)">
					<stop  offset="0" style="stop-color:#2F5C91"/>
					<stop  offset="1" style="stop-color:#10274A"/>
				</linearGradient>
				<path fill="url(#SVGID_28_)" d="M189.259,166.753c-0.327-0.094-0.668,0.037-1.128,1.758c-0.453,1.699-0.279,4.172-0.127,4.649
					c0.145,0.477-1.473,0.658-2.067,5.524c0.095,0.282,0.993,0.593,1.429,0.459c0.199-0.062,1.894-3.507,2.466-4.769
					c0.827-1.822,1.799-5.337,1.908-5.688C191.931,168.048,189.621,166.858,189.259,166.753z"/>
				
					<linearGradient id="SVGID_29_" gradientUnits="userSpaceOnUse" x1="-976.7061" y1="720.792" x2="-977.4291" y2="722.0444" gradientTransform="matrix(0.8936 0.4489 -0.4489 0.8936 1382.9033 -25.5835)">
					<stop  offset="0" style="stop-color:#D4EBFA"/>
					<stop  offset="0.3382" style="stop-color:#D1E9F9"/>
					<stop  offset="0.6038" style="stop-color:#C7E1F6"/>
					<stop  offset="0.844" style="stop-color:#B6D6F1"/>
					<stop  offset="1" style="stop-color:#A6CDED"/>
				</linearGradient>
				<path fill="url(#SVGID_29_)" d="M185.632,180.022l-0.235,0.693c0,0,1.139,0.048,1.156,0.019
					c0.015-0.033,0.146-0.431,0.146-0.431S186.387,180.217,185.632,180.022z"/>
				<g>
					
						<linearGradient id="SVGID_30_" gradientUnits="userSpaceOnUse" x1="-985.2749" y1="783.8496" x2="-986.3171" y2="785.6548" gradientTransform="matrix(0.8617 0.5074 -0.5074 0.8617 1433.5104 5.215)">
						<stop  offset="0" style="stop-color:#2F5C91"/>
						<stop  offset="1" style="stop-color:#10274A"/>
					</linearGradient>
					<path fill="url(#SVGID_30_)" d="M185.393,180.358c0,0-0.486,1.081-0.294,1.27c0.192,0.188,1.244,0.577,1.744,0.213
						c0.53-0.388,0.222-0.756-0.257-0.907c-0.004-0.058,0.068-0.297,0.068-0.297S185.882,180.231,185.393,180.358z"/>
					
						<linearGradient id="SVGID_31_" gradientUnits="userSpaceOnUse" x1="-984.9902" y1="784.0625" x2="-986.0552" y2="785.907" gradientTransform="matrix(0.8617 0.5074 -0.5074 0.8617 1433.5104 5.215)">
						<stop  offset="0" style="stop-color:#69A7DB"/>
						<stop  offset="1" style="stop-color:#3B6FAE"/>
					</linearGradient>
					<path fill="url(#SVGID_31_)" d="M185.073,181.266c0,0,0.033,0.123,0.573,0.325c0.497,0.185,1.247,0.308,1.476-0.145
						c0.055,0.011,0.055,0.29-0.185,0.431s-0.896,0.332-1.933-0.249C184.885,181.505,185.03,181.31,185.073,181.266z"/>
					
						<linearGradient id="SVGID_32_" gradientUnits="userSpaceOnUse" x1="-985.2549" y1="784.0596" x2="-985.3952" y2="784.3026" gradientTransform="matrix(0.8617 0.5074 -0.5074 0.8617 1433.5104 5.215)">
						<stop  offset="0" style="stop-color:#D4EBFA"/>
						<stop  offset="0.3382" style="stop-color:#D1E9F9"/>
						<stop  offset="0.6038" style="stop-color:#C7E1F6"/>
						<stop  offset="0.844" style="stop-color:#B6D6F1"/>
						<stop  offset="1" style="stop-color:#A6CDED"/>
					</linearGradient>
					<path fill="url(#SVGID_32_)" d="M186.415,180.966c0,0,0.171-0.032,0.326,0.062
						C186.756,181.017,186.542,180.753,186.415,180.966z"/>
					
						<linearGradient id="SVGID_33_" gradientUnits="userSpaceOnUse" x1="-985.3857" y1="783.8838" x2="-985.5045" y2="784.0895" gradientTransform="matrix(0.8617 0.5074 -0.5074 0.8617 1433.5104 5.215)">
						<stop  offset="0" style="stop-color:#D4EBFA"/>
						<stop  offset="0.3382" style="stop-color:#D1E9F9"/>
						<stop  offset="0.6038" style="stop-color:#C7E1F6"/>
						<stop  offset="0.844" style="stop-color:#B6D6F1"/>
						<stop  offset="1" style="stop-color:#A6CDED"/>
					</linearGradient>
					<path fill="url(#SVGID_33_)" d="M186.662,180.709c-0.051-0.051-0.167-0.008-0.211,0.065c0,0,0.135-0.007,0.182,0.018
						L186.662,180.709z"/>
				</g>
				
					<linearGradient id="SVGID_34_" gradientUnits="userSpaceOnUse" x1="-869.0625" y1="18.9478" x2="-867.3172" y2="18.5658" gradientTransform="matrix(0.9789 -0.2043 0.2043 0.9789 1040.1486 -15.9144)">
					<stop  offset="0" style="stop-color:#FBD5DB"/>
					<stop  offset="1" style="stop-color:#ECAFB9"/>
				</linearGradient>
				<path fill="url(#SVGID_34_)" d="M192.548,178.518c0,0,0.758,1.591,1.142,2.397c0.167,0.344,0.359,0.727,0.486,0.784
					c0.214,0.091,1.437-0.534,1.28-1.055c-0.105-0.354-0.809-0.048-0.809-0.048l-0.736-2.639L192.548,178.518z"/>
				
					<linearGradient id="SVGID_35_" gradientUnits="userSpaceOnUse" x1="-868.0923" y1="18.6167" x2="-868.9348" y2="20.0759" gradientTransform="matrix(0.9789 -0.2043 0.2043 0.9789 1040.1486 -15.9144)">
					<stop  offset="0" style="stop-color:#D4EBFA"/>
					<stop  offset="0.3382" style="stop-color:#D1E9F9"/>
					<stop  offset="0.6038" style="stop-color:#C7E1F6"/>
					<stop  offset="0.844" style="stop-color:#B6D6F1"/>
					<stop  offset="1" style="stop-color:#A6CDED"/>
				</linearGradient>
				<path fill="url(#SVGID_35_)" d="M193.342,180.221l0.385,0.912c0,0,0.896-0.785,0.885-0.821
					c-0.008-0.032-0.186-0.561-0.186-0.561S194.169,179.899,193.342,180.221z"/>
				
					<linearGradient id="SVGID_36_" gradientUnits="userSpaceOnUse" x1="-1089.5649" y1="320.2266" x2="-1086.4834" y2="319.312" gradientTransform="matrix(0.9815 0.1916 -0.1916 0.9815 1319.4594 53.4258)">
					<stop  offset="0" style="stop-color:#DBBBC2"/>
					<stop  offset="1" style="stop-color:#D9A1AB"/>
				</linearGradient>
				<path fill="url(#SVGID_36_)" d="M188.772,159.761c0,0,0.326-0.311,0.66-0.795c0.047-0.065,0.798-1.801,1.016-1.848
					c0.254-0.055,1.088-0.051,1.291,0.062c0.102,0.051-0.239,0.796-0.279,1.183c-0.091,0.882,0.315,1.286,0.381,1.551
					C192.007,160.55,189.272,160.799,188.772,159.761z"/>
				
					<linearGradient id="SVGID_37_" gradientUnits="userSpaceOnUse" x1="-1105.5278" y1="346.6816" x2="-1096.8018" y2="348.3691" gradientTransform="matrix(0.9788 0.2049 -0.2049 0.9788 1341.0525 57.8482)">
					<stop  offset="0" style="stop-color:#2F5C91"/>
					<stop  offset="1" style="stop-color:#10274A"/>
				</linearGradient>
				<path fill="url(#SVGID_37_)" d="M190.136,166.06c0,0-1.893,1.479-0.13,4.146c0.021,0.343,0.667,2.824,1.088,3.721
					c0.09,0.188-0.501,1.417,1.57,5.058c0.098,0.018,1.073-0.076,1.621-0.514c0.007-0.032-0.867-3.239-0.849-4.642
					c0.021-1.283-0.646-7.047-0.581-7.372C192.925,166.131,190.136,166.06,190.136,166.06z"/>
				
					<linearGradient id="SVGID_38_" gradientUnits="userSpaceOnUse" x1="-1104.1182" y1="177.2832" x2="-1098.5205" y2="177.2832" gradientTransform="matrix(0.9981 0.0605 -0.0605 0.9981 1300.4897 53.8436)">
					<stop  offset="0" style="stop-color:#A0C4E6"/>
					<stop  offset="1" style="stop-color:#68A1D6"/>
				</linearGradient>
				<path fill="url(#SVGID_38_)" d="M189.298,159.056c0,0-1.272,0.872-1.436,3.037c-0.167,2.264-0.185,5.428-0.265,6.649
					c-0.036,0.618,2.252,0.759,3.979,0.35c0.134-0.032,0.166-0.477,0.301-0.517c0.138-0.043,0.206,0.456,0.348,0.449
					c0.363-0.015,0.468,0.014,0.711-0.152c0.436-0.314-0.195-3.109-0.145-4.754c0.102-3.211-0.856-4.317-1.15-4.783
					C191.492,159.104,190.252,158.669,189.298,159.056z"/>
				
					<linearGradient id="SVGID_39_" gradientUnits="userSpaceOnUse" x1="-1008.3315" y1="407.1152" x2="-1004.5824" y2="406.2947" gradientTransform="matrix(0.975 0.222 -0.222 0.975 1261.4264 -9.9717)">
					<stop  offset="0" style="stop-color:#2F5C91"/>
					<stop  offset="1" style="stop-color:#10274A"/>
				</linearGradient>
				<path fill="url(#SVGID_39_)" d="M190.317,159.128c0,0-1.175,0.633-1.668,1.732c-0.138,0.163-0.704-0.419-0.704-0.419
					s1.937-2.238,3.322-1.295c1.385,0.943-0.29,6.602-1.966,8.203c-0.051-0.206-0.08-0.936-0.08-0.936s2.651-4.961,2.267-6.526
					C191.26,158.962,190.317,159.128,190.317,159.128z"/>
				
					<linearGradient id="SVGID_40_" gradientUnits="userSpaceOnUse" x1="-1039.8735" y1="351.2754" x2="-1035.3644" y2="350.7775" gradientTransform="matrix(0.9834 0.1814 -0.1814 0.9834 1271.86 7.0201)">
					<stop  offset="0" style="stop-color:#2F5C91"/>
					<stop  offset="1" style="stop-color:#10274A"/>
				</linearGradient>
				<path fill="url(#SVGID_40_)" d="M186.567,161.262c0.301-0.131,0.167-0.673,0.675-0.93c0.783-0.404,1.367-0.21,1.429,0.514
					c0.352,4.017,1.661,5.322,1.041,6.262c-0.62,0.94-2.963,0.854-3.344,0.499c-0.381-0.344-1.24-3.091-0.726-3.774
					C186.154,163.152,185.661,161.648,186.567,161.262z"/>
				
					<linearGradient id="SVGID_41_" gradientUnits="userSpaceOnUse" x1="-2712.6582" y1="-198.5981" x2="-2715.4839" y2="-198.5981" gradientTransform="matrix(0.9503 -0.3114 0.3114 0.9503 2832.2739 -500.0686)">
					<stop  offset="0" style="stop-color:#FBD5DB"/>
					<stop  offset="1" style="stop-color:#ECAFB9"/>
				</linearGradient>
				<path fill="url(#SVGID_41_)" d="M190.789,154.563c0.899-0.015,1.552,0.542,1.813,1.395c0.279,0.897-0.115,2.444-1.139,2.3
					c-1.33-0.181-2.005-2.346-1.806-2.979C189.799,154.826,190.042,154.576,190.789,154.563z"/>
				<path fill="#223365" d="M191.228,155.285c1.033,0,1.589-0.488,1.846-0.824c-0.007-0.13-0.021-0.25-0.051-0.361
					c-0.043-0.229-0.271-0.376-0.5-0.318c-0.309,0.079-0.802,0.098-1.411-0.015c-1.643-0.3-2.883,1.699-1.687,3.001
					C189.636,156.196,190.15,155.282,191.228,155.285z"/>
				<path fill="#223365" d="M190.832,156.652c-0.239-0.832,0.442-0.825,0.359-0.214c0.015-0.083,0.148,0.021,0.156-0.04
					c0.115-0.915,0.659-0.593,1.102-0.784c0.429-0.188,0.646-0.727,0.624-1.153c-0.257,0.336-0.914,0.918-2.335,0.629
					c-1.056-0.221-1.367,1.049-1.356,1.634c0.322,0.593,1.092,0.962,1.092,0.962S190.868,156.934,190.832,156.652z"/>
				<g>
					
						<linearGradient id="SVGID_42_" gradientUnits="userSpaceOnUse" x1="-911.2534" y1="64.0396" x2="-912.308" y2="65.8663" gradientTransform="matrix(0.9898 -0.1426 0.1426 0.9898 1087.6293 -13.2543)">
						<stop  offset="0" style="stop-color:#2F5C91"/>
						<stop  offset="1" style="stop-color:#10274A"/>
					</linearGradient>
					<path fill="url(#SVGID_42_)" d="M193.454,180.694c0,0,0.319,1.121,0.591,1.149c0.272,0.029,1.356-0.325,1.52-0.932
						c0.175-0.644-0.308-0.738-0.779-0.558c-0.044-0.043-0.123-0.296-0.123-0.296S193.871,180.361,193.454,180.694z"/>
					
						<linearGradient id="SVGID_43_" gradientUnits="userSpaceOnUse" x1="-910.9629" y1="64.2554" x2="-912.0367" y2="66.1152" gradientTransform="matrix(0.9898 -0.1426 0.1426 0.9898 1087.6293 -13.2543)">
						<stop  offset="0" style="stop-color:#69A7DB"/>
						<stop  offset="1" style="stop-color:#3B6FAE"/>
					</linearGradient>
					<path fill="url(#SVGID_43_)" d="M193.799,181.573c0,0,0.102,0.098,0.66-0.105c0.5-0.181,1.182-0.542,1.08-1.044
						c0.044-0.025,0.218,0.191,0.12,0.459c-0.095,0.261-0.526,0.882-1.683,1.016C193.806,181.873,193.791,181.642,193.799,181.573z"
						/>
					
						<linearGradient id="SVGID_44_" gradientUnits="userSpaceOnUse" x1="-911.2349" y1="64.2515" x2="-911.3777" y2="64.4989" gradientTransform="matrix(0.9898 -0.1426 0.1426 0.9898 1087.6293 -13.2543)">
						<stop  offset="0" style="stop-color:#D4EBFA"/>
						<stop  offset="0.3382" style="stop-color:#D1E9F9"/>
						<stop  offset="0.6038" style="stop-color:#C7E1F6"/>
						<stop  offset="0.844" style="stop-color:#B6D6F1"/>
						<stop  offset="1" style="stop-color:#A6CDED"/>
					</linearGradient>
					<path fill="url(#SVGID_44_)" d="M194.669,180.492c0,0,0.116-0.138,0.294-0.159
						C194.967,180.312,194.633,180.238,194.669,180.492z"/>
					
						<linearGradient id="SVGID_45_" gradientUnits="userSpaceOnUse" x1="-911.3667" y1="64.0737" x2="-911.485" y2="64.2787" gradientTransform="matrix(0.9898 -0.1426 0.1426 0.9898 1087.6293 -13.2543)">
						<stop  offset="0" style="stop-color:#D4EBFA"/>
						<stop  offset="0.3382" style="stop-color:#D1E9F9"/>
						<stop  offset="0.6038" style="stop-color:#C7E1F6"/>
						<stop  offset="0.844" style="stop-color:#B6D6F1"/>
						<stop  offset="1" style="stop-color:#A6CDED"/>
					</linearGradient>
					<path fill="url(#SVGID_45_)" d="M194.702,180.131c-0.073-0.012-0.135,0.101-0.127,0.181c0,0,0.102-0.087,0.155-0.102
						L194.702,180.131z"/>
				</g>
				
					<linearGradient id="SVGID_46_" gradientUnits="userSpaceOnUse" x1="-1074.4473" y1="257.3447" x2="-1070.6932" y2="257.1276" gradientTransform="matrix(0.993 0.1181 -0.1181 0.993 1285.1387 30.4794)">
					<stop  offset="0" style="stop-color:#A0C4E6"/>
					<stop  offset="1" style="stop-color:#68A1D6"/>
				</linearGradient>
				<path fill="url(#SVGID_46_)" d="M191.579,159.27c0,0-1.338-0.72-2.756,0.372c-0.446,0.351-0.791,0.546-0.95,0.506
					c-0.159-0.043-0.232-1.638,0.972-1.948C189.791,158.123,191.173,158.676,191.579,159.27z"/>
				
					<linearGradient id="SVGID_47_" gradientUnits="userSpaceOnUse" x1="-1115.9468" y1="93.561" x2="-1114.9333" y2="93.5024" gradientTransform="matrix(1 0.0078 -0.0078 1 1308.7065 82.1358)">
					<stop  offset="0" style="stop-color:#A0C4E6"/>
					<stop  offset="1" style="stop-color:#68A1D6"/>
				</linearGradient>
				<path fill="url(#SVGID_47_)" d="M192.08,166.349c0,0,0.787-0.484,0.855-0.438c0.033,0.021,0.127,1.269,0.127,1.432
					c-0.004,0.162-0.707,0.705-0.896,0.68C192.032,167.975,191.993,166.417,192.08,166.349z"/>
				
					<linearGradient id="SVGID_48_" gradientUnits="userSpaceOnUse" x1="-1024.8594" y1="435.3623" x2="-1023.928" y2="435.2595" gradientTransform="matrix(0.9935 0.1139 -0.1139 0.9935 1246.1489 -134.6904)">
					<stop  offset="0" style="stop-color:#69A7DB"/>
					<stop  offset="1" style="stop-color:#3B6FAE"/>
				</linearGradient>
				<path fill="url(#SVGID_48_)" d="M179.304,181.172c-0.032,0.257-0.265,0.441-0.519,0.412c-0.258-0.029-0.442-0.261-0.413-0.518
					c0.032-0.256,0.261-0.437,0.519-0.408C179.147,180.688,179.329,180.919,179.304,181.172z"/>
				
					<linearGradient id="SVGID_49_" gradientUnits="userSpaceOnUse" x1="-1021.9805" y1="425.3115" x2="-1018.6281" y2="425.3115" gradientTransform="matrix(0.9935 0.1139 -0.1139 0.9935 1246.1489 -134.6904)">
					<stop  offset="0" style="stop-color:#69A7DB"/>
					<stop  offset="1" style="stop-color:#3B6FAE"/>
				</linearGradient>
				<path fill="url(#SVGID_49_)" d="M185.132,168.98c0.043-0.127,0.108-0.246,0.174-0.365l-0.275,0.008
					c-0.065,0.004-0.127,0.039-0.156,0.101l-2.825,5.622c-0.047,0.091-0.011,0.203,0.08,0.246c0.021,0.007,0.043,0.014,0.062,0.014
					c0.076,0.012,0.148-0.028,0.185-0.097l2.745-5.467C185.12,169.024,185.12,169.003,185.132,168.98z"/>
				
					<linearGradient id="SVGID_50_" gradientUnits="userSpaceOnUse" x1="-1021.9805" y1="425.1934" x2="-1018.6274" y2="425.1934" gradientTransform="matrix(0.9935 0.1139 -0.1139 0.9935 1246.1489 -134.6904)">
					<stop  offset="0" style="stop-color:#69A7DB"/>
					<stop  offset="1" style="stop-color:#3B6FAE"/>
				</linearGradient>
				<path fill="url(#SVGID_50_)" d="M186.02,168.684c-0.032-0.05-0.094-0.083-0.159-0.079l-0.222,0.003
					c-0.072,0.12-0.145,0.242-0.199,0.369l0.127-0.004l-2.64,5.315c-0.044,0.087-0.008,0.198,0.079,0.242
					c0.095,0.043,0.203,0.011,0.247-0.083l2.778-5.582C186.057,168.807,186.053,168.742,186.02,168.684z"/>
				
					<linearGradient id="SVGID_51_" gradientUnits="userSpaceOnUse" x1="-1024.1533" y1="435.6084" x2="-1023.0647" y2="435.4882" gradientTransform="matrix(0.9935 0.1139 -0.1139 0.9935 1246.1489 -134.6904)">
					<stop  offset="0" style="stop-color:#69A7DB"/>
					<stop  offset="1" style="stop-color:#3B6FAE"/>
				</linearGradient>
				<path fill="url(#SVGID_51_)" d="M180.134,181.512c-0.036,0.296-0.305,0.51-0.605,0.478c-0.301-0.037-0.515-0.305-0.482-0.607
					c0.036-0.297,0.309-0.514,0.609-0.478C179.953,180.94,180.171,181.208,180.134,181.512z"/>
				
					<linearGradient id="SVGID_52_" gradientUnits="userSpaceOnUse" x1="-454.2988" y1="313.5957" x2="-447.687" y2="313.5957" gradientTransform="matrix(-0.9981 0.0618 0.0618 0.9981 -289.3074 -107.5888)">
					<stop  offset="0" style="stop-color:#2F5C91"/>
					<stop  offset="1" style="stop-color:#10274A"/>
				</linearGradient>
				<path fill="url(#SVGID_52_)" d="M179.554,174.121c-0.464,0.966-1.966,4.144-2.422,5.648c-0.008,0.025-0.022,0.05-0.037,0.079
					c-0.308,0.61,1.103,1.529,2.495,1.619c0.323,0.022,2.26-4.605,3.395-6.413c0.254-0.405,0.537-0.97,0.116-1.164
					c-0.25-0.115-2.35-0.42-3.082-0.182C179.815,173.775,179.645,173.927,179.554,174.121z"/>
				
					<linearGradient id="SVGID_53_" gradientUnits="userSpaceOnUse" x1="-454.3193" y1="313.7793" x2="-449.1357" y2="313.7793" gradientTransform="matrix(-0.9981 0.0618 0.0618 0.9981 -289.3074 -107.5888)">
					<stop  offset="0" style="stop-color:#2F5C91"/>
					<stop  offset="1" style="stop-color:#10274A"/>
				</linearGradient>
				<path fill="url(#SVGID_53_)" d="M181.846,173.97l-3.242,6.769c-0.123,0.257,0.022,0.563,0.29,0.618l1.132,0.238
					c0.196,0.04,0.392-0.068,0.472-0.261l2.807-6.88c0.108-0.26-0.044-0.553-0.309-0.601l-0.703-0.123
					C182.107,173.698,181.926,173.797,181.846,173.97z"/>
				<g>
					
						<linearGradient id="SVGID_54_" gradientUnits="userSpaceOnUse" x1="-390.4517" y1="168.7559" x2="-388.9282" y2="168.7559" gradientTransform="matrix(-1 0 0 1 -204.2393 0)">
						<stop  offset="0" style="stop-color:#2F5C91"/>
						<stop  offset="1" style="stop-color:#10274A"/>
					</linearGradient>
					<path fill="url(#SVGID_54_)" d="M185.973,169.031c-0.007,0-0.015,0-0.015,0l-1.037-0.065c-0.138-0.011-0.239-0.123-0.231-0.261
						c0.011-0.13,0.127-0.231,0.261-0.224l1.037,0.065c0.134,0.007,0.232,0.123,0.225,0.253
						C186.205,168.93,186.1,169.031,185.973,169.031z"/>
				</g>
				
					<linearGradient id="SVGID_55_" gradientUnits="userSpaceOnUse" x1="-1016.23" y1="142.8359" x2="-1014.0439" y2="142.69" gradientTransform="matrix(0.9994 -0.0335 0.0335 0.9994 1195.5273 -8.7349)">
					<stop  offset="0" style="stop-color:#FBD5DB"/>
					<stop  offset="1" style="stop-color:#ECAFB9"/>
				</linearGradient>
				<path fill="url(#SVGID_55_)" d="M186.031,166.901l-0.628,1.153c0,0-0.794,0.376-0.612,0.847
					c0.181,0.463,0.942-0.312,1.196-0.369c0.21-0.044,0.842-1.113,0.842-1.113L186.031,166.901z"/>
				
					<linearGradient id="SVGID_56_" gradientUnits="userSpaceOnUse" x1="-985.4766" y1="88.7651" x2="-978.8369" y2="88.7651" gradientTransform="matrix(0.995 -0.1 0.1 0.995 1156.8387 -22.9955)">
					<stop  offset="0" style="stop-color:#A0C4E6"/>
					<stop  offset="1" style="stop-color:#68A1D6"/>
				</linearGradient>
				<path fill="url(#SVGID_56_)" d="M185.53,167.469c-0.043,0.167,0.845,0.521,1.16,0.484c0.313-0.028,4.639-7.433,4.736-8.044
					c0.073-0.459-0.635-0.95-1.08-0.767C188.816,159.768,185.581,167.311,185.53,167.469z"/>
				
					<linearGradient id="SVGID_57_" gradientUnits="userSpaceOnUse" x1="-1488.2251" y1="-3766.001" x2="-1488.5984" y2="-3766.5005" gradientTransform="matrix(0.8106 0.8971 0.742 -0.6704 4197.377 -1029.282)">
					<stop  offset="0" style="stop-color:#FBD5DB"/>
					<stop  offset="1" style="stop-color:#ECAFB9"/>
				</linearGradient>
				<path fill="url(#SVGID_57_)" d="M196.04,160.604c-0.04-0.047-0.044-0.108-0.008-0.141l0.414-0.369
					c0.036-0.036,0.098-0.025,0.138,0.021c0.043,0.044,0.043,0.108,0.007,0.141l-0.409,0.369
					C196.142,160.658,196.083,160.65,196.04,160.604z"/>
			</g>
		</g>
	</g>
	<g>
		<g>
			<path fill="#048743" d="M146.887,65.569h6.241v0.808h-2.666v2.457h-0.957v-2.457h-2.618V65.569z M150.517,61.874v0.353
				c0,0.288,0.091,0.573,0.279,0.855c0.188,0.284,0.464,0.527,0.819,0.731c0.363,0.207,0.787,0.344,1.28,0.413l-0.37,0.791
				c-0.583-0.095-1.091-0.28-1.526-0.551c-0.428-0.273-0.758-0.605-0.982-1c-0.229,0.399-0.555,0.734-0.99,1.003
				c-0.436,0.271-0.943,0.453-1.53,0.548l-0.377-0.791c0.5-0.069,0.928-0.206,1.287-0.413c0.359-0.204,0.635-0.447,0.819-0.728
				c0.186-0.278,0.279-0.565,0.279-0.859v-0.353H150.517z"/>
			<path fill="#048743" d="M159.137,62.155v0.798h-3.829v1.913h3.88v0.791h-1.979v1.537h2.661v0.815h-6.248v-0.815h2.637v-1.537
				h-1.908v-3.502H159.137z"/>
			<path fill="#048743" d="M163.111,64.306c0.08-0.563,0.123-1.063,0.138-1.494h-2.328v-0.785h3.282v0.248
				c0,0.306-0.007,0.607-0.025,0.909c-0.015,0.3-0.051,0.648-0.116,1.043c0.156-0.017,0.385-0.045,0.682-0.089l0.051,0.705
				c-0.529,0.096-1.103,0.17-1.726,0.224v1.545h-0.878v1.294h4.146v0.792h-5.1v-2.184h0.882V65.13
				c-0.682,0.027-1.248,0.04-1.705,0.04l-0.116-0.792C161.422,64.378,162.357,64.354,163.111,64.306z M166.18,61.659v5.398h-0.95
				v-0.8h-1.35v-0.759h1.35v-3.84H166.18z"/>
		</g>
		<ellipse fill="#048743" cx="138.214" cy="65.486" rx="5.054" ry="5.038"/>
	</g>
	<path fill="#D1D2D2" d="M300,206H0V0h300V206z M1.77,204.231H298.23V1.768H1.77V204.231z"/>
</g>
</svg>
