<?xml version="1.0" encoding="utf-8"?>
<!-- Generator: Adobe Illustrator 15.1.0, SVG Export Plug-In . SVG Version: 6.00 Build 0)  -->
<!DOCTYPE svg PUBLIC "-//W3C//DTD SVG 1.1//EN" "http://www.w3.org/Graphics/SVG/1.1/DTD/svg11.dtd">
<svg version="1.1" id="Layer_1" xmlns="http://www.w3.org/2000/svg" xmlns:xlink="http://www.w3.org/1999/xlink" x="0px" y="0px"
	 width="300px" height="206px" viewBox="0 0 300 206" enable-background="new 0 0 300 206" xml:space="preserve">
<g>
	<rect x="0.885" y="0.884" fill="#F9F9FA" width="298.23" height="204.229"/>
	<rect x="0.885" y="0.884" fill="#B1313A" width="298.23" height="51.18"/>
	<g>
		<path fill="#FFFFFF" d="M279.166,27.406c0,5.633-4.58,10.195-10.23,10.195l0,0c-5.65,0-10.227-4.563-10.227-10.195l0,0
			c0-5.629,4.576-10.195,10.227-10.195l0,0C274.586,17.211,279.166,21.777,279.166,27.406L279.166,27.406z"/>
		<path fill="#B1313A" d="M272.355,26.665l-4.486-4.476c-0.413-0.409-1.08-0.409-1.49,0c-0.41,0.412-0.41,1.077,0,1.485l3.746,3.731
			l-3.746,3.734c-0.41,0.412-0.41,1.074,0,1.486c0.207,0.202,0.476,0.307,0.743,0.307c0.269,0,0.541-0.104,0.747-0.307l4.486-4.477
			c0.199-0.198,0.309-0.466,0.309-0.744C272.664,27.131,272.555,26.864,272.355,26.665z"/>
	</g>
	<g>
		<g>
			<g>
				<path fill="#231F20" d="M43.5,193.787h-3.96v-0.514l2.038-1.949c0.62-0.657,1.07-1.164,1.07-1.854
					c-0.025-0.705-0.476-1.034-1.084-1.034c-0.679,0-1.176,0.481-1.176,1.157l-0.725-0.123c0.152-1.081,0.932-1.667,1.937-1.667
					c1.008,0,1.787,0.611,1.787,1.652c0,0.875-0.562,1.482-1.229,2.147l-1.65,1.631c0.225-0.065,0.468-0.098,0.667-0.098H43.5
					V193.787z"/>
				<path fill="#231F20" d="M46.311,193.898c-1.223,0-2.165-0.954-2.165-3.04c0-2.094,0.942-3.048,2.165-3.048
					c1.215,0,2.164,0.954,2.164,3.048C48.475,192.944,47.525,193.898,46.311,193.898z M46.311,188.414
					c-0.747,0-1.418,0.607-1.418,2.444c0,1.829,0.671,2.447,1.418,2.447c0.75,0,1.425-0.618,1.425-2.447
					C47.735,189.021,47.061,188.414,46.311,188.414z"/>
				<path fill="#231F20" d="M52.91,193.787h-3.188v-0.594h1.313v-4.237c0-0.072,0-0.145,0.008-0.198l-1.07,0.954l-0.396-0.474
					l1.589-1.362h0.587v5.317h1.157V193.787z"/>
				<path fill="#231F20" d="M57.896,188.378l-2.665,5.409h-0.813l2.404-4.806l0.275-0.451h-3.082v-0.622h3.88V188.378z"/>
			</g>
		</g>
	</g>
	<g>
		<g>
			<g>
				<path fill="#231F20" d="M84.656,193.787H80.7v-0.514l2.034-1.949c0.62-0.657,1.069-1.164,1.069-1.854
					c-0.021-0.705-0.475-1.034-1.088-1.034c-0.674,0-1.175,0.481-1.175,1.157l-0.722-0.123c0.152-1.081,0.933-1.667,1.94-1.667
					c1.005,0,1.784,0.611,1.784,1.652c0,0.875-0.563,1.482-1.233,2.147l-1.646,1.631c0.225-0.065,0.464-0.098,0.667-0.098h2.324
					V193.787z"/>
				<path fill="#231F20" d="M87.467,193.898c-1.222,0-2.161-0.954-2.161-3.04c0-2.094,0.939-3.048,2.161-3.048
					c1.215,0,2.165,0.954,2.165,3.048C89.632,192.944,88.682,193.898,87.467,193.898z M87.467,188.414
					c-0.747,0-1.414,0.607-1.414,2.444c0,1.829,0.667,2.447,1.414,2.447s1.426-0.618,1.426-2.447
					C88.893,189.021,88.214,188.414,87.467,188.414z"/>
				<path fill="#231F20" d="M94.067,193.787h-3.185v-0.594h1.31v-4.237c0-0.072,0-0.145,0.011-0.198l-1.073,0.954l-0.392-0.474
					l1.581-1.362h0.587v5.317h1.161V193.787z"/>
				<path fill="#231F20" d="M99.043,192.207c0,1.052-0.834,1.717-2.027,1.717c-1.208,0-2.042-0.665-2.042-1.717
					c0-0.771,0.425-1.284,1.168-1.486c-0.616-0.231-0.95-0.705-0.95-1.377c0-0.868,0.707-1.58,1.824-1.58
					c1.077,0,1.827,0.712,1.827,1.58c0,0.683-0.322,1.146-0.968,1.377C98.626,190.923,99.043,191.437,99.043,192.207z
					 M98.263,192.196c0-0.824-0.576-1.168-1.247-1.168c-0.675,0-1.263,0.344-1.263,1.168c0,0.676,0.461,1.128,1.263,1.128
					C97.82,193.324,98.263,192.872,98.263,192.196z M95.924,189.369c0,0.534,0.279,1.073,1.092,1.073
					c0.798,0,1.077-0.539,1.077-1.073c0-0.564-0.352-1.02-1.077-1.02C96.275,188.35,95.924,188.805,95.924,189.369z"/>
			</g>
		</g>
	</g>
	<g>
		<g>
			<g>
				<path fill="#231F20" d="M125.816,193.787h-3.956v-0.514l2.034-1.949c0.62-0.657,1.07-1.164,1.07-1.854
					c-0.021-0.705-0.476-1.034-1.088-1.034c-0.675,0-1.175,0.481-1.175,1.157l-0.722-0.123c0.152-1.081,0.932-1.667,1.939-1.667
					c1.005,0,1.784,0.611,1.784,1.652c0,0.875-0.562,1.482-1.232,2.147l-1.646,1.631c0.225-0.065,0.464-0.098,0.667-0.098h2.324
					V193.787z"/>
				<path fill="#231F20" d="M128.627,193.898c-1.222,0-2.161-0.954-2.161-3.04c0-2.094,0.939-3.048,2.161-3.048
					c1.215,0,2.165,0.954,2.165,3.048C130.792,192.944,129.842,193.898,128.627,193.898z M128.627,188.414
					c-0.747,0-1.414,0.607-1.414,2.444c0,1.829,0.667,2.447,1.414,2.447s1.426-0.618,1.426-2.447
					C130.053,189.021,129.374,188.414,128.627,188.414z"/>
				<path fill="#231F20" d="M135.228,193.787h-3.184v-0.594h1.309v-4.237c0-0.072,0-0.145,0.011-0.198l-1.073,0.954l-0.392-0.474
					l1.581-1.362h0.588v5.317h1.16V193.787z"/>
				<path fill="#231F20" d="M139.035,191.003c-0.312,0.249-0.688,0.376-1.131,0.376c-0.929,0-1.697-0.607-1.697-1.721
					c0-1.056,0.826-1.895,2.002-1.895c1.16,0,1.922,0.803,1.922,1.948c0,0.698-0.254,1.233-0.707,1.854l-1.618,2.221h-0.925
					l1.835-2.336C138.883,191.227,138.981,191.075,139.035,191.003z M138.144,190.801c0.805,0,1.272-0.558,1.272-1.179
					c0-0.767-0.525-1.226-1.215-1.226c-0.747,0-1.247,0.487-1.247,1.203C136.954,190.377,137.403,190.801,138.144,190.801z"/>
			</g>
		</g>
	</g>
	<g>
		<g>
			<g>
				<path fill="#231F20" d="M166.974,193.787h-3.96v-0.514l2.038-1.949c0.62-0.657,1.069-1.164,1.069-1.854
					c-0.025-0.705-0.475-1.034-1.084-1.034c-0.678,0-1.175,0.481-1.175,1.157l-0.726-0.123c0.152-1.081,0.933-1.667,1.937-1.667
					c1.009,0,1.788,0.611,1.788,1.652c0,0.875-0.563,1.482-1.229,2.147l-1.65,1.631c0.226-0.065,0.468-0.098,0.668-0.098h2.324
					V193.787z"/>
				<path fill="#231F20" d="M169.784,193.898c-1.222,0-2.165-0.954-2.165-3.04c0-2.094,0.943-3.048,2.165-3.048
					c1.215,0,2.165,0.954,2.165,3.048C171.949,192.944,170.999,193.898,169.784,193.898z M169.784,188.414
					c-0.747,0-1.418,0.607-1.418,2.444c0,1.829,0.671,2.447,1.418,2.447c0.751,0,1.425-0.618,1.425-2.447
					C171.209,189.021,170.535,188.414,169.784,188.414z"/>
				<path fill="#231F20" d="M176.537,193.787h-3.957v-0.514l2.034-1.949c0.62-0.657,1.07-1.164,1.07-1.854
					c-0.021-0.705-0.476-1.034-1.088-1.034c-0.675,0-1.175,0.481-1.175,1.157l-0.722-0.123c0.152-1.081,0.932-1.667,1.939-1.667
					c1.005,0,1.785,0.611,1.785,1.652c0,0.875-0.563,1.482-1.233,2.147l-1.646,1.631c0.225-0.065,0.464-0.098,0.667-0.098h2.325
					V193.787z"/>
				<path fill="#231F20" d="M179.348,193.898c-1.219,0-2.162-0.954-2.162-3.04c0-2.094,0.943-3.048,2.162-3.048
					c1.218,0,2.168,0.954,2.168,3.048C181.516,192.944,180.565,193.898,179.348,193.898z M179.348,188.414
					c-0.747,0-1.415,0.607-1.415,2.444c0,1.829,0.668,2.447,1.415,2.447c0.75,0,1.429-0.618,1.429-2.447
					C180.776,189.021,180.098,188.414,179.348,188.414z"/>
			</g>
		</g>
	</g>
	<g>
		<g>
			<g>
				<path fill="#231F20" d="M208.134,193.787h-3.96v-0.514l2.038-1.949c0.62-0.657,1.07-1.164,1.07-1.854
					c-0.025-0.705-0.476-1.034-1.085-1.034c-0.678,0-1.175,0.481-1.175,1.157l-0.725-0.123c0.151-1.081,0.932-1.667,1.937-1.667
					c1.008,0,1.787,0.611,1.787,1.652c0,0.875-0.562,1.482-1.229,2.147l-1.649,1.631c0.225-0.065,0.468-0.098,0.667-0.098h2.324
					V193.787z"/>
				<path fill="#231F20" d="M210.944,193.898c-1.222,0-2.165-0.954-2.165-3.04c0-2.094,0.943-3.048,2.165-3.048
					c1.215,0,2.165,0.954,2.165,3.048C213.109,192.944,212.159,193.898,210.944,193.898z M210.944,188.414
					c-0.747,0-1.418,0.607-1.418,2.444c0,1.829,0.671,2.447,1.418,2.447c0.751,0,1.426-0.618,1.426-2.447
					C212.37,189.021,211.695,188.414,210.944,188.414z"/>
				<path fill="#231F20" d="M217.697,193.787h-3.956v-0.514l2.034-1.949c0.62-0.657,1.069-1.164,1.069-1.854
					c-0.021-0.705-0.475-1.034-1.088-1.034c-0.674,0-1.175,0.481-1.175,1.157l-0.722-0.123c0.152-1.081,0.932-1.667,1.94-1.667
					c1.004,0,1.784,0.611,1.784,1.652c0,0.875-0.563,1.482-1.233,2.147l-1.646,1.631c0.226-0.065,0.465-0.098,0.668-0.098h2.324
					V193.787z"/>
				<path fill="#231F20" d="M222.328,193.787h-3.184v-0.594h1.309v-4.237c0-0.072,0-0.145,0.011-0.198l-1.073,0.954l-0.392-0.474
					l1.581-1.362h0.588v5.317h1.16V193.787z"/>
			</g>
		</g>
	</g>
	<g>
		<g>
			<g>
				<path fill="#231F20" d="M249.189,193.787h-3.956v-0.514l2.034-1.949c0.62-0.657,1.069-1.164,1.069-1.854
					c-0.021-0.705-0.475-1.034-1.088-1.034c-0.674,0-1.175,0.481-1.175,1.157l-0.722-0.123c0.152-1.081,0.933-1.667,1.94-1.667
					c1.005,0,1.784,0.611,1.784,1.652c0,0.875-0.563,1.482-1.233,2.147l-1.646,1.631c0.226-0.065,0.465-0.098,0.668-0.098h2.324
					V193.787z"/>
				<path fill="#231F20" d="M252,193.898c-1.222,0-2.161-0.954-2.161-3.04c0-2.094,0.939-3.048,2.161-3.048
					c1.215,0,2.165,0.954,2.165,3.048C254.165,192.944,253.215,193.898,252,193.898z M252,188.414c-0.747,0-1.414,0.607-1.414,2.444
					c0,1.829,0.667,2.447,1.414,2.447s1.425-0.618,1.425-2.447C253.425,189.021,252.747,188.414,252,188.414z"/>
				<path fill="#231F20" d="M258.753,193.787h-3.961v-0.514l2.038-1.949c0.62-0.657,1.07-1.164,1.07-1.854
					c-0.025-0.705-0.476-1.034-1.084-1.034c-0.679,0-1.176,0.481-1.176,1.157l-0.725-0.123c0.152-1.081,0.932-1.667,1.937-1.667
					c1.008,0,1.787,0.611,1.787,1.652c0,0.875-0.562,1.482-1.229,2.147l-1.65,1.631c0.225-0.065,0.468-0.098,0.667-0.098h2.325
					V193.787z"/>
				<path fill="#231F20" d="M263.536,193.787h-3.957v-0.514l2.035-1.949c0.62-0.657,1.069-1.164,1.069-1.854
					c-0.021-0.705-0.475-1.034-1.088-1.034c-0.675,0-1.175,0.481-1.175,1.157l-0.722-0.123c0.152-1.081,0.932-1.667,1.94-1.667
					c1.004,0,1.784,0.611,1.784,1.652c0,0.875-0.563,1.482-1.233,2.147l-1.646,1.631c0.225-0.065,0.464-0.098,0.667-0.098h2.325
					V193.787z"/>
			</g>
		</g>
	</g>
	<g>
		
			<line fill="none" stroke="#000000" stroke-width="0.6135" stroke-miterlimit="10" x1="89.839" y1="180.706" x2="89.839" y2="178.421"/>
		
			<line fill="none" stroke="#000000" stroke-width="0.6135" stroke-miterlimit="10" x1="130.995" y1="180.706" x2="130.995" y2="178.421"/>
		
			<line fill="none" stroke="#000000" stroke-width="0.6135" stroke-miterlimit="10" x1="172.152" y1="180.706" x2="172.152" y2="178.421"/>
		<g>
			<g>
				<polygon fill="#F9CFCD" points="213.313,180.706 48.678,180.706 48.678,114.19 89.839,107.881 130.995,105.354 172.152,102.549 
					213.313,91.222 				"/>
				<polygon fill="#F9CFCD" points="254.372,180.706 201.247,180.706 213.226,91.239 254.372,79.442 				"/>
			</g>
			<g>
				<polygon fill="#BDDCDE" points="213.313,180.706 48.678,180.706 48.678,147.763 89.839,145.21 130.995,144.371 172.152,143.453 
					213.313,138.735 				"/>
				<polygon fill="#BDDCDE" points="254.372,128.731 213.313,138.735 213.313,180.706 254.372,180.706 				"/>
			</g>
			<g>
				<polygon fill="#31BAAF" points="48.718,148.374 48.639,147.151 89.799,144.6 130.984,143.757 172.138,142.839 213.244,138.124 
					254.277,127.899 254.575,129.086 213.462,139.332 172.222,144.061 131.01,144.986 89.85,145.825 				"/>
			</g>
			<g>
				<polygon fill="#F06462" points="48.772,114.798 48.584,113.583 89.744,107.277 130.959,104.743 172.108,101.938 213.149,90.63 
					254.22,80.064 254.524,81.25 213.465,91.814 172.315,103.142 131.039,105.965 89.875,108.492 				"/>
			</g>
		</g>
		<g>
			<path fill="#FFFFFF" d="M51.188,114.363c0,1.306-1.059,2.357-2.364,2.357s-2.364-1.052-2.364-2.357
				c0-1.301,1.059-2.356,2.364-2.356S51.188,113.063,51.188,114.363z"/>
			<path fill="#F06462" d="M48.823,117.487c-1.727,0-3.133-1.402-3.133-3.124c0-1.721,1.406-3.123,3.133-3.123
				s3.133,1.402,3.133,3.123C51.956,116.085,50.55,117.487,48.823,117.487z M48.823,112.772c-0.881,0-1.596,0.716-1.596,1.591
				s0.715,1.591,1.596,1.591s1.596-0.716,1.596-1.591S49.704,112.772,48.823,112.772z"/>
		</g>
		<g>
			<ellipse fill="#FFFFFF" cx="48.823" cy="147.763" rx="2.364" ry="2.357"/>
			<path fill="#31BAAF" d="M48.823,150.887c-1.727,0-3.133-1.403-3.133-3.124s1.406-3.124,3.133-3.124s3.133,1.403,3.133,3.124
				S50.55,150.887,48.823,150.887z M48.823,146.172c-0.881,0-1.596,0.716-1.596,1.591s0.715,1.591,1.596,1.591
				s1.596-0.716,1.596-1.591S49.704,146.172,48.823,146.172z"/>
		</g>
		<g>
			<ellipse fill="#FFFFFF" cx="89.968" cy="107.993" rx="2.366" ry="2.357"/>
			<path fill="#F06462" d="M89.969,111.117c-1.729,0-3.137-1.403-3.137-3.124s1.407-3.124,3.137-3.124
				c1.727,0,3.134,1.403,3.134,3.124S91.695,111.117,89.969,111.117z M89.969,106.402c-0.881,0-1.599,0.716-1.599,1.591
				s0.718,1.591,1.599,1.591c0.882,0,1.596-0.716,1.596-1.591S90.851,106.402,89.969,106.402z"/>
		</g>
		<g>
			<path fill="#FFFFFF" d="M92.334,145.109c0,1.301-1.06,2.36-2.365,2.36c-1.309,0-2.367-1.06-2.367-2.36
				c0-1.302,1.059-2.357,2.367-2.357C91.274,142.752,92.334,143.808,92.334,145.109z"/>
			<path fill="#31BAAF" d="M89.969,148.236c-1.729,0-3.137-1.402-3.137-3.127c0-1.722,1.407-3.124,3.137-3.124
				c1.727,0,3.134,1.402,3.134,3.124C93.103,146.834,91.695,148.236,89.969,148.236z M89.969,143.519
				c-0.881,0-1.599,0.716-1.599,1.591c0,0.878,0.718,1.594,1.599,1.594c0.882,0,1.596-0.716,1.596-1.594
				C91.564,144.234,90.851,143.519,89.969,143.519z"/>
		</g>
		<g>
			<ellipse fill="#FFFFFF" cx="130.6" cy="105.281" rx="2.365" ry="2.357"/>
			<path fill="#F06462" d="M130.601,108.405c-1.727,0-3.134-1.402-3.134-3.124c0-1.724,1.407-3.127,3.134-3.127
				c1.726,0,3.133,1.403,3.133,3.127C133.733,107.003,132.326,108.405,130.601,108.405z M130.601,103.688
				c-0.882,0-1.596,0.716-1.596,1.594c0,0.875,0.714,1.591,1.596,1.591c0.881,0,1.596-0.716,1.596-1.591
				C132.196,104.403,131.481,103.688,130.601,103.688z"/>
		</g>
		<g>
			<ellipse fill="#FFFFFF" cx="130.6" cy="144.212" rx="2.365" ry="2.357"/>
			<path fill="#31BAAF" d="M130.601,147.336c-1.727,0-3.134-1.402-3.134-3.124c0-1.721,1.407-3.123,3.134-3.123
				c1.726,0,3.133,1.402,3.133,3.123C133.733,145.934,132.326,147.336,130.601,147.336z M130.601,142.621
				c-0.882,0-1.596,0.717-1.596,1.591c0,0.875,0.714,1.591,1.596,1.591c0.881,0,1.596-0.716,1.596-1.591
				C132.196,143.338,131.481,142.621,130.601,142.621z"/>
		</g>
		<g>
			<path fill="#FFFFFF" d="M174.448,102.447c0,1.305-1.056,2.357-2.361,2.357c-1.313,0-2.368-1.053-2.368-2.357
				c0-1.302,1.056-2.357,2.368-2.357C173.393,100.09,174.448,101.146,174.448,102.447z"/>
			<path fill="#F06462" d="M172.087,105.571c-1.729,0-3.137-1.403-3.137-3.124s1.407-3.124,3.137-3.124
				c1.727,0,3.13,1.403,3.13,3.124S173.813,105.571,172.087,105.571z M172.087,100.856c-0.881,0-1.6,0.716-1.6,1.591
				s0.719,1.591,1.6,1.591c0.878,0,1.592-0.716,1.592-1.591S172.965,100.856,172.087,100.856z"/>
		</g>
		<g>
			<path fill="#FFFFFF" d="M174.448,143.464c0,1.302-1.056,2.361-2.361,2.361c-1.313,0-2.368-1.06-2.368-2.361
				c0-1.305,1.056-2.36,2.368-2.36C173.393,141.104,174.448,142.159,174.448,143.464z"/>
			<path fill="#31BAAF" d="M172.087,146.591c-1.729,0-3.137-1.402-3.137-3.127s1.407-3.127,3.137-3.127
				c1.727,0,3.13,1.402,3.13,3.127S173.813,146.591,172.087,146.591z M172.087,141.869c-0.881,0-1.6,0.716-1.6,1.595
				s0.719,1.595,1.6,1.595c0.878,0,1.592-0.716,1.592-1.595S172.965,141.869,172.087,141.869z"/>
		</g>
		<g>
			<path fill="#FFFFFF" d="M215.59,91.239c0,1.302-1.055,2.357-2.364,2.357c-1.306,0-2.364-1.056-2.364-2.357
				s1.059-2.357,2.364-2.357C214.535,88.882,215.59,89.938,215.59,91.239z"/>
			<path fill="#F06462" d="M213.226,94.363c-1.726,0-3.133-1.401-3.133-3.124s1.407-3.123,3.133-3.123
				c1.727,0,3.134,1.4,3.134,3.123S214.952,94.363,213.226,94.363z M213.226,89.648c-0.881,0-1.596,0.715-1.596,1.591
				c0,0.877,0.715,1.591,1.596,1.591c0.882,0,1.596-0.714,1.596-1.591C214.821,90.363,214.107,89.648,213.226,89.648z"/>
		</g>
		<g>
			<circle fill="#FFFFFF" cx="254.37" cy="80.657" r="2.366"/>
			<path fill="#F06462" d="M254.372,83.784c-1.73,0-3.138-1.402-3.138-3.127s1.407-3.127,3.138-3.127
				c1.726,0,3.133,1.402,3.133,3.127S256.098,83.784,254.372,83.784z M254.372,79.063c-0.882,0-1.6,0.716-1.6,1.595
				s0.718,1.595,1.6,1.595c0.881,0,1.596-0.716,1.596-1.595S255.253,79.063,254.372,79.063z"/>
		</g>
		<g>
			<path fill="#FFFFFF" d="M215.59,138.385c0,1.301-1.055,2.36-2.364,2.36c-1.306,0-2.364-1.06-2.364-2.36
				c0-1.302,1.059-2.357,2.364-2.357C214.535,136.027,215.59,137.083,215.59,138.385z"/>
			<path fill="#31BAAF" d="M213.226,141.512c-1.726,0-3.133-1.403-3.133-3.127c0-1.722,1.407-3.124,3.133-3.124
				c1.727,0,3.134,1.402,3.134,3.124C216.359,140.108,214.952,141.512,213.226,141.512z M213.226,136.794
				c-0.881,0-1.596,0.716-1.596,1.591c0,0.878,0.715,1.594,1.596,1.594c0.882,0,1.596-0.716,1.596-1.594
				C214.821,137.51,214.107,136.794,213.226,136.794z"/>
		</g>
		<g>
			<path fill="#FFFFFF" d="M256.736,128.536c0,1.302-1.06,2.357-2.364,2.357c-1.306,0-2.368-1.056-2.368-2.357
				c0-1.306,1.063-2.361,2.368-2.361C255.677,126.175,256.736,127.23,256.736,128.536z"/>
			<path fill="#31BAAF" d="M254.372,131.66c-1.73,0-3.138-1.403-3.138-3.124c0-1.725,1.407-3.128,3.138-3.128
				c1.726,0,3.133,1.403,3.133,3.128C257.505,130.257,256.098,131.66,254.372,131.66z M254.372,126.941
				c-0.882,0-1.6,0.716-1.6,1.595c0,0.875,0.718,1.591,1.6,1.591c0.881,0,1.596-0.716,1.596-1.591
				C255.968,127.657,255.253,126.941,254.372,126.941z"/>
		</g>
		<g>
			<rect x="236.428" y="60.437" fill="#F06462" width="35.888" height="12.538"/>
			<g>
				<g>
					<path fill="#FFFFFF" d="M242.35,66.968h-1.52l0.175-4.063h3.978v1.278h-2.455l-0.087,1.614c0.203-0.24,0.559-0.408,1.022-0.408
						c1.096,0,1.879,0.744,1.879,2.368c0,1.446-0.838,2.35-2.386,2.35c-1.48,0-2.296-0.824-2.376-2.137h1.646
						c0.044,0.559,0.275,0.86,0.729,0.86c0.489,0,0.746-0.338,0.746-1.119c0-0.708-0.202-1.117-0.746-1.117
						C242.651,66.595,242.455,66.756,242.35,66.968z"/>
					<path fill="#FFFFFF" d="M245.886,62.905h4.627v1.172l-2.208,5.905h-1.679l2.229-5.799h-2.97V62.905z"/>
					<path fill="#FFFFFF" d="M252.834,69.982c0,0.781-0.58,1.34-1.61,1.367v-0.701c0.533-0.017,0.798-0.23,0.798-0.666h-0.798
						v-1.596h1.61V69.982z"/>
					<path fill="#FFFFFF" d="M255.278,66.968h-1.523l0.178-4.063h3.979v1.278h-2.459l-0.087,1.614
						c0.203-0.24,0.559-0.408,1.022-0.408c1.096,0,1.879,0.744,1.879,2.368c0,1.446-0.838,2.35-2.387,2.35
						c-1.476,0-2.291-0.824-2.371-2.137h1.643c0.047,0.559,0.279,0.86,0.729,0.86c0.494,0,0.747-0.338,0.747-1.119
						c0-0.708-0.202-1.117-0.747-1.117C255.579,66.595,255.384,66.756,255.278,66.968z"/>
					<path fill="#FFFFFF" d="M260.421,68.209c0.036,0.452,0.239,0.675,0.631,0.675c0.58,0,0.827-0.541,0.845-1.96
						c-0.221,0.363-0.656,0.577-1.2,0.577c-1.132,0-2.038-0.843-2.038-2.334c0-1.462,0.925-2.384,2.394-2.384
						c0.87,0,1.574,0.317,1.994,1.01c0.37,0.611,0.472,1.472,0.472,2.475c0,2.803-0.783,3.84-2.484,3.84
						c-1.316,0-2.143-0.709-2.233-1.898H260.421z M261.088,64.068c-0.515,0-0.79,0.381-0.79,1.107c0,0.729,0.275,1.11,0.79,1.11
						c0.497,0,0.783-0.382,0.783-1.11C261.871,64.449,261.585,64.068,261.088,64.068z"/>
					<path fill="#FFFFFF" d="M268.711,64.688c0,0.729-0.425,1.313-1.037,1.534c0.762,0.274,1.244,0.852,1.244,1.757
						c0,1.313-0.998,2.128-2.535,2.128c-1.549,0-2.546-0.815-2.546-2.128c0-0.905,0.482-1.482,1.247-1.757
						c-0.616-0.221-1.029-0.806-1.029-1.534c0-1.127,0.877-1.905,2.328-1.905C267.826,62.783,268.711,63.562,268.711,64.688z
						 M267.289,67.828c0-0.647-0.362-0.992-0.906-0.992c-0.552,0-0.914,0.345-0.914,0.992s0.362,1.003,0.914,1.003
						C266.927,68.831,267.289,68.476,267.289,67.828z M267.101,64.84c0-0.488-0.265-0.781-0.718-0.781
						c-0.465,0-0.74,0.293-0.74,0.781s0.275,0.771,0.74,0.771C266.836,65.611,267.101,65.328,267.101,64.84z"/>
				</g>
			</g>
			<polygon fill="#F06462" points="257.183,71.268 254.372,76.807 251.562,71.268 			"/>
		</g>
		<g>
			<rect x="30.879" y="93.677" fill="#F06462" width="35.887" height="12.545"/>
			<g>
				<g>
					<path fill="#FFFFFF" d="M38.176,101.153c0-0.745-0.305-1.02-1.001-1.02h-0.54v-1.262h0.54c0.5,0,0.831-0.23,0.831-0.834
						c0-0.47-0.243-0.735-0.642-0.735s-0.639,0.266-0.639,0.735v0.125h-1.584v-0.195c0-1.153,0.816-1.941,2.223-1.941
						c1.399,0,2.234,0.797,2.234,1.914c0,0.852-0.436,1.331-1.088,1.526c0.848,0.204,1.302,0.84,1.302,1.759
						c0,1.283-0.979,2.126-2.448,2.126c-1.465,0-2.437-0.843-2.437-2.126v-0.225h1.628v0.152c0,0.593,0.294,0.922,0.809,0.922
						C37.878,102.075,38.176,101.746,38.176,101.153z"/>
					<path fill="#FFFFFF" d="M43.336,97.932c-0.036-0.452-0.242-0.673-0.642-0.673c-0.565,0-0.809,0.541-0.834,1.96
						c0.222-0.363,0.667-0.586,1.2-0.586c1.128,0,2.034,0.852,2.034,2.34c0,1.456-0.932,2.379-2.382,2.379
						c-0.882,0-1.585-0.318-2.002-1.002c-0.374-0.611-0.472-1.472-0.472-2.475c0-2.804,0.794-3.849,2.484-3.849
						c1.313,0,2.144,0.709,2.233,1.905H43.336z M42.68,102.075c0.504,0,0.78-0.38,0.78-1.11c0-0.737-0.276-1.117-0.78-1.117
						c-0.519,0-0.783,0.38-0.783,1.117C41.896,101.695,42.161,102.075,42.68,102.075z"/>
					<path fill="#FFFFFF" d="M47.285,103.229c0,0.78-0.576,1.337-1.609,1.366v-0.701c0.536-0.019,0.801-0.231,0.801-0.665h-0.801
						v-1.599h1.609V103.229z"/>
					<path fill="#FFFFFF" d="M48.004,96.149h4.627v1.171l-2.205,5.908h-1.683l2.234-5.801h-2.974V96.149z"/>
					<path fill="#FFFFFF" d="M56.359,101.153c0-0.745-0.305-1.02-0.998-1.02h-0.54v-1.262h0.54c0.497,0,0.831-0.23,0.831-0.834
						c0-0.47-0.243-0.735-0.646-0.735c-0.399,0-0.639,0.266-0.639,0.735v0.125h-1.581v-0.195c0-1.153,0.816-1.941,2.22-1.941
						c1.399,0,2.233,0.797,2.233,1.914c0,0.852-0.435,1.331-1.084,1.526c0.845,0.204,1.298,0.84,1.298,1.759
						c0,1.283-0.976,2.126-2.447,2.126c-1.465,0-2.438-0.843-2.438-2.126v-0.225h1.632v0.152c0,0.593,0.291,0.922,0.806,0.922
						C56.065,102.075,56.359,101.746,56.359,101.153z"/>
					<path fill="#FFFFFF" d="M58.521,96.149h4.627v1.171l-2.204,5.908H59.26l2.234-5.801h-2.974V96.149z"/>
				</g>
			</g>
			<polygon fill="#F06462" points="51.638,104.516 48.823,110.054 46.017,104.516 			"/>
		</g>
		<g>
			<rect x="238.133" y="108.218" fill="#79CBC5" width="32.471" height="12.082"/>
			<g>
				<g>
					<path fill="#FFFFFF" d="M246.69,115.846h-0.779v1.403h-0.686v-1.403h-2.676v-0.586l2.61-4.302h0.751v4.302h0.779V115.846z
						 M245.226,115.26v-3.188l-1.929,3.188H245.226z"/>
					<path fill="#FFFFFF" d="M248.112,114.425h-0.675l0.16-3.467h3.137v0.586h-2.502l-0.105,2.19
						c0.196-0.321,0.602-0.563,1.135-0.563c1.077,0,1.81,0.723,1.81,2.104c0,1.316-0.732,2.075-1.929,2.075
						c-1.117,0-1.828-0.665-1.922-1.771h0.682c0.079,0.788,0.54,1.187,1.24,1.187c0.798,0,1.255-0.528,1.255-1.505
						c0-0.972-0.457-1.504-1.255-1.504C248.667,113.756,248.305,113.998,248.112,114.425z"/>
					<path fill="#FFFFFF" d="M251.949,117.921c0.29-0.039,0.446-0.209,0.446-0.521v-0.151h-0.374v-0.955h0.77v1.056
						c0,0.586-0.283,0.868-0.842,0.934V117.921z"/>
					<path fill="#FFFFFF" d="M255.808,113.171c1.153,0,1.9,0.795,1.9,2.089c0,1.299-0.813,2.09-1.966,2.09
						c-0.819,0-1.414-0.357-1.719-1.088c-0.188-0.434-0.261-1.002-0.261-1.731c0-1.421,0.145-2.343,0.493-2.914
						c0.33-0.543,0.834-0.76,1.501-0.76c0.994,0,1.668,0.521,1.799,1.54h-0.711c-0.079-0.636-0.471-0.954-1.103-0.954
						c-0.913,0-1.255,0.737-1.294,2.47C254.665,113.471,255.147,113.171,255.808,113.171z M255.742,116.765
						c0.783,0,1.288-0.55,1.288-1.505c0-0.939-0.505-1.504-1.288-1.504c-0.779,0-1.294,0.564-1.294,1.504
						C254.448,116.215,254.963,116.765,255.742,116.765z"/>
					<path fill="#FFFFFF" d="M261.653,116.775c-0.322,0.376-0.805,0.574-1.425,0.574s-1.103-0.198-1.425-0.574
						c-0.418-0.507-0.617-1.226-0.617-2.672s0.199-2.166,0.617-2.672c0.322-0.376,0.805-0.575,1.425-0.575s1.103,0.199,1.425,0.575
						c0.417,0.506,0.609,1.226,0.609,2.672S262.07,116.269,261.653,116.775z M261.186,111.873c-0.225-0.279-0.54-0.431-0.957-0.431
						c-0.41,0-0.732,0.151-0.957,0.431c-0.279,0.361-0.403,0.972-0.403,2.23c0,1.258,0.113,1.876,0.403,2.237
						c0.217,0.278,0.547,0.424,0.957,0.424c0.417,0,0.743-0.146,0.957-0.424c0.283-0.361,0.403-0.979,0.403-2.237
						C261.589,112.845,261.469,112.234,261.186,111.873z"/>
					<path fill="#FFFFFF" d="M266.023,114.197l-2.18,2.466h2.88v0.586h-3.771v-0.539l2.523-2.863
						c0.349-0.395,0.476-0.72,0.476-1.132c0-0.744-0.457-1.272-1.208-1.272c-0.762,0-1.204,0.535-1.204,1.272v0.178h-0.685v-0.185
						c0-1.013,0.667-1.852,1.889-1.852c1.226,0,1.9,0.839,1.9,1.852C266.644,113.271,266.499,113.662,266.023,114.197z"/>
				</g>
			</g>
			<polygon fill="#79CBC5" points="256.918,118.594 254.372,124.133 251.826,118.594 			"/>
		</g>
		<g>
			<g>
				<rect x="32.591" y="127.09" fill="#79CBC5" width="32.471" height="12.083"/>
				<polygon fill="#79CBC5" points="51.369,137.466 48.823,143.005 46.285,137.466 				"/>
			</g>
			<g>
				<g>
					<path fill="#FFFFFF" d="M39.061,133.069h-0.634v-0.585h0.649c0.696,0,1.073-0.484,1.073-1.085c0-0.65-0.46-1.092-1.12-1.092
						c-0.686,0-1.117,0.441-1.117,1.092v0.087h-0.686v-0.145c0-0.911,0.667-1.62,1.803-1.62c1.128,0,1.795,0.709,1.795,1.62
						c0,0.708-0.362,1.243-0.979,1.432c0.696,0.181,1.164,0.73,1.164,1.605c0,1.135-0.805,1.844-1.979,1.844
						c-1.164,0-1.987-0.724-1.987-1.888v-0.079h0.678v0.051c0,0.846,0.551,1.33,1.31,1.33c0.75,0,1.302-0.474,1.302-1.287
						C40.33,133.558,39.833,133.069,39.061,133.069z"/>
					<path fill="#FFFFFF" d="M43.739,136.117v-5.574l-1.567,0.697v-0.665l1.665-0.745h0.587v6.287H43.739z"/>
					<path fill="#FFFFFF" d="M46.404,136.79c0.29-0.04,0.442-0.206,0.442-0.521v-0.152h-0.37v-0.954h0.766v1.06
						c0,0.585-0.283,0.863-0.838,0.929V136.79z"/>
					<path fill="#FFFFFF" d="M49.149,133.294h-0.675l0.16-3.464h3.141v0.582h-2.503l-0.104,2.191
						c0.192-0.322,0.602-0.561,1.135-0.561c1.077,0,1.81,0.723,1.81,2.101c0,1.315-0.732,2.079-1.933,2.079
						c-1.117,0-1.828-0.666-1.922-1.771h0.682c0.083,0.78,0.544,1.186,1.24,1.186c0.798,0,1.255-0.531,1.255-1.512
						c0-0.969-0.457-1.496-1.255-1.496C49.708,132.629,49.346,132.867,49.149,133.294z"/>
					<path fill="#FFFFFF" d="M52.805,129.83h3.761v0.528l-2.187,5.759h-0.718l2.219-5.705h-3.075V129.83z"/>
					<path fill="#FFFFFF" d="M60.479,133.069l-2.183,2.463h2.883v0.585h-3.775v-0.538l2.527-2.863
						c0.345-0.391,0.476-0.724,0.476-1.132c0-0.745-0.457-1.276-1.208-1.276c-0.765,0-1.207,0.539-1.207,1.276v0.177H57.31v-0.185
						c0-1.009,0.667-1.854,1.889-1.854c1.223,0,1.896,0.846,1.896,1.854C61.095,132.137,60.95,132.531,60.479,133.069z"/>
				</g>
			</g>
		</g>
		<rect x="23.068" y="180.482" width="253.944" height="0.448"/>
	</g>
	<g>
		<g>
			<path fill="#F06462" d="M166.364,65.57h6.237v0.808h-2.661v2.457h-0.958v-2.457h-2.618V65.57z M169.991,61.875v0.353
				c0,0.288,0.094,0.573,0.282,0.855c0.188,0.283,0.461,0.527,0.82,0.731c0.358,0.207,0.783,0.344,1.276,0.413L172,65.019
				c-0.584-0.096-1.092-0.28-1.523-0.551c-0.432-0.273-0.761-0.605-0.986-1c-0.225,0.399-0.555,0.734-0.986,1.003
				c-0.435,0.27-0.946,0.452-1.53,0.548l-0.377-0.791c0.497-0.069,0.925-0.206,1.283-0.413c0.363-0.204,0.635-0.448,0.82-0.729
				c0.188-0.278,0.282-0.565,0.282-0.858v-0.353H169.991z"/>
			<path fill="#F06462" d="M178.607,62.155v0.799h-3.826v1.913h3.884v0.792h-1.979v1.536h2.654v0.815h-6.245v-0.815h2.633v-1.536
				h-1.899v-3.504H178.607z"/>
			<path fill="#F06462" d="M182.586,64.307c0.083-0.564,0.127-1.063,0.138-1.495h-2.324v-0.784h3.277v0.247
				c0,0.306-0.007,0.607-0.021,0.909c-0.015,0.301-0.054,0.649-0.116,1.044c0.152-0.017,0.381-0.046,0.679-0.089l0.055,0.705
				c-0.53,0.096-1.103,0.17-1.727,0.224v1.544h-0.878v1.294h4.142v0.792h-5.099v-2.184h0.881v-1.383
				c-0.678,0.027-1.243,0.04-1.7,0.04l-0.116-0.792C180.899,64.379,181.835,64.355,182.586,64.307z M185.657,61.66v5.397h-0.954
				v-0.799h-1.349V65.5h1.349v-3.84H185.657z"/>
		</g>
		<ellipse fill="#F06462" cx="157.69" cy="65.487" rx="5.055" ry="5.036"/>
		<g>
			<path fill="#289297" d="M128.595,64.415c0.283-0.414,0.424-0.862,0.424-1.349v-0.119h-1.385v-0.792h3.71v0.792h-1.363v0.112
				c0,0.453,0.134,0.875,0.402,1.264c0.271,0.389,0.663,0.674,1.175,0.856l-0.468,0.767c-0.37-0.127-0.686-0.314-0.95-0.564
				c-0.265-0.247-0.475-0.538-0.627-0.875c-0.156,0.373-0.37,0.698-0.653,0.971c-0.279,0.275-0.616,0.479-1.005,0.613l-0.485-0.784
				C127.902,65.126,128.312,64.829,128.595,64.415z M128.627,66.45h0.954v1.455h3.75v0.792h-4.704V66.45z M132.214,63.531v-1.864
				h0.954v5.223h-0.954v-2.566h-1.117v-0.792H132.214z"/>
			<path fill="#289297" d="M139.645,61.98v0.559c0,0.374-0.007,0.701-0.021,0.984c-0.015,0.282-0.055,0.595-0.116,0.935h0.885v0.792
				h-2.654v1.041h1.922v2.544h-0.943v-1.761h-3.945v-0.783h2.009V65.25h-2.633v-0.792h4.414c0.104-0.533,0.155-1.097,0.155-1.695
				h-3.8V61.98H139.645z"/>
		</g>
		<ellipse fill="#79CBC5" cx="118.742" cy="65.487" rx="5.055" ry="5.036"/>
	</g>
	<path fill="#D1D2D2" d="M300,206H0V0h300V206z M1.77,204.228H298.23V1.768H1.77V204.228z"/>
</g>
</svg>
