<?xml version="1.0" encoding="utf-8"?>
<!-- Generator: Adobe Illustrator 15.1.0, SVG Export Plug-In . SVG Version: 6.00 Build 0)  -->
<!DOCTYPE svg PUBLIC "-//W3C//DTD SVG 1.1//EN" "http://www.w3.org/Graphics/SVG/1.1/DTD/svg11.dtd">
<svg version="1.1" id="Layer_1" xmlns="http://www.w3.org/2000/svg" xmlns:xlink="http://www.w3.org/1999/xlink" x="0px" y="0px"
	 width="300px" height="206px" viewBox="0 0 300 206" enable-background="new 0 0 300 206" xml:space="preserve">
<g>
	<rect x="0.885" y="0.884" fill="#F9F9FA" width="298.23" height="204.229"/>
	<rect x="0.885" y="0.884" fill="#B1313A" width="298.23" height="51.18"/>
	<g>
		<path fill="#FFFFFF" d="M279.169,27.406c0,5.633-4.584,10.195-10.23,10.195l0,0c-5.649,0-10.23-4.563-10.23-10.195l0,0
			c0-5.629,4.581-10.195,10.23-10.195l0,0C274.585,17.211,279.169,21.777,279.169,27.406L279.169,27.406z"/>
		<path fill="#B1313A" d="M272.358,26.665l-4.489-4.476c-0.413-0.409-1.081-0.409-1.49,0c-0.41,0.412-0.41,1.077,0,1.485
			l3.746,3.731l-3.746,3.734c-0.41,0.412-0.41,1.074,0,1.486c0.206,0.202,0.475,0.307,0.743,0.307c0.271,0,0.54-0.104,0.747-0.307
			l4.489-4.477c0.196-0.198,0.309-0.466,0.309-0.744C272.667,27.131,272.555,26.864,272.358,26.665z"/>
	</g>
	<g>
		<g>
			<g>
				<g>
					<g>
						<path fill="#E2E2E4" d="M60.171,55.859c-0.921,0-1.689,0.773-1.689,1.691c0,0.923,0.769,1.692,1.689,1.692
							c0.929,0,1.697-0.77,1.697-1.692C61.868,56.633,61.1,55.859,60.171,55.859z"/>
						<g>
							<path fill="#E2E2E4" d="M69.194,61.738c-0.044,0.155,0.007,0.115,0.014-0.069C69.201,61.694,69.201,61.716,69.194,61.738z"/>
							<path fill="#E2E2E4" d="M69.183,61.138c-0.278-0.973-1.736-1.005-2.001,0c-0.105,0.401,0,0.896,0.326,1.183
								c0.762,0.669,1.882,0.025,1.668-0.973c0.025,0.137,0.036,0.238,0.032,0.321C69.245,61.492,69.233,61.312,69.183,61.138z"/>
						</g>
						<path fill="#E2E2E4" d="M62.329,69.396c-1.117,0-1.117,1.728,0,1.728S63.446,69.396,62.329,69.396z"/>
						<path fill="#E2E2E4" d="M72.799,72.179c-1.487,0-1.487,2.3,0,2.3C74.289,74.479,74.289,72.179,72.799,72.179z"/>
						<path fill="#E2E2E4" d="M97.44,66.214c-0.703,0-1.287,0.586-1.287,1.279c0,0.702,0.584,1.28,1.287,1.28
							c0.7,0,1.284-0.578,1.284-1.28C98.725,66.8,98.141,66.214,97.44,66.214z"/>
						<path fill="#E2E2E4" d="M88.712,83.011c-0.105-0.332-0.428-0.578-0.783-0.578c-0.453,0-0.831,0.383-0.831,0.831
							s0.378,0.824,0.831,0.824c0.355,0,0.678-0.238,0.783-0.571C88.792,83.358,88.792,83.17,88.712,83.011z"/>
						<path fill="#E2E2E4" d="M111.939,90.867c-1.28,0-1.28,1.984,0,1.984C113.228,92.852,113.228,90.867,111.939,90.867z"/>
						<path fill="#E2E2E4" d="M207.69,85.668c0.156-0.412,0.167-0.85-0.068-1.254c-0.251-0.427-0.715-0.694-1.208-0.694
							c-1.016,0-1.813,1.207-1.211,2.104c0.167,0.246,0.348,0.463,0.62,0.586c0.127,0.058,0.243,0.116,0.373,0.145
							c0.116,0.025,0.222,0.036,0.326,0.029c0.059,0.015,0.124,0.028,0.2,0.028c0.293,0,0.62-0.166,0.758-0.437
							c0.029-0.055,0.055-0.105,0.072-0.156C207.625,85.903,207.662,85.787,207.69,85.668z"/>
						<path fill="#E2E2E4" d="M238.363,92.49c-1.914,0-1.914,2.965,0,2.965C240.286,95.455,240.286,92.49,238.363,92.49z"/>
						<path fill="#E2E2E4" d="M136.705,71.514c-1.918,0-1.918,2.965,0,2.965C138.62,74.479,138.62,71.514,136.705,71.514z"/>
						<path fill="#E2E2E4" d="M208.561,77.664c-1.008,0-1.008,1.551,0,1.551C209.565,79.215,209.565,77.664,208.561,77.664z"/>
						<path fill="#E2E2E4" d="M220.101,71.662c-0.791,0-1.458,0.662-1.458,1.45c0,0.791,0.667,1.449,1.458,1.449
							s1.454-0.658,1.454-1.449C221.555,72.324,220.892,71.662,220.101,71.662z"/>
						<path fill="#E2E2E4" d="M109.607,77.378c-1.693,0-1.693,2.621,0,2.621C111.305,79.999,111.305,77.378,109.607,77.378z"/>
						<path fill="#E2E2E4" d="M229.029,70.4c-0.37,0-0.675,0.304-0.675,0.673c0,0.368,0.305,0.676,0.675,0.676
							s0.682-0.308,0.682-0.676C229.711,70.704,229.399,70.4,229.029,70.4z"/>
						<path fill="#E2E2E4" d="M215.491,95.437c-0.192-0.271-0.453-0.387-0.772-0.502c-0.461-0.166-0.936,0.112-1.186,0.478
							c-0.214,0.317-0.214,0.737,0,1.056c0.25,0.368,0.725,0.65,1.186,0.48c0.319-0.112,0.58-0.235,0.772-0.499
							C215.785,96.178,215.785,95.708,215.491,95.437z"/>
						<path fill="#E2E2E4" d="M229.5,53.776c-1.319,0-1.319,2.047,0,2.047C230.824,55.823,230.824,53.776,229.5,53.776z"/>
						<path fill="#E2E2E4" d="M263.992,87.469c-0.772,0-1.414,0.644-1.414,1.406c0,0.773,0.642,1.417,1.414,1.417
							s1.414-0.644,1.414-1.417C265.406,88.112,264.765,87.469,263.992,87.469z"/>
						<path fill="#E2E2E4" d="M252.602,80.357c-0.631,0-1.157,0.527-1.157,1.153c0,0.625,0.526,1.153,1.157,1.153
							s1.153-0.528,1.153-1.153C253.755,80.885,253.232,80.357,252.602,80.357z"/>
						<path fill="#E2E2E4" d="M252.608,94.399c-0.279-0.231-0.533-0.431-0.921-0.431c-0.576,0-1.059,0.481-1.059,1.053
							s0.482,1.048,1.059,1.048c0.388,0,0.642-0.195,0.921-0.43C252.953,95.351,252.953,94.688,252.608,94.399z"/>
						<path fill="#E2E2E4" d="M271.996,77.52c0-0.561-0.377-1.009-0.899-1.179c-0.319-0.102-0.613-0.12-0.936-0.047
							c-0.834,0.173-1.197,1.218-0.787,1.916c0.37,0.621,1.272,0.846,1.868,0.43C271.685,78.441,271.996,78.029,271.996,77.52z"/>
						<path fill="#E2E2E4" d="M252.365,72.482c-0.699,0-1.279,0.582-1.279,1.28c0,0.694,0.58,1.28,1.279,1.28
							c0.7,0,1.28-0.586,1.28-1.28C253.646,73.064,253.065,72.482,252.365,72.482z"/>
						<path fill="#E2E2E4" d="M251.332,54.793c0.008,0.075,0.019,0.155,0.029,0.228c0.163,1.316,1.886,1.316,2.049,0
							c0.011-0.072,0.019-0.152,0.029-0.228C253.609,53.437,251.165,53.437,251.332,54.793z"/>
						<path fill="#E2E2E4" d="M240.989,58.173c-1.581,0-1.581,2.448,0,2.448S242.57,58.173,240.989,58.173z"/>
					</g>
					<g>
						<path fill="#E2E2E4" d="M238.168,82.197c0,2.997-2.438,5.435-5.451,5.435c-3.01,0-5.45-2.438-5.45-5.435
							c0-3.004,2.44-5.434,5.45-5.434C235.73,76.764,238.168,79.193,238.168,82.197z"/>
						<path fill="#E2E2E4" d="M257.442,84.009c0,1.999-1.621,3.623-3.63,3.623c-2.005,0-3.634-1.624-3.634-3.623
							c0-1.996,1.629-3.615,3.634-3.615C255.821,80.394,257.442,82.013,257.442,84.009z"/>
						<path fill="#E2E2E4" d="M253.823,82.082c0,3.062-2.495,5.55-5.566,5.55c-3.075,0-5.57-2.488-5.57-5.55
							c0-3.069,2.495-5.55,5.57-5.55C251.328,76.532,253.823,79.013,253.823,82.082z"/>
						<path fill="#E2E2E4" d="M247.633,79.854c0,4.292-3.488,7.777-7.797,7.777s-7.801-3.485-7.801-7.777
							c0-4.299,3.492-7.776,7.801-7.776S247.633,75.556,247.633,79.854z"/>
						<polygon fill="#E2E2E4" points="232.786,87.632 253.813,87.632 253.813,82.556 232.518,82.556 						"/>
					</g>
					<g>
						<path fill="#E2E2E4" d="M26.749,72.938c0,3.001-2.44,5.431-5.451,5.431c-3.006,0-5.447-2.43-5.447-5.431
							s2.44-5.438,5.447-5.438C24.309,67.501,26.749,69.938,26.749,72.938z"/>
						<path fill="#E2E2E4" d="M46.027,74.75c0,1.999-1.624,3.619-3.634,3.619c-2.001,0-3.63-1.62-3.63-3.619
							c0-2,1.628-3.619,3.63-3.619C44.403,71.131,46.027,72.75,46.027,74.75z"/>
						<ellipse fill="#E2E2E4" cx="36.838" cy="72.822" rx="5.567" ry="5.547"/>
						<ellipse fill="#E2E2E4" cx="28.416" cy="70.596" rx="7.802" ry="7.773"/>
						<polygon fill="#E2E2E4" points="21.371,78.369 42.394,78.369 42.394,73.293 21.099,73.293 						"/>
					</g>
				</g>
			</g>
		</g>
		<g>
			<g>
				<path fill="#231F20" d="M31.841,193.563h-3.96v-0.514l2.038-1.948c0.62-0.658,1.07-1.164,1.07-1.854
					c-0.025-0.705-0.475-1.034-1.084-1.034c-0.678,0-1.175,0.48-1.175,1.157l-0.726-0.123c0.152-1.081,0.932-1.667,1.937-1.667
					c1.008,0,1.788,0.611,1.788,1.652c0,0.875-0.562,1.482-1.229,2.147l-1.65,1.631c0.225-0.065,0.468-0.098,0.667-0.098h2.325
					V193.563z"/>
				<path fill="#231F20" d="M34.651,193.675c-1.222,0-2.165-0.955-2.165-3.041c0-2.093,0.943-3.048,2.165-3.048
					c1.215,0,2.165,0.955,2.165,3.048C36.816,192.72,35.866,193.675,34.651,193.675z M34.651,188.19
					c-0.747,0-1.418,0.607-1.418,2.443c0,1.83,0.671,2.448,1.418,2.448c0.75,0,1.425-0.618,1.425-2.448
					C36.077,188.798,35.402,188.19,34.651,188.19z"/>
				<path fill="#231F20" d="M41.252,193.563h-3.188v-0.593h1.313v-4.237c0-0.072,0-0.145,0.007-0.199l-1.07,0.955l-0.395-0.474
					l1.588-1.363h0.587v5.318h1.157V193.563z"/>
				<path fill="#231F20" d="M46.238,188.154l-2.666,5.408H42.76l2.405-4.805l0.275-0.452h-3.083v-0.622h3.881V188.154z"/>
			</g>
			<g>
				<path fill="#231F20" d="M77.034,193.563h-3.96v-0.514l2.038-1.948c0.62-0.658,1.07-1.164,1.07-1.854
					c-0.025-0.705-0.476-1.034-1.085-1.034c-0.678,0-1.175,0.48-1.175,1.157l-0.726-0.123c0.152-1.081,0.933-1.667,1.937-1.667
					c1.009,0,1.788,0.611,1.788,1.652c0,0.875-0.562,1.482-1.229,2.147l-1.649,1.631c0.225-0.065,0.468-0.098,0.667-0.098h2.324
					V193.563z"/>
				<path fill="#231F20" d="M79.845,193.675c-1.222,0-2.165-0.955-2.165-3.041c0-2.093,0.943-3.048,2.165-3.048
					c1.215,0,2.165,0.955,2.165,3.048C82.01,192.72,81.06,193.675,79.845,193.675z M79.845,188.19c-0.747,0-1.418,0.607-1.418,2.443
					c0,1.83,0.671,2.448,1.418,2.448c0.751,0,1.426-0.618,1.426-2.448C81.271,188.798,80.596,188.19,79.845,188.19z"/>
				<path fill="#231F20" d="M86.445,193.563h-3.188v-0.593h1.313v-4.237c0-0.072,0-0.145,0.007-0.199l-1.069,0.955l-0.396-0.474
					l1.589-1.363h0.587v5.318h1.157V193.563z"/>
				<path fill="#231F20" d="M91.425,191.982c0,1.053-0.842,1.718-2.031,1.718c-1.204,0-2.045-0.665-2.045-1.718
					c0-0.77,0.428-1.283,1.167-1.485c-0.608-0.231-0.95-0.705-0.95-1.378c0-0.867,0.711-1.58,1.828-1.58
					c1.081,0,1.828,0.713,1.828,1.58c0,0.684-0.323,1.146-0.965,1.378C91.004,190.699,91.425,191.213,91.425,191.982z
					 M90.642,191.972c0-0.824-0.581-1.168-1.248-1.168c-0.675,0-1.262,0.344-1.262,1.168c0,0.676,0.457,1.128,1.262,1.128
					C90.199,193.1,90.642,192.647,90.642,191.972z M88.299,189.145c0,0.535,0.282,1.074,1.095,1.074
					c0.798,0,1.081-0.539,1.081-1.074c0-0.564-0.355-1.02-1.081-1.02C88.654,188.125,88.299,188.58,88.299,189.145z"/>
			</g>
			<g>
				<path fill="#231F20" d="M122.225,193.563h-3.957v-0.514l2.035-1.948c0.62-0.658,1.069-1.164,1.069-1.854
					c-0.021-0.705-0.475-1.034-1.088-1.034c-0.675,0-1.175,0.48-1.175,1.157l-0.722-0.123c0.152-1.081,0.932-1.667,1.94-1.667
					c1.004,0,1.784,0.611,1.784,1.652c0,0.875-0.563,1.482-1.233,2.147l-1.646,1.631c0.225-0.065,0.465-0.098,0.668-0.098h2.324
					V193.563z"/>
				<path fill="#231F20" d="M125.035,193.675c-1.223,0-2.161-0.955-2.161-3.041c0-2.093,0.938-3.048,2.161-3.048
					c1.215,0,2.165,0.955,2.165,3.048C127.2,192.72,126.25,193.675,125.035,193.675z M125.035,188.19
					c-0.747,0-1.414,0.607-1.414,2.443c0,1.83,0.667,2.448,1.414,2.448s1.425-0.618,1.425-2.448
					C126.46,188.798,125.782,188.19,125.035,188.19z"/>
				<path fill="#231F20" d="M131.636,193.563h-3.185v-0.593h1.31v-4.237c0-0.072,0-0.145,0.011-0.199l-1.073,0.955l-0.392-0.474
					l1.581-1.363h0.587v5.318h1.161V193.563z"/>
				<path fill="#231F20" d="M135.443,190.778c-0.313,0.25-0.689,0.376-1.132,0.376c-0.929,0-1.697-0.607-1.697-1.721
					c0-1.056,0.827-1.895,2.002-1.895c1.16,0,1.922,0.803,1.922,1.949c0,0.697-0.254,1.232-0.707,1.854l-1.617,2.22h-0.925
					l1.835-2.336C135.291,191.003,135.389,190.851,135.443,190.778z M134.551,190.576c0.806,0,1.273-0.557,1.273-1.179
					c0-0.767-0.526-1.226-1.215-1.226c-0.747,0-1.248,0.488-1.248,1.204C133.361,190.153,133.812,190.576,134.551,190.576z"/>
			</g>
			<g>
				<path fill="#231F20" d="M167.418,193.563h-3.956v-0.514l2.034-1.948c0.62-0.658,1.07-1.164,1.07-1.854
					c-0.022-0.705-0.476-1.034-1.089-1.034c-0.674,0-1.175,0.48-1.175,1.157l-0.722-0.123c0.152-1.081,0.933-1.667,1.94-1.667
					c1.005,0,1.784,0.611,1.784,1.652c0,0.875-0.563,1.482-1.233,2.147l-1.646,1.631c0.226-0.065,0.465-0.098,0.668-0.098h2.324
					V193.563z"/>
				<path fill="#231F20" d="M170.229,193.675c-1.222,0-2.161-0.955-2.161-3.041c0-2.093,0.939-3.048,2.161-3.048
					c1.215,0,2.165,0.955,2.165,3.048C172.394,192.72,171.443,193.675,170.229,193.675z M170.229,188.19
					c-0.747,0-1.414,0.607-1.414,2.443c0,1.83,0.667,2.448,1.414,2.448s1.426-0.618,1.426-2.448
					C171.654,188.798,170.976,188.19,170.229,188.19z"/>
				<path fill="#231F20" d="M176.981,193.563h-3.96v-0.514l2.038-1.948c0.62-0.658,1.069-1.164,1.069-1.854
					c-0.025-0.705-0.475-1.034-1.084-1.034c-0.679,0-1.175,0.48-1.175,1.157l-0.726-0.123c0.152-1.081,0.932-1.667,1.937-1.667
					c1.008,0,1.788,0.611,1.788,1.652c0,0.875-0.563,1.482-1.229,2.147l-1.65,1.631c0.225-0.065,0.468-0.098,0.667-0.098h2.325
					V193.563z"/>
				<path fill="#231F20" d="M179.796,193.675c-1.227,0-2.165-0.955-2.165-3.041c0-2.093,0.938-3.048,2.165-3.048
					c1.211,0,2.161,0.955,2.161,3.048C181.957,192.72,181.007,193.675,179.796,193.675z M179.796,188.19
					c-0.747,0-1.418,0.607-1.418,2.443c0,1.83,0.671,2.448,1.418,2.448s1.421-0.618,1.421-2.448
					C181.217,188.798,180.543,188.19,179.796,188.19z"/>
			</g>
			<g>
				<path fill="#231F20" d="M212.608,193.563h-3.96v-0.514l2.038-1.948c0.62-0.658,1.069-1.164,1.069-1.854
					c-0.025-0.705-0.475-1.034-1.084-1.034c-0.679,0-1.175,0.48-1.175,1.157l-0.726-0.123c0.152-1.081,0.932-1.667,1.937-1.667
					c1.008,0,1.788,0.611,1.788,1.652c0,0.875-0.563,1.482-1.229,2.147l-1.65,1.631c0.225-0.065,0.468-0.098,0.667-0.098h2.325
					V193.563z"/>
				<path fill="#231F20" d="M215.419,193.675c-1.223,0-2.165-0.955-2.165-3.041c0-2.093,0.942-3.048,2.165-3.048
					c1.215,0,2.165,0.955,2.165,3.048C217.584,192.72,216.634,193.675,215.419,193.675z M215.419,188.19
					c-0.747,0-1.418,0.607-1.418,2.443c0,1.83,0.671,2.448,1.418,2.448c0.751,0,1.425-0.618,1.425-2.448
					C216.844,188.798,216.17,188.19,215.419,188.19z"/>
				<path fill="#231F20" d="M222.171,193.563h-3.956v-0.514l2.034-1.948c0.62-0.658,1.07-1.164,1.07-1.854
					c-0.022-0.705-0.476-1.034-1.088-1.034c-0.675,0-1.176,0.48-1.176,1.157l-0.722-0.123c0.152-1.081,0.933-1.667,1.94-1.667
					c1.005,0,1.784,0.611,1.784,1.652c0,0.875-0.562,1.482-1.232,2.147l-1.646,1.631c0.225-0.065,0.464-0.098,0.667-0.098h2.324
					V193.563z"/>
				<path fill="#231F20" d="M226.803,193.563h-3.185v-0.593h1.31v-4.237c0-0.072,0-0.145,0.011-0.199l-1.073,0.955l-0.392-0.474
					l1.581-1.363h0.587v5.318h1.161V193.563z"/>
			</g>
			<g>
				<path fill="#231F20" d="M257.802,193.563h-3.96v-0.514l2.038-1.948c0.62-0.658,1.069-1.164,1.069-1.854
					c-0.025-0.705-0.475-1.034-1.084-1.034c-0.678,0-1.175,0.48-1.175,1.157l-0.726-0.123c0.152-1.081,0.933-1.667,1.937-1.667
					c1.009,0,1.788,0.611,1.788,1.652c0,0.875-0.563,1.482-1.229,2.147l-1.65,1.631c0.226-0.065,0.468-0.098,0.668-0.098h2.324
					V193.563z"/>
				<path fill="#231F20" d="M260.612,193.675c-1.222,0-2.165-0.955-2.165-3.041c0-2.093,0.943-3.048,2.165-3.048
					c1.215,0,2.165,0.955,2.165,3.048C262.777,192.72,261.827,193.675,260.612,193.675z M260.612,188.19
					c-0.747,0-1.418,0.607-1.418,2.443c0,1.83,0.671,2.448,1.418,2.448c0.751,0,1.425-0.618,1.425-2.448
					C262.037,188.798,261.363,188.19,260.612,188.19z"/>
				<path fill="#231F20" d="M267.365,193.563h-3.957v-0.514l2.035-1.948c0.62-0.658,1.069-1.164,1.069-1.854
					c-0.021-0.705-0.475-1.034-1.088-1.034c-0.675,0-1.175,0.48-1.175,1.157l-0.722-0.123c0.152-1.081,0.932-1.667,1.94-1.667
					c1.004,0,1.784,0.611,1.784,1.652c0,0.875-0.563,1.482-1.233,2.147l-1.646,1.631c0.225-0.065,0.464-0.098,0.667-0.098h2.325
					V193.563z"/>
				<path fill="#231F20" d="M272.148,193.563h-3.96v-0.514l2.038-1.948c0.62-0.658,1.069-1.164,1.069-1.854
					c-0.025-0.705-0.475-1.034-1.084-1.034c-0.679,0-1.175,0.48-1.175,1.157l-0.726-0.123c0.152-1.081,0.932-1.667,1.937-1.667
					c1.008,0,1.788,0.611,1.788,1.652c0,0.875-0.563,1.482-1.229,2.147l-1.65,1.631c0.225-0.065,0.468-0.098,0.668-0.098h2.324
					V193.563z"/>
			</g>
			<rect x="40.486" y="104.928" fill="#F06462" width="10.615" height="75.778"/>
			<rect x="22.941" y="108.666" fill="#79CBC5" width="10.615" height="72.04"/>
			<rect x="85.68" y="111.041" fill="#F06462" width="10.611" height="69.665"/>
			<rect x="68.132" y="114.775" fill="#79CBC5" width="10.614" height="65.931"/>
			<rect x="130.87" y="107.646" fill="#F06462" width="10.615" height="73.06"/>
			<rect x="113.325" y="114.775" fill="#79CBC5" width="10.614" height="65.931"/>
			<rect x="176.061" y="123.269" fill="#F06462" width="10.614" height="57.438"/>
			<rect x="158.515" y="129.722" fill="#79CBC5" width="10.619" height="50.984"/>
			<rect x="221.254" y="123.269" fill="#F06462" width="10.614" height="57.438"/>
			<rect x="203.709" y="131.421" fill="#79CBC5" width="10.614" height="49.285"/>
			<rect x="266.443" y="127.683" fill="#F06462" width="10.615" height="53.023"/>
			<rect x="248.898" y="133.8" fill="#79CBC5" width="10.615" height="46.906"/>
			<g>
				<g>
					<path fill="#6E6F71" d="M22.659,96.151l-2.408,2.722h3.184v0.647h-4.17v-0.595l2.792-3.165
						c0.384-0.436,0.522-0.799,0.522-1.251c0-0.824-0.504-1.41-1.334-1.41c-0.841,0-1.334,0.595-1.334,1.41v0.195h-0.754v-0.204
						c0-1.117,0.74-2.049,2.089-2.049c1.356,0,2.104,0.932,2.104,2.049C23.348,95.122,23.188,95.557,22.659,96.151z"/>
					<path fill="#6E6F71" d="M28.606,97.968h-0.863v1.553h-0.754v-1.553h-2.967V97.32l2.894-4.752h0.827v4.752h0.863V97.968z
						 M26.989,97.32v-3.52l-2.14,3.52H26.989z"/>
					<path fill="#6E6F71" d="M30.369,99.521h-0.845v-1.056h0.845V99.521z"/>
					<path fill="#6E6F71" d="M33.48,97.073c-1.266,0-2.104-0.879-2.104-2.307c0-1.436,0.899-2.314,2.183-2.314
						c0.896,0,1.552,0.399,1.893,1.206c0.203,0.479,0.283,1.108,0.283,1.916c0,1.569-0.16,2.589-0.551,3.22
						c-0.355,0.602-0.914,0.843-1.646,0.843c-1.11,0-1.857-0.577-1.991-1.703h0.784c0.09,0.699,0.533,1.056,1.218,1.056
						c1.012,0,1.389-0.817,1.433-2.731C34.742,96.744,34.205,97.073,33.48,97.073z M33.56,93.1c-0.874,0-1.436,0.613-1.436,1.667
						c0,1.047,0.562,1.659,1.436,1.659c0.842,0,1.422-0.612,1.422-1.659C34.981,93.713,34.401,93.1,33.56,93.1z"/>
				</g>
			</g>
			<g>
				<g>
					<path fill="#6E6F71" d="M68.89,102.772l-2.408,2.719h3.184v0.651h-4.174v-0.597l2.796-3.164
						c0.381-0.438,0.522-0.803,0.522-1.251c0-0.824-0.508-1.411-1.335-1.411c-0.845,0-1.334,0.595-1.334,1.411v0.195h-0.755v-0.206
						c0-1.117,0.74-2.048,2.089-2.048c1.354,0,2.101,0.931,2.101,2.048C69.575,101.742,69.415,102.176,68.89,102.772z"/>
					<path fill="#6E6F71" d="M72.53,102.772h-0.703v-0.65h0.722c0.765,0,1.182-0.531,1.182-1.197c0-0.719-0.504-1.205-1.236-1.205
						c-0.754,0-1.236,0.486-1.236,1.205v0.098h-0.759v-0.159c0-1.01,0.74-1.791,1.995-1.791c1.247,0,1.983,0.781,1.983,1.791
						c0,0.781-0.398,1.374-1.084,1.577c0.776,0.206,1.291,0.81,1.291,1.774c0,1.262-0.893,2.043-2.19,2.043
						c-1.291,0-2.197-0.803-2.197-2.086v-0.091h0.746v0.055c0,0.939,0.617,1.472,1.451,1.472c0.827,0,1.443-0.521,1.443-1.418
						C73.938,103.312,73.386,102.772,72.53,102.772z"/>
					<path fill="#6E6F71" d="M76.6,106.143h-0.849v-1.056H76.6V106.143z"/>
					<path fill="#6E6F71" d="M80.016,106.143v-6.168l-1.733,0.773v-0.737l1.842-0.823h0.649v6.955H80.016z"/>
				</g>
			</g>
			<g>
				<g>
					<path fill="#6E6F71" d="M114.083,102.772l-2.412,2.719h3.185v0.651h-4.174v-0.597l2.796-3.164
						c0.381-0.438,0.525-0.803,0.525-1.251c0-0.824-0.508-1.411-1.334-1.411c-0.849,0-1.335,0.595-1.335,1.411v0.195h-0.758v-0.206
						c0-1.117,0.74-2.048,2.093-2.048c1.349,0,2.096,0.931,2.096,2.048C114.765,101.742,114.605,102.176,114.083,102.772z"/>
					<path fill="#6E6F71" d="M117.724,102.772h-0.703v-0.65h0.718c0.77,0,1.183-0.531,1.183-1.197c0-0.719-0.504-1.205-1.233-1.205
						c-0.758,0-1.24,0.486-1.24,1.205v0.098h-0.754v-0.159c0-1.01,0.739-1.791,1.994-1.791c1.244,0,1.984,0.781,1.984,1.791
						c0,0.781-0.403,1.374-1.085,1.577c0.772,0.206,1.288,0.81,1.288,1.774c0,1.262-0.889,2.043-2.188,2.043
						c-1.291,0-2.197-0.803-2.197-2.086v-0.091h0.747v0.055c0,0.939,0.612,1.472,1.45,1.472c0.827,0,1.44-0.521,1.44-1.418
						C119.128,103.312,118.576,102.772,117.724,102.772z"/>
					<path fill="#6E6F71" d="M121.789,106.143h-0.845v-1.056h0.845V106.143z"/>
					<path fill="#6E6F71" d="M125.209,106.143v-6.168l-1.733,0.773v-0.737l1.843-0.823h0.646v6.955H125.209z"/>
				</g>
			</g>
			<g>
				<path fill="#F06462" d="M40.193,88.875l-2.107,2.413h3.126v1.537h-5.614v-1.419l2.959-3.396c0.406-0.47,0.555-0.812,0.555-1.292
					c0-0.651-0.268-1.025-0.837-1.025c-0.555,0-0.834,0.363-0.834,1.025v0.374h-1.969v-0.363c0-1.399,0.997-2.572,2.803-2.572
					c1.835,0,2.807,1.173,2.807,2.572C41.081,87.615,40.856,88.117,40.193,88.875z"/>
				<path fill="#F06462" d="M45.447,86.451c-0.043-0.544-0.29-0.811-0.772-0.811c-0.686,0-0.976,0.651-1.008,2.359
					c0.269-0.438,0.802-0.705,1.447-0.705c1.359,0,2.451,1.025,2.451,2.818c0,1.752-1.124,2.861-2.872,2.861
					c-1.06,0-1.904-0.383-2.408-1.205c-0.449-0.738-0.565-1.773-0.565-2.979c0-3.375,0.95-4.633,2.988-4.633
					c1.581,0,2.582,0.853,2.687,2.294H45.447z M44.653,91.438c0.609,0,0.939-0.459,0.939-1.336c0-0.886-0.33-1.345-0.939-1.345
					c-0.62,0-0.943,0.459-0.943,1.345C43.71,90.979,44.033,91.438,44.653,91.438z"/>
				<path fill="#F06462" d="M50.184,92.825h-1.937v-1.922h1.937V92.825z"/>
				<path fill="#F06462" d="M55.939,92.152c-0.469,0.546-1.179,0.822-2.122,0.822c-0.95,0-1.657-0.276-2.129-0.822
					c-0.62-0.725-0.889-1.814-0.889-3.586c0-1.773,0.269-2.862,0.889-3.589c0.472-0.544,1.179-0.82,2.129-0.82
					c0.943,0,1.653,0.276,2.122,0.82c0.62,0.727,0.888,1.815,0.888,3.589C56.827,90.338,56.56,91.428,55.939,92.152z M54.558,86.09
					c-0.182-0.279-0.417-0.396-0.74-0.396c-0.319,0-0.576,0.117-0.747,0.396c-0.225,0.372-0.301,1.142-0.301,2.477
					c0,1.334,0.076,2.091,0.301,2.477c0.171,0.278,0.428,0.396,0.747,0.396c0.323,0,0.559-0.117,0.74-0.396
					c0.225-0.386,0.301-1.143,0.301-2.477C54.858,87.231,54.782,86.462,54.558,86.09z"/>
			</g>
			<g>
				<path fill="#F06462" d="M85.328,94.988l-2.11,2.414h3.13v1.536h-5.614V97.52l2.956-3.395c0.406-0.471,0.555-0.813,0.555-1.293
					c0-0.65-0.269-1.024-0.834-1.024c-0.559,0-0.834,0.363-0.834,1.024v0.374h-1.974v-0.363c0-1.399,0.998-2.572,2.808-2.572
					c1.831,0,2.807,1.173,2.807,2.572C86.217,93.729,85.992,94.231,85.328,94.988z"/>
				<path fill="#F06462" d="M92.828,97.348h-0.889v1.591h-1.951v-1.591H86.67v-1.536l3.225-5.393h2.045v5.393h0.889V97.348z
					 M89.988,95.812V93.1l-1.617,2.712H89.988z"/>
				<path fill="#F06462" d="M95.319,98.938h-1.94v-1.922h1.94V98.938z"/>
				<path fill="#F06462" d="M100.839,94.988l-2.11,2.414h3.126v1.536h-5.61V97.52l2.956-3.395c0.405-0.471,0.558-0.813,0.558-1.293
					c0-0.65-0.268-1.024-0.837-1.024c-0.556,0-0.835,0.363-0.835,1.024v0.374h-1.969v-0.363c0-1.399,0.994-2.572,2.804-2.572
					c1.831,0,2.807,1.173,2.807,2.572C101.728,93.729,101.503,94.231,100.839,94.988z"/>
			</g>
			<g>
				<path fill="#F06462" d="M130.572,91.59l-2.106,2.414h3.126v1.536h-5.614v-1.419l2.96-3.395c0.406-0.471,0.555-0.813,0.555-1.293
					c0-0.65-0.269-1.025-0.838-1.025c-0.555,0-0.834,0.364-0.834,1.025v0.374h-1.97v-0.363c0-1.399,0.998-2.572,2.804-2.572
					c1.835,0,2.807,1.173,2.807,2.572C131.461,90.33,131.236,90.833,130.572,91.59z"/>
				<path fill="#F06462" d="M134.294,91.91h-1.832l0.214-4.89h4.787v1.538h-2.955l-0.109,1.943c0.247-0.289,0.675-0.491,1.233-0.491
					c1.32,0,2.263,0.896,2.263,2.851c0,1.74-1.008,2.829-2.872,2.829c-1.777,0-2.764-0.993-2.857-2.572h1.979
					c0.051,0.672,0.334,1.035,0.878,1.035c0.588,0,0.899-0.406,0.899-1.347c0-0.854-0.247-1.345-0.899-1.345
					C134.66,91.462,134.421,91.655,134.294,91.91z"/>
				<path fill="#F06462" d="M140.563,95.54h-1.937v-1.922h1.937V95.54z"/>
				<path fill="#F06462" d="M146.083,91.59l-2.11,2.414h3.13v1.536h-5.61v-1.419l2.952-3.395c0.406-0.471,0.559-0.813,0.559-1.293
					c0-0.65-0.269-1.025-0.834-1.025c-0.559,0-0.835,0.364-0.835,1.025v0.374h-1.973v-0.363c0-1.399,0.994-2.572,2.808-2.572
					c1.827,0,2.807,1.173,2.807,2.572C146.976,90.33,146.751,90.833,146.083,91.59z"/>
			</g>
			<g>
				<g>
					<path fill="#6E6F71" d="M157.043,120.076v-6.168l-1.733,0.773v-0.737l1.842-0.824h0.649v6.956H157.043z"/>
					<path fill="#6E6F71" d="M159.589,118.174c0-0.918,0.519-1.547,1.345-1.778c-0.699-0.225-1.139-0.846-1.139-1.591
						c0-1.045,0.795-1.801,2.093-1.801s2.082,0.756,2.082,1.801c0,0.745-0.429,1.366-1.132,1.591
						c0.827,0.231,1.342,0.86,1.342,1.778c0,1.251-0.932,2.018-2.292,2.018C160.524,120.191,159.589,119.425,159.589,118.174z
						 M161.888,119.541c0.906,0,1.545-0.521,1.545-1.41c0-0.875-0.639-1.417-1.545-1.417s-1.549,0.542-1.549,1.417
						C160.339,119.021,160.981,119.541,161.888,119.541z M161.888,113.655c-0.802,0-1.335,0.477-1.335,1.215
						c0,0.733,0.533,1.203,1.335,1.203c0.791,0,1.335-0.47,1.335-1.203C163.223,114.132,162.679,113.655,161.888,113.655z"/>
					<path fill="#6E6F71" d="M165.971,120.076h-0.845v-1.056h0.845V120.076z"/>
					<path fill="#6E6F71" d="M167.132,113.12h4.156v0.586l-2.423,6.37h-0.791l2.455-6.306h-3.397V113.12z"/>
				</g>
			</g>
			<g>
				<g>
					<path fill="#6E6F71" d="M202.236,122.277v-6.164l-1.733,0.773v-0.737l1.839-0.824h0.648v6.952H202.236z"/>
					<path fill="#6E6F71" d="M204.782,120.38c0-0.922,0.515-1.551,1.342-1.782c-0.704-0.221-1.139-0.843-1.139-1.588
						c0-1.048,0.79-1.8,2.089-1.8c1.302,0,2.081,0.752,2.081,1.8c0,0.745-0.424,1.367-1.127,1.588
						c0.826,0.231,1.345,0.86,1.345,1.782c0,1.251-0.936,2.014-2.299,2.014C205.718,122.394,204.782,121.631,204.782,120.38z
						 M207.074,121.746c0.91,0,1.552-0.524,1.552-1.41c0-0.878-0.642-1.417-1.552-1.417c-0.906,0-1.545,0.539-1.545,1.417
						C205.529,121.222,206.168,121.746,207.074,121.746z M207.074,115.856c-0.798,0-1.335,0.481-1.335,1.215
						c0,0.734,0.537,1.204,1.335,1.204c0.794,0,1.334-0.47,1.334-1.204C208.408,116.338,207.868,115.856,207.074,115.856z"/>
					<path fill="#6E6F71" d="M211.161,122.277h-0.845v-1.056h0.845V122.277z"/>
					<path fill="#6E6F71" d="M215.8,118.908l-2.408,2.723h3.184v0.646h-4.174v-0.596l2.796-3.164
						c0.381-0.438,0.522-0.799,0.522-1.251c0-0.824-0.508-1.41-1.335-1.41c-0.845,0-1.334,0.597-1.334,1.41v0.195h-0.755v-0.206
						c0-1.113,0.74-2.046,2.089-2.046c1.354,0,2.101,0.933,2.101,2.046C216.485,117.878,216.325,118.312,215.8,118.908z"/>
				</g>
			</g>
			<g>
				<g>
					<path fill="#6E6F71" d="M247.43,124.154v-6.168l-1.733,0.773v-0.737l1.839-0.824h0.649v6.956H247.43z"/>
					<path fill="#6E6F71" d="M250.197,117.198h4.152v0.586l-2.415,6.37h-0.795l2.455-6.306h-3.397V117.198z"/>
					<path fill="#6E6F71" d="M256.354,124.154h-0.845v-1.056h0.845V124.154z"/>
					<path fill="#6E6F71" d="M258.477,121.03h-0.747l0.178-3.832h3.471v0.65h-2.768l-0.116,2.419
						c0.214-0.354,0.668-0.618,1.255-0.618c1.193,0,1.998,0.795,1.998,2.321c0,1.453-0.805,2.299-2.132,2.299
						c-1.236,0-2.021-0.737-2.125-1.959h0.754c0.087,0.867,0.595,1.309,1.371,1.309c0.881,0,1.385-0.586,1.385-1.667
						c0-1.073-0.504-1.659-1.385-1.659C259.089,120.293,258.69,120.561,258.477,121.03z"/>
				</g>
			</g>
			<g>
				<path fill="#F06462" d="M176.038,107.216l-2.11,2.411h3.13v1.541h-5.61v-1.421l2.952-3.396c0.406-0.47,0.559-0.81,0.559-1.294
					c0-0.65-0.269-1.023-0.834-1.023c-0.559,0-0.835,0.365-0.835,1.023v0.376h-1.973v-0.361c0-1.403,0.994-2.574,2.808-2.574
					c1.827,0,2.807,1.171,2.807,2.574C176.931,105.954,176.706,106.46,176.038,107.216z"/>
				<path fill="#F06462" d="M182.588,110.495c-0.472,0.542-1.179,0.82-2.121,0.82c-0.954,0-1.658-0.278-2.129-0.82
					c-0.624-0.727-0.893-1.814-0.893-3.587c0-1.774,0.269-2.863,0.893-3.59c0.471-0.546,1.175-0.82,2.129-0.82
					c0.942,0,1.649,0.274,2.121,0.82c0.62,0.727,0.889,1.815,0.889,3.59C183.477,108.681,183.208,109.769,182.588,110.495z
					 M181.206,104.429c-0.185-0.275-0.417-0.395-0.739-0.395c-0.323,0-0.577,0.119-0.751,0.395
					c-0.225,0.376-0.298,1.143-0.298,2.479c0,1.331,0.073,2.09,0.298,2.474c0.174,0.282,0.428,0.397,0.751,0.397
					c0.322,0,0.555-0.115,0.739-0.397c0.225-0.384,0.301-1.143,0.301-2.474C181.507,105.571,181.431,104.805,181.206,104.429z"/>
				<path fill="#F06462" d="M186.029,111.168h-1.94v-1.924h1.94V111.168z"/>
				<path fill="#F06462" d="M190.49,104.79c-0.044-0.542-0.29-0.81-0.772-0.81c-0.682,0-0.972,0.65-1.009,2.36
					c0.269-0.438,0.806-0.705,1.451-0.705c1.356,0,2.451,1.027,2.451,2.82c0,1.75-1.124,2.859-2.872,2.859
					c-1.059,0-1.907-0.383-2.408-1.203c-0.449-0.738-0.569-1.775-0.569-2.979c0-3.377,0.954-4.635,2.988-4.635
					c1.585,0,2.582,0.854,2.688,2.292H190.49z M189.696,109.779c0.608,0,0.942-0.459,0.942-1.338c0-0.882-0.334-1.345-0.942-1.345
					c-0.62,0-0.943,0.463-0.943,1.345C188.753,109.32,189.076,109.779,189.696,109.779z"/>
			</g>
			<g>
				<path fill="#F06462" d="M220.935,107.216l-2.11,2.411h3.13v1.541h-5.61v-1.421l2.952-3.396c0.405-0.47,0.558-0.81,0.558-1.294
					c0-0.65-0.268-1.023-0.834-1.023c-0.559,0-0.834,0.365-0.834,1.023v0.376h-1.973v-0.361c0-1.403,0.994-2.574,2.807-2.574
					c1.828,0,2.808,1.171,2.808,2.574C221.827,105.954,221.602,106.46,220.935,107.216z"/>
				<path fill="#F06462" d="M227.484,110.495c-0.472,0.542-1.179,0.82-2.122,0.82c-0.953,0-1.657-0.278-2.128-0.82
					c-0.624-0.727-0.893-1.814-0.893-3.587c0-1.774,0.269-2.863,0.893-3.59c0.471-0.546,1.175-0.82,2.128-0.82
					c0.943,0,1.65,0.274,2.122,0.82c0.62,0.727,0.889,1.815,0.889,3.59C228.373,108.681,228.104,109.769,227.484,110.495z
					 M226.103,104.429c-0.185-0.275-0.417-0.395-0.74-0.395c-0.322,0-0.576,0.119-0.75,0.395c-0.226,0.376-0.298,1.143-0.298,2.479
					c0,1.331,0.072,2.09,0.298,2.474c0.174,0.282,0.428,0.397,0.75,0.397c0.323,0,0.556-0.115,0.74-0.397
					c0.225-0.384,0.301-1.143,0.301-2.474C226.403,105.571,226.327,104.805,226.103,104.429z"/>
				<path fill="#F06462" d="M230.926,111.168h-1.94v-1.924h1.94V111.168z"/>
				<path fill="#F06462" d="M235.387,104.79c-0.044-0.542-0.29-0.81-0.772-0.81c-0.683,0-0.973,0.65-1.009,2.36
					c0.269-0.438,0.806-0.705,1.451-0.705c1.356,0,2.451,1.027,2.451,2.82c0,1.75-1.124,2.859-2.872,2.859
					c-1.059,0-1.907-0.383-2.408-1.203c-0.449-0.738-0.569-1.775-0.569-2.979c0-3.377,0.954-4.635,2.988-4.635
					c1.585,0,2.582,0.854,2.688,2.292H235.387z M234.592,109.779c0.609,0,0.943-0.459,0.943-1.338c0-0.882-0.334-1.345-0.943-1.345
					c-0.62,0-0.942,0.463-0.942,1.345C233.649,109.32,233.972,109.779,234.592,109.779z"/>
			</g>
			<g>
				<path fill="#F06462" d="M263.895,115.578v-6.725l-1.748,0.781v-1.634l2.038-0.94h1.689v8.518H263.895z"/>
				<path fill="#F06462" d="M269.723,113.445c0.043,0.542,0.29,0.81,0.761,0.81c0.696,0,0.998-0.65,1.02-2.357
					c-0.269,0.438-0.794,0.694-1.447,0.694c-1.359,0-2.455-1.012-2.455-2.809c0-1.761,1.117-2.871,2.883-2.871
					c1.049,0,1.897,0.384,2.397,1.219c0.45,0.733,0.569,1.771,0.569,2.979c0,3.37-0.942,4.621-2.988,4.621
					c-1.585,0-2.578-0.854-2.688-2.285H269.723z M270.523,108.46c-0.616,0-0.95,0.459-0.95,1.334s0.334,1.338,0.95,1.338
					c0.603,0,0.943-0.463,0.943-1.338S271.126,108.46,270.523,108.46z"/>
				<path fill="#F06462" d="M276.13,115.578h-1.937v-1.92h1.937V115.578z"/>
				<path fill="#F06462" d="M280.711,113.084c0-0.896-0.366-1.229-1.201-1.229h-0.652v-1.519h0.652c0.603,0,0.998-0.274,0.998-1.001
					c0-0.568-0.29-0.886-0.772-0.886s-0.77,0.317-0.77,0.886v0.147h-1.907v-0.231c0-1.388,0.986-2.339,2.677-2.339
					c1.683,0,2.69,0.958,2.69,2.303c0,1.027-0.529,1.605-1.309,1.837c1.019,0.246,1.563,1.016,1.563,2.119
					c0,1.547-1.175,2.56-2.944,2.56c-1.767,0-2.935-1.013-2.935-2.56v-0.268h1.962v0.181c0,0.716,0.353,1.109,0.973,1.109
					C280.358,114.193,280.711,113.8,280.711,113.084z"/>
			</g>
			<g>
				<g>
					<g>
						<g>
							<polygon fill="#79CBC5" points="26.923,103.626 28.312,104.718 29.719,103.647 30.702,105.115 32.377,104.529 
								32.856,106.229 34.626,106.192 34.557,107.957 36.25,108.463 35.638,110.119 37.092,111.124 35.997,112.509 37.063,113.915 
								35.598,114.896 36.178,116.559 34.474,117.039 34.517,118.804 32.748,118.731 32.232,120.423 30.579,119.813 29.571,121.262 
								28.178,120.17 26.771,121.232 25.785,119.772 24.116,120.351 23.638,118.651 21.868,118.691 21.937,116.931 20.243,116.425 
								20.853,114.765 19.402,113.76 20.497,112.375 19.424,110.973 20.896,109.989 20.316,108.326 22.013,107.849 21.977,106.084 
								23.743,106.153 24.254,104.465 25.915,105.075 							"/>
						</g>
					</g>
					<g>
						<g>
							<g>
								<path fill="#513F28" d="M26.187,111.207c0.036,0.242-0.145,0.471-0.406,0.51c-0.261,0.04-0.5-0.126-0.54-0.368
									c-0.037-0.239,0.145-0.471,0.406-0.507C25.915,110.799,26.154,110.965,26.187,111.207z"/>
							</g>
						</g>
						<g>
							<g>
								<path fill="#513F28" d="M31.072,111.511c0.037,0.246-0.145,0.471-0.406,0.51c-0.265,0.044-0.508-0.126-0.541-0.368
									c-0.04-0.239,0.145-0.471,0.41-0.507C30.789,111.106,31.036,111.269,31.072,111.511z"/>
							</g>
						</g>
						<g>
							<g>
								<path fill="#513F28" d="M30.47,112.534c0.003,1.258-1.016,2.285-2.285,2.292l0,0c-1.262,0.004-2.292-1.02-2.292-2.277"/>
							</g>
						</g>
						<g>
							<g>
								<g>
									<path fill="#513F28" d="M25.552,109.815c0.269,0.145,0.508,0.333,0.751,0.51c0.446,0.329,0.954-0.358,0.511-0.69
										c-0.305-0.225-0.609-0.431-0.943-0.614c-0.203-0.109-0.479,0.043-0.559,0.238
										C25.219,109.497,25.349,109.703,25.552,109.815L25.552,109.815z"/>
								</g>
							</g>
						</g>
						<g>
							<g>
								<g>
									<path fill="#513F28" d="M30.361,110.517c0.381-0.145,0.761-0.293,1.146-0.44c0.519-0.195,0.167-0.977-0.348-0.781
										c-0.381,0.145-0.762,0.293-1.146,0.441C29.498,109.931,29.846,110.712,30.361,110.517L30.361,110.517z"/>
								</g>
							</g>
						</g>
					</g>
					<g>
						<g>
							<path fill="#31BAAF" d="M25.465,112.462c-0.123-0.795-0.867-1.345-1.661-1.226c-0.805,0.115-1.353,0.856-1.233,1.656
								c0.116,0.791,0.863,1.348,1.661,1.226C25.03,113.995,25.582,113.257,25.465,112.462z"/>
						</g>
					</g>
					<g>
						<g>
							<path fill="#31BAAF" d="M34.024,112.657c-0.123-0.796-0.867-1.342-1.661-1.226c-0.802,0.119-1.356,0.864-1.233,1.659
								c0.116,0.796,0.867,1.345,1.661,1.226C33.596,114.197,34.144,113.452,34.024,112.657z"/>
						</g>
					</g>
				</g>
			</g>
			<g>
				<g>
					<g>
						<g>
							<polygon fill="#79CBC5" points="72.117,109.739 73.502,110.831 74.909,109.765 75.896,111.229 77.567,110.647 
								78.046,112.343 79.816,112.311 79.747,114.067 81.44,114.58 80.828,116.236 82.286,117.241 81.187,118.623 82.257,120.029 
								80.788,121.009 81.372,122.672 79.667,123.152 79.707,124.913 77.938,124.849 77.426,126.537 75.766,125.926 74.757,127.372 
								73.372,126.28 71.965,127.347 70.979,125.882 69.31,126.465 68.831,124.769 67.062,124.805 67.127,123.044 65.437,122.534 
								66.046,120.879 64.596,119.873 65.69,118.492 64.617,117.09 66.086,116.106 65.506,114.443 67.207,113.959 67.167,112.194 
								68.933,112.267 69.448,110.578 71.108,111.189 							"/>
						</g>
					</g>
					<g>
						<g>
							<g>
								<path fill="#513F28" d="M71.381,117.321c0.036,0.242-0.148,0.47-0.406,0.51c-0.261,0.039-0.504-0.127-0.54-0.369
									s0.145-0.47,0.406-0.51C71.105,116.912,71.345,117.079,71.381,117.321z"/>
							</g>
						</g>
						<g>
							<g>
								<path fill="#513F28" d="M76.266,117.625c0.032,0.245-0.152,0.47-0.41,0.51c-0.265,0.039-0.504-0.127-0.54-0.369
									c-0.036-0.238,0.146-0.467,0.41-0.506C75.982,117.22,76.229,117.386,76.266,117.625z"/>
							</g>
						</g>
						<g>
							<g>
								<path fill="#513F28" d="M75.664,118.651c0,1.258-1.023,2.285-2.285,2.285l0,0c-1.262,0.007-2.292-1.013-2.296-2.274"/>
							</g>
						</g>
						<g>
							<g>
								<g>
									<path fill="#513F28" d="M70.746,115.933c0.265,0.145,0.504,0.329,0.747,0.506c0.449,0.329,0.954-0.361,0.508-0.687
										c-0.301-0.225-0.609-0.434-0.939-0.614c-0.199-0.116-0.475,0.043-0.555,0.238
										C70.412,115.611,70.543,115.817,70.746,115.933L70.746,115.933z"/>
								</g>
							</g>
						</g>
						<g>
							<g>
								<g>
									<path fill="#513F28" d="M75.551,116.631c0.385-0.145,0.766-0.293,1.15-0.438c0.515-0.199,0.166-0.98-0.349-0.785
										c-0.384,0.148-0.765,0.293-1.149,0.438C74.691,116.049,75.04,116.829,75.551,116.631L75.551,116.631z"/>
								</g>
							</g>
						</g>
					</g>
					<g>
						<g>
							<path fill="#31BAAF" d="M70.651,118.575c-0.115-0.799-0.862-1.341-1.66-1.226c-0.802,0.116-1.35,0.86-1.229,1.656
								c0.119,0.795,0.866,1.345,1.664,1.226S70.775,119.371,70.651,118.575z"/>
						</g>
					</g>
					<g>
						<g>
							<path fill="#31BAAF" d="M79.214,118.774c-0.123-0.795-0.866-1.345-1.661-1.229c-0.801,0.123-1.353,0.868-1.229,1.663
								c0.116,0.788,0.863,1.342,1.661,1.223C78.782,120.311,79.334,119.566,79.214,118.774z"/>
						</g>
					</g>
				</g>
			</g>
			<g>
				<g>
					<g>
						<g>
							<polygon fill="#79CBC5" points="117.307,109.739 118.696,110.831 120.103,109.765 121.09,111.229 122.758,110.647 
								123.236,112.343 125.006,112.311 124.94,114.067 126.631,114.58 126.021,116.236 127.479,117.241 126.377,118.623 
								127.45,120.029 125.978,121.009 126.565,122.672 124.861,123.152 124.9,124.913 123.128,124.849 122.62,126.537 
								120.959,125.926 119.95,127.372 118.565,126.28 117.154,127.347 116.172,125.882 114.504,126.465 114.021,124.769 
								112.252,124.805 112.32,123.044 110.627,122.534 111.236,120.879 109.789,119.873 110.881,118.492 109.808,117.09 
								111.276,116.106 110.699,114.443 112.4,113.959 112.36,112.194 114.127,112.267 114.638,110.578 116.299,111.189 							"/>
						</g>
					</g>
					<g>
						<g>
							<g>
								<path fill="#513F28" d="M116.57,117.321c0.037,0.242-0.145,0.47-0.405,0.51c-0.262,0.039-0.501-0.127-0.541-0.369
									c-0.032-0.242,0.148-0.47,0.406-0.51C116.295,116.912,116.534,117.079,116.57,117.321z"/>
							</g>
						</g>
						<g>
							<g>
								<path fill="#513F28" d="M121.456,117.625c0.032,0.245-0.149,0.47-0.41,0.51c-0.261,0.039-0.5-0.127-0.537-0.369
									c-0.039-0.238,0.146-0.467,0.406-0.506C121.177,117.22,121.419,117.386,121.456,117.625z"/>
							</g>
						</g>
						<g>
							<g>
								<path fill="#513F28" d="M120.857,118.651c0,1.258-1.022,2.285-2.285,2.285l0,0c-1.266,0.007-2.295-1.013-2.299-2.274"/>
							</g>
						</g>
						<g>
							<g>
								<g>
									<path fill="#513F28" d="M115.939,115.933c0.262,0.145,0.501,0.329,0.747,0.506c0.446,0.329,0.95-0.361,0.508-0.687
										c-0.305-0.225-0.609-0.434-0.942-0.614c-0.2-0.116-0.472,0.043-0.552,0.238
										C115.606,115.611,115.736,115.817,115.939,115.933L115.939,115.933z"/>
								</g>
							</g>
						</g>
						<g>
							<g>
								<g>
									<path fill="#513F28" d="M120.741,116.631c0.385-0.145,0.769-0.293,1.153-0.438c0.515-0.199,0.163-0.98-0.349-0.785
										c-0.384,0.148-0.769,0.293-1.152,0.438C119.882,116.049,120.229,116.829,120.741,116.631L120.741,116.631z"/>
								</g>
							</g>
						</g>
					</g>
					<g>
						<g>
							<path fill="#31BAAF" d="M115.846,118.575c-0.116-0.799-0.863-1.341-1.661-1.226c-0.805,0.116-1.349,0.86-1.233,1.656
								c0.12,0.795,0.867,1.345,1.665,1.226S115.969,119.371,115.846,118.575z"/>
						</g>
					</g>
					<g>
						<g>
							<path fill="#31BAAF" d="M124.404,118.774c-0.12-0.795-0.863-1.345-1.661-1.229c-0.798,0.123-1.353,0.868-1.226,1.663
								c0.116,0.788,0.863,1.342,1.657,1.223C123.977,120.311,124.527,119.566,124.404,118.774z"/>
						</g>
					</g>
				</g>
			</g>
			<g>
				<g>
					<g>
						<g>
							<polygon fill="#F06462" points="44.469,99.892 45.861,100.986 47.268,99.916 48.255,101.385 49.923,100.799 50.405,102.498 
								52.171,102.462 52.105,104.219 53.796,104.732 53.187,106.385 54.637,107.394 53.546,108.774 54.615,110.185 53.146,111.16 
								53.727,112.823 52.026,113.305 52.063,115.065 50.296,114.996 49.785,116.688 48.128,116.077 47.115,117.523 45.727,116.436 
								44.319,117.502 43.337,116.034 41.665,116.619 41.187,114.92 39.417,114.957 39.485,113.196 37.795,112.687 38.405,111.03 
								36.951,110.025 38.046,108.645 36.972,107.241 38.441,106.258 37.861,104.595 39.565,104.114 39.529,102.35 41.292,102.418 
								41.803,100.733 43.46,101.341 							"/>
						</g>
					</g>
					<g>
						<g>
							<g>
								<path fill="#513F28" d="M43.739,107.473c0.036,0.246-0.148,0.47-0.409,0.514c-0.262,0.036-0.501-0.131-0.537-0.369
									c-0.036-0.246,0.145-0.474,0.406-0.514C43.46,107.067,43.703,107.23,43.739,107.473z"/>
							</g>
						</g>
						<g>
							<g>
								<path fill="#513F28" d="M48.617,107.776c0.04,0.246-0.146,0.47-0.406,0.514c-0.261,0.036-0.5-0.131-0.537-0.369
									c-0.036-0.242,0.146-0.47,0.41-0.51C48.342,107.371,48.581,107.538,48.617,107.776z"/>
							</g>
						</g>
						<g>
							<g>
								<path fill="#513F28" d="M48.019,108.8c0.004,1.262-1.019,2.288-2.281,2.288l0,0c-1.269,0.008-2.292-1.016-2.292-2.277"/>
							</g>
						</g>
						<g>
							<g>
								<g>
									<path fill="#513F28" d="M43.104,106.084c0.262,0.145,0.504,0.326,0.747,0.507c0.442,0.329,0.954-0.358,0.508-0.688
										c-0.301-0.224-0.609-0.434-0.939-0.614c-0.206-0.116-0.475,0.043-0.555,0.235
										C42.771,105.767,42.895,105.969,43.104,106.084L43.104,106.084z"/>
								</g>
							</g>
						</g>
						<g>
							<g>
								<g>
									<path fill="#513F28" d="M47.913,106.786c0.378-0.152,0.762-0.297,1.143-0.441c0.519-0.199,0.171-0.979-0.345-0.781
										c-0.384,0.145-0.769,0.293-1.149,0.438C47.043,106.2,47.395,106.981,47.913,106.786L47.913,106.786z"/>
								</g>
							</g>
						</g>
					</g>
					<g>
						<g>
							<path fill="#E24B50" d="M43.011,108.728c-0.116-0.8-0.867-1.342-1.665-1.226c-0.794,0.115-1.349,0.86-1.226,1.655
								c0.12,0.796,0.863,1.345,1.665,1.229C42.575,110.264,43.13,109.522,43.011,108.728z"/>
						</g>
					</g>
					<g>
						<g>
							<path fill="#E24B50" d="M51.569,108.926c-0.116-0.795-0.863-1.345-1.661-1.229c-0.798,0.122-1.35,0.863-1.233,1.659
								c0.124,0.792,0.871,1.345,1.661,1.226C51.142,110.466,51.692,109.722,51.569,108.926z"/>
						</g>
					</g>
				</g>
			</g>
			<g>
				<g>
					<g>
						<g>
							<polygon fill="#79CBC5" points="162.497,124.682 163.89,125.773 165.297,124.707 166.283,126.172 167.951,125.59 
								168.43,127.285 170.199,127.253 170.135,129.014 171.824,129.523 171.212,131.175 172.669,132.181 171.57,133.568 
								172.641,134.972 171.172,135.955 171.756,137.618 170.055,138.095 170.091,139.859 168.321,139.791 167.813,141.479 
								166.152,140.872 165.145,142.318 163.756,141.226 162.349,142.289 161.365,140.828 159.697,141.407 159.211,139.711 
								157.441,139.751 157.514,137.986 155.817,137.48 156.426,135.824 154.979,134.819 156.07,133.435 154.997,132.032 
								156.47,131.049 155.89,129.382 157.59,128.904 157.551,127.141 159.32,127.213 159.828,125.521 161.489,126.136 							"/>
						</g>
					</g>
					<g>
						<g>
							<g>
								<path fill="#513F28" d="M161.765,132.267c0.036,0.239-0.146,0.471-0.406,0.507c-0.262,0.043-0.501-0.123-0.54-0.369
									c-0.037-0.238,0.148-0.47,0.402-0.506C161.489,131.854,161.729,132.021,161.765,132.267z"/>
							</g>
						</g>
						<g>
							<g>
								<path fill="#513F28" d="M166.646,132.57c0.036,0.246-0.145,0.471-0.406,0.507c-0.261,0.043-0.5-0.123-0.536-0.369
									c-0.04-0.238,0.145-0.466,0.406-0.506C166.37,132.166,166.609,132.328,166.646,132.57z"/>
							</g>
						</g>
						<g>
							<g>
								<path fill="#513F28" d="M166.047,133.594c0.004,1.259-1.019,2.285-2.284,2.289l0,0c-1.266,0.003-2.292-1.017-2.296-2.278"/>
							</g>
						</g>
						<g>
							<g>
								<g>
									<path fill="#513F28" d="M161.13,130.875c0.265,0.145,0.504,0.329,0.751,0.51c0.442,0.325,0.95-0.361,0.508-0.69
										c-0.305-0.224-0.609-0.431-0.943-0.614c-0.199-0.112-0.475,0.039-0.551,0.238
										C160.796,130.554,160.927,130.763,161.13,130.875L161.13,130.875z"/>
								</g>
							</g>
						</g>
						<g>
							<g>
								<g>
									<path fill="#513F28" d="M165.935,131.573c0.385-0.145,0.766-0.29,1.15-0.441c0.519-0.195,0.166-0.977-0.349-0.781
										c-0.381,0.148-0.766,0.297-1.149,0.441C165.072,130.991,165.42,131.771,165.935,131.573L165.935,131.573z"/>
								</g>
							</g>
						</g>
					</g>
					<g>
						<g>
							<path fill="#31BAAF" d="M161.039,133.518c-0.119-0.795-0.863-1.345-1.661-1.222c-0.805,0.116-1.349,0.857-1.232,1.656
								c0.115,0.795,0.862,1.345,1.664,1.222C160.604,135.055,161.162,134.313,161.039,133.518z"/>
						</g>
					</g>
					<g>
						<g>
							<path fill="#31BAAF" d="M169.598,133.717c-0.123-0.795-0.863-1.341-1.661-1.226c-0.798,0.119-1.353,0.86-1.229,1.656
								c0.116,0.795,0.867,1.345,1.657,1.229C169.17,135.253,169.721,134.509,169.598,133.717z"/>
						</g>
					</g>
				</g>
			</g>
			<g>
				<g>
					<g>
						<g>
							<polygon fill="#79CBC5" points="207.69,126.381 209.08,127.473 210.486,126.41 211.473,127.871 213.145,127.289 
								213.624,128.984 215.394,128.952 215.324,130.713 217.018,131.223 216.405,132.874 217.859,133.88 216.764,135.268 
								217.83,136.671 216.365,137.654 216.945,139.317 215.245,139.794 215.284,141.559 213.515,141.49 213.004,143.179 
								211.346,142.571 210.338,144.018 208.945,142.925 207.538,143.988 206.556,142.527 204.888,143.106 204.405,141.41 
								202.635,141.45 202.708,139.686 201.011,139.18 201.62,137.523 200.173,136.519 201.265,135.134 200.191,133.731 
								201.663,132.748 201.083,131.081 202.78,130.604 202.744,128.84 204.514,128.912 205.021,127.22 206.683,127.835 							"/>
						</g>
					</g>
					<g>
						<g>
							<g>
								<path fill="#513F28" d="M206.958,133.967c0.036,0.238-0.148,0.47-0.406,0.506c-0.261,0.043-0.504-0.123-0.544-0.369
									c-0.036-0.238,0.148-0.47,0.406-0.506C206.683,133.554,206.922,133.721,206.958,133.967z"/>
							</g>
						</g>
						<g>
							<g>
								<path fill="#513F28" d="M211.84,134.27c0.036,0.246-0.146,0.471-0.406,0.507c-0.266,0.043-0.501-0.123-0.541-0.369
									c-0.04-0.238,0.146-0.466,0.41-0.506C211.561,133.865,211.803,134.027,211.84,134.27z"/>
							</g>
						</g>
						<g>
							<g>
								<path fill="#513F28" d="M211.241,135.293c0,1.262-1.022,2.285-2.288,2.289l0,0c-1.263,0.007-2.292-1.017-2.292-2.278"/>
							</g>
						</g>
						<g>
							<g>
								<g>
									<path fill="#513F28" d="M206.319,132.574c0.269,0.145,0.508,0.329,0.751,0.51c0.446,0.325,0.954-0.361,0.512-0.69
										c-0.305-0.221-0.609-0.431-0.943-0.614c-0.203-0.112-0.479,0.043-0.555,0.238
										C205.986,132.253,206.117,132.462,206.319,132.574L206.319,132.574z"/>
								</g>
							</g>
						</g>
						<g>
							<g>
								<g>
									<path fill="#513F28" d="M211.129,133.272c0.384-0.145,0.765-0.289,1.149-0.441c0.519-0.195,0.163-0.977-0.349-0.781
										c-0.381,0.148-0.765,0.297-1.149,0.441C210.266,132.69,210.613,133.471,211.129,133.272L211.129,133.272z"/>
								</g>
							</g>
						</g>
					</g>
					<g>
						<g>
							<path fill="#31BAAF" d="M206.229,135.217c-0.12-0.795-0.863-1.341-1.661-1.222c-0.802,0.116-1.35,0.857-1.229,1.656
								c0.116,0.795,0.863,1.345,1.661,1.222C205.798,136.758,206.353,136.013,206.229,135.217z"/>
						</g>
					</g>
					<g>
						<g>
							<path fill="#31BAAF" d="M214.791,135.416c-0.123-0.795-0.866-1.341-1.66-1.226c-0.798,0.119-1.356,0.864-1.233,1.656
								c0.119,0.795,0.87,1.345,1.661,1.229C214.359,136.953,214.915,136.208,214.791,135.416z"/>
						</g>
					</g>
				</g>
			</g>
			<g>
				<g>
					<g>
						<g>
							<polygon fill="#79CBC5" points="252.885,128.76 254.27,129.852 255.677,128.785 256.663,130.25 258.335,129.668 
								258.813,131.363 260.583,131.331 260.515,133.092 262.208,133.602 261.595,135.253 263.053,136.259 261.95,137.646 
								263.024,139.05 261.556,140.033 262.139,141.696 260.435,142.173 260.475,143.938 258.705,143.869 258.193,145.558 
								256.532,144.946 255.524,146.396 254.139,145.305 252.732,146.367 251.745,144.906 250.077,145.485 249.599,143.789 
								247.829,143.829 247.895,142.064 246.204,141.559 246.813,139.902 245.363,138.897 246.458,137.513 245.381,136.106 
								246.854,135.127 246.273,133.46 247.974,132.983 247.934,131.219 249.7,131.291 250.212,129.599 251.876,130.21 							"/>
						</g>
					</g>
					<g>
						<g>
							<g>
								<path fill="#513F28" d="M252.145,136.346c0.04,0.238-0.146,0.47-0.402,0.506c-0.262,0.043-0.504-0.123-0.541-0.369
									c-0.036-0.238,0.146-0.47,0.406-0.506C251.872,135.933,252.111,136.1,252.145,136.346z"/>
							</g>
						</g>
						<g>
							<g>
								<path fill="#513F28" d="M257.033,136.649c0.032,0.245-0.152,0.47-0.41,0.506c-0.265,0.043-0.504-0.123-0.54-0.369
									c-0.036-0.238,0.145-0.466,0.409-0.506C256.75,136.24,256.997,136.406,257.033,136.649z"/>
							</g>
						</g>
						<g>
							<g>
								<path fill="#513F28" d="M256.431,137.672c0,1.259-1.022,2.285-2.284,2.289l0,0c-1.262,0.003-2.292-1.017-2.296-2.278"/>
							</g>
						</g>
						<g>
							<g>
								<g>
									<path fill="#513F28" d="M251.514,134.953c0.265,0.145,0.5,0.329,0.747,0.506c0.446,0.329,0.953-0.357,0.508-0.687
										c-0.302-0.224-0.609-0.43-0.939-0.614c-0.199-0.112-0.476,0.039-0.555,0.238
										C251.18,134.632,251.311,134.838,251.514,134.953L251.514,134.953z"/>
								</g>
							</g>
						</g>
						<g>
							<g>
								<g>
									<path fill="#513F28" d="M256.318,135.651c0.381-0.145,0.766-0.293,1.149-0.441c0.516-0.195,0.167-0.977-0.348-0.781
										c-0.385,0.145-0.769,0.297-1.149,0.441C255.459,135.065,255.808,135.847,256.318,135.651L256.318,135.651z"/>
								</g>
							</g>
						</g>
					</g>
					<g>
						<g>
							<path fill="#31BAAF" d="M251.419,137.596c-0.116-0.795-0.863-1.345-1.661-1.226c-0.801,0.12-1.349,0.861-1.229,1.66
								c0.119,0.795,0.866,1.345,1.664,1.222C250.991,139.133,251.543,138.392,251.419,137.596z"/>
						</g>
					</g>
					<g>
						<g>
							<path fill="#31BAAF" d="M259.978,137.795c-0.119-0.795-0.863-1.341-1.661-1.226c-0.798,0.119-1.349,0.864-1.226,1.656
								c0.116,0.795,0.863,1.345,1.661,1.229C259.55,139.332,260.101,138.587,259.978,137.795z"/>
						</g>
					</g>
				</g>
			</g>
			<g>
				<g>
					<g>
						<g>
							<polygon fill="#F06462" points="89.662,106.005 91.055,107.097 92.462,106.03 93.444,107.494 95.112,106.916 95.595,108.611 
								97.364,108.571 97.296,110.336 98.989,110.846 98.38,112.498 99.831,113.507 98.735,114.888 99.806,116.294 98.337,117.277 
								98.917,118.938 97.22,119.418 97.256,121.183 95.49,121.11 94.979,122.802 93.317,122.194 92.31,123.641 90.917,122.549 
								89.51,123.615 88.53,122.151 86.855,122.733 86.376,121.038 84.606,121.074 84.679,119.31 82.985,118.804 83.599,117.147 
								82.141,116.143 83.235,114.758 82.162,113.352 83.635,112.375 83.055,110.705 84.755,110.228 84.719,108.463 86.485,108.532 
								86.993,106.844 88.654,107.455 							"/>
						</g>
					</g>
					<g>
						<g>
							<g>
								<path fill="#513F28" d="M88.93,113.586c0.036,0.242-0.146,0.471-0.406,0.51c-0.262,0.04-0.501-0.122-0.54-0.368
									c-0.037-0.239,0.148-0.471,0.409-0.507C88.654,113.178,88.894,113.344,88.93,113.586z"/>
							</g>
						</g>
						<g>
							<g>
								<path fill="#513F28" d="M93.811,113.894c0.036,0.242-0.145,0.47-0.406,0.51c-0.261,0.04-0.5-0.127-0.536-0.369
									c-0.04-0.242,0.145-0.474,0.406-0.51C93.535,113.488,93.774,113.647,93.811,113.894z"/>
							</g>
						</g>
						<g>
							<g>
								<path fill="#513F28" d="M93.212,114.913c0,1.262-1.019,2.289-2.28,2.292l0,0c-1.27,0-2.296-1.02-2.296-2.277"/>
							</g>
						</g>
						<g>
							<g>
								<g>
									<path fill="#513F28" d="M88.299,112.194c0.261,0.148,0.5,0.333,0.747,0.506c0.442,0.333,0.95-0.354,0.507-0.683
										c-0.304-0.221-0.608-0.431-0.938-0.611c-0.207-0.115-0.476,0.036-0.559,0.231
										C87.961,111.876,88.088,112.082,88.299,112.194L88.299,112.194z"/>
								</g>
							</g>
						</g>
						<g>
							<g>
								<g>
									<path fill="#513F28" d="M93.104,112.896c0.381-0.145,0.766-0.293,1.146-0.438c0.515-0.198,0.166-0.979-0.345-0.784
										c-0.385,0.148-0.77,0.297-1.149,0.441C92.237,112.313,92.589,113.095,93.104,112.896L93.104,112.896z"/>
								</g>
							</g>
						</g>
					</g>
					<g>
						<g>
							<path fill="#E24B50" d="M88.204,114.841c-0.12-0.799-0.87-1.345-1.668-1.222c-0.794,0.115-1.35,0.856-1.226,1.655
								c0.123,0.796,0.862,1.345,1.664,1.226C87.769,116.381,88.32,115.637,88.204,114.841z"/>
						</g>
					</g>
					<g>
						<g>
							<path fill="#E24B50" d="M96.763,115.043c-0.116-0.795-0.867-1.352-1.661-1.229c-0.798,0.115-1.349,0.86-1.232,1.655
								c0.123,0.796,0.87,1.345,1.66,1.226C96.331,116.58,96.886,115.835,96.763,115.043z"/>
						</g>
					</g>
				</g>
			</g>
			<g>
				<g>
					<g>
						<g>
							<polygon fill="#F06462" points="134.852,102.606 136.241,103.702 137.655,102.636 138.635,104.1 140.303,103.518 
								140.789,105.217 142.559,105.173 142.486,106.938 144.18,107.447 143.57,109.1 145.024,110.108 143.93,111.493 
								144.995,112.899 143.53,113.879 144.11,115.539 142.41,116.02 142.449,117.784 140.68,117.712 140.172,119.403 
								138.511,118.796 137.499,120.242 136.11,119.15 134.703,120.217 133.721,118.753 132.049,119.339 131.57,117.64 
								129.801,117.676 129.865,115.911 128.176,115.405 128.785,113.749 127.334,112.744 128.43,111.363 127.356,109.956 
								128.825,108.977 128.244,107.31 129.945,106.829 129.909,105.064 131.675,105.134 132.187,103.449 133.848,104.06 							"/>
						</g>
					</g>
					<g>
						<g>
							<g>
								<path fill="#513F28" d="M134.123,110.191c0.036,0.242-0.145,0.47-0.41,0.51c-0.261,0.04-0.5-0.127-0.54-0.372
									c-0.036-0.239,0.148-0.471,0.406-0.507C133.84,109.783,134.087,109.945,134.123,110.191z"/>
							</g>
						</g>
						<g>
							<g>
								<path fill="#513F28" d="M139.001,110.495c0.04,0.246-0.146,0.47-0.406,0.51c-0.262,0.04-0.501-0.127-0.54-0.369
									c-0.037-0.242,0.145-0.47,0.413-0.51C138.726,110.09,138.968,110.253,139.001,110.495z"/>
							</g>
						</g>
						<g>
							<g>
								<path fill="#513F28" d="M138.402,111.515c0,1.262-1.016,2.292-2.281,2.292l0,0c-1.27,0.004-2.295-1.02-2.295-2.277"/>
							</g>
						</g>
						<g>
							<g>
								<g>
									<path fill="#513F28" d="M133.484,108.796c0.262,0.151,0.508,0.333,0.755,0.51c0.438,0.329,0.95-0.358,0.504-0.684
										c-0.301-0.224-0.609-0.434-0.939-0.614c-0.206-0.116-0.479,0.04-0.559,0.231
										C133.151,108.481,133.278,108.688,133.484,108.796L133.484,108.796z"/>
								</g>
							</g>
						</g>
						<g>
							<g>
								<g>
									<path fill="#513F28" d="M138.294,109.497c0.381-0.145,0.765-0.289,1.146-0.438c0.515-0.198,0.167-0.979-0.348-0.784
										c-0.381,0.151-0.77,0.296-1.146,0.441C137.431,108.919,137.778,109.7,138.294,109.497L138.294,109.497z"/>
								</g>
							</g>
						</g>
					</g>
					<g>
						<g>
							<path fill="#E24B50" d="M133.395,111.442c-0.12-0.795-0.867-1.342-1.665-1.222c-0.798,0.115-1.349,0.856-1.226,1.655
								c0.116,0.796,0.863,1.345,1.661,1.226S133.514,112.237,133.395,111.442z"/>
						</g>
					</g>
					<g>
						<g>
							<path fill="#E24B50" d="M141.956,111.645c-0.119-0.795-0.87-1.349-1.66-1.229c-0.802,0.119-1.356,0.86-1.237,1.655
								c0.12,0.796,0.867,1.345,1.665,1.226C141.521,113.182,142.072,112.437,141.956,111.645z"/>
						</g>
					</g>
				</g>
			</g>
			<g>
				<g>
					<g>
						<g>
							<polygon fill="#F06462" points="180.046,118.232 181.435,119.327 182.846,118.258 183.828,119.726 185.496,119.144 
								185.979,120.839 187.748,120.799 187.68,122.563 189.369,123.073 188.76,124.726 190.215,125.734 189.123,127.115 
								190.189,128.521 188.721,129.505 189.304,131.164 187.6,131.646 187.64,133.409 185.873,133.337 185.362,135.029 
								183.701,134.422 182.693,135.868 181.301,134.776 179.894,135.839 178.914,134.379 177.242,134.961 176.764,133.262 
								174.99,133.301 175.06,131.537 173.369,131.03 173.979,129.375 172.524,128.37 173.619,126.985 172.55,125.582 
								174.015,124.603 173.435,122.932 175.139,122.455 175.103,120.69 176.869,120.759 177.38,119.074 179.037,119.686 							"/>
						</g>
					</g>
					<g>
						<g>
							<g>
								<path fill="#513F28" d="M179.316,125.813c0.037,0.246-0.148,0.47-0.413,0.51c-0.261,0.044-0.5-0.123-0.537-0.368
									c-0.036-0.239,0.149-0.471,0.406-0.507C179.034,125.405,179.277,125.571,179.316,125.813z"/>
							</g>
						</g>
						<g>
							<g>
								<path fill="#513F28" d="M184.19,126.121c0.04,0.246-0.141,0.47-0.402,0.506c-0.265,0.044-0.504-0.123-0.54-0.365
									s0.145-0.47,0.409-0.51C183.919,125.716,184.158,125.879,184.19,126.121z"/>
							</g>
						</g>
						<g>
							<g>
								<path fill="#513F28" d="M183.596,127.141c0,1.262-1.019,2.288-2.284,2.292l0,0c-1.266,0-2.292-1.02-2.292-2.277"/>
							</g>
						</g>
						<g>
							<g>
								<g>
									<path fill="#513F28" d="M178.679,124.422c0.261,0.151,0.508,0.332,0.75,0.506c0.443,0.333,0.95-0.354,0.505-0.684
										c-0.302-0.22-0.609-0.43-0.936-0.61c-0.207-0.116-0.479,0.036-0.559,0.231
										C178.345,124.104,178.472,124.313,178.679,124.422L178.679,124.422z"/>
								</g>
							</g>
						</g>
						<g>
							<g>
								<g>
									<path fill="#513F28" d="M183.487,125.123c0.381-0.145,0.762-0.289,1.146-0.438c0.516-0.199,0.167-0.979-0.348-0.784
										c-0.381,0.151-0.769,0.296-1.146,0.44C182.62,124.541,182.973,125.322,183.487,125.123L183.487,125.123z"/>
								</g>
							</g>
						</g>
					</g>
					<g>
						<g>
							<path fill="#E24B50" d="M178.584,127.068c-0.116-0.796-0.863-1.345-1.661-1.223c-0.798,0.116-1.349,0.857-1.226,1.656
								c0.116,0.795,0.863,1.345,1.661,1.222C178.152,128.608,178.707,127.863,178.584,127.068z"/>
						</g>
					</g>
					<g>
						<g>
							<path fill="#E24B50" d="M187.146,127.271c-0.12-0.795-0.867-1.349-1.661-1.229c-0.802,0.116-1.353,0.86-1.233,1.656
								c0.12,0.795,0.867,1.345,1.661,1.226C186.715,128.807,187.266,128.063,187.146,127.271z"/>
						</g>
					</g>
				</g>
			</g>
			<g>
				<g>
					<g>
						<g>
							<polygon fill="#F06462" points="225.235,118.232 226.628,119.327 228.035,118.258 229.019,119.726 230.687,119.144 
								231.172,120.839 232.938,120.799 232.873,122.563 234.563,123.073 233.954,124.726 235.404,125.734 234.313,127.115 
								235.383,128.521 233.91,129.505 234.494,131.164 232.793,131.646 232.83,133.409 231.063,133.337 230.552,135.029 
								228.892,134.422 227.883,135.868 226.49,134.776 225.083,135.839 224.104,134.379 222.433,134.961 221.954,133.262 
								220.181,133.301 220.253,131.537 218.56,131.03 219.172,129.375 217.718,128.37 218.813,126.985 217.739,125.582 
								219.208,124.603 218.628,122.932 220.333,122.455 220.297,120.69 222.059,120.759 222.57,119.074 224.228,119.686 							"/>
						</g>
					</g>
					<g>
						<g>
							<g>
								<path fill="#513F28" d="M224.507,125.813c0.036,0.246-0.148,0.47-0.41,0.51c-0.261,0.044-0.5-0.123-0.536-0.368
									c-0.036-0.239,0.145-0.471,0.406-0.507C224.228,125.405,224.467,125.571,224.507,125.813z"/>
							</g>
						</g>
						<g>
							<g>
								<path fill="#513F28" d="M229.385,126.121c0.036,0.246-0.146,0.47-0.406,0.506c-0.262,0.044-0.501-0.123-0.537-0.365
									s0.146-0.47,0.406-0.51C229.108,125.716,229.349,125.879,229.385,126.121z"/>
							</g>
						</g>
						<g>
							<g>
								<path fill="#513F28" d="M228.786,127.141c0.004,1.262-1.02,2.288-2.281,2.292l0,0c-1.27,0-2.296-1.02-2.296-2.277"/>
							</g>
						</g>
						<g>
							<g>
								<g>
									<path fill="#513F28" d="M223.872,124.422c0.261,0.151,0.504,0.332,0.747,0.506c0.442,0.333,0.95-0.354,0.508-0.684
										c-0.305-0.22-0.609-0.43-0.939-0.61c-0.207-0.116-0.475,0.036-0.555,0.231
										C223.538,124.104,223.662,124.313,223.872,124.422L223.872,124.422z"/>
								</g>
							</g>
						</g>
						<g>
							<g>
								<g>
									<path fill="#513F28" d="M228.678,125.123c0.38-0.145,0.765-0.289,1.146-0.438c0.515-0.199,0.167-0.979-0.345-0.784
										c-0.384,0.151-0.769,0.296-1.149,0.44C227.811,124.541,228.162,125.322,228.678,125.123L228.678,125.123z"/>
								</g>
							</g>
						</g>
					</g>
					<g>
						<g>
							<path fill="#E24B50" d="M223.778,127.068c-0.116-0.796-0.867-1.345-1.665-1.223c-0.798,0.116-1.349,0.857-1.226,1.656
								c0.119,0.795,0.863,1.345,1.661,1.222C223.343,128.608,223.897,127.863,223.778,127.068z"/>
						</g>
					</g>
					<g>
						<g>
							<path fill="#E24B50" d="M232.336,127.271c-0.115-0.795-0.862-1.349-1.66-1.229c-0.798,0.116-1.35,0.86-1.233,1.656
								c0.123,0.795,0.87,1.345,1.661,1.226C231.908,128.807,232.46,128.063,232.336,127.271z"/>
						</g>
					</g>
				</g>
			</g>
			<g>
				<g>
					<g>
						<g>
							<polygon fill="#F06462" points="270.43,122.65 271.818,123.742 273.229,122.672 274.208,124.14 275.876,123.554 
								276.362,125.253 278.132,125.217 278.06,126.978 279.753,127.487 279.144,129.14 280.598,130.148 279.503,131.529 
								280.569,132.939 279.104,133.916 279.685,135.579 277.983,136.06 278.023,137.824 276.254,137.752 275.746,139.443 
								274.085,138.833 273.077,140.278 271.685,139.19 270.277,140.257 269.298,138.789 267.622,139.375 267.144,137.676 
								265.374,137.712 265.443,135.951 263.749,135.445 264.358,133.789 262.908,132.784 264.003,131.399 262.93,129.997 
								264.398,129.014 263.822,127.351 265.52,126.869 265.482,125.104 267.253,125.174 267.76,123.489 269.421,124.097 							"/>
						</g>
					</g>
					<g>
						<g>
							<g>
								<path fill="#513F28" d="M269.697,130.228c0.036,0.246-0.146,0.471-0.41,0.514c-0.261,0.036-0.497-0.13-0.537-0.368
									c-0.036-0.246,0.149-0.471,0.402-0.514C269.414,129.823,269.66,129.989,269.697,130.228z"/>
							</g>
						</g>
						<g>
							<g>
								<path fill="#513F28" d="M274.578,130.531c0.036,0.246-0.146,0.471-0.406,0.514c-0.261,0.036-0.504-0.13-0.54-0.368
									c-0.04-0.243,0.145-0.471,0.409-0.51C274.303,130.127,274.542,130.293,274.578,130.531z"/>
							</g>
						</g>
						<g>
							<g>
								<path fill="#513F28" d="M273.977,131.559c0,1.258-1.016,2.285-2.281,2.285l0,0c-1.266,0.007-2.296-1.017-2.296-2.278"/>
							</g>
						</g>
						<g>
							<g>
								<g>
									<path fill="#513F28" d="M269.063,128.84c0.261,0.145,0.504,0.325,0.75,0.506c0.442,0.333,0.95-0.357,0.508-0.687
										c-0.305-0.225-0.609-0.435-0.942-0.615c-0.203-0.111-0.476,0.044-0.559,0.239
										C268.725,128.521,268.855,128.724,269.063,128.84L269.063,128.84z"/>
								</g>
							</g>
						</g>
						<g>
							<g>
								<g>
									<path fill="#513F28" d="M273.867,129.541c0.385-0.151,0.766-0.297,1.146-0.441c0.515-0.198,0.166-0.979-0.345-0.78
										c-0.381,0.145-0.769,0.293-1.149,0.438C273.004,128.955,273.353,129.736,273.867,129.541L273.867,129.541z"/>
								</g>
							</g>
						</g>
					</g>
					<g>
						<g>
							<path fill="#E24B50" d="M268.972,131.482c-0.123-0.799-0.87-1.341-1.668-1.226c-0.798,0.119-1.35,0.86-1.227,1.656
								c0.12,0.795,0.863,1.349,1.661,1.229C268.536,133.02,269.088,132.278,268.972,131.482z"/>
						</g>
					</g>
					<g>
						<g>
							<path fill="#E24B50" d="M277.53,131.682c-0.12-0.796-0.87-1.345-1.661-1.229c-0.802,0.123-1.353,0.864-1.233,1.659
								c0.12,0.796,0.863,1.346,1.661,1.226C277.095,133.222,277.646,132.477,277.53,131.682z"/>
						</g>
					</g>
				</g>
			</g>
			<rect x="13.244" y="180.432" width="273.516" height="0.549"/>
		</g>
	</g>
	<path fill="#D1D2D2" d="M300,206H0V0h300V206z M1.77,204.228H298.23V1.768H1.77V204.228z"/>
	<g>
		<g>
			<path fill="#F06462" d="M166.363,65.57h6.241v0.808h-2.666v2.457h-0.957v-2.457h-2.618V65.57z M169.993,61.875v0.353
				c0,0.288,0.091,0.573,0.279,0.855c0.188,0.283,0.464,0.527,0.819,0.731c0.362,0.207,0.787,0.344,1.28,0.413l-0.37,0.791
				c-0.584-0.096-1.092-0.28-1.526-0.551c-0.429-0.273-0.758-0.605-0.983-1c-0.229,0.399-0.555,0.734-0.989,1.003
				c-0.436,0.27-0.943,0.452-1.531,0.548l-0.377-0.791c0.501-0.069,0.929-0.206,1.288-0.413c0.358-0.204,0.634-0.448,0.819-0.729
				c0.185-0.278,0.279-0.565,0.279-0.858v-0.353H169.993z"/>
			<path fill="#F06462" d="M178.613,62.155v0.799h-3.83v1.913h3.881v0.792h-1.98v1.536h2.662v0.815h-6.248v-0.815h2.636v-1.536
				h-1.907v-3.504H178.613z"/>
			<path fill="#F06462" d="M182.588,64.307c0.08-0.564,0.123-1.063,0.138-1.495h-2.328v-0.784h3.282v0.247
				c0,0.306-0.008,0.607-0.025,0.909c-0.015,0.301-0.051,0.649-0.116,1.044c0.156-0.017,0.385-0.046,0.682-0.089l0.051,0.705
				c-0.529,0.096-1.103,0.17-1.727,0.224v1.544h-0.877v1.294h4.145v0.792h-5.099v-2.184h0.881v-1.383
				c-0.682,0.027-1.247,0.04-1.704,0.04l-0.116-0.792C180.897,64.379,181.834,64.355,182.588,64.307z M185.656,61.66v5.397h-0.95
				v-0.799h-1.35V65.5h1.35v-3.84H185.656z"/>
		</g>
		<ellipse fill="#F06462" cx="157.69" cy="65.487" rx="5.053" ry="5.036"/>
		<g>
			<path fill="#289297" d="M128.593,64.415c0.283-0.414,0.424-0.862,0.424-1.349v-0.119h-1.385v-0.792h3.71v0.792h-1.364v0.112
				c0,0.453,0.135,0.875,0.403,1.264c0.271,0.389,0.663,0.674,1.175,0.856l-0.468,0.767c-0.37-0.127-0.686-0.314-0.95-0.564
				c-0.265-0.247-0.476-0.538-0.628-0.875c-0.155,0.373-0.369,0.698-0.652,0.971c-0.279,0.275-0.616,0.479-1.005,0.613l-0.485-0.784
				C127.9,65.126,128.31,64.829,128.593,64.415z M128.625,66.45h0.954v1.455h3.75v0.792h-4.704V66.45z M132.212,63.531v-1.864h0.954
				v5.223h-0.954v-2.566h-1.117v-0.792H132.212z"/>
			<path fill="#289297" d="M139.643,61.98v0.559c0,0.374-0.007,0.701-0.021,0.984c-0.015,0.282-0.055,0.595-0.116,0.935h0.885v0.792
				h-2.654v1.041h1.922v2.544h-0.943v-1.761h-3.945v-0.783h2.009V65.25h-2.633v-0.792h4.414c0.104-0.533,0.155-1.097,0.155-1.695
				h-3.8V61.98H139.643z"/>
		</g>
		<path fill="#79CBC5" d="M123.795,65.487c0,2.78-2.263,5.036-5.056,5.036c-2.789,0-5.056-2.256-5.056-5.036
			s2.267-5.036,5.056-5.036C121.532,60.451,123.795,62.707,123.795,65.487z"/>
	</g>
</g>
</svg>
