<?xml version="1.0" encoding="utf-8"?>
<!-- Generator: Adobe Illustrator 15.1.0, SVG Export Plug-In . SVG Version: 6.00 Build 0)  -->
<!DOCTYPE svg PUBLIC "-//W3C//DTD SVG 1.1//EN" "http://www.w3.org/Graphics/SVG/1.1/DTD/svg11.dtd">
<svg version="1.1" id="Layer_1" xmlns="http://www.w3.org/2000/svg" xmlns:xlink="http://www.w3.org/1999/xlink" x="0px" y="0px"
	 width="300px" height="206px" viewBox="0 0 300 206" enable-background="new 0 0 300 206" xml:space="preserve">
<g>
	<rect x="0.885" y="0.884" fill="#F9F9FA" width="298.23" height="204.229"/>
	<rect x="0.885" y="0.884" fill="#134D87" width="298.23" height="51.18"/>
	<g>
		<path fill="#FFFFFF" d="M279.166,27.406c0,5.633-4.58,10.195-10.23,10.195l0,0c-5.649,0-10.227-4.563-10.227-10.195l0,0
			c0-5.629,4.577-10.195,10.227-10.195l0,0C274.586,17.211,279.166,21.777,279.166,27.406L279.166,27.406z"/>
		<path fill="#134D87" d="M272.355,26.665l-4.489-4.476c-0.41-0.409-1.077-0.409-1.49,0c-0.41,0.412-0.41,1.077,0,1.485l3.746,3.731
			l-3.746,3.73c-0.41,0.412-0.41,1.078,0,1.49c0.206,0.202,0.479,0.304,0.747,0.304s0.536-0.102,0.743-0.304l4.489-4.477
			c0.196-0.202,0.309-0.47,0.309-0.744C272.664,27.128,272.552,26.86,272.355,26.665z"/>
	</g>
	<g>
		<g>
			<path fill="#231F20" d="M175.182,194.745h-3.956v-0.514l2.034-1.948c0.62-0.658,1.07-1.165,1.07-1.852
				c-0.022-0.709-0.476-1.038-1.088-1.038c-0.675,0-1.176,0.481-1.176,1.153l-0.722-0.115c0.152-1.085,0.933-1.67,1.94-1.67
				c1.005,0,1.784,0.607,1.784,1.651c0,0.872-0.562,1.486-1.232,2.151l-1.646,1.627c0.225-0.064,0.464-0.094,0.667-0.094h2.324
				V194.745z"/>
			<path fill="#231F20" d="M177.992,194.856c-1.222,0-2.161-0.954-2.161-3.04c0-2.094,0.939-3.048,2.161-3.048
				c1.215,0,2.165,0.954,2.165,3.048C180.157,193.902,179.207,194.856,177.992,194.856z M177.992,189.369
				c-0.747,0-1.414,0.61-1.414,2.447c0,1.829,0.667,2.447,1.414,2.447s1.426-0.618,1.426-2.447
				C179.418,189.979,178.739,189.369,177.992,189.369z"/>
			<path fill="#231F20" d="M184.745,194.745h-3.96v-0.514l2.038-1.948c0.62-0.658,1.069-1.165,1.069-1.852
				c-0.025-0.709-0.475-1.038-1.084-1.038c-0.679,0-1.175,0.481-1.175,1.153l-0.726-0.115c0.152-1.085,0.932-1.67,1.937-1.67
				c1.008,0,1.788,0.607,1.788,1.651c0,0.872-0.563,1.486-1.229,2.151l-1.65,1.627c0.225-0.064,0.468-0.094,0.667-0.094h2.325
				V194.745z"/>
			<path fill="#231F20" d="M189.376,194.745h-3.188v-0.593h1.313v-4.234c0-0.072,0-0.145,0.007-0.202l-1.069,0.954l-0.396-0.474
				l1.589-1.362h0.587v5.318h1.157V194.745z"/>
		</g>
		<g>
			<g>
				<rect x="164.11" y="117.972" fill="#79CBC5" width="10.654" height="63.913"/>
				<g>
					<g>
						<ellipse fill="#79CBC5" cx="169.436" cy="111.739" rx="8.1" ry="8.076"/>
						<path fill="#FFFFFF" d="M169.438,120.206c-2.267,0-4.402-0.879-6.009-2.477c-1.603-1.602-2.487-3.728-2.487-5.99
							c0-2.264,0.885-4.39,2.487-5.991c1.606-1.602,3.742-2.48,6.009-2.48s4.402,0.879,6.009,2.48
							c1.604,1.602,2.488,3.728,2.488,5.991c0,2.263-0.885,4.389-2.488,5.99C173.84,119.327,171.704,120.206,169.438,120.206z
							 M169.438,104.06c-4.246,0-7.702,3.445-7.702,7.68c0,4.233,3.456,7.679,7.702,7.679c4.247,0,7.699-3.445,7.699-7.679
							C177.137,107.505,173.685,104.06,169.438,104.06z"/>
					</g>
					<g>
						<circle fill="#FFFFFF" cx="172.384" cy="109.465" r="0.778"/>
						<path fill="#FFFFFF" d="M165.71,109.465c0,0.43,0.352,0.777,0.779,0.777s0.78-0.348,0.78-0.777
							c0-0.427-0.353-0.773-0.78-0.773S165.71,109.038,165.71,109.465z"/>
					</g>
					<path fill="#FFFFFF" d="M169.438,115.687c1.6,0,3.035-0.939,3.742-2.451c0.105-0.224,0.008-0.495-0.221-0.6
						c-0.225-0.108-0.501-0.011-0.605,0.217c-0.555,1.186-1.676,1.927-2.916,1.927c-1.244,0-2.36-0.741-2.919-1.927
						c-0.109-0.228-0.377-0.325-0.603-0.217c-0.231,0.104-0.326,0.376-0.221,0.6C166.402,114.747,167.839,115.687,169.438,115.687z"
						/>
				</g>
			</g>
			<g>
				<rect x="185.963" y="119.208" fill="#035B9E" width="10.651" height="62.677"/>
				<g>
					<g>
						<ellipse fill="#035B9E" cx="191.285" cy="112.976" rx="8.1" ry="8.073"/>
						<path fill="#FFFFFF" d="M191.287,121.442c-2.271,0-4.402-0.878-6.006-2.479c-1.603-1.599-2.487-3.725-2.487-5.987
							c0-2.264,0.885-4.39,2.487-5.987c1.604-1.602,3.735-2.48,6.006-2.48c2.27,0,4.402,0.879,6.005,2.48
							c1.606,1.598,2.491,3.724,2.491,5.987c0,2.263-0.885,4.389-2.491,5.987C195.689,120.564,193.557,121.442,191.287,121.442z
							 M191.287,105.296c-4.247,0-7.703,3.445-7.703,7.68c0,4.237,3.456,7.679,7.703,7.679c4.246,0,7.702-3.441,7.702-7.679
							C198.989,108.741,195.533,105.296,191.287,105.296z"/>
					</g>
					<g>
						<path fill="#FFFFFF" d="M193.455,110.701c0,0.431,0.349,0.777,0.776,0.777c0.432,0,0.783-0.347,0.783-0.777
							c0-0.427-0.352-0.777-0.783-0.777C193.804,109.924,193.455,110.274,193.455,110.701z"/>
						<circle fill="#FFFFFF" cx="188.338" cy="110.701" r="0.78"/>
					</g>
					<path fill="#FFFFFF" d="M191.287,116.924c1.599,0,3.031-0.937,3.742-2.448c0.108-0.228,0.008-0.495-0.218-0.604
						c-0.231-0.104-0.5-0.008-0.609,0.217c-0.558,1.189-1.675,1.927-2.915,1.927s-2.361-0.737-2.92-1.927
						c-0.104-0.225-0.377-0.321-0.605-0.217c-0.225,0.108-0.322,0.376-0.217,0.604C188.255,115.987,189.688,116.924,191.287,116.924
						z"/>
				</g>
			</g>
		</g>
		<g>
			<g>
				<path fill="#035B9E" d="M184.629,98.029c0-0.896-0.363-1.228-1.197-1.228h-0.652v-1.517h0.652c0.599,0,0.994-0.276,0.994-1.003
					c0-0.566-0.29-0.886-0.769-0.886c-0.482,0-0.772,0.319-0.772,0.886v0.149h-1.904v-0.234c0-1.389,0.982-2.338,2.677-2.338
					c1.683,0,2.687,0.96,2.687,2.305c0,1.025-0.525,1.602-1.309,1.837c1.019,0.246,1.566,1.015,1.566,2.115
					c0,1.547-1.179,2.56-2.944,2.56c-1.771,0-2.938-1.013-2.938-2.56v-0.268h1.962v0.181c0,0.716,0.352,1.111,0.976,1.111
					C184.277,99.141,184.629,98.745,184.629,98.029z"/>
				<path fill="#035B9E" d="M190.942,98.029c0-0.896-0.366-1.228-1.2-1.228h-0.653v-1.517h0.653c0.602,0,0.997-0.276,0.997-1.003
					c0-0.566-0.29-0.886-0.772-0.886s-0.769,0.319-0.769,0.886v0.149h-1.907v-0.234c0-1.389,0.986-2.338,2.676-2.338
					c1.683,0,2.69,0.96,2.69,2.305c0,1.025-0.529,1.602-1.309,1.837c1.019,0.246,1.563,1.015,1.563,2.115
					c0,1.547-1.175,2.56-2.944,2.56c-1.766,0-2.934-1.013-2.934-2.56v-0.268h1.962v0.181c0,0.716,0.352,1.111,0.972,1.111
					C190.591,99.141,190.942,98.745,190.942,98.029z"/>
				<path fill="#035B9E" d="M195.563,100.527h-1.94v-1.922h1.94V100.527z"/>
				<path fill="#035B9E" d="M200.143,98.029c0-0.896-0.366-1.228-1.204-1.228h-0.652v-1.517h0.652c0.603,0,1.001-0.276,1.001-1.003
					c0-0.566-0.29-0.886-0.776-0.886c-0.479,0-0.769,0.319-0.769,0.886v0.149h-1.907v-0.234c0-1.389,0.986-2.338,2.676-2.338
					c1.683,0,2.691,0.96,2.691,2.305c0,1.025-0.526,1.602-1.306,1.837c1.016,0.246,1.563,1.015,1.563,2.115
					c0,1.547-1.178,2.56-2.948,2.56c-1.762,0-2.93-1.013-2.93-2.56v-0.268h1.958v0.181c0,0.716,0.355,1.111,0.972,1.111
					C199.787,99.141,200.143,98.745,200.143,98.029z"/>
			</g>
		</g>
		<g>
			<g>
				<path fill="#6E6F71" d="M163.414,96.075h-0.703v-0.647h0.722c0.765,0,1.182-0.533,1.182-1.198c0-0.718-0.504-1.206-1.236-1.206
					c-0.754,0-1.236,0.488-1.236,1.206v0.098h-0.758v-0.159c0-1.011,0.739-1.791,1.994-1.791c1.247,0,1.983,0.78,1.983,1.791
					c0,0.781-0.398,1.374-1.084,1.578c0.776,0.204,1.291,0.808,1.291,1.773c0,1.26-0.893,2.043-2.19,2.043
					c-1.291,0-2.197-0.801-2.197-2.086v-0.089h0.747v0.052c0,0.94,0.616,1.474,1.45,1.474c0.827,0,1.443-0.524,1.443-1.419
					C164.821,96.615,164.27,96.075,163.414,96.075z"/>
				<path fill="#6E6F71" d="M170.747,97.892h-0.863v1.553h-0.754v-1.553h-2.967v-0.646l2.894-4.753h0.827v4.753h0.863V97.892z
					 M169.13,97.245v-3.52l-2.14,3.52H169.13z"/>
				<path fill="#6E6F71" d="M172.509,99.444h-0.845v-1.056h0.845V99.444z"/>
				<path fill="#6E6F71" d="M177.318,98.922c-0.355,0.416-0.893,0.641-1.574,0.641c-0.689,0-1.219-0.225-1.574-0.641
					c-0.464-0.559-0.688-1.357-0.688-2.953c0-1.597,0.225-2.396,0.688-2.954c0.355-0.418,0.885-0.638,1.574-0.638
					c0.682,0,1.219,0.22,1.574,0.638c0.464,0.559,0.674,1.357,0.674,2.954C177.992,97.564,177.782,98.363,177.318,98.922z
					 M176.803,93.503c-0.25-0.312-0.598-0.479-1.059-0.479c-0.457,0-0.813,0.168-1.059,0.479c-0.313,0.399-0.446,1.073-0.446,2.466
					c0,1.392,0.127,2.075,0.446,2.475c0.239,0.309,0.602,0.47,1.059,0.47c0.461,0,0.819-0.161,1.059-0.47
					c0.313-0.399,0.442-1.083,0.442-2.475C177.245,94.576,177.115,93.902,176.803,93.503z"/>
			</g>
		</g>
	</g>
	<g>
		<path fill="#231F20" d="M49.442,194.745h-3.96v-0.514l2.038-1.948c0.62-0.658,1.07-1.165,1.07-1.852
			c-0.025-0.709-0.476-1.038-1.085-1.038c-0.678,0-1.175,0.481-1.175,1.153l-0.725-0.115c0.151-1.085,0.932-1.67,1.937-1.67
			c1.008,0,1.787,0.607,1.787,1.651c0,0.872-0.562,1.486-1.229,2.151l-1.649,1.627c0.225-0.064,0.468-0.094,0.667-0.094h2.324
			V194.745z"/>
		<path fill="#231F20" d="M52.253,194.856c-1.222,0-2.165-0.954-2.165-3.04c0-2.094,0.943-3.048,2.165-3.048
			c1.215,0,2.165,0.954,2.165,3.048C54.418,193.902,53.468,194.856,52.253,194.856z M52.253,189.369
			c-0.747,0-1.418,0.61-1.418,2.447c0,1.829,0.671,2.447,1.418,2.447c0.751,0,1.426-0.618,1.426-2.447
			C53.679,189.979,53.004,189.369,52.253,189.369z"/>
		<path fill="#231F20" d="M58.854,194.745h-3.188v-0.593h1.313v-4.234c0-0.072,0-0.145,0.007-0.202l-1.069,0.954l-0.396-0.474
			l1.589-1.362h0.587v5.318h1.157V194.745z"/>
		<path fill="#231F20" d="M63.84,189.34l-2.666,5.405h-0.812l2.404-4.806l0.275-0.448h-3.083v-0.629h3.881V189.34z"/>
	</g>
	<g>
		<rect x="38.622" y="125.571" fill="#79CBC5" width="10.655" height="56.313"/>
		<g>
			<g>
				<path fill="#79CBC5" d="M35.851,119.339c0,4.461,3.626,8.076,8.101,8.076c4.472,0,8.095-3.615,8.095-8.076
					c0-4.458-3.623-8.073-8.095-8.073C39.478,111.266,35.851,114.881,35.851,119.339z"/>
				<path fill="#FFFFFF" d="M43.952,127.81c-2.27,0-4.402-0.879-6.009-2.48s-2.491-3.728-2.491-5.99c0-2.264,0.885-4.39,2.491-5.987
					c1.606-1.602,3.739-2.48,6.009-2.48c2.267,0,4.402,0.879,6.006,2.48c1.603,1.598,2.487,3.724,2.487,5.987
					c0,2.263-0.885,4.389-2.487,5.99C48.354,126.931,46.219,127.81,43.952,127.81z M43.952,111.659c-4.25,0-7.702,3.445-7.702,7.68
					c0,4.233,3.452,7.679,7.702,7.679c4.243,0,7.699-3.445,7.699-7.679C51.651,115.104,48.195,111.659,43.952,111.659z"/>
			</g>
			<g>
				<circle fill="#FFFFFF" cx="46.899" cy="117.064" r="0.778"/>
				<path fill="#FFFFFF" d="M40.224,117.064c0,0.43,0.348,0.777,0.776,0.777c0.436,0,0.784-0.348,0.784-0.777
					c0-0.427-0.349-0.773-0.784-0.773C40.572,116.291,40.224,116.638,40.224,117.064z"/>
			</g>
			<path fill="#FFFFFF" d="M43.952,123.286c1.596,0,3.032-0.939,3.742-2.451c0.102-0.224,0.008-0.495-0.221-0.6
				c-0.229-0.108-0.497-0.011-0.605,0.217c-0.559,1.189-1.676,1.927-2.916,1.927c-1.244,0-2.364-0.737-2.919-1.927
				c-0.105-0.228-0.377-0.325-0.605-0.217c-0.229,0.104-0.327,0.376-0.218,0.6C40.917,122.347,42.35,123.286,43.952,123.286z"/>
		</g>
	</g>
	<g>
		<rect x="59.967" y="124.862" fill="#035B9E" width="10.654" height="57.022"/>
		<g>
			<g>
				<path fill="#035B9E" d="M57.196,118.63c0,4.461,3.626,8.077,8.098,8.077s8.098-3.616,8.098-8.077
					c0-4.454-3.626-8.073-8.098-8.073S57.196,114.176,57.196,118.63z"/>
				<path fill="#FFFFFF" d="M65.294,127.101c-2.267,0-4.399-0.879-6.006-2.48s-2.491-3.728-2.491-5.99
					c0-2.26,0.885-4.39,2.491-5.987s3.739-2.48,6.006-2.48c2.271,0,4.402,0.883,6.009,2.48c1.603,1.598,2.488,3.728,2.488,5.987
					c0,2.263-0.886,4.389-2.488,5.99C69.696,126.222,67.564,127.101,65.294,127.101z M65.294,110.954
					c-4.247,0-7.699,3.445-7.699,7.676c0,4.237,3.452,7.679,7.699,7.679c4.246,0,7.702-3.441,7.702-7.679
					C72.996,114.399,69.54,110.954,65.294,110.954z"/>
			</g>
			<g>
				<circle fill="#FFFFFF" cx="68.241" cy="116.359" r="0.778"/>
				<path fill="#FFFFFF" d="M61.569,116.359c0,0.427,0.349,0.773,0.776,0.773c0.432,0,0.783-0.347,0.783-0.773
					s-0.352-0.773-0.783-0.773C61.918,115.586,61.569,115.933,61.569,116.359z"/>
			</g>
			<path fill="#FFFFFF" d="M65.294,122.578c1.6,0,3.035-0.937,3.742-2.448c0.105-0.228,0.011-0.495-0.221-0.604
				c-0.226-0.108-0.497-0.007-0.603,0.221c-0.559,1.186-1.675,1.927-2.919,1.927c-1.24,0-2.361-0.741-2.919-1.927
				c-0.105-0.228-0.378-0.329-0.603-0.221c-0.232,0.108-0.326,0.376-0.218,0.604C62.262,121.642,63.694,122.578,65.294,122.578z"/>
		</g>
	</g>
	<g>
		<g>
			<path fill="#6E6F71" d="M39.318,103.677l-2.412,2.726h3.184v0.644h-4.174v-0.593l2.796-3.167
				c0.381-0.434,0.526-0.796,0.526-1.251c0-0.824-0.507-1.41-1.334-1.41c-0.849,0-1.334,0.597-1.334,1.41v0.195h-0.758v-0.202
				c0-1.117,0.74-2.047,2.092-2.047c1.349,0,2.096,0.93,2.096,2.047C40,102.649,39.84,103.084,39.318,103.677z"/>
			<path fill="#6E6F71" d="M42.813,104.602c-1.262,0-2.096-0.882-2.096-2.306c0-1.439,0.896-2.314,2.176-2.314
				c0.899,0,1.56,0.397,1.896,1.204c0.207,0.48,0.286,1.11,0.286,1.916c0,1.569-0.163,2.589-0.551,3.222
				c-0.359,0.6-0.921,0.839-1.646,0.839c-1.113,0-1.864-0.575-1.994-1.699h0.783c0.087,0.697,0.533,1.056,1.218,1.056
				c1.016,0,1.386-0.817,1.433-2.733C44.075,104.27,43.546,104.602,42.813,104.602z M42.894,100.625
				c-0.87,0-1.429,0.614-1.429,1.671c0,1.044,0.559,1.655,1.429,1.655c0.849,0,1.425-0.611,1.425-1.655
				C44.318,101.239,43.742,100.625,42.894,100.625z"/>
			<path fill="#6E6F71" d="M47.023,107.046h-0.845v-1.056h0.845V107.046z"/>
			<path fill="#6E6F71" d="M48.185,100.098h4.152v0.582l-2.415,6.366h-0.795l2.455-6.305h-3.397V100.098z"/>
		</g>
	</g>
	<g>
		<g>
			<path fill="#035B9E" d="M58.64,103.684c0-0.896-0.366-1.226-1.204-1.226h-0.653v-1.515h0.653c0.602,0,1.001-0.278,1.001-1.005
				c0-0.566-0.29-0.886-0.776-0.886c-0.479,0-0.769,0.319-0.769,0.886v0.151h-1.907v-0.238c0-1.387,0.986-2.336,2.676-2.336
				c1.683,0,2.69,0.96,2.69,2.307c0,1.023-0.525,1.599-1.305,1.837c1.015,0.246,1.563,1.013,1.563,2.111
				c0,1.548-1.179,2.563-2.948,2.563c-1.763,0-2.93-1.016-2.93-2.563v-0.268h1.958v0.181c0,0.716,0.355,1.113,0.972,1.113
				C58.284,104.797,58.64,104.399,58.64,103.684z"/>
			<path fill="#035B9E" d="M66.124,105.513c-0.468,0.543-1.175,0.821-2.117,0.821c-0.954,0-1.661-0.278-2.133-0.821
				c-0.62-0.727-0.889-1.814-0.889-3.586c0-1.775,0.269-2.863,0.889-3.59c0.472-0.545,1.179-0.821,2.133-0.821
				c0.942,0,1.649,0.276,2.117,0.821c0.624,0.727,0.893,1.814,0.893,3.59C67.017,103.698,66.748,104.786,66.124,105.513z
				 M64.746,99.448c-0.182-0.278-0.421-0.396-0.739-0.396c-0.319,0-0.581,0.117-0.747,0.396c-0.226,0.374-0.305,1.141-0.305,2.479
				c0,1.33,0.079,2.09,0.305,2.473c0.166,0.282,0.428,0.397,0.747,0.397c0.318,0,0.558-0.115,0.739-0.397
				c0.225-0.383,0.298-1.143,0.298-2.473C65.044,100.589,64.971,99.822,64.746,99.448z"/>
			<path fill="#035B9E" d="M69.569,106.186h-1.937v-1.924h1.937V106.186z"/>
			<path fill="#035B9E" d="M72.841,106.186v-6.729l-1.748,0.781v-1.634l2.038-0.94h1.689v8.521H72.841z"/>
		</g>
	</g>
	<g>
		<g>
			<path fill="#231F20" d="M112.162,194.745h-3.957v-0.514l2.035-1.948c0.62-0.658,1.069-1.165,1.069-1.852
				c-0.021-0.709-0.475-1.038-1.088-1.038c-0.675,0-1.175,0.481-1.175,1.153l-0.722-0.115c0.152-1.085,0.932-1.67,1.94-1.67
				c1.004,0,1.784,0.607,1.784,1.651c0,0.872-0.563,1.486-1.233,2.151l-1.646,1.627c0.225-0.064,0.464-0.094,0.667-0.094h2.325
				V194.745z"/>
			<path fill="#231F20" d="M114.973,194.856c-1.223,0-2.162-0.954-2.162-3.04c0-2.094,0.939-3.048,2.162-3.048
				c1.215,0,2.165,0.954,2.165,3.048C117.138,193.902,116.188,194.856,114.973,194.856z M114.973,189.369
				c-0.747,0-1.415,0.61-1.415,2.447c0,1.829,0.668,2.447,1.415,2.447s1.425-0.618,1.425-2.447
				C116.397,189.979,115.72,189.369,114.973,189.369z"/>
			<path fill="#231F20" d="M121.572,194.745h-3.184v-0.593h1.309v-4.234c0-0.072,0-0.145,0.011-0.202l-1.073,0.954l-0.392-0.474
				l1.581-1.362h0.588v5.318h1.16V194.745z"/>
			<path fill="#231F20" d="M125.38,191.961c-0.312,0.249-0.688,0.38-1.131,0.38c-0.929,0-1.697-0.611-1.697-1.729
				c0-1.049,0.826-1.895,2.002-1.895c1.16,0,1.922,0.803,1.922,1.952c0,0.698-0.254,1.236-0.707,1.852l-1.618,2.224h-0.924
				l1.834-2.332C125.228,192.186,125.326,192.033,125.38,191.961z M124.488,191.762c0.805,0,1.272-0.563,1.272-1.179
				c0-0.773-0.525-1.229-1.215-1.229c-0.747,0-1.247,0.491-1.247,1.204C123.299,191.336,123.748,191.762,124.488,191.762z"/>
		</g>
		<g>
			<g>
				<rect x="101.337" y="108.959" fill="#79CBC5" width="10.658" height="72.926"/>
				<g>
					<g>
						<ellipse fill="#79CBC5" cx="106.666" cy="102.726" rx="8.1" ry="8.073"/>
						<path fill="#FFFFFF" d="M106.668,111.196c-2.271,0-4.402-0.882-6.006-2.479c-1.606-1.605-2.491-3.731-2.491-5.991
							s0.885-4.393,2.491-5.99c1.604-1.599,3.735-2.48,6.006-2.48c2.27,0,4.402,0.882,6.005,2.48c1.604,1.598,2.488,3.73,2.488,5.99
							s-0.885,4.386-2.488,5.991C111.07,110.314,108.938,111.196,106.668,111.196z M106.668,95.05c-4.25,0-7.703,3.442-7.703,7.676
							s3.453,7.676,7.703,7.676c4.246,0,7.702-3.442,7.702-7.676S110.914,95.05,106.668,95.05z"/>
					</g>
					<g>
						<path fill="#FFFFFF" d="M108.836,100.451c0,0.431,0.349,0.777,0.776,0.777c0.432,0,0.78-0.347,0.78-0.777
							c0-0.426-0.349-0.773-0.78-0.773C109.185,99.678,108.836,100.025,108.836,100.451z"/>
						<path fill="#FFFFFF" d="M102.939,100.451c0,0.431,0.349,0.777,0.78,0.777s0.779-0.347,0.779-0.777
							c0-0.426-0.348-0.773-0.779-0.773S102.939,100.025,102.939,100.451z"/>
					</g>
					<path fill="#FFFFFF" d="M106.668,106.674c1.596,0,3.031-0.937,3.742-2.451c0.102-0.228,0.008-0.495-0.221-0.601
						c-0.229-0.108-0.497-0.011-0.606,0.217c-0.558,1.189-1.675,1.928-2.915,1.928s-2.361-0.738-2.92-1.928
						c-0.104-0.228-0.377-0.325-0.605-0.217c-0.225,0.105-0.326,0.373-0.217,0.601C103.636,105.737,105.064,106.674,106.668,106.674
						z"/>
				</g>
			</g>
			<g>
				<rect x="122.686" y="106.309" fill="#035B9E" width="10.651" height="75.576"/>
				<g>
					<g>
						<path fill="#035B9E" d="M119.911,100.075c0,4.458,3.627,8.07,8.102,8.07c4.472,0,8.098-3.612,8.098-8.07
							c0-4.461-3.626-8.076-8.098-8.076C123.538,91.999,119.911,95.614,119.911,100.075z"/>
						<path fill="#FFFFFF" d="M128.013,108.543c-2.27,0-4.402-0.882-6.005-2.48c-1.606-1.602-2.488-3.728-2.488-5.987
							c0-2.263,0.882-4.389,2.488-5.986c1.603-1.605,3.735-2.484,6.005-2.484c2.271,0,4.402,0.879,6.006,2.484
							c1.603,1.598,2.487,3.724,2.487,5.986c0,2.26-0.885,4.386-2.487,5.987C132.415,107.661,130.283,108.543,128.013,108.543z
							 M128.013,92.396c-4.25,0-7.702,3.441-7.702,7.679c0,4.234,3.452,7.676,7.702,7.676c4.243,0,7.699-3.441,7.699-7.676
							C135.712,95.838,132.256,92.396,128.013,92.396z"/>
					</g>
					<g>
						<circle fill="#FFFFFF" cx="130.959" cy="97.802" r="0.778"/>
						<circle fill="#FFFFFF" cx="125.065" cy="97.802" r="0.78"/>
					</g>
					<path fill="#FFFFFF" d="M128.013,104.023c1.596,0,3.032-0.939,3.743-2.451c0.102-0.224,0.007-0.495-0.222-0.6
						c-0.229-0.109-0.497-0.012-0.605,0.217c-0.559,1.186-1.676,1.923-2.916,1.923s-2.36-0.737-2.919-1.923
						c-0.105-0.229-0.377-0.326-0.605-0.217c-0.225,0.104-0.326,0.376-0.218,0.6C124.981,103.084,126.41,104.023,128.013,104.023z"
						/>
				</g>
			</g>
		</g>
		<g>
			<g>
				<path fill="#6E6F71" d="M100.645,87.062H99.94v-0.646h0.722c0.766,0,1.183-0.533,1.183-1.199c0-0.717-0.508-1.205-1.236-1.205
					c-0.759,0-1.237,0.488-1.237,1.205v0.098h-0.754v-0.158c0-1.011,0.739-1.792,1.991-1.792c1.243,0,1.983,0.781,1.983,1.792
					c0,0.78-0.399,1.373-1.084,1.578c0.772,0.204,1.287,0.808,1.287,1.772c0,1.261-0.885,2.041-2.187,2.041
					c-1.288,0-2.194-0.799-2.194-2.084v-0.089h0.747v0.053c0,0.94,0.609,1.474,1.447,1.474c0.83,0,1.439-0.524,1.439-1.419
					C102.048,87.603,101.496,87.062,100.645,87.062z"/>
				<path fill="#6E6F71" d="M105.529,87.983c-1.262,0-2.097-0.878-2.097-2.306c0-1.436,0.896-2.314,2.176-2.314
					c0.899,0,1.56,0.399,1.897,1.206c0.206,0.479,0.286,1.108,0.286,1.916c0,1.569-0.163,2.589-0.551,3.22
					c-0.359,0.602-0.922,0.842-1.646,0.842c-1.113,0-1.864-0.576-1.995-1.702h0.783c0.087,0.699,0.533,1.056,1.219,1.056
					c1.016,0,1.386-0.817,1.433-2.731C106.791,87.655,106.262,87.983,105.529,87.983z M105.608,84.011
					c-0.87,0-1.429,0.612-1.429,1.667c0,1.046,0.559,1.659,1.429,1.659c0.849,0,1.426-0.613,1.426-1.659
					C107.034,84.623,106.457,84.011,105.608,84.011z"/>
				<path fill="#6E6F71" d="M109.739,90.432h-0.845v-1.056h0.845V90.432z"/>
				<path fill="#6E6F71" d="M113.159,90.432v-6.164l-1.733,0.771v-0.735l1.842-0.824h0.646v6.952H113.159z"/>
			</g>
		</g>
		<g>
			<g>
				<path fill="#035B9E" d="M123.487,86.035h-0.893v1.591h-1.947v-1.591h-3.318v-1.536l3.221-5.393h2.045v5.393h0.893V86.035z
					 M120.647,84.499v-2.712l-1.617,2.712H120.647z"/>
				<path fill="#035B9E" d="M128.844,86.953c-0.468,0.546-1.179,0.823-2.122,0.823c-0.95,0-1.657-0.277-2.129-0.823
					c-0.62-0.725-0.888-1.814-0.888-3.586c0-1.773,0.268-2.861,0.888-3.589c0.472-0.544,1.179-0.82,2.129-0.82
					c0.943,0,1.654,0.276,2.122,0.82c0.62,0.728,0.888,1.815,0.888,3.589C129.731,85.139,129.464,86.229,128.844,86.953z
					 M127.462,80.891c-0.182-0.278-0.417-0.396-0.74-0.396c-0.319,0-0.576,0.118-0.747,0.396c-0.225,0.372-0.301,1.143-0.301,2.477
					s0.076,2.092,0.301,2.477c0.171,0.278,0.428,0.396,0.747,0.396c0.323,0,0.559-0.117,0.74-0.396
					c0.225-0.385,0.301-1.143,0.301-2.477S127.687,81.263,127.462,80.891z"/>
				<path fill="#035B9E" d="M132.285,87.626h-1.937v-1.922h1.937V87.626z"/>
				<path fill="#035B9E" d="M136.745,81.252c-0.043-0.544-0.29-0.81-0.769-0.81c-0.686,0-0.976,0.65-1.008,2.358
					c0.268-0.438,0.805-0.705,1.446-0.705c1.36,0,2.452,1.025,2.452,2.818c0,1.752-1.125,2.862-2.869,2.862
					c-1.059,0-1.907-0.384-2.411-1.206c-0.45-0.737-0.569-1.773-0.569-2.979c0-3.375,0.957-4.633,2.988-4.633
					c1.588,0,2.582,0.854,2.69,2.294H136.745z M135.955,86.239c0.609,0,0.942-0.459,0.942-1.336c0-0.886-0.333-1.345-0.942-1.345
					c-0.624,0-0.943,0.459-0.943,1.345C135.012,85.78,135.331,86.239,135.955,86.239z"/>
			</g>
		</g>
	</g>
	<g>
		<g>
			<path fill="#231F20" d="M238.173,194.745h-3.956v-0.514l2.034-1.948c0.62-0.658,1.069-1.165,1.069-1.852
				c-0.021-0.709-0.475-1.038-1.088-1.038c-0.674,0-1.175,0.481-1.175,1.153l-0.722-0.115c0.152-1.085,0.933-1.67,1.94-1.67
				c1.005,0,1.784,0.607,1.784,1.651c0,0.872-0.563,1.486-1.233,2.151l-1.646,1.627c0.225-0.064,0.464-0.094,0.667-0.094h2.324
				V194.745z"/>
			<path fill="#231F20" d="M240.983,194.856c-1.222,0-2.161-0.954-2.161-3.04c0-2.094,0.939-3.048,2.161-3.048
				c1.215,0,2.165,0.954,2.165,3.048C243.148,193.902,242.198,194.856,240.983,194.856z M240.983,189.369
				c-0.747,0-1.414,0.61-1.414,2.447c0,1.829,0.667,2.447,1.414,2.447s1.425-0.618,1.425-2.447
				C242.408,189.979,241.73,189.369,240.983,189.369z"/>
			<path fill="#231F20" d="M247.736,194.745h-3.961v-0.514l2.038-1.948c0.62-0.658,1.07-1.165,1.07-1.852
				c-0.025-0.709-0.476-1.038-1.084-1.038c-0.679,0-1.176,0.481-1.176,1.153l-0.725-0.115c0.152-1.085,0.932-1.67,1.937-1.67
				c1.008,0,1.787,0.607,1.787,1.651c0,0.872-0.562,1.486-1.229,2.151l-1.65,1.627c0.225-0.064,0.468-0.094,0.667-0.094h2.325
				V194.745z"/>
			<path fill="#231F20" d="M252.52,194.745h-3.957v-0.514l2.034-1.948c0.62-0.658,1.07-1.165,1.07-1.852
				c-0.021-0.709-0.476-1.038-1.088-1.038c-0.675,0-1.175,0.481-1.175,1.153l-0.722-0.115c0.152-1.085,0.932-1.67,1.939-1.67
				c1.005,0,1.784,0.607,1.784,1.651c0,0.872-0.562,1.486-1.232,2.151l-1.646,1.627c0.225-0.064,0.464-0.094,0.667-0.094h2.325
				V194.745z"/>
		</g>
		<g>
			<g>
				<rect x="227.355" y="96.93" fill="#79CBC5" width="10.654" height="84.955"/>
				<g>
					<g>
						<path fill="#79CBC5" d="M224.581,90.701c0,4.457,3.627,8.073,8.098,8.073c4.476,0,8.102-3.616,8.102-8.073
							c0-4.462-3.626-8.077-8.102-8.077C228.208,82.624,224.581,86.239,224.581,90.701z"/>
						<path fill="#FFFFFF" d="M232.679,99.168c-2.267,0-4.402-0.878-6.005-2.48c-1.604-1.602-2.488-3.727-2.488-5.986
							c0-2.264,0.885-4.393,2.488-5.991c1.603-1.598,3.738-2.48,6.005-2.48c2.271,0,4.402,0.883,6.009,2.48
							c1.607,1.599,2.488,3.728,2.488,5.991c0,2.26-0.881,4.385-2.488,5.986C237.081,98.29,234.949,99.168,232.679,99.168z
							 M232.679,83.019c-4.246,0-7.702,3.445-7.702,7.683c0,4.233,3.456,7.675,7.702,7.675c4.25,0,7.703-3.441,7.703-7.675
							C240.382,86.464,236.929,83.019,232.679,83.019z"/>
					</g>
					<g>
						<path fill="#FFFFFF" d="M234.852,88.427c0,0.427,0.344,0.773,0.775,0.773s0.78-0.347,0.78-0.773
							c0-0.431-0.349-0.777-0.78-0.777S234.852,87.996,234.852,88.427z"/>
						<path fill="#FFFFFF" d="M228.955,88.427c0,0.427,0.348,0.773,0.779,0.773c0.428,0,0.776-0.347,0.776-0.773
							c0-0.431-0.349-0.777-0.776-0.777C229.303,87.649,228.955,87.996,228.955,88.427z"/>
					</g>
					<path fill="#FFFFFF" d="M232.679,94.648c1.604,0,3.035-0.939,3.743-2.451c0.108-0.228,0.007-0.495-0.218-0.604
						c-0.229-0.104-0.501-0.007-0.605,0.217c-0.559,1.193-1.676,1.931-2.92,1.931c-1.24,0-2.356-0.737-2.915-1.931
						c-0.109-0.224-0.378-0.321-0.603-0.217c-0.231,0.108-0.33,0.376-0.221,0.604C229.647,93.709,231.083,94.648,232.679,94.648z"/>
				</g>
			</g>
			<g>
				<rect x="248.7" y="98.17" fill="#035B9E" width="10.651" height="83.715"/>
				<g>
					<g>
						<ellipse fill="#035B9E" cx="254.026" cy="91.938" rx="8.1" ry="8.073"/>
						<path fill="#FFFFFF" d="M254.024,100.404c-2.267,0-4.402-0.878-6.006-2.477c-1.603-1.604-2.487-3.728-2.487-5.99
							c0-2.26,0.885-4.39,2.487-5.991c1.604-1.598,3.739-2.479,6.006-2.479c2.27,0,4.402,0.882,6.009,2.479
							c1.606,1.602,2.491,3.731,2.491,5.991c0,2.263-0.885,4.386-2.491,5.99C258.427,99.526,256.294,100.404,254.024,100.404z
							 M254.024,84.258c-4.247,0-7.703,3.442-7.703,7.68c0,4.233,3.456,7.679,7.703,7.679c4.25,0,7.702-3.445,7.702-7.679
							C261.727,87.7,258.274,84.258,254.024,84.258z"/>
					</g>
					<g>
						<path fill="#FFFFFF" d="M256.192,89.663c0,0.431,0.349,0.773,0.78,0.773s0.779-0.343,0.779-0.773
							c0-0.427-0.348-0.777-0.779-0.777S256.192,89.236,256.192,89.663z"/>
						<path fill="#FFFFFF" d="M250.3,89.663c0,0.431,0.348,0.773,0.779,0.773c0.429,0,0.776-0.343,0.776-0.773
							c0-0.427-0.348-0.777-0.776-0.777C250.647,88.886,250.3,89.236,250.3,89.663z"/>
					</g>
					<path fill="#FFFFFF" d="M254.024,95.886c1.599,0,3.035-0.94,3.742-2.448c0.108-0.231,0.007-0.499-0.218-0.607
						c-0.229-0.104-0.5-0.007-0.605,0.221c-0.559,1.189-1.676,1.927-2.919,1.927c-1.24,0-2.357-0.737-2.916-1.927
						c-0.108-0.228-0.377-0.325-0.605-0.221c-0.229,0.108-0.323,0.376-0.222,0.607C250.992,94.945,252.429,95.886,254.024,95.886z"
						/>
				</g>
			</g>
		</g>
		<g>
			<g>
				<path fill="#035B9E" d="M249.498,77.896h-0.885v1.591h-1.951v-1.591h-3.321V76.36l3.228-5.393h2.045v5.393h0.885V77.896z
					 M246.662,76.36v-2.712l-1.617,2.712H246.662z"/>
				<path fill="#035B9E" d="M254.622,75.538l-2.106,2.413h3.126v1.536h-5.614v-1.419l2.96-3.395c0.406-0.47,0.555-0.812,0.555-1.293
					c0-0.65-0.269-1.024-0.838-1.024c-0.555,0-0.834,0.363-0.834,1.024v0.375h-1.97v-0.363c0-1.399,0.998-2.573,2.804-2.573
					c1.835,0,2.807,1.174,2.807,2.573C255.511,74.278,255.286,74.78,254.622,75.538z"/>
				<path fill="#035B9E" d="M258.304,79.487h-1.94v-1.921h1.94V79.487z"/>
				<path fill="#035B9E" d="M261.229,75.857h-1.831l0.214-4.89h4.787v1.538h-2.956l-0.108,1.943
					c0.247-0.289,0.675-0.491,1.233-0.491c1.319,0,2.263,0.896,2.263,2.851c0,1.741-1.009,2.829-2.872,2.829
					c-1.777,0-2.764-0.992-2.857-2.572h1.979c0.051,0.673,0.334,1.036,0.878,1.036c0.587,0,0.899-0.407,0.899-1.347
					c0-0.854-0.247-1.346-0.899-1.346C261.596,75.409,261.356,75.603,261.229,75.857z"/>
			</g>
		</g>
		<g>
			<g>
				<path fill="#6E6F71" d="M228.966,76.854h-0.863v1.553h-0.758v-1.553h-2.963v-0.646l2.894-4.753h0.827v4.753h0.863V76.854z
					 M227.345,76.207v-3.52l-2.136,3.52H227.345z"/>
				<path fill="#6E6F71" d="M231.686,75.037h-0.704V74.39h0.726c0.762,0,1.183-0.533,1.183-1.198c0-0.718-0.508-1.206-1.24-1.206
					c-0.755,0-1.233,0.488-1.233,1.206v0.098h-0.758V73.13c0-1.011,0.74-1.791,1.991-1.791c1.247,0,1.987,0.78,1.987,1.791
					c0,0.781-0.399,1.374-1.088,1.578c0.775,0.204,1.291,0.809,1.291,1.773c0,1.26-0.889,2.041-2.19,2.041
					c-1.288,0-2.194-0.799-2.194-2.084V76.35h0.747v0.053c0,0.939,0.613,1.473,1.447,1.473c0.83,0,1.443-0.524,1.443-1.419
					C233.093,75.578,232.541,75.037,231.686,75.037z"/>
				<path fill="#6E6F71" d="M235.754,78.406h-0.845v-1.056h0.845V78.406z"/>
				<path fill="#6E6F71" d="M239.004,75.037H238.3V74.39h0.726c0.762,0,1.182-0.533,1.182-1.198c0-0.718-0.507-1.206-1.24-1.206
					c-0.754,0-1.232,0.488-1.232,1.206v0.098h-0.758V73.13c0-1.011,0.739-1.791,1.99-1.791c1.248,0,1.987,0.78,1.987,1.791
					c0,0.781-0.398,1.374-1.088,1.578c0.776,0.204,1.291,0.809,1.291,1.773c0,1.26-0.888,2.041-2.19,2.041
					c-1.287,0-2.193-0.799-2.193-2.084V76.35h0.747v0.053c0,0.939,0.612,1.473,1.446,1.473c0.831,0,1.443-0.524,1.443-1.419
					C240.41,75.578,239.859,75.037,239.004,75.037z"/>
			</g>
		</g>
	</g>
	<rect x="22.346" y="181.621" width="255.311" height="0.527"/>
	<g>
		<g>
			<g>
				<path fill="#035B9E" d="M166.366,65.566h6.237v0.809h-2.665v2.456h-0.954v-2.456h-2.618V65.566z M169.992,61.872v0.353
					c0,0.287,0.095,0.572,0.283,0.854c0.185,0.284,0.457,0.528,0.819,0.732c0.355,0.206,0.783,0.343,1.276,0.412l-0.369,0.792
					c-0.588-0.096-1.096-0.28-1.523-0.552c-0.436-0.272-0.762-0.605-0.986-1c-0.225,0.399-0.559,0.734-0.99,1.004
					c-0.436,0.27-0.946,0.452-1.526,0.548l-0.381-0.792c0.497-0.069,0.925-0.206,1.287-0.412c0.359-0.204,0.631-0.448,0.819-0.729
					c0.188-0.278,0.283-0.566,0.283-0.858v-0.353H169.992z"/>
				<path fill="#035B9E" d="M178.609,62.151v0.8h-3.826v1.912h3.884v0.792h-1.98v1.536h2.655v0.815h-6.245v-0.815h2.633v-1.536h-1.9
					v-3.504H178.609z"/>
				<path fill="#035B9E" d="M182.583,64.303c0.084-0.563,0.131-1.063,0.139-1.495h-2.325v-0.784h3.282v0.248
					c0,0.305-0.007,0.607-0.021,0.909c-0.015,0.3-0.059,0.648-0.116,1.043c0.152-0.017,0.377-0.045,0.675-0.089l0.058,0.705
					c-0.529,0.096-1.106,0.17-1.727,0.225v1.543h-0.877v1.295h4.141v0.792h-5.099V66.51h0.878v-1.383
					c-0.675,0.027-1.244,0.04-1.701,0.04l-0.115-0.792C180.897,64.375,181.836,64.352,182.583,64.303z M185.658,61.656v5.398h-0.957
					v-0.8h-1.349v-0.759h1.349v-3.84H185.658z"/>
			</g>
		</g>
		<path fill="#035B9E" d="M162.747,65.483c0,2.784-2.263,5.04-5.056,5.04c-2.792,0-5.055-2.256-5.055-5.04
			c0-2.78,2.263-5.036,5.055-5.036C160.484,60.447,162.747,62.703,162.747,65.483z"/>
		<g>
			<path fill="#289297" d="M128.593,64.411c0.283-0.414,0.425-0.862,0.425-1.349v-0.119h-1.386v-0.792h3.71v0.792h-1.363v0.112
				c0,0.454,0.138,0.875,0.406,1.264s0.66,0.674,1.175,0.856l-0.472,0.767c-0.369-0.126-0.686-0.314-0.95-0.563
				c-0.261-0.248-0.471-0.539-0.627-0.875c-0.156,0.372-0.37,0.697-0.649,0.971c-0.282,0.274-0.616,0.479-1.008,0.612l-0.486-0.784
				C127.904,65.122,128.311,64.825,128.593,64.411z M128.626,66.447h0.953v1.455h3.75v0.792h-4.703V66.447z M132.212,63.527v-1.863
				h0.958v5.222h-0.958v-2.566h-1.116v-0.792H132.212z"/>
			<path fill="#289297" d="M139.646,61.977v0.559c0,0.374-0.007,0.701-0.021,0.985c-0.015,0.282-0.055,0.595-0.116,0.935h0.885
				v0.792h-2.654v1.041h1.922v2.543h-0.943V67.07h-3.945v-0.782h2.009v-1.041h-2.633v-0.792h4.414
				c0.104-0.533,0.155-1.098,0.155-1.696h-3.8v-0.782H139.646z"/>
		</g>
		<path fill="#79CBC5" d="M123.799,65.483c0,2.784-2.263,5.04-5.055,5.04c-2.793,0-5.056-2.256-5.056-5.04
			c0-2.78,2.263-5.036,5.056-5.036C121.536,60.447,123.799,62.703,123.799,65.483z"/>
	</g>
	<path fill="#D1D2D2" d="M300,206H0V0h300V206z M1.77,204.228H298.23V1.768H1.77V204.228z"/>
</g>
</svg>
