<?xml version="1.0" encoding="utf-8"?>
<!-- Generator: Adobe Illustrator 15.1.0, SVG Export Plug-In . SVG Version: 6.00 Build 0)  -->
<!DOCTYPE svg PUBLIC "-//W3C//DTD SVG 1.1//EN" "http://www.w3.org/Graphics/SVG/1.1/DTD/svg11.dtd">
<svg version="1.1" id="Layer_1" xmlns="http://www.w3.org/2000/svg" xmlns:xlink="http://www.w3.org/1999/xlink" x="0px" y="0px"
	 width="300px" height="206px" viewBox="0 0 300 206" enable-background="new 0 0 300 206" xml:space="preserve">
<g>
	<rect x="0.885" y="0.884" fill="#F9F9FA" width="298.23" height="204.229"/>
	<rect x="0.885" y="0.884" fill="#134D87" width="298.23" height="51.18"/>
	<g>
		<path fill="#FFFFFF" d="M279.166,27.406c0,5.633-4.58,10.195-10.23,10.195l0,0c-5.65,0-10.227-4.563-10.227-10.195l0,0
			c0-5.629,4.576-10.195,10.227-10.195l0,0C274.586,17.211,279.166,21.777,279.166,27.406L279.166,27.406z"/>
		<path fill="#134D87" d="M272.355,26.665l-4.486-4.476c-0.413-0.409-1.08-0.409-1.49,0c-0.41,0.412-0.41,1.077,0,1.485l3.746,3.731
			l-3.746,3.73c-0.41,0.412-0.41,1.078,0,1.49c0.207,0.202,0.476,0.304,0.743,0.304c0.269,0,0.541-0.102,0.747-0.304l4.486-4.476
			c0.199-0.203,0.309-0.471,0.309-0.745C272.664,27.128,272.555,26.86,272.355,26.665z"/>
	</g>
	<g>
		<g>
			<path fill="#231F20" d="M84.726,194.745h-3.96v-0.514l2.038-1.949c0.62-0.657,1.069-1.164,1.069-1.851
				c-0.025-0.709-0.475-1.038-1.084-1.038c-0.679,0-1.175,0.481-1.175,1.153l-0.726-0.115c0.152-1.085,0.932-1.67,1.937-1.67
				c1.008,0,1.788,0.607,1.788,1.651c0,0.872-0.563,1.486-1.229,2.151l-1.65,1.627c0.225-0.064,0.468-0.094,0.667-0.094h2.325
				V194.745z"/>
			<path fill="#231F20" d="M87.536,194.856c-1.223,0-2.165-0.954-2.165-3.04c0-2.094,0.942-3.048,2.165-3.048
				c1.215,0,2.165,0.954,2.165,3.048C89.701,193.902,88.751,194.856,87.536,194.856z M87.536,189.369
				c-0.747,0-1.418,0.61-1.418,2.447c0,1.829,0.671,2.447,1.418,2.447c0.75,0,1.425-0.618,1.425-2.447
				C88.961,189.979,88.286,189.369,87.536,189.369z"/>
			<path fill="#231F20" d="M94.136,194.745h-3.188v-0.593h1.313v-4.234c0-0.072,0-0.145,0.008-0.202l-1.07,0.954l-0.395-0.474
				l1.588-1.362h0.588v5.318h1.156V194.745z"/>
			<path fill="#231F20" d="M97.099,194.856c-1.219,0-2.161-0.954-2.161-3.04c0-2.094,0.942-3.048,2.161-3.048
				s2.169,0.954,2.169,3.048C99.268,193.902,98.317,194.856,97.099,194.856z M97.099,189.369c-0.747,0-1.414,0.61-1.414,2.447
				c0,1.829,0.667,2.447,1.414,2.447c0.751,0,1.429-0.618,1.429-2.447C98.527,189.979,97.85,189.369,97.099,189.369z"/>
		</g>
	</g>
	<g>
		<g>
			<path fill="#231F20" d="M144.366,194.745h-3.96v-0.514l2.038-1.949c0.62-0.657,1.069-1.164,1.069-1.851
				c-0.025-0.709-0.475-1.038-1.084-1.038c-0.678,0-1.175,0.481-1.175,1.153l-0.726-0.115c0.152-1.085,0.933-1.67,1.937-1.67
				c1.009,0,1.788,0.607,1.788,1.651c0,0.872-0.563,1.486-1.229,2.151l-1.65,1.627c0.226-0.064,0.468-0.094,0.668-0.094h2.324
				V194.745z"/>
			<path fill="#231F20" d="M147.177,194.856c-1.222,0-2.165-0.954-2.165-3.04c0-2.094,0.943-3.048,2.165-3.048
				c1.215,0,2.165,0.954,2.165,3.048C149.342,193.902,148.392,194.856,147.177,194.856z M147.177,189.369
				c-0.747,0-1.418,0.61-1.418,2.447c0,1.829,0.671,2.447,1.418,2.447c0.751,0,1.425-0.618,1.425-2.447
				C148.602,189.979,147.928,189.369,147.177,189.369z"/>
			<path fill="#231F20" d="M153.777,194.745h-3.188v-0.593h1.313v-4.234c0-0.072,0-0.145,0.007-0.202l-1.069,0.954l-0.396-0.474
				l1.588-1.362h0.588v5.318h1.157V194.745z"/>
			<path fill="#231F20" d="M156.711,190.952c1.247,0,1.915,0.767,1.915,1.793c0,1.251-0.943,2.072-2.14,2.072
				c-0.711,0-1.306-0.289-1.669-0.633l0.396-0.539c0.352,0.297,0.823,0.514,1.302,0.514c0.813,0,1.4-0.506,1.4-1.37
				c0-0.773-0.497-1.223-1.342-1.223c-0.313,0-0.62,0.072-0.965,0.195l-0.476-0.137l0.482-2.784h2.825v0.673h-2.31l-0.265,1.54
				C156.138,190.981,156.421,190.952,156.711,190.952z"/>
		</g>
	</g>
	<g>
		<g>
			<path fill="#231F20" d="M203.981,194.745h-3.956v-0.514l2.034-1.949c0.62-0.657,1.07-1.164,1.07-1.851
				c-0.022-0.709-0.476-1.038-1.088-1.038c-0.675,0-1.175,0.481-1.175,1.153l-0.722-0.115c0.152-1.085,0.932-1.67,1.939-1.67
				c1.005,0,1.784,0.607,1.784,1.651c0,0.872-0.562,1.486-1.232,2.151l-1.646,1.627c0.225-0.064,0.464-0.094,0.667-0.094h2.324
				V194.745z"/>
			<path fill="#231F20" d="M206.792,194.856c-1.222,0-2.161-0.954-2.161-3.04c0-2.094,0.939-3.048,2.161-3.048
				c1.215,0,2.165,0.954,2.165,3.048C208.957,193.902,208.007,194.856,206.792,194.856z M206.792,189.369
				c-0.747,0-1.414,0.61-1.414,2.447c0,1.829,0.667,2.447,1.414,2.447s1.426-0.618,1.426-2.447
				C208.218,189.979,207.539,189.369,206.792,189.369z"/>
			<path fill="#231F20" d="M213.545,194.745h-3.96v-0.514l2.038-1.949c0.62-0.657,1.069-1.164,1.069-1.851
				c-0.025-0.709-0.475-1.038-1.084-1.038c-0.678,0-1.175,0.481-1.175,1.153l-0.726-0.115c0.152-1.085,0.932-1.67,1.937-1.67
				c1.008,0,1.788,0.607,1.788,1.651c0,0.872-0.563,1.486-1.229,2.151l-1.65,1.627c0.226-0.064,0.468-0.094,0.668-0.094h2.324
				V194.745z"/>
			<path fill="#231F20" d="M218.328,194.745h-3.956v-0.514l2.034-1.949c0.62-0.657,1.069-1.164,1.069-1.851
				c-0.021-0.709-0.475-1.038-1.088-1.038c-0.674,0-1.175,0.481-1.175,1.153l-0.722-0.115c0.152-1.085,0.933-1.67,1.94-1.67
				c1.005,0,1.784,0.607,1.784,1.651c0,0.872-0.563,1.486-1.233,2.151l-1.646,1.627c0.226-0.064,0.465-0.094,0.668-0.094h2.324
				V194.745z"/>
		</g>
	</g>
	<g>
		<g>
			<g>
				<path fill="#6E6F71" d="M74.027,99.886l-2.408,2.723h3.185v0.646h-4.171v-0.595l2.792-3.165
					c0.385-0.436,0.522-0.799,0.522-1.251c0-0.824-0.504-1.41-1.334-1.41c-0.842,0-1.335,0.595-1.335,1.41v0.195h-0.754v-0.204
					c0-1.117,0.739-2.048,2.089-2.048c1.355,0,2.103,0.931,2.103,2.048C74.716,98.857,74.557,99.291,74.027,99.886z"/>
				<path fill="#6E6F71" d="M75.579,96.303h4.156v0.584l-2.423,6.368h-0.79l2.455-6.305h-3.398V96.303z"/>
				<path fill="#6E6F71" d="M81.737,103.255h-0.845v-1.056h0.845V103.255z"/>
				<path fill="#6E6F71" d="M84.986,99.886h-0.703v-0.647h0.725c0.762,0,1.183-0.533,1.183-1.198c0-0.718-0.508-1.206-1.24-1.206
					c-0.754,0-1.233,0.488-1.233,1.206v0.098h-0.758v-0.159c0-1.011,0.74-1.791,1.991-1.791c1.247,0,1.987,0.78,1.987,1.791
					c0,0.781-0.399,1.374-1.088,1.578c0.776,0.204,1.291,0.809,1.291,1.773c0,1.26-0.889,2.041-2.19,2.041
					c-1.287,0-2.194-0.799-2.194-2.084v-0.089h0.747v0.053c0,0.939,0.613,1.473,1.447,1.473c0.83,0,1.443-0.524,1.443-1.419
					C86.394,100.426,85.842,99.886,84.986,99.886z"/>
			</g>
		</g>
		<g>
			<g>
				<path fill="#035B9E" d="M93.581,86.339c0-0.896-0.366-1.228-1.204-1.228h-0.652v-1.517h0.652c0.603,0,1.001-0.276,1.001-1.003
					c0-0.566-0.29-0.886-0.776-0.886c-0.479,0-0.769,0.319-0.769,0.886v0.149h-1.907v-0.234c0-1.389,0.986-2.338,2.676-2.338
					c1.684,0,2.691,0.96,2.691,2.305c0,1.025-0.526,1.602-1.306,1.837c1.016,0.246,1.563,1.015,1.563,2.115
					c0,1.547-1.179,2.562-2.949,2.562c-1.762,0-2.93-1.015-2.93-2.562v-0.268h1.958v0.181c0,0.716,0.355,1.111,0.972,1.111
					C93.226,87.45,93.581,87.055,93.581,86.339z"/>
				<path fill="#035B9E" d="M101.066,88.165c-0.468,0.546-1.175,0.822-2.118,0.822c-0.954,0-1.661-0.276-2.132-0.822
					c-0.62-0.726-0.889-1.815-0.889-3.587c0-1.773,0.269-2.861,0.889-3.588c0.471-0.545,1.178-0.821,2.132-0.821
					c0.943,0,1.65,0.276,2.118,0.821c0.624,0.727,0.892,1.814,0.892,3.588C101.958,86.35,101.69,87.439,101.066,88.165z
					 M99.688,82.102c-0.182-0.278-0.421-0.396-0.74-0.396s-0.58,0.117-0.747,0.396c-0.225,0.372-0.305,1.143-0.305,2.477
					s0.08,2.092,0.305,2.477c0.167,0.278,0.428,0.396,0.747,0.396s0.559-0.117,0.74-0.396c0.225-0.385,0.297-1.143,0.297-2.477
					S99.913,82.474,99.688,82.102z"/>
				<path fill="#035B9E" d="M104.512,88.837h-1.937v-1.922h1.937V88.837z"/>
				<path fill="#035B9E" d="M110.267,88.165c-0.468,0.546-1.179,0.822-2.121,0.822c-0.95,0-1.658-0.276-2.129-0.822
					c-0.62-0.726-0.889-1.815-0.889-3.587c0-1.773,0.269-2.861,0.889-3.588c0.471-0.545,1.179-0.821,2.129-0.821
					c0.942,0,1.653,0.276,2.121,0.821c0.62,0.727,0.889,1.814,0.889,3.588C111.155,86.35,110.887,87.439,110.267,88.165z
					 M108.885,82.102c-0.182-0.278-0.417-0.396-0.739-0.396c-0.319,0-0.577,0.117-0.747,0.396c-0.226,0.372-0.302,1.143-0.302,2.477
					s0.076,2.092,0.302,2.477c0.17,0.278,0.428,0.396,0.747,0.396c0.322,0,0.558-0.117,0.739-0.396
					c0.225-0.385,0.301-1.143,0.301-2.477S109.109,82.474,108.885,82.102z"/>
			</g>
		</g>
		<rect x="91.528" y="94.729" fill="#035B9E" width="17.356" height="87.851"/>
		<rect x="69.922" y="108.89" fill="#79CBC5" width="17.356" height="73.689"/>
	</g>
	<g>
		<g>
			<g>
				<path fill="#6E6F71" d="M133.69,95.168l-2.412,2.722h3.184v0.647h-4.174v-0.595l2.796-3.165
					c0.381-0.436,0.526-0.799,0.526-1.251c0-0.824-0.508-1.41-1.335-1.41c-0.849,0-1.334,0.595-1.334,1.41v0.195h-0.758v-0.204
					c0-1.117,0.739-2.049,2.092-2.049c1.35,0,2.097,0.932,2.097,2.049C134.372,94.139,134.212,94.573,133.69,95.168z"/>
				<path fill="#6E6F71" d="M135.018,96.639c0-0.922,0.515-1.551,1.342-1.782c-0.704-0.222-1.139-0.842-1.139-1.587
					c0-1.047,0.79-1.801,2.089-1.801c1.302,0,2.081,0.754,2.081,1.801c0,0.745-0.424,1.365-1.128,1.587
					c0.827,0.231,1.346,0.86,1.346,1.782c0,1.251-0.936,2.015-2.299,2.015C135.953,98.653,135.018,97.89,135.018,96.639z
					 M137.31,98.006c0.91,0,1.552-0.524,1.552-1.41c0-0.879-0.642-1.419-1.552-1.419c-0.907,0-1.545,0.54-1.545,1.419
					C135.765,97.481,136.402,98.006,137.31,98.006z M137.31,92.116c-0.798,0-1.335,0.479-1.335,1.215s0.537,1.206,1.335,1.206
					c0.794,0,1.334-0.471,1.334-1.206S138.104,92.116,137.31,92.116z"/>
				<path fill="#6E6F71" d="M141.396,98.537h-0.846v-1.056h0.846V98.537z"/>
				<path fill="#6E6F71" d="M144.649,95.168h-0.704v-0.647h0.719c0.769,0,1.182-0.533,1.182-1.198c0-0.718-0.504-1.206-1.232-1.206
					c-0.759,0-1.24,0.488-1.24,1.206v0.098h-0.755v-0.159c0-1.011,0.74-1.792,1.995-1.792c1.243,0,1.983,0.781,1.983,1.792
					c0,0.78-0.402,1.374-1.084,1.578c0.771,0.204,1.287,0.808,1.287,1.773c0,1.26-0.889,2.041-2.187,2.041
					c-1.291,0-2.198-0.8-2.198-2.085V96.48h0.747v0.052c0,0.94,0.613,1.474,1.451,1.474c0.826,0,1.439-0.524,1.439-1.419
					C146.053,95.708,145.501,95.168,144.649,95.168z"/>
			</g>
		</g>
		<g>
			<g>
				<path fill="#035B9E" d="M153.284,81.621c0-0.896-0.366-1.228-1.201-1.228h-0.652v-1.517h0.652c0.603,0,0.998-0.277,0.998-1.004
					c0-0.565-0.29-0.886-0.772-0.886s-0.77,0.32-0.77,0.886v0.15h-1.907v-0.235c0-1.388,0.986-2.337,2.677-2.337
					c1.683,0,2.69,0.96,2.69,2.305c0,1.025-0.529,1.602-1.309,1.837c1.019,0.245,1.563,1.014,1.563,2.114
					c0,1.548-1.175,2.562-2.944,2.562c-1.767,0-2.935-1.014-2.935-2.562V81.44h1.962v0.181c0,0.716,0.353,1.111,0.973,1.111
					C152.932,82.732,153.284,82.337,153.284,81.621z"/>
				<path fill="#035B9E" d="M158.288,84.119v-6.727l-1.744,0.781v-1.635l2.034-0.939h1.694v8.52H158.288z"/>
				<path fill="#035B9E" d="M164.218,84.119h-1.94v-1.922h1.94V84.119z"/>
				<path fill="#035B9E" d="M168.794,81.621c0-0.896-0.362-1.228-1.2-1.228h-0.652v-1.517h0.652c0.599,0,0.997-0.277,0.997-1.004
					c0-0.565-0.29-0.886-0.772-0.886s-0.772,0.32-0.772,0.886v0.15h-1.903v-0.235c0-1.388,0.982-2.337,2.676-2.337
					c1.683,0,2.688,0.96,2.688,2.305c0,1.025-0.522,1.602-1.306,1.837c1.016,0.245,1.563,1.014,1.563,2.114
					c0,1.548-1.179,2.562-2.945,2.562c-1.766,0-2.934-1.014-2.934-2.562V81.44h1.958v0.181c0,0.716,0.355,1.111,0.976,1.111
					S168.794,82.337,168.794,81.621z"/>
			</g>
		</g>
		<rect x="151.191" y="90.011" fill="#035B9E" width="17.356" height="92.568"/>
		<rect x="129.581" y="104.168" fill="#79CBC5" width="17.36" height="78.411"/>
	</g>
	<g>
		<g>
			<g>
				<path fill="#6E6F71" d="M193.31,117.553l-2.408,2.719h3.184v0.65h-4.174v-0.597l2.796-3.163
					c0.381-0.438,0.522-0.803,0.522-1.251c0-0.824-0.508-1.41-1.335-1.41c-0.845,0-1.334,0.593-1.334,1.41v0.195h-0.755V115.9
					c0-1.117,0.74-2.049,2.089-2.049c1.353,0,2.1,0.932,2.1,2.049C193.994,116.522,193.835,116.956,193.31,117.553z"/>
				<path fill="#6E6F71" d="M196.95,117.553h-0.703v-0.651h0.721c0.766,0,1.183-0.531,1.183-1.196c0-0.72-0.504-1.204-1.236-1.204
					c-0.755,0-1.237,0.484-1.237,1.204v0.098h-0.758v-0.159c0-1.013,0.74-1.792,1.995-1.792c1.247,0,1.983,0.779,1.983,1.792
					c0,0.781-0.398,1.374-1.084,1.576c0.775,0.206,1.291,0.81,1.291,1.775c0,1.262-0.893,2.043-2.19,2.043
					c-1.291,0-2.198-0.803-2.198-2.087v-0.09h0.747v0.054c0,0.94,0.617,1.472,1.451,1.472c0.827,0,1.443-0.521,1.443-1.417
					C198.357,118.091,197.806,117.553,196.95,117.553z"/>
				<path fill="#6E6F71" d="M201.019,120.922h-0.848v-1.056h0.848V120.922z"/>
				<path fill="#6E6F71" d="M204.127,118.471c-1.266,0-2.1-0.875-2.1-2.307s0.899-2.313,2.18-2.313c0.896,0,1.556,0.4,1.896,1.206
					c0.203,0.478,0.282,1.106,0.282,1.916c0,1.569-0.159,2.589-0.551,3.218c-0.355,0.604-0.917,0.847-1.646,0.847
					c-1.109,0-1.86-0.579-1.994-1.707h0.783c0.091,0.701,0.536,1.056,1.219,1.056c1.015,0,1.389-0.817,1.436-2.729
					C205.389,118.146,204.855,118.471,204.127,118.471z M204.207,114.501c-0.874,0-1.433,0.611-1.433,1.663
					c0,1.049,0.559,1.663,1.433,1.663c0.845,0,1.425-0.614,1.425-1.663C205.632,115.112,205.052,114.501,204.207,114.501z"/>
			</g>
		</g>
		<g>
			<g>
				<path fill="#035B9E" d="M213.85,107.271l-2.11,2.413h3.126v1.536h-5.61v-1.419l2.955-3.395c0.406-0.47,0.559-0.812,0.559-1.293
					c0-0.65-0.269-1.024-0.838-1.024c-0.555,0-0.834,0.363-0.834,1.024v0.375h-1.969v-0.364c0-1.398,0.993-2.572,2.803-2.572
					c1.832,0,2.808,1.174,2.808,2.572C214.738,106.01,214.513,106.513,213.85,107.271z"/>
				<path fill="#035B9E" d="M217.57,107.59h-1.835l0.218-4.89h4.787v1.538h-2.96l-0.104,1.943c0.246-0.289,0.674-0.491,1.229-0.491
					c1.319,0,2.263,0.896,2.263,2.851c0,1.741-1.009,2.829-2.872,2.829c-1.777,0-2.764-0.992-2.858-2.572h1.98
					c0.055,0.672,0.334,1.036,0.878,1.036c0.591,0,0.899-0.407,0.899-1.348c0-0.853-0.247-1.345-0.899-1.345
					C217.933,107.142,217.697,107.335,217.57,107.59z"/>
				<path fill="#035B9E" d="M223.837,111.22H221.9v-1.921h1.937V111.22z"/>
				<path fill="#035B9E" d="M229.36,107.271l-2.111,2.413h3.13v1.536h-5.613v-1.419l2.955-3.395c0.406-0.47,0.555-0.812,0.555-1.293
					c0-0.65-0.269-1.024-0.834-1.024c-0.559,0-0.834,0.363-0.834,1.024v0.375h-1.973v-0.364c0-1.398,0.997-2.572,2.807-2.572
					c1.831,0,2.807,1.174,2.807,2.572C230.248,106.01,230.023,106.513,229.36,107.271z"/>
			</g>
		</g>
		<rect x="210.811" y="117.111" fill="#035B9E" width="17.356" height="65.468"/>
		<rect x="189.2" y="126.548" fill="#79CBC5" width="17.36" height="56.031"/>
	</g>
	<g>
		<g>
			<defs>
				<rect id="SVGID_1_" x="227.224" y="129.938" width="64.732" height="52.641"/>
			</defs>
			<clipPath id="SVGID_2_">
				<use xlink:href="#SVGID_1_"  overflow="visible"/>
			</clipPath>
			<g id="_x38__1_" clip-path="url(#SVGID_2_)">
				<path fill="#808496" d="M246.118,137.134c0,0,3.996,1.315,5.628,5.466C251.746,142.6,246.673,142.285,246.118,137.134z"/>
				<path fill="#31323D" d="M223.155,189.571c4.123-2.759,25.319-4.36,25.319-4.36s10.046,3.749,23.587,0.397
					c0,0,20.979,1.895,23.812,2.423c2.836,0.527,5.958,3.142,5.338,6.851l-37.49,5.148c-1.342,0.181-6.23,1.877-8.417,1.854h-31.547
					C222.197,197.818,220.519,191.336,223.155,189.571z"/>
				<path fill="#656670" d="M260.482,198.208c0,0-0.809,6.063,2.578,10.641C263.061,208.849,266.513,203.498,260.482,198.208z"/>
				<path fill="#F0F2F2" d="M296.337,194.047L296.337,194.047c-0.479-3.315-3.865-5.372-7.042-4.27l-30.144,10.48
					c-1.966,0.688-3.003,2.824-2.321,4.787c0.643,1.829,2.575,2.849,4.432,2.415l31.043-7.483
					C294.981,199.325,296.729,196.762,296.337,194.047z"/>
				<path fill="#31323D" d="M260.482,198.208c0,0,3.456,5.503,2.578,10.641c0,0,25.085-4.592,34.554-8.591
					c1.015-0.426,1.838-1.113,2.466-1.959c2.995-4.024,0.442-9.751-4.529-10.441c-1.578-0.217-3.519-0.225-5.879,0.174
					C278.582,189.903,260.482,198.208,260.482,198.208z"/>
				<path fill="#656670" d="M250.223,215.707c0,0-2.574,5.553-7.891,7.614C242.332,223.321,242.288,216.958,250.223,215.707z"/>
				<path fill="#F0F2F2" d="M225.069,196.245L225.069,196.245c2.256-2.628,6.361-2.553,8.516,0.159l16.66,21.75
					c1.298,1.623,1.022,3.984-0.609,5.271c-1.523,1.207-3.706,1.034-5.041-0.318l-19.311-20.025
					C223.452,201.198,223.365,198.237,225.069,196.245z"/>
				<path fill="#31323D" d="M250.223,215.707c0,0-5.874,2.802-7.891,7.614c0,0-17.875-15.622-20.896-22.181
					c-3.102-6.735-0.715-11.106,3.002-12.202c0,0,3.616-0.246,8.029,3.887C240.671,200.497,250.223,215.707,250.223,215.707z"/>
				<path fill="#656670" d="M260.482,198.342c-0.051,0-0.098-0.028-0.12-0.079c-0.028-0.068,0-0.145,0.065-0.174
					c0.105-0.051,10.364-4.631,22.539-8.598c0.068-0.021,0.141,0.019,0.17,0.087c0.021,0.072-0.021,0.145-0.087,0.167
					c-12.159,3.962-22.411,8.535-22.513,8.583C260.519,198.335,260.5,198.342,260.482,198.342z"/>
				<path fill="#656670" d="M265.346,208.549c-0.008,0-0.008,0-0.015,0c-0.072-0.008-0.123-0.072-0.12-0.148
					c0.639-6.37-2.527-11.057-2.557-11.106c-0.04-0.062-0.021-0.145,0.036-0.181c0.059-0.044,0.146-0.029,0.186,0.028
					c0.032,0.051,3.245,4.815,2.6,11.287C265.473,208.494,265.414,208.549,265.346,208.549z"/>
				<path fill="#656670" d="M268.072,208.014h-0.003c-0.076-0.004-0.135-0.069-0.127-0.142c0.555-7.78-2.861-11.519-2.898-11.555
					c-0.051-0.054-0.047-0.141,0.012-0.188c0.051-0.051,0.138-0.044,0.185,0.007c0.036,0.036,3.532,3.847,2.97,11.757
					C268.203,207.963,268.146,208.014,268.072,208.014z"/>
				<path fill="#656670" d="M240.497,202.022c-0.036,0-0.08-0.021-0.105-0.051c-0.043-0.058-4.398-5.61-6.647-7.719
					c-0.054-0.047-0.058-0.134-0.007-0.188c0.051-0.055,0.134-0.055,0.188-0.004c2.263,2.118,6.633,7.689,6.68,7.744
					c0.044,0.058,0.029,0.141-0.021,0.188C240.555,202.008,240.525,202.022,240.497,202.022z"/>
				<path fill="#656670" d="M240.497,221.82c-0.015,0-0.029,0-0.044-0.007c-0.072-0.025-0.104-0.102-0.079-0.17
					c0.018-0.047,1.878-4.964,8.521-8.026c0.065-0.029,0.146-0.004,0.174,0.065c0.033,0.068,0,0.145-0.064,0.173
					c-6.543,3.02-8.363,7.831-8.381,7.878C240.605,221.788,240.551,221.82,240.497,221.82z"/>
				<path fill="#656670" d="M238.313,219.836c-0.018,0-0.032-0.004-0.051-0.011c-0.065-0.029-0.098-0.108-0.068-0.174
					c0.021-0.055,2.44-5.727,9.2-8.294c0.068-0.025,0.145,0.008,0.174,0.08c0.029,0.064-0.007,0.141-0.08,0.166
					c-6.65,2.53-9.029,8.095-9.052,8.149C238.415,219.803,238.368,219.836,238.313,219.836z"/>
				<path fill="#F0F2F2" d="M243.354,221.784c0,0,2.281,7.289,3.137,9.928c0.853,2.64,2.702,0.709,3.21-1.934
					c0.348-1.805,1.2-5.098,2.197-6.093c0.994-0.99,1.683-2.306,1.124-3.752c-0.696-1.797-3.608-3.022-3.608-3.022
					S246.669,219.97,243.354,221.784z"/>
				<path fill="#414F81" d="M254.307,219.369c0.159,0.152,0.29,0.333,0.381,0.528c0.229,0.487,0.231,1.059-0.048,1.555
					l-6.342,11.345c-0.316,0.564-0.882,0.81-1.44,0.781c-0.167-0.008-0.333-0.044-0.497-0.102c-0.485-0.174-0.896-0.571-1.029-1.157
					l-0.548-2.364l-0.942-6.634c3.735-2.145,5.505-6.505,5.505-6.505l2.546,1.266l1.95,0.969
					C254.02,219.131,254.176,219.239,254.307,219.369z"/>
				<path fill="#616A97" d="M246.321,233.581c0.485,0.178,1.116,0.156,1.609-0.206c0.175-0.123,0.334-0.296,0.465-0.521v-0.007
					l6.346-11.338c0.102-0.181,0.167-0.38,0.196-0.579c0.102-0.585-0.095-1.207-0.555-1.641c0,0-0.011-0.008-0.04-0.025
					c-0.015-0.008-0.036-0.011-0.059-0.008c-0.021,0.004-0.043,0.019-0.058,0.04c-0.015,0-0.018,0.007-0.021,0.019l-1.701,3.022
					l-2.049,3.637l-1.806,3.203l-2.39,4.244c-0.004,0.004-0.004,0.008-0.004,0.008c-0.011,0.032-0.015,0.062-0.004,0.083
					C246.267,233.545,246.292,233.57,246.321,233.581z"/>
				<path fill="#616A97" d="M244.783,229.955c0,0,0.044,3.131,1.538,3.626l2.407-4.371
					C248.729,229.21,246.575,228.339,244.783,229.955z"/>
				<path fill="#616A97" d="M251.892,218.082c0,0-1.233,2.574,0.616,4.256l1.875-3.048
					C254.383,219.29,253.53,218.751,251.892,218.082z"/>
				<path fill="#F79E84" d="M258.753,184.145l-0.954,0.278c-5.704-0.423-9.545,0.21-9.121-5.481l1.176-15.77
					c0.428-5.688,6.092-9.675,11.101-9.53l0.373,0.028c4.766,0.354,9.987,5.376,9.566,11.063l-1.182,15.771
					C269.291,186.194,264.457,184.567,258.753,184.145z"/>
				<polygon fill="#FBDACC" points="264.758,146.809 264.04,156.461 257.86,156.006 258.578,146.353 				"/>
				<path fill="#FCCDB9" d="M263.249,151.552c-2.698,1.121-5.105,0.672-5.105,0.672l0.138-1.872L263.249,151.552z"/>
				<path fill="#443129" d="M255.551,141.335c0,0-0.81-1.722-0.2-3.464l1.944,0.51C257.295,138.381,256.091,139.693,255.551,141.335
					z"/>
				<path fill="#FBDACC" d="M260.269,151.652L260.269,151.652c-3.54-0.646-5.883-4.034-5.229-7.56l0.616-3.315
					c0.653-3.524,4.047-5.856,7.583-5.209l0,0c3.536,0.65,5.879,4.038,5.226,7.566l-0.612,3.312
					C267.202,149.976,263.804,152.304,260.269,151.652z"/>
				<circle fill="#FBDACC" cx="268.598" cy="145.263" r="1.729"/>
				<path fill="#FBDACC" d="M256.942,143.345c-0.177,0.937-1.076,1.551-2.02,1.381c-0.936-0.174-1.556-1.07-1.385-2.01
					c0.174-0.933,1.073-1.555,2.013-1.381C256.489,141.508,257.113,142.404,256.942,143.345z"/>
				<path fill="#443129" d="M262.836,143.124c-0.08,0.416,0.058,0.796,0.297,0.843c0.247,0.043,0.508-0.261,0.588-0.68
					c0.072-0.42-0.062-0.799-0.305-0.843C263.173,142.397,262.912,142.705,262.836,143.124z"/>
				<path fill="#443129" d="M258.97,142.412c-0.079,0.423,0.059,0.799,0.298,0.846c0.246,0.043,0.508-0.26,0.58-0.68
					c0.08-0.419-0.055-0.795-0.297-0.846C259.304,141.692,259.046,141.992,258.97,142.412z"/>
				<path fill="#443129" d="M252.769,135.983c1.498-2.133,3.779-1.128,5.454-2.473c1.237-0.99,4.95-2.277,7.253-1.081
					c1.828,0.951,2.408,2.549,2.557,3.821c0.918,0.521,1.872,1.461,2.035,3.16c0.195,1.996-1.676,4.14-1.676,4.14
					s-1.886-0.943-2.517-3.103c-0.334-1.146-0.436-2.035-0.413-2.722c-0.998-0.145-2.101-0.253-2.945-0.203
					c-3.014,0.159-3.285,2.115-6.346,2.459C252.624,140.38,251.731,137.463,252.769,135.983z"/>
				<path fill="#42A447" d="M258.02,153.837c0,0-7.01,1.128-9.937,9.212c-4.583,12.661-3.619,22.097-3.619,22.097
					c0.211,1.58,7.659,3.283,12.766,3.659c6.611,0.491,15.094-1.229,17.613-2.965c0,0-0.809-3.084-1.236-10.007
					c-0.58-9.443,0.472-17.51-9.407-21.534C264.199,154.299,259.09,157.333,258.02,153.837z"/>
				<path fill="#443129" d="M260.779,145.691c0.04,0.003,0.076-0.022,0.095-0.059c0.025-0.05,0-0.108-0.051-0.134
					c-0.222-0.101-0.664-0.383-0.602-0.574c0.083-0.271,0.765-1.429,1.019-1.848c0.029-0.051,0.015-0.108-0.036-0.138
					c-0.047-0.028-0.109-0.015-0.138,0.033c-0.036,0.062-0.929,1.543-1.041,1.891c-0.127,0.419,0.627,0.781,0.715,0.82
					C260.754,145.688,260.762,145.691,260.779,145.691z"/>
				<path fill="#443129" d="M260.551,140.312c-0.018,0.011-0.043,0.021-0.058,0.04c-0.754,0.708-1.951,0.68-1.958,0.676
					c-0.095-0.004-0.175,0.072-0.178,0.162c-0.004,0.095,0.068,0.174,0.163,0.178c0.058,0,1.349,0.04,2.205-0.771
					c0.065-0.064,0.072-0.173,0.007-0.238C260.682,140.304,260.613,140.293,260.551,140.312z"/>
				<path fill="#443129" d="M262.724,140.807c-0.047-0.019-0.098-0.015-0.142,0.007c-0.087,0.051-0.116,0.152-0.069,0.231
					c0.025,0.047,0.649,1.14,1.894,1.533c0.091,0.029,0.185-0.021,0.214-0.108s-0.021-0.188-0.108-0.21
					c-1.11-0.357-1.697-1.37-1.701-1.381C262.789,140.847,262.76,140.821,262.724,140.807z"/>
				<path fill="#808496" d="M279.373,193.324c0,0,3.274,1.583,7.535-0.358C286.908,192.966,283.26,190.735,279.373,193.324z"/>
				<path fill="#F79E84" d="M282.44,194.018c0,0-1.211,2.488-0.663,4.704c0.544,2.216,1.262,2.961,2.143,3.366
					c0.885,0.404,2.173-3.521,1.9-5.019C285.552,195.572,284.642,193.971,282.44,194.018z"/>
				<path fill="#F79E84" d="M281.795,194.835c-0.79,1.476-1.295,3.103-1.45,4.766c-0.008,0.209-0.04,0.553-0.029,0.767
					c-0.043,0.419,0.072,0.982,0.609,0.965c0.486,0.004,0.616-0.488,0.631-0.879c0.269-1.615,0.986-3.159,1.958-4.469
					C284.631,194.777,282.513,193.36,281.795,194.835z"/>
				<path fill="#F79E84" d="M281.766,198.754c0.24,1.718,0.152,3.5-0.29,5.178c-0.174,0.625,0.776,0.951,1.03,0.361
					c0.305-0.658,0.555-1.353,0.754-2.05c0.33-1.233,0.556-2.506,0.559-3.782C283.768,196.921,281.386,197.25,281.766,198.754z"/>
				<path fill="#F79E84" d="M282.47,199.484c0.297,1.121,0.398,2.3,0.352,3.456c0.127,0.688-0.678,2.003,0.229,2.271
					c0.936,0.178,1.189-2.462,1.353-3.142c0.142-1.045,0.207-2.115,0.069-3.171C284.225,197.33,281.835,198.024,282.47,199.484z"/>
				<path fill="#F79E84" d="M283.318,199.528c0.686,1.547,0.921,3.318,0.602,4.985c-0.116,0.637,0.856,0.886,1.06,0.278
					c0.261-0.701,0.445-1.438,0.529-2.184c0.138-1.381,0.068-2.81-0.363-4.14C284.559,196.834,282.187,198.197,283.318,199.528z"/>
				<path fill="#F79E84" d="M284.058,197.358c0.893,1.516,1.43,3.275,1.451,5.033c0.174,0.701-0.66,2.198,0.218,2.437
					c1.211,0.159,1.218-3.572,1.153-4.414c-0.124-1.443-0.457-2.878-1.089-4.19C285.088,194.864,283.086,196.166,284.058,197.358z"
					/>
				<path fill="#B15B47" d="M283.043,202.048c0.015-0.408,0.007-0.85-0.059-1.247c-0.007-0.058-0.058-0.094-0.116-0.087
					c-0.054,0.011-0.094,0.062-0.087,0.115c0.192,1.197-0.119,2.791-0.123,2.806c-0.015,0.055,0.021,0.108,0.08,0.116
					c0.058,0.011,0.108-0.025,0.119-0.08C282.868,203.628,283.01,202.897,283.043,202.048z"/>
				<path fill="#B15B47" d="M284.232,202.5c0.015-0.391,0.015-0.811-0.029-1.172c-0.007-0.058-0.051-0.101-0.108-0.094
					c-0.059,0.007-0.095,0.058-0.088,0.115c0.105,0.962-0.079,2.43-0.087,2.444c-0.007,0.058,0.036,0.108,0.091,0.116
					c0.055,0.007,0.105-0.033,0.112-0.087C284.131,203.783,284.203,203.187,284.232,202.5z"/>
				<path fill="#B15B47" d="M285.57,202.702L285.57,202.702c0-0.051,0.011-1.121-0.171-1.916c-0.014-0.051-0.064-0.087-0.123-0.072
					c-0.051,0.011-0.087,0.065-0.072,0.119c0.174,0.771,0.159,1.854,0.159,1.862c0,0.058,0.051,0.104,0.102,0.104
					C285.523,202.8,285.566,202.757,285.57,202.702z"/>
				<path fill="#F79E84" d="M285.893,195.793l-0.377-20.019c-0.011-0.578-0.195-1.167-0.569-1.677l-0.155-0.21l-8.776-11.559
					c-0.025-0.032-3.873-4.559-3.895-4.588c-1.386-1.746-3.921-2.043-5.672-0.665c-1.748,1.374-2.046,3.904-0.668,5.647
					l12.715,14.815l2.64,18.634c0.167,1.179,1.189,2.075,2.412,2.05C284.863,198.197,285.918,197.113,285.893,195.793z"/>
				<path fill="#42A447" d="M265.719,154.455c0,0,4.163,0.354,7.837,3.174c4.845,3.721,12.631,12.448,13.632,17.126
					c1.005,4.686-0.279,18.211-0.279,18.211s-3.801-1.24-7.535,0.358l-2.518-14.932c0,0-11.488-12.593-13.186-17.166
					C261.973,156.656,265.719,154.455,265.719,154.455z"/>
				<path fill="#808496" d="M279.141,192.073c0.015,0,0.036,0,0.055-0.011c4.104-2.147,7.764-0.539,7.8-0.521
					c0.055,0.018,0.116,0,0.146-0.055c0.025-0.058,0-0.123-0.055-0.148c-0.04-0.018-3.789-1.67-7.996,0.528
					c-0.051,0.025-0.072,0.09-0.044,0.148C279.064,192.052,279.101,192.073,279.141,192.073z"/>
				<path fill="#808496" d="M278.843,190.309c0.019,0,0.037,0,0.059-0.015c3.771-2.147,8.185-0.484,8.231-0.47
					c0.055,0.021,0.12-0.007,0.139-0.062c0.025-0.058-0.004-0.119-0.059-0.141c-0.047-0.019-4.555-1.722-8.424,0.484
					c-0.055,0.028-0.069,0.094-0.04,0.151C278.771,190.291,278.807,190.309,278.843,190.309z"/>
				<path fill="#FBDACC" d="M256.591,155.637l-15.318-4.331l12.406-12.271c1.03-1.026,1.113-2.697,0.149-3.811
					c-1.009-1.175-2.785-1.309-3.961-0.3l-18.089,15.51c-0.493,0.423-0.877,0.987-1.084,1.645c-0.595,1.884,0.464,3.891,2.354,4.477
					l0.167,0.05l21.124,6.569c0.025,0.011,0.076,0.022,0.098,0.033c2.101,0.589,4.279-0.626,4.874-2.716
					C259.905,158.399,258.688,156.227,256.591,155.637z"/>
				<path fill="#FBDACC" d="M252.207,139.552c0,0,3.405-2.545,4.148-4.877c0,0-2.093-1.533-3.725-2.733c0,0-2.959-0.134-4.352,5.087
					C247.854,138.623,250.027,138.608,252.207,139.552z"/>
				<path fill="#FBDACC" d="M252.116,140.322c0.997-0.456,5.773-3.479,4.714-4.754c-0.783-0.571-1.218,0.943-2.887,1.504
					c-1.139,0.383-3.169,0.025-3.01,1.674C251.043,139.477,251.456,140.647,252.116,140.322z"/>
				<path fill="#D4B9AE" d="M254.045,137.134c-0.036-0.008-0.064-0.033-0.079-0.065c-0.022-0.058,0.007-0.116,0.062-0.138
					c0.794-0.296,1.56-1.056,1.566-1.063c0.044-0.04,0.108-0.044,0.148,0c0.04,0.043,0.04,0.108,0,0.145
					c-0.032,0.036-0.812,0.803-1.646,1.113C254.082,137.134,254.06,137.134,254.045,137.134z"/>
				<path fill="#FBDACC" d="M253.513,132.477c0.271-0.195,0.656-0.17,0.896,0.072c0.134,0.138,0.195,0.312,0.188,0.478
					c0.25-0.102,0.551-0.047,0.747,0.155c0.138,0.142,0.195,0.329,0.182,0.51c0.257-0.115,0.569-0.068,0.775,0.145
					c0.254,0.261,0.247,0.673-0.025,0.922l-1.443,1.32c-0.275,0.253-0.703,0.238-0.961-0.022c-0.138-0.145-0.195-0.332-0.181-0.513
					c-0.254,0.115-0.573,0.068-0.776-0.138l0,0c-0.131-0.138-0.192-0.311-0.182-0.478c-0.254,0.102-0.551,0.047-0.754-0.159
					c-0.102-0.101-0.16-0.231-0.175-0.361c-0.271,0.195-0.659,0.174-0.898-0.072c-0.262-0.264-0.247-0.68,0.021-0.926l1.447-1.323
					c0.271-0.245,0.699-0.234,0.961,0.029C253.437,132.22,253.494,132.347,253.513,132.477z"/>
				<path fill="#D4B9AE" d="M253.552,132.574c-0.529,1.113-1.378,1.754-1.621,1.92c0.019,0.068,0.055,0.123,0.127,0.191
					c0.294,0.264,0.581,0.155,0.617,0.142c0.087-0.062,1.131-0.788,1.824-1.862c0.032-0.055,0.104-0.068,0.155-0.032
					c0.055,0.028,0.073,0.101,0.036,0.155c-0.663,1.034-1.617,1.739-1.849,1.898c0.007,0.122,0.064,0.245,0.155,0.336
					c0.171,0.174,0.432,0.213,0.643,0.119c0.151-0.102,1.276-0.886,1.784-1.808c0.036-0.058,0.102-0.076,0.159-0.044
					c0.055,0.029,0.072,0.098,0.043,0.152c-0.442,0.792-1.272,1.461-1.664,1.75c-0.004,0.007-0.004,0.015-0.011,0.021
					c-0.047,0.036-0.095,0.072-0.146,0.102c0,0.13,0.051,0.26,0.149,0.361c0.235,0.238,0.583,0.231,0.888-0.021
					c0.008-0.008,1.092-0.998,1.35-1.272c0.043-0.051,0.116-0.051,0.163-0.008c0.044,0.044,0.047,0.116,0.004,0.159
					c-0.265,0.282-1.32,1.251-1.371,1.294c-0.392,0.333-0.878,0.333-1.197,0.004c-0.123-0.119-0.188-0.271-0.21-0.438
					c-0.265,0.058-0.551-0.007-0.747-0.21c-0.112-0.115-0.182-0.26-0.207-0.412c-0.17,0.033-0.445,0.029-0.729-0.22
					c-0.072-0.076-0.134-0.156-0.167-0.25c-0.261,0.08-0.646,0.08-0.906-0.188c-0.148-0.148-0.225-0.348-0.222-0.55
					c0.004-0.094,0.022-0.188,0.062-0.275c0.04-0.097,0.105-0.188,0.186-0.264l0.896-0.816c0.044-0.044,0.116-0.04,0.163,0.003
					c0.04,0.051,0.036,0.123-0.011,0.167l-0.892,0.813c-0.109,0.101-0.171,0.234-0.175,0.379c-0.003,0.142,0.051,0.282,0.152,0.384
					c0.214,0.217,0.588,0.188,0.762,0.09c0.036-0.021,1.022-0.661,1.603-1.869c0.025-0.058,0.095-0.083,0.152-0.051
					C253.56,132.448,253.581,132.517,253.552,132.574z"/>
				<path fill="#42A447" d="M258.02,153.837c0,0-5.537-1.508-14.737-2.914l8.464-8.323c0,0-3.518-1.294-5.628-5.466
					c0,0-16.279,10.875-16.461,16.428c-0.185,5.561,21.313,12.228,21.313,12.228s8.073-1.898,8.628-4.158
					C260.152,159.364,258.02,153.837,258.02,153.837z"/>
				<path fill="#443129" d="M260.275,146.964c-0.021,0-0.043-0.008-0.062-0.025c-0.043-0.032-0.047-0.094-0.015-0.138
					c0.025-0.028,0.605-0.716,2.049-0.55c0.059,0.008,0.099,0.059,0.095,0.112c-0.008,0.055-0.059,0.094-0.116,0.091
					c-1.327-0.159-1.864,0.47-1.871,0.477C260.334,146.953,260.305,146.964,260.275,146.964z"/>
				<path fill="#F0F2F2" d="M263.061,207.005c0,0-5.664,5.228-7.753,7.057c-2.089,1.826-2.677-0.777-1.763-3.304
					c0.635-1.732,1.596-4.989,1.255-6.353c-0.345-1.363-0.258-2.838,0.965-3.8c1.522-1.186,4.652-0.745,4.652-0.745
					S261.153,203.754,263.061,207.005z"/>
				<path fill="#414F81" d="M254.952,199.463c-0.218,0.051-0.417,0.145-0.599,0.264c-0.446,0.301-0.743,0.792-0.762,1.359
					l-0.388,12.976c-0.021,0.647,0.337,1.15,0.83,1.406c0.149,0.087,0.315,0.142,0.482,0.174c0.504,0.094,1.06-0.04,1.479-0.474
					l1.68-1.742l4.293-5.412c-2.629-2.875-1.186-8.323-1.186-8.323l-3.093-0.098l-2.177-0.166
					C255.322,199.408,255.133,199.42,254.952,199.463z"/>
				<path fill="#616A97" d="M254.582,215.725c0.025-0.014,0.04-0.039,0.044-0.064c0-0.008,0-0.011,0-0.011l0.134-4.87l0.098-3.674
					l0.116-4.172l0.095-3.464c0-0.011,0-0.018-0.008-0.025c-0.003-0.024-0.015-0.047-0.036-0.064
					c-0.015-0.011-0.029-0.019-0.051-0.025c-0.029,0.004-0.043,0.004-0.043,0.004c-0.617,0.141-1.11,0.574-1.324,1.124
					c-0.076,0.188-0.119,0.391-0.127,0.597l-0.388,12.982v0.004c-0.008,0.257,0.04,0.488,0.123,0.684
					c0.235,0.563,0.772,0.903,1.28,0.998C254.524,215.758,254.561,215.747,254.582,215.725z"/>
				<path fill="#616A97" d="M257.676,213.426c0,0-1.644,2.661-3.181,2.321l0.185-4.982
					C254.68,210.765,256.972,211.119,257.676,213.426z"/>
				<path fill="#616A97" d="M257.69,199.593c0,0-0.266,2.846-2.717,3.341l-0.043-3.575
					C254.931,199.358,255.935,199.333,257.69,199.593z"/>
				<path fill="#F0F2F2" d="M258.1,152.824l-2.096,0.514l2.066,4.136l1.792-1.266l1.276,1.663l4.58-3.416l-1.446-1.117
					c0,0-2.249,2.067-4.266,1.797C258.209,154.893,258.1,152.824,258.1,152.824z"/>
				<path fill="#808496" d="M257.998,186.795c-7.543,0-13.606-3.037-13.668-3.073c-0.058-0.025-0.083-0.102-0.055-0.159
					c0.033-0.058,0.102-0.083,0.163-0.051c0.062,0.029,6.074,3.044,13.56,3.044c7.431,0,14.484-1.981,16.186-3.037
					c0.054-0.036,0.126-0.021,0.163,0.036c0.036,0.055,0.018,0.131-0.037,0.163C272.591,184.792,265.476,186.795,257.998,186.795z"
					/>
			</g>
		</g>
		<path fill="#F15C40" d="M279.133,135.521c0-0.158-0.101-0.296-0.246-0.347l-2.974-1.013l2.415-2.556
			c0.108-0.112,0.131-0.278,0.062-0.419c-0.068-0.138-0.221-0.218-0.373-0.199l-3.271,0.383l0.863-3.568
			c0.043-0.155-0.025-0.314-0.159-0.401c-0.004,0-0.008,0-0.008,0c-0.138-0.079-0.305-0.064-0.428,0.033l-2.865,2.411l-0.783-2.697
			c-0.04-0.145-0.17-0.249-0.319-0.264c-0.155-0.011-0.305,0.068-0.369,0.213l-1.016,2.162l-1.951-2.545
			c-0.098-0.13-0.269-0.181-0.421-0.123c-0.145,0.051-0.246,0.195-0.243,0.354l0.105,3.424c0.007,0.206,0.178,0.365,0.381,0.357
			c0.203-0.007,0.366-0.177,0.359-0.379l-0.069-2.274l1.621,2.115c0.076,0.101,0.203,0.155,0.334,0.145
			c0.127-0.019,0.239-0.094,0.293-0.214l0.86-1.822l0.667,2.3c0.032,0.119,0.123,0.217,0.246,0.25
			c0.116,0.036,0.251,0.011,0.345-0.069l2.44-2.054l-0.725,2.986c-0.033,0.12,0,0.242,0.079,0.333c0.08,0.087,0.2,0.134,0.319,0.123
			l2.789-0.329l-2.114,2.234c-0.087,0.09-0.12,0.221-0.087,0.344c0.028,0.119,0.116,0.217,0.239,0.26l2.491,0.846l-3.235,1.1
			c-0.104,0.04-0.191,0.123-0.228,0.231c-0.037,0.108-0.022,0.224,0.036,0.318l1.063,1.634l-1.868-0.419
			c-0.195-0.048-0.396,0.079-0.438,0.274c-0.04,0.166,0.04,0.325,0.174,0.401c0.033,0.018,0.069,0.032,0.105,0.043l2.749,0.618
			c0.145,0.029,0.297-0.028,0.384-0.147c0.087-0.123,0.087-0.286,0.008-0.412l-1.299-1.992l3.812-1.298
			C279.032,135.817,279.133,135.68,279.133,135.521z"/>
	</g>
	<g>
		<g>
			<defs>
				<rect id="SVGID_3_" x="15.866" y="132.028" width="52.344" height="50.551"/>
			</defs>
			<clipPath id="SVGID_4_">
				<use xlink:href="#SVGID_3_"  overflow="visible"/>
			</clipPath>
			<g clip-path="url(#SVGID_4_)">
				<path fill="#443129" d="M54.419,134.87c0,0-3.162-0.455-7.598,1.692c-3.213,1.555-15.63,9.935-17.98,18.214
					c-1.911,6.718,5.143,7.954,9.044,10.919c6.48,4.917,8.522,1.934,13.513-0.701c4.989-2.64,1.639-11.353,6.73-14.859
					c0,0,2.676-4.83,1.029-7.716C57.505,139.534,54.419,134.87,54.419,134.87z"/>
				<path fill="#F99B1F" d="M42.901,174.311c-7.938-2.766,5.262-19.672,5.262-19.672s5.273,0.282,9.096,7.835
					C57.259,162.474,50.843,177.072,42.901,174.311z"/>
				<path fill="#9A7343" d="M50.209,157.238c0,0,2.106-1.659,6.763-1.54C56.972,155.698,54.854,158.935,50.209,157.238z"/>
				<path fill="#FBDACC" d="M57.748,175.948c-0.99,0-1.89-0.673-2.136-1.67l-4.929-19.936c-0.29-1.179,0.432-2.368,1.614-2.661
					c1.182-0.289,2.375,0.434,2.665,1.609l4.925,19.938c0.294,1.175-0.432,2.361-1.614,2.653
					C58.1,175.927,57.922,175.948,57.748,175.948z"/>
				<polygon fill="#FBDACC" points="46.938,144.906 41.839,153.121 47.094,156.363 52.196,148.149 				"/>
				<path fill="#FCCDB9" d="M45.132,150.214c0,0,0.229,3.029,3.278,4.027l1.457-2.343L45.132,150.214z"/>
				<path fill="#FBDACC" d="M46.684,152.108L46.684,152.108c2.756,2.292,6.857,1.927,9.16-0.817l2.162-2.581
					c2.299-2.744,1.937-6.833-0.82-9.125l0,0c-2.752-2.296-6.851-1.931-9.153,0.816l-2.161,2.574
					C43.564,145.724,43.935,149.813,46.684,152.108z"/>
				<path fill="#FBDACC" d="M25.044,183.96c4.856,2.993,12.892,6.125,15.126-1.688c1.146-4.01,3.002-9.201,7.58-14.87
					c2.676-3.326,1.066-9.726,0.413-12.763l-2.495-2.19c-4.787-2.849-10.031,0.427-12.519,5.554
					c-3.209,6.602-8.326,9.06-10.56,12.335C17.926,177.156,25.044,183.96,25.044,183.96z"/>
				<path fill="#F79E84" d="M42.934,232.283c-0.275,0-0.559-0.028-0.841-0.087c-2.278-0.462-3.75-2.679-3.29-4.953l7.061-34.7
					l-16.116,0.582c-2.332,0.083-4.283-1.729-4.366-4.046c-0.087-2.32,1.733-4.266,4.062-4.353l21.462-0.773
					c1.291-0.044,2.531,0.499,3.365,1.479c0.834,0.987,1.175,2.296,0.913,3.554l-8.123,39.933
					C46.658,230.909,44.899,232.283,42.934,232.283z"/>
				<path fill="#414F81" d="M38.48,232.425c0.055,0.198,0.142,0.379,0.254,0.542c0.287,0.401,0.747,0.661,1.269,0.661l11.931,0.036
					c0.591,0,1.045-0.343,1.27-0.795c0.072-0.145,0.116-0.289,0.145-0.448c0.076-0.463-0.058-0.966-0.468-1.334l-1.646-1.497
					l-1.77-1.605c-5.522,0.828-10.803-0.654-10.803-0.654l-0.13,2.596l-0.102,1.989C38.419,232.096,38.437,232.262,38.48,232.425z"
					/>
				<path fill="#414F81" d="M50.455,228.885c0,0-2.495-2.285-3.238-2.831s-2.604,0.134-2.404,0.894
					c0.203,0.752,1.49,1.959,1.49,1.959L50.455,228.885z"/>
				<path fill="#616A97" d="M53.425,232.355c-0.014-0.021-0.039-0.028-0.062-0.032c-0.007,0-0.011-0.004-0.015-0.004l-4.471,0.004
					h-3.377h-3.836H38.48c-0.007,0-0.015,0-0.021,0.004c-0.025,0.003-0.044,0.015-0.058,0.036c-0.011,0.015-0.018,0.036-0.022,0.047
					c0,0.028,0.004,0.04,0.004,0.04c0.145,0.563,0.555,0.997,1.07,1.182c0.17,0.065,0.355,0.098,0.551,0.102l11.931,0.028h0.004
					c0.235,0,0.446-0.047,0.627-0.13c0.508-0.228,0.806-0.723,0.885-1.193C53.45,232.41,53.447,232.385,53.425,232.355z"/>
				<path fill="#FFFFFF" d="M48.58,230.324c0.036,0,0.072-0.022,0.091-0.051c0.544-1.07,1.788-1.287,1.799-1.287
					c0.058-0.015,0.094-0.065,0.087-0.119c-0.011-0.055-0.065-0.098-0.12-0.083c-0.054,0.007-1.355,0.234-1.95,1.396
					c-0.025,0.05-0.004,0.108,0.047,0.137C48.548,230.32,48.563,230.324,48.58,230.324z"/>
				<path fill="#FFFFFF" d="M47.706,229.521c0.04,0,0.072-0.021,0.095-0.058c0.544-1.063,1.788-1.284,1.799-1.287
					c0.058-0.008,0.094-0.059,0.087-0.116c-0.011-0.058-0.065-0.09-0.116-0.083c-0.058,0.007-1.363,0.235-1.955,1.396
					c-0.025,0.047-0.003,0.112,0.048,0.138C47.677,229.518,47.691,229.521,47.706,229.521z"/>
				<path fill="#FFFFFF" d="M46.872,228.77c0.04,0,0.076-0.019,0.095-0.051c0.544-1.066,1.787-1.287,1.799-1.287
					c0.058-0.015,0.094-0.065,0.083-0.123c-0.007-0.051-0.062-0.087-0.112-0.079c-0.059,0.011-1.36,0.231-1.951,1.396
					c-0.029,0.051-0.007,0.111,0.044,0.137C46.843,228.77,46.854,228.77,46.872,228.77z"/>
				<path fill="#616A97" d="M51.234,229.59c0,0,2.488,1.436,2.216,2.849l-4.583-0.039C48.867,232.399,49.135,230.295,51.234,229.59z
					"/>
				<path fill="#616A97" d="M38.531,229.926c0,0,2.618,0.174,3.134,2.397l-3.282,0.127C38.383,232.45,38.335,231.531,38.531,229.926
					z"/>
				<path fill="#F0F2F2" d="M37.56,178.193c0,0,14.952,6.353,18.477,13.139c3.231,6.226-5.371,31.49-5.371,31.49
					s-6.02,2.443-13.635,0l3.699-25.008c0,0-8.174-0.817-15.155-3.634c-9.672-3.904-5.69-15.987-5.69-15.987
					s4.66,2.487,11.054,1.587C32.783,179.521,37.56,178.193,37.56,178.193z"/>
				<path fill="#F79E84" d="M59.804,231.539c-2.255,0-4.127-1.779-4.21-4.05L54.4,194.083l-18.132-5.51
					c-2.227-0.676-3.481-3.022-2.807-5.242c0.682-2.22,3.036-3.471,5.266-2.791l21.008,6.381c1.723,0.521,2.919,2.079,2.98,3.868
					l1.303,36.404c0.083,2.317-1.733,4.262-4.063,4.346C59.905,231.539,59.854,231.539,59.804,231.539z"/>
				<path fill="#414F81" d="M55.344,232.425c0.051,0.198,0.138,0.379,0.254,0.542c0.282,0.401,0.747,0.661,1.266,0.661l11.928,0.036
					c0.595,0,1.048-0.343,1.276-0.795c0.068-0.145,0.116-0.289,0.145-0.448c0.073-0.463-0.058-0.966-0.472-1.334l-1.646-1.497
					l-1.771-1.605c-5.52,0.828-10.799-0.654-10.799-0.654l-0.135,2.596l-0.098,1.989C55.282,232.096,55.3,232.262,55.344,232.425z"
					/>
				<path fill="#414F81" d="M67.314,228.885c0,0-2.495-2.285-3.238-2.831c-0.74-0.546-2.604,0.134-2.4,0.894
					c0.203,0.752,1.486,1.959,1.486,1.959L67.314,228.885z"/>
				<path fill="#616A97" d="M70.288,232.355c-0.018-0.021-0.04-0.028-0.065-0.032c-0.003,0-0.011-0.004-0.011-0.004l-4.475,0.004
					H62.36h-3.833h-3.184c-0.008,0-0.015,0-0.021,0.004c-0.025,0.003-0.044,0.015-0.059,0.036c-0.015,0.015-0.021,0.036-0.021,0.047
					c0,0.028,0,0.04,0,0.04c0.145,0.563,0.555,0.997,1.066,1.182c0.174,0.065,0.362,0.098,0.555,0.102l11.928,0.028h0.007
					c0.235,0,0.449-0.047,0.631-0.13c0.508-0.228,0.806-0.723,0.878-1.193C70.313,232.41,70.307,232.385,70.288,232.355z"/>
				<path fill="#FFFFFF" d="M65.439,230.324c0.036,0,0.073-0.022,0.091-0.051c0.548-1.07,1.788-1.287,1.803-1.287
					c0.054-0.015,0.094-0.065,0.083-0.119c-0.011-0.055-0.062-0.098-0.119-0.083c-0.051,0.007-1.356,0.234-1.948,1.396
					c-0.028,0.05-0.007,0.108,0.044,0.137C65.407,230.32,65.425,230.324,65.439,230.324z"/>
				<path fill="#FFFFFF" d="M64.569,229.521c0.036,0,0.072-0.021,0.091-0.058c0.548-1.063,1.788-1.284,1.802-1.287
					c0.055-0.008,0.095-0.059,0.08-0.116c-0.007-0.058-0.058-0.09-0.116-0.083c-0.054,0.007-1.356,0.235-1.951,1.396
					c-0.025,0.047-0.003,0.112,0.048,0.138C64.537,229.518,64.555,229.521,64.569,229.521z"/>
				<path fill="#FFFFFF" d="M63.735,228.77c0.036,0,0.072-0.019,0.091-0.051c0.547-1.066,1.788-1.287,1.802-1.287
					c0.055-0.015,0.095-0.065,0.08-0.123c-0.007-0.051-0.058-0.087-0.112-0.079c-0.058,0.011-1.36,0.231-1.955,1.396
					c-0.021,0.051-0.003,0.111,0.048,0.137C63.702,228.77,63.721,228.77,63.735,228.77z"/>
				<path fill="#616A97" d="M68.095,229.59c0,0,2.487,1.436,2.212,2.849l-4.58-0.039C65.727,232.399,65.994,230.295,68.095,229.59z"
					/>
				<path fill="#616A97" d="M55.391,229.926c0,0,2.622,0.174,3.137,2.397l-3.285,0.127C55.242,232.45,55.195,231.531,55.391,229.926
					z"/>
				<path fill="#F37821" d="M37.792,177.633c0,0,18.865,2.256,24.797,10.521c4.516,6.276,4.74,34.668,4.74,34.668
					s-6.017,2.443-13.636,0l-1.933-24.907c0,0-10.241-0.477-17.371-2.892c-11.521-3.901-13.454-15.839-13.454-15.839L37.792,177.633
					z"/>
				<path fill="#422315" d="M51.558,144.787c-0.312,0.369-0.718,0.539-0.906,0.38c-0.189-0.155-0.095-0.586,0.217-0.955
					c0.315-0.372,0.719-0.542,0.91-0.383C51.968,143.984,51.869,144.415,51.558,144.787z"/>
				<path fill="#422315" d="M54.567,147.293c-0.312,0.372-0.718,0.542-0.906,0.387s-0.095-0.59,0.221-0.958
					c0.309-0.369,0.715-0.543,0.907-0.384C54.974,146.497,54.88,146.924,54.567,147.293z"/>
				<path fill="#F37821" d="M48.163,154.639c0,0,1.465,2.589,1.894,7.521c0.13,1.493,0.395,5.495-0.639,7.166
					c-1.124,1.808-1.53,1.143-3.564,4.425c-2.021,3.254,2.767,4.057,0.279,5.561c-4.294,2.604-25.197,4.639-26.756,1.041
					c-2.372-5.474,3.659-20.372,12.359-26.442c3.793-2.646,8.493-2.922,11.17-2.517c0,0,1.342,3.963,3.209,4.985
					C48.032,157.431,48.163,154.639,48.163,154.639z"/>
				<path fill="#FBDACC" d="M45.16,140.607c-0.616,0.734-0.519,1.819,0.214,2.427c0.729,0.61,1.821,0.513,2.434-0.218
					c0.609-0.729,0.516-1.814-0.218-2.422C46.854,139.783,45.77,139.881,45.16,140.607z"/>
				<path fill="#443129" d="M59.949,140.282c0,0,2.887,1.276,2.513,4.729c-0.322,3.019-2.69,4.482-5.203,5.561
					C57.259,150.572,57.904,143.771,59.949,140.282z"/>
				<path fill="#B15B47" d="M55.88,151.219c-0.021-0.036-0.018-0.076,0.008-0.108c0.421-0.514,0.841-0.329,1.124-0.206
					c0.123,0.055,0.239,0.105,0.312,0.076c0.037-0.015,0.073-0.058,0.102-0.13c0.247-0.571-0.286-1.056-0.312-1.078
					c-0.044-0.036-0.044-0.101-0.007-0.137c0.036-0.044,0.102-0.051,0.145-0.011c0.025,0.025,0.66,0.604,0.363,1.305
					c-0.055,0.123-0.124,0.202-0.218,0.238c-0.146,0.062-0.302-0.007-0.465-0.079c-0.275-0.119-0.562-0.246-0.885,0.148
					c-0.036,0.043-0.102,0.047-0.145,0.015C55.895,151.24,55.888,151.233,55.88,151.219z"/>
				<path fill="#443129" d="M60.37,143.258c0,0-3.395,1.685-6.057-0.654c-3.13-2.744-7.985-0.025-7.985-0.025
					s0.943-4.556,3.395-6.183C55.336,132.68,61.399,136.07,60.37,143.258z"/>
				<path fill="#443129" d="M50.992,147.907c-0.015-0.025-0.015-0.058,0-0.087c0.018-0.051,0.076-0.076,0.13-0.054
					c0.226,0.094,0.726,0.228,0.827,0.054c0.146-0.246,0.537-1.525,0.675-1.995c0.018-0.051,0.072-0.084,0.127-0.065
					c0.054,0.015,0.083,0.068,0.068,0.123c-0.021,0.072-0.508,1.721-0.692,2.039c-0.222,0.376-0.997,0.064-1.084,0.028
					C51.021,147.943,51.003,147.929,50.992,147.907z"/>
				<path fill="#443129" d="M49.911,147.979c-0.254-0.246-0.559-0.48-0.936-0.68c-0.051-0.025-0.108-0.007-0.138,0.044
					c-0.029,0.047-0.008,0.111,0.043,0.137c1.614,0.854,1.89,2.437,1.894,2.451c0.007,0.059,0.058,0.095,0.116,0.083
					c0.054-0.003,0.094-0.062,0.083-0.115C50.963,149.845,50.796,148.848,49.911,147.979z"/>
				<path fill="#F99B1F" d="M50.209,157.238c0,0,3.647,0.351,6.763-1.54c0,0,9.788,18.602,1.505,20.481
					C51.619,177.738,50.154,164.64,50.209,157.238z"/>
				<path fill="#443129" d="M53.306,143.648c-1.208,0-2.313-0.803-2.364-0.839c-0.065-0.043-0.08-0.138-0.033-0.202
					c0.048-0.065,0.142-0.08,0.207-0.029c0.011,0.007,1.28,0.918,2.487,0.76c0.08-0.015,0.156,0.043,0.167,0.122
					c0.011,0.08-0.043,0.152-0.127,0.163C53.53,143.641,53.414,143.648,53.306,143.648z"/>
				<path fill="#443129" d="M55.725,146.881c-0.04,0-0.08-0.015-0.112-0.051c-0.78-0.896-0.751-2.061-0.747-2.111
					c0-0.08,0.068-0.145,0.148-0.145c0.083,0.007,0.148,0.072,0.142,0.151l0,0c0,0.011-0.025,1.106,0.682,1.909
					c0.051,0.065,0.043,0.155-0.015,0.21C55.793,146.87,55.757,146.881,55.725,146.881z"/>
				<path fill="#FBDACC" d="M50.764,153.402c0.976-1.489,3.042-0.111,5.776-3.507c0.276-0.347,0.501-0.737,0.696-1.143
					c0.429-0.607,1.136-0.05,0.715,0.673c1.447-0.166-0.504,3.142-0.889,3.598c-0.512,0.693-1.135,1.309-1.831,1.825
					c-0.25,0.181-0.512,0.358-0.787,0.499C53.498,155.768,50.144,154.332,50.764,153.402z"/>
				<path fill="#D4B9AE" d="M56.398,151.979c0.933-1.114,1.607-2.466,1.61-2.48c0.019-0.04,0.004-0.087-0.04-0.112
					c-0.039-0.018-0.09,0-0.108,0.04c-0.007,0.015-0.83,1.67-1.911,2.81c-0.032,0.032-0.029,0.083,0.004,0.115
					c0.032,0.032,0.087,0.032,0.116-0.004C56.185,152.228,56.294,152.104,56.398,151.979z"/>
				<path fill="#9A7343" d="M41.937,169.943c0,0,1.439,2.946,0,6.598C41.937,176.541,39.946,173.512,41.937,169.943z"/>
				<path fill="#D4B9AE" d="M50.688,153.71L50.688,153.71c-0.055,0-0.095-0.04-0.095-0.094c0-0.036,0.021-0.875,1.716-1.183
					c1.545-0.285,2.673-0.896,3.543-1.923c0.366-0.435,0.635-0.864,0.849-1.208c0.305-0.48,0.515-0.828,0.809-0.882
					c0.055-0.008,0.105,0.028,0.112,0.079c0.007,0.058-0.021,0.108-0.08,0.116c-0.203,0.036-0.409,0.368-0.674,0.788
					c-0.218,0.347-0.49,0.788-0.863,1.229c-0.907,1.07-2.067,1.7-3.659,1.992c-1.523,0.278-1.563,0.983-1.563,0.983
					C50.781,153.67,50.741,153.71,50.688,153.71z"/>
				<path fill="#FBDACC" d="M22.582,175.916H43.38c1.367,0,2.474-1.103,2.474-2.462c0-1.367-1.106-2.463-2.474-2.463H25.896
					l11.075-13.485c0.392-1.301-0.646-2.675-1.955-3.065c-1.305-0.387-2.684,0.354-3.071,1.659L20.21,172.749
					c-0.218,0.744-0.076,1.551,0.384,2.176C21.066,175.547,21.802,175.916,22.582,175.916z"/>
				<path fill="#F99B1F" d="M41.81,151.244c0,0-9.215-3.955-18.023,9.194c-3.344,4.992-7.108,11.909-5.454,14.656
					c2.255,3.75,23.604,1.446,23.604,1.446s-0.928-2.683,0-6.598c0,0-4.979-1.378-10.375-1.609
					C31.561,168.334,43.594,157.965,41.81,151.244z"/>
				<path fill="#FBDACC" d="M41.744,175.912c0,0,1.98,0.271,4.142-0.441c2.034-0.665,2.535-1.417,2.923-2.263
					c0.388-0.839-3.257-2.086-4.656-1.837C42.76,171.617,41.729,173.808,41.744,175.912z"/>
				<path fill="#FBDACC" d="M45.748,175.515c1.069-0.3,2.169-0.38,3.257-0.13c0.485,0.108,1.472,0.708,1.776-0.055
					c0.341-1.066-4.206-1.963-5.033-1.978C43.536,172.991,43.949,176.201,45.748,175.515z"/>
				<path fill="#FBDACC" d="M46.451,174.553c1.023-0.347,2.147-0.391,3.228-0.274c0.569-0.029,1.534,0.607,1.781-0.188
					c0.17-0.842-2.158-1.175-2.782-1.352c-0.899-0.148-1.831-0.21-2.741-0.062C44.707,173.017,45.219,174.886,46.451,174.553z"/>
				<path fill="#FBDACC" d="M46.335,173.635c1.538-0.637,3.322-0.756,4.925-0.282c0.595,0.177,0.914-0.716,0.355-0.962
					c-0.667-0.321-1.393-0.557-2.125-0.694c-1.276-0.213-2.604-0.202-3.862,0.123C44.283,172.225,45.066,174.242,46.335,173.635z"/>
				<path fill="#FBDACC" d="M44.203,172.622c1.617-0.669,3.405-1.063,5.16-0.933c0.577,0.051,1.149,0.17,1.693,0.376
					c0.272,0.104,0.584-0.029,0.683-0.308c0.312-1.164-3.405-1.536-4.207-1.521c-1.393,0.007-2.995,0.293-4.323,0.697
					C41.896,171.393,42.963,173.262,44.203,172.622z"/>
				<path fill="#BC6B57" d="M49.556,174.314c0.021,0,0.036-0.015,0.047-0.036c0.012-0.036-0.003-0.072-0.032-0.087
					c-0.015-0.008-1.016-0.397-2.39-0.423c-0.04,0-0.069,0.028-0.069,0.068c0,0.036,0.029,0.065,0.065,0.065
					c1.349,0.025,2.328,0.408,2.339,0.412C49.53,174.317,49.545,174.321,49.556,174.314z"/>
				<path fill="#BC6B57" d="M50.154,173.187c0.025-0.011,0.043-0.025,0.047-0.051c0.015-0.033-0.004-0.072-0.04-0.08
					c-0.011-0.007-1.139-0.365-2.65-0.463c-0.036,0-0.065,0.029-0.069,0.065s0.025,0.068,0.062,0.072
					c1.494,0.091,2.604,0.448,2.615,0.456C50.129,173.187,50.144,173.187,50.154,173.187z"/>
				<path fill="#BC6B57" d="M50.129,171.896c0.025-0.007,0.047-0.029,0.051-0.055c0.007-0.036-0.015-0.072-0.051-0.079
					c-0.015-0.004-1.302-0.268-2.43-0.304c-0.036,0-0.065,0.029-0.069,0.065c-0.003,0.036,0.029,0.064,0.062,0.072
					c1.117,0.036,2.397,0.296,2.408,0.3C50.11,171.896,50.118,171.896,50.129,171.896z"/>
				<path fill="#808496" d="M53.066,215.14c-0.008,0-0.015,0-0.022,0c-0.051-0.015-0.087-0.065-0.072-0.12
					c0.033-0.147,3.388-14.769,3.881-19.801c0.489-5.08-6.419-10.42-11.185-12.77c-0.047-0.022-0.065-0.08-0.043-0.131
					c0.021-0.047,0.079-0.064,0.13-0.043c4.813,2.375,11.794,7.787,11.289,12.965c-0.489,5.047-3.848,19.675-3.88,19.827
					C53.153,215.11,53.113,215.14,53.066,215.14z"/>
				<path fill="#808496" d="M44.91,221.04c-4.167,0-7.449-0.89-7.496-0.904c-0.051-0.015-0.08-0.072-0.069-0.123
					c0.015-0.051,0.073-0.083,0.12-0.065c0.072,0.019,7.398,2.011,14.071,0c0.051-0.018,0.108,0.008,0.123,0.065
					c0.015,0.051-0.015,0.108-0.065,0.116C49.338,220.812,47.014,221.04,44.91,221.04z"/>
				<path fill="#808496" d="M60.842,221.062c-4.091,0-7.341-0.911-7.392-0.933c-0.051-0.008-0.079-0.065-0.064-0.116
					c0.014-0.051,0.064-0.083,0.123-0.065c0.072,0.022,7.333,2.062,13.788,0c0.058-0.018,0.108,0.008,0.127,0.062
					c0.014,0.055-0.012,0.105-0.069,0.12C65.175,220.826,62.901,221.062,60.842,221.062z"/>
			</g>
		</g>
		<g>
			<path fill="#F15C40" d="M41.041,133.731c0.167,0,0.337-0.065,0.464-0.191c0.261-0.257,0.261-0.673,0-0.934l-3.314-3.304h2.857
				c0.269,0,0.508-0.159,0.609-0.405s0.044-0.527-0.145-0.716l-4.446-4.429c-0.254-0.257-0.675-0.257-0.929,0
				c-0.261,0.253-0.261,0.669,0,0.929l3.318,3.309h-2.854c-0.269,0-0.508,0.162-0.609,0.404c-0.102,0.246-0.043,0.532,0.145,0.72
				l4.439,4.426C40.704,133.666,40.874,133.731,41.041,133.731z"/>
			<path fill="#F15C40" d="M32.885,140.329c0.17,0,0.337-0.064,0.468-0.195c0.254-0.256,0.254-0.672,0-0.929l-3.314-3.309h2.851
				c0.268,0,0.507-0.158,0.609-0.4c0.102-0.25,0.047-0.532-0.141-0.717l-4.446-4.432c-0.257-0.257-0.671-0.257-0.932,0
				c-0.253,0.256-0.253,0.676,0,0.929l3.322,3.312h-2.858c-0.265,0-0.504,0.159-0.602,0.405c-0.105,0.246-0.051,0.527,0.138,0.716
				l4.443,4.425C32.547,140.265,32.714,140.329,32.885,140.329z"/>
		</g>
	</g>
	<rect x="9.643" y="182.369" width="279.602" height="0.448"/>
	<g>
		<g>
			<g>
				<path fill="#035B9E" d="M166.364,65.566h6.237v0.809h-2.661v2.456h-0.958v-2.456h-2.618V65.566z M169.991,61.872v0.353
					c0,0.287,0.094,0.572,0.282,0.854c0.188,0.284,0.461,0.528,0.82,0.732c0.358,0.206,0.783,0.343,1.276,0.412L172,65.016
					c-0.584-0.097-1.092-0.28-1.523-0.552c-0.432-0.272-0.761-0.605-0.986-1c-0.225,0.399-0.555,0.734-0.986,1.004
					c-0.435,0.27-0.946,0.451-1.53,0.548l-0.377-0.792c0.497-0.069,0.925-0.206,1.283-0.412c0.363-0.204,0.635-0.448,0.82-0.729
					c0.188-0.278,0.282-0.566,0.282-0.858v-0.353H169.991z"/>
				<path fill="#035B9E" d="M178.607,62.151v0.8h-3.826v1.912h3.884v0.792h-1.979v1.536h2.654v0.815h-6.245v-0.815h2.633v-1.536
					h-1.899v-3.504H178.607z"/>
				<path fill="#035B9E" d="M182.586,64.303c0.083-0.563,0.127-1.063,0.138-1.495h-2.324v-0.784h3.277v0.248
					c0,0.305-0.007,0.607-0.021,0.909c-0.015,0.3-0.055,0.648-0.116,1.043c0.152-0.017,0.381-0.045,0.679-0.089l0.055,0.705
					c-0.53,0.096-1.103,0.17-1.727,0.225v1.543h-0.878v1.295h4.142v0.792h-5.099V66.51h0.881v-1.383
					c-0.678,0.027-1.243,0.04-1.7,0.04l-0.116-0.792C180.899,64.375,181.835,64.352,182.586,64.303z M185.657,61.656v5.398h-0.954
					v-0.8h-1.349v-0.759h1.349v-3.84H185.657z"/>
			</g>
		</g>
		<path fill="#035B9E" d="M162.745,65.483c0,2.784-2.263,5.04-5.055,5.04c-2.793,0-5.056-2.256-5.056-5.04
			c0-2.78,2.263-5.036,5.056-5.036C160.482,60.447,162.745,62.703,162.745,65.483z"/>
		<g>
			<path fill="#289297" d="M128.595,64.411c0.283-0.414,0.424-0.862,0.424-1.349v-0.119h-1.385v-0.792h3.71v0.792h-1.363v0.112
				c0,0.454,0.134,0.875,0.402,1.264c0.271,0.389,0.663,0.674,1.175,0.856l-0.468,0.767c-0.37-0.126-0.686-0.314-0.95-0.563
				c-0.265-0.248-0.475-0.539-0.627-0.875c-0.156,0.372-0.37,0.697-0.653,0.971c-0.279,0.274-0.616,0.479-1.005,0.612l-0.485-0.784
				C127.902,65.122,128.312,64.825,128.595,64.411z M128.627,66.447h0.954v1.455h3.75v0.792h-4.704V66.447z M132.214,63.527v-1.863
				h0.954v5.222h-0.954v-2.566h-1.117v-0.792H132.214z"/>
			<path fill="#289297" d="M139.645,61.977v0.559c0,0.374-0.007,0.701-0.021,0.985c-0.015,0.282-0.055,0.595-0.116,0.935h0.885
				v0.792h-2.654v1.041h1.922v2.543h-0.943V67.07h-3.945v-0.782h2.009v-1.041h-2.633v-0.792h4.414
				c0.104-0.533,0.155-1.098,0.155-1.696h-3.8v-0.782H139.645z"/>
		</g>
		<path fill="#79CBC5" d="M123.797,65.483c0,2.784-2.263,5.04-5.056,5.04c-2.792,0-5.055-2.256-5.055-5.04
			c0-2.78,2.263-5.036,5.055-5.036C121.534,60.447,123.797,62.703,123.797,65.483z"/>
	</g>
	<path fill="#D1D2D2" d="M300,206H0V0h300V206z M1.77,204.228H298.23V1.768H1.77V204.228z"/>
</g>
</svg>
