<?xml version="1.0" encoding="utf-8"?>
<!-- Generator: Adobe Illustrator 15.1.0, SVG Export Plug-In . SVG Version: 6.00 Build 0)  -->
<!DOCTYPE svg PUBLIC "-//W3C//DTD SVG 1.1//EN" "http://www.w3.org/Graphics/SVG/1.1/DTD/svg11.dtd">
<svg version="1.1" id="Layer_1" xmlns="http://www.w3.org/2000/svg" xmlns:xlink="http://www.w3.org/1999/xlink" x="0px" y="0px"
	 width="300px" height="206px" viewBox="0 0 300 206" enable-background="new 0 0 300 206" xml:space="preserve">
<g>
	<rect x="0.884" y="0.882" fill="#F9F9F9" width="298.232" height="204.232"/>
	<rect x="0.884" y="0.882" fill="#0F4C86" width="298.232" height="51.181"/>
	<g>
		<path fill="#FFFFFF" d="M279.17,27.405c0,5.633-4.585,10.195-10.229,10.195l0,0c-5.649,0-10.229-4.563-10.229-10.195l0,0
			c0-5.63,4.58-10.196,10.229-10.196l0,0C274.585,17.209,279.17,21.775,279.17,27.405L279.17,27.405z"/>
		<path fill="#0F4C86" d="M272.358,26.664l-4.487-4.477c-0.415-0.408-1.084-0.408-1.494,0c-0.41,0.412-0.41,1.078,0,1.486
			l3.75,3.731l-3.75,3.73c-0.41,0.412-0.41,1.078,0,1.49c0.21,0.202,0.479,0.304,0.747,0.304s0.537-0.102,0.747-0.304l4.487-4.477
			c0.195-0.202,0.308-0.47,0.308-0.744C272.666,27.127,272.554,26.859,272.358,26.664z"/>
	</g>
	<g>
		<g>
			<g>
				<path fill="#231F20" d="M53.599,194.745h-3.96v-0.514l2.036-1.948c0.62-0.658,1.069-1.164,1.069-1.852
					c-0.02-0.708-0.474-1.037-1.089-1.037c-0.674,0-1.172,0.48-1.172,1.153l-0.723-0.116c0.151-1.084,0.933-1.67,1.938-1.67
					s1.787,0.607,1.787,1.652c0,0.871-0.566,1.485-1.235,2.151l-1.646,1.627c0.225-0.065,0.464-0.095,0.664-0.095h2.329V194.745z"/>
				<path fill="#231F20" d="M56.406,194.857c-1.221,0-2.163-0.955-2.163-3.041c0-2.093,0.942-3.048,2.163-3.048
					c1.216,0,2.168,0.955,2.168,3.048C58.574,193.902,57.622,194.857,56.406,194.857z M56.406,189.369
					c-0.747,0-1.416,0.611-1.416,2.447c0,1.83,0.669,2.448,1.416,2.448s1.426-0.618,1.426-2.448
					C57.832,189.98,57.153,189.369,56.406,189.369z"/>
				<path fill="#231F20" d="M63.008,194.745h-3.184v-0.593h1.309v-4.233c0-0.072,0-0.145,0.01-0.203l-1.074,0.955l-0.391-0.474
					l1.582-1.363h0.586v5.318h1.162V194.745z"/>
				<path fill="#231F20" d="M65.972,194.857c-1.226,0-2.168-0.955-2.168-3.041c0-2.093,0.942-3.048,2.168-3.048
					c1.211,0,2.163,0.955,2.163,3.048C68.135,193.902,67.183,194.857,65.972,194.857z M65.972,189.369
					c-0.747,0-1.421,0.611-1.421,2.447c0,1.83,0.674,2.448,1.421,2.448s1.426-0.618,1.426-2.448
					C67.397,189.98,66.719,189.369,65.972,189.369z"/>
			</g>
		</g>
		<g>
			<g>
				<path fill="#231F20" d="M144.844,194.745h-3.96v-0.514l2.036-1.948c0.62-0.658,1.069-1.164,1.069-1.852
					c-0.024-0.708-0.474-1.037-1.084-1.037c-0.679,0-1.172,0.48-1.172,1.153l-0.728-0.116c0.151-1.084,0.933-1.67,1.938-1.67
					s1.787,0.607,1.787,1.652c0,0.871-0.562,1.485-1.23,2.151l-1.65,1.627c0.225-0.065,0.469-0.095,0.669-0.095h2.324V194.745z"/>
				<path fill="#231F20" d="M147.651,194.857c-1.221,0-2.163-0.955-2.163-3.041c0-2.093,0.942-3.048,2.163-3.048
					c1.216,0,2.168,0.955,2.168,3.048C149.819,193.902,148.867,194.857,147.651,194.857z M147.651,189.369
					c-0.747,0-1.416,0.611-1.416,2.447c0,1.83,0.669,2.448,1.416,2.448c0.752,0,1.426-0.618,1.426-2.448
					C149.077,189.98,148.403,189.369,147.651,189.369z"/>
				<path fill="#231F20" d="M154.253,194.745h-3.188v-0.593h1.313v-4.233c0-0.072,0-0.145,0.01-0.203l-1.069,0.955l-0.396-0.474
					l1.587-1.363h0.586v5.318h1.157V194.745z"/>
				<path fill="#231F20" d="M157.183,190.952c1.25,0,1.919,0.767,1.919,1.794c0,1.251-0.942,2.071-2.144,2.071
					c-0.708,0-1.299-0.289-1.665-0.633l0.396-0.538c0.352,0.296,0.82,0.513,1.304,0.513c0.811,0,1.401-0.506,1.401-1.37
					c0-0.773-0.503-1.222-1.343-1.222c-0.317,0-0.625,0.072-0.967,0.195l-0.479-0.138l0.488-2.784h2.822v0.673h-2.31l-0.269,1.54
					C156.616,190.981,156.899,190.952,157.183,190.952z"/>
			</g>
		</g>
		<g>
			<g>
				<path fill="#231F20" d="M236.094,194.745h-3.96v-0.514l2.036-1.948c0.62-0.658,1.069-1.164,1.069-1.852
					c-0.024-0.708-0.474-1.037-1.084-1.037c-0.679,0-1.172,0.48-1.172,1.153l-0.728-0.116c0.151-1.084,0.933-1.67,1.938-1.67
					s1.787,0.607,1.787,1.652c0,0.871-0.562,1.485-1.23,2.151l-1.65,1.627c0.225-0.065,0.469-0.095,0.669-0.095h2.324V194.745z"/>
				<path fill="#231F20" d="M238.906,194.857c-1.226,0-2.168-0.955-2.168-3.041c0-2.093,0.942-3.048,2.168-3.048
					c1.211,0,2.163,0.955,2.163,3.048C241.069,193.902,240.117,194.857,238.906,194.857z M238.906,189.369
					c-0.747,0-1.421,0.611-1.421,2.447c0,1.83,0.674,2.448,1.421,2.448s1.421-0.618,1.421-2.448
					C240.327,189.98,239.653,189.369,238.906,189.369z"/>
				<path fill="#231F20" d="M245.654,194.745h-3.955v-0.514l2.036-1.948c0.62-0.658,1.069-1.164,1.069-1.852
					c-0.024-0.708-0.474-1.037-1.089-1.037c-0.674,0-1.177,0.48-1.177,1.153l-0.718-0.116c0.151-1.084,0.933-1.67,1.938-1.67
					s1.782,0.607,1.782,1.652c0,0.871-0.562,1.485-1.23,2.151l-1.646,1.627c0.225-0.065,0.464-0.095,0.664-0.095h2.324V194.745z"/>
				<path fill="#231F20" d="M250.288,194.745H247.1v-0.593h1.309v-4.233c0-0.072,0-0.145,0.01-0.203l-1.069,0.955l-0.396-0.474
					l1.587-1.363h0.586v5.318h1.162V194.745z"/>
			</g>
		</g>
	</g>
	<g>
		<g>
			<g>
				<g>
					<rect x="123.887" y="116.8" fill="#C7E2EF" width="16.226" height="3.258"/>
					<rect x="123.887" y="131.797" fill="#C7E2EF" width="16.226" height="4.194"/>
					<path fill="#D1EDFB" d="M122.778,147.459c0,0,0.303,2.527,3.242,2.426c0,0,1.929,0,2.339-1.818c0,0,0.503,2.122,3.34,2.024
						h0.605c2.842,0.098,3.35-2.024,3.35-2.024c0.405,1.818,2.329,1.818,2.329,1.818c2.944,0.102,3.247-2.426,3.247-2.426v-12.788
						h-18.452V147.459z"/>
					<rect x="122.778" y="119.208" fill="#D1EDFB" width="18.452" height="13.341"/>
					<path fill="#D1EDFB" d="M141.23,111.507c-0.405-9.104-7.095-10.314-7.095-10.314h-4.263c0,0-6.689,1.211-7.095,10.314v5.861
						h18.452V111.507z"/>
					<rect x="129.468" y="99.681" fill="#D1EDFB" width="5.068" height="2.723"/>
					<rect x="128.398" y="94.825" fill="#64A8A6" width="7.202" height="5.156"/>
				</g>
			</g>
			<g>
				<g>
					<rect x="159.78" y="121.073" fill="#C7E2EF" width="16.226" height="3.258"/>
					<rect x="159.78" y="136.07" fill="#C7E2EF" width="16.226" height="4.194"/>
					<path fill="#D1EDFB" d="M158.662,151.732c0,0,0.308,2.531,3.247,2.43c0,0,1.924,0,2.334-1.822c0,0,0.508,2.122,3.345,2.024
						h0.61c2.837,0.098,3.345-2.024,3.345-2.024c0.405,1.822,2.329,1.822,2.329,1.822c2.944,0.102,3.247-2.43,3.247-2.43v-12.784
						h-18.457V151.732z"/>
					<rect x="158.662" y="123.481" fill="#D1EDFB" width="18.457" height="13.341"/>
					<path fill="#D1EDFB" d="M177.119,115.78c-0.405-9.096-7.1-10.311-7.1-10.311h-4.258c0,0-6.689,1.215-7.1,10.311v5.861h18.457
						V115.78z"/>
					<rect x="165.356" y="103.954" fill="#D1EDFB" width="5.073" height="2.73"/>
					<rect x="164.292" y="99.099" fill="#005A9E" width="7.197" height="5.159"/>
				</g>
			</g>
			<g>
				<g>
					<polygon fill="#005A9E" points="178.882,140.076 175.654,140.076 160.127,140.076 156.904,140.076 152.236,140.076 
						155.532,173.953 155.532,182.594 160.488,182.594 160.693,182.594 175.098,182.594 175.293,182.594 180.244,182.594 
						180.244,173.953 183.545,140.076 					"/>
					<g>
						<g>
							<path fill="#FFFFFF" d="M174.487,164.321l-1.401-2.509l-2.559,1.482l1.724,3.051h-2.91v-0.937l-1.392,2.391l1.392,2.382
								v-0.958h2.217c0.542-0.021,0.85-0.567,0.85-0.567l1.592-2.606l0.376-0.618C174.727,164.799,174.487,164.321,174.487,164.321z
								"/>
							<path fill="#FFFFFF" d="M163.462,166.284l1.46-2.52l0.811,0.47l-1.377-2.394l-2.764,0.008l0.835,0.477l-1.113,1.917
								c-0.254,0.484,0.068,1.02,0.068,1.02l1.47,2.675l0.347,0.633c0.381,0.618,0.908,0.651,0.908,0.651l2.881,0.047l-0.01-2.95
								L163.462,166.284z"/>
							<path fill="#FFFFFF" d="M168.545,161.696l2.769,0.008l1.382-2.394l-0.835,0.48l-1.108-1.912
								c-0.293-0.463-0.918-0.452-0.918-0.452l-3.057-0.068l-0.732-0.015c-0.718,0.011-1.016,0.459-1.016,0.459l-1.475,2.462
								l2.563,1.468l1.782-3.019l1.46,2.517L168.545,161.696z"/>
						</g>
					</g>
					<g>
						<g>
							<path fill="#39365A" d="M162.549,139.606v4.852c0,0.484-0.4,0.882-0.884,0.882l0,0c-0.493,0-0.889-0.397-0.889-0.882v-4.852
								H162.549z"/>
							<path fill="#39365A" d="M168.779,139.606v4.852c0,0.484-0.4,0.882-0.884,0.882l0,0c-0.493,0-0.889-0.397-0.889-0.882v-4.852
								H168.779z"/>
							<path fill="#39365A" d="M175.005,139.606v4.852c0,0.484-0.396,0.882-0.889,0.882l0,0c-0.483,0-0.879-0.397-0.879-0.882
								v-4.852H175.005z"/>
						</g>
					</g>
					<polygon fill="#005492" points="180.024,137.061 178.882,137.061 156.899,137.061 156.06,137.061 150.356,137.061 
						150.356,141.081 156.06,141.081 156.899,141.081 178.882,141.081 180.024,141.081 185.43,141.081 185.43,137.061 					"/>
					<g>
						<path fill="#39365A" d="M155.752,180.844c0,0.969-0.781,1.75-1.758,1.75l0,0c-0.967,0-1.753-0.781-1.753-1.75v-5.257
							c0-0.965,0.786-1.75,1.753-1.75l0,0c0.977,0,1.758,0.785,1.758,1.75V180.844z"/>
						<path fill="#39365A" d="M183.545,180.844c0,0.969-0.791,1.75-1.758,1.75l0,0c-0.972,0-1.758-0.781-1.758-1.75v-5.257
							c0-0.965,0.786-1.75,1.758-1.75l0,0c0.967,0,1.758,0.785,1.758,1.75V180.844z"/>
					</g>
				</g>
			</g>
			<g>
				<g>
					<polygon fill="#78CAC5" points="142.988,140.076 139.766,140.076 124.243,140.076 121.016,140.076 116.348,140.076 
						119.648,173.953 119.648,182.594 124.604,182.594 124.8,182.594 139.204,182.594 139.404,182.594 144.36,182.594 
						144.36,173.953 147.661,140.076 					"/>
					<g>
						<path fill="#FFFFFF" d="M138.599,164.321l-1.401-2.509l-2.559,1.482l1.724,3.051h-2.91v-0.937l-1.387,2.391l1.387,2.382
							v-0.958h2.217c0.542-0.021,0.85-0.567,0.85-0.567l1.592-2.606l0.376-0.618C138.838,164.799,138.599,164.321,138.599,164.321z"
							/>
						<path fill="#FFFFFF" d="M127.578,166.284l1.455-2.52l0.815,0.47l-1.382-2.394l-2.764,0.008l0.835,0.477l-1.113,1.917
							c-0.254,0.484,0.068,1.02,0.068,1.02l1.47,2.675l0.352,0.633c0.376,0.618,0.908,0.651,0.908,0.651l2.876,0.047l-0.005-2.95
							L127.578,166.284z"/>
						<path fill="#FFFFFF" d="M132.656,161.696l2.773,0.008l1.377-2.394l-0.835,0.48l-1.108-1.912
							c-0.293-0.463-0.923-0.452-0.923-0.452l-3.052-0.068l-0.728-0.015c-0.723,0.011-1.021,0.459-1.021,0.459l-1.479,2.462
							l2.568,1.468l1.787-3.019l1.455,2.517L132.656,161.696z"/>
					</g>
					<g>
						<path fill="#39365A" d="M126.66,139.606v4.852c0,0.484-0.4,0.882-0.884,0.882l0,0c-0.493,0-0.889-0.397-0.889-0.882v-4.852
							H126.66z"/>
						<path fill="#39365A" d="M132.886,139.606v4.852c0,0.484-0.396,0.882-0.884,0.882l0,0c-0.488,0-0.884-0.397-0.884-0.882v-4.852
							H132.886z"/>
						<path fill="#39365A" d="M139.111,139.606v4.852c0,0.484-0.391,0.882-0.879,0.882l0,0c-0.488,0-0.889-0.397-0.889-0.882v-4.852
							H139.111z"/>
					</g>
					<polygon fill="#64A8A6" points="144.136,137.061 142.993,137.061 121.016,137.061 120.166,137.061 114.468,137.061 
						114.468,141.081 120.166,141.081 121.016,141.081 142.993,141.081 144.136,141.081 149.541,141.081 149.541,137.061 					"/>
					<g>
						<path fill="#39365A" d="M119.863,180.844c0,0.969-0.781,1.75-1.753,1.75l0,0c-0.972,0-1.758-0.781-1.758-1.75v-5.257
							c0-0.965,0.786-1.75,1.758-1.75l0,0c0.972,0,1.753,0.785,1.753,1.75V180.844z"/>
						<path fill="#39365A" d="M147.651,180.844c0,0.969-0.786,1.75-1.758,1.75l0,0c-0.962,0-1.753-0.781-1.753-1.75v-5.257
							c0-0.965,0.791-1.75,1.753-1.75l0,0c0.972,0,1.758,0.785,1.758,1.75V180.844z"/>
					</g>
				</g>
			</g>
			<g>
				<g>
					<path fill="#005A9E" d="M165.64,92.627c-0.464,0.55-1.177,0.824-2.119,0.824c-0.952,0-1.66-0.274-2.129-0.824
						c-0.62-0.723-0.889-1.814-0.889-3.586s0.269-2.86,0.889-3.587c0.469-0.542,1.177-0.82,2.129-0.82
						c0.942,0,1.655,0.278,2.119,0.82c0.62,0.727,0.889,1.815,0.889,3.587S166.26,91.904,165.64,92.627z M164.258,86.568
						c-0.181-0.282-0.415-0.398-0.737-0.398s-0.576,0.116-0.747,0.398c-0.225,0.368-0.303,1.142-0.303,2.473
						c0,1.338,0.078,2.093,0.303,2.48c0.171,0.274,0.425,0.394,0.747,0.394s0.557-0.119,0.737-0.394
						c0.225-0.388,0.303-1.143,0.303-2.48C164.561,87.71,164.482,86.937,164.258,86.568z"/>
					<path fill="#005A9E" d="M169.082,93.3h-1.934v-1.92h1.934V93.3z"/>
					<path fill="#005A9E" d="M171.875,91.167c0.044,0.542,0.288,0.81,0.762,0.81c0.698,0,0.996-0.65,1.016-2.357
						c-0.269,0.438-0.791,0.694-1.445,0.694c-1.362,0-2.451-1.013-2.451-2.81c0-1.761,1.113-2.87,2.881-2.87
						c1.05,0,1.895,0.383,2.402,1.218c0.449,0.734,0.566,1.772,0.566,2.979c0,3.37-0.947,4.62-2.988,4.62
						c-1.587,0-2.583-0.853-2.695-2.284H171.875z M172.681,86.181c-0.625,0-0.952,0.46-0.952,1.334c0,0.875,0.327,1.338,0.952,1.338
						c0.596,0,0.942-0.463,0.942-1.338C173.623,86.641,173.276,86.181,172.681,86.181z"/>
				</g>
			</g>
			<g>
				<g>
					<path fill="#6D6E70" d="M128.726,89.283v-6.164l-1.733,0.773v-0.737l1.841-0.824h0.649v6.952H128.726z"/>
					<path fill="#6D6E70" d="M132.622,89.283h-0.84v-1.056h0.84V89.283z"/>
					<path fill="#6D6E70" d="M137.432,88.759c-0.356,0.419-0.889,0.64-1.577,0.64c-0.684,0-1.216-0.221-1.572-0.64
						c-0.464-0.557-0.684-1.355-0.684-2.95c0-1.598,0.22-2.397,0.684-2.957c0.356-0.416,0.889-0.637,1.572-0.637
						c0.688,0,1.221,0.221,1.577,0.637c0.464,0.56,0.679,1.359,0.679,2.957C138.11,87.403,137.896,88.202,137.432,88.759z
						 M136.914,83.343c-0.244-0.311-0.596-0.48-1.06-0.48c-0.449,0-0.806,0.17-1.055,0.48c-0.313,0.397-0.444,1.07-0.444,2.466
						c0,1.389,0.122,2.075,0.444,2.473c0.239,0.312,0.605,0.471,1.055,0.471c0.464,0,0.82-0.159,1.06-0.471
						c0.313-0.397,0.444-1.084,0.444-2.473C137.358,84.413,137.227,83.74,136.914,83.343z"/>
				</g>
			</g>
		</g>
		<g>
			<g>
				<g>
					<rect x="215.142" y="108.253" fill="#C7E2EF" width="16.221" height="3.254"/>
					<rect x="215.142" y="123.25" fill="#C7E2EF" width="16.221" height="4.194"/>
					<path fill="#D1EDFB" d="M214.028,138.912c0,0,0.303,2.523,3.242,2.426c0,0,1.929,0,2.334-1.818c0,0,0.503,2.118,3.345,2.021
						h0.605c2.842,0.098,3.35-2.021,3.35-2.021c0.405,1.818,2.329,1.818,2.329,1.818c2.944,0.098,3.247-2.426,3.247-2.426v-12.788
						h-18.452V138.912z"/>
					<rect x="214.028" y="110.661" fill="#D1EDFB" width="18.452" height="13.341"/>
					<path fill="#D1EDFB" d="M232.48,102.957c-0.405-9.101-7.1-10.312-7.1-10.312h-4.258c0,0-6.694,1.211-7.095,10.312v5.864h18.452
						V102.957z"/>
					<rect x="220.718" y="91.131" fill="#D1EDFB" width="5.068" height="2.726"/>
					<rect x="219.648" y="86.278" fill="#64A8A6" width="7.207" height="5.156"/>
				</g>
			</g>
			<g>
				<g>
					<rect x="251.025" y="112.53" fill="#C7E2EF" width="16.226" height="3.254"/>
					<rect x="251.025" y="127.523" fill="#C7E2EF" width="16.226" height="4.194"/>
					<path fill="#D1EDFB" d="M249.912,143.186c0,0,0.308,2.527,3.247,2.426c0,0,1.924,0,2.329-1.818c0,0,0.513,2.122,3.35,2.024
						h0.605c2.842,0.098,3.35-2.024,3.35-2.024c0.4,1.818,2.329,1.818,2.329,1.818c2.944,0.102,3.242-2.426,3.242-2.426v-12.788
						h-18.452V143.186z"/>
					<rect x="249.912" y="114.935" fill="#D1EDFB" width="18.452" height="13.341"/>
					<path fill="#D1EDFB" d="M268.364,107.233c-0.4-9.1-7.095-10.311-7.095-10.311h-4.258c0,0-6.689,1.211-7.1,10.311v5.864h18.452
						V107.233z"/>
					<rect x="256.606" y="95.407" fill="#D1EDFB" width="5.068" height="2.727"/>
					<rect x="255.542" y="90.552" fill="#005A9E" width="7.197" height="5.159"/>
				</g>
			</g>
			<g>
				<g>
					<polygon fill="#005A9E" points="270.127,140.076 266.904,140.076 251.377,140.076 248.154,140.076 243.486,140.076 
						246.782,173.953 246.782,182.594 251.738,182.594 251.938,182.594 266.348,182.594 266.543,182.594 271.494,182.594 
						271.494,173.953 274.795,140.076 					"/>
					<g>
						<g>
							<path fill="#FFFFFF" d="M265.737,164.321l-1.406-2.509l-2.554,1.482l1.724,3.051h-2.91v-0.937l-1.392,2.391l1.392,2.382
								v-0.958h2.217c0.542-0.021,0.85-0.567,0.85-0.567l1.592-2.606l0.376-0.618C265.977,164.799,265.737,164.321,265.737,164.321z
								"/>
							<path fill="#FFFFFF" d="M254.712,166.284l1.46-2.52l0.811,0.47l-1.377-2.394l-2.764,0.008l0.835,0.477l-1.113,1.917
								c-0.254,0.484,0.068,1.02,0.068,1.02l1.47,2.675l0.352,0.633c0.371,0.618,0.903,0.651,0.903,0.651l2.881,0.047l-0.01-2.95
								L254.712,166.284z"/>
							<path fill="#FFFFFF" d="M259.795,161.696l2.769,0.008l1.377-2.394l-0.835,0.48l-1.104-1.912
								c-0.293-0.463-0.918-0.452-0.918-0.452l-3.057-0.068l-0.732-0.015c-0.723,0.011-1.016,0.459-1.016,0.459l-1.479,2.462
								l2.568,1.468l1.782-3.019l1.46,2.517L259.795,161.696z"/>
						</g>
					</g>
					<g>
						<g>
							<path fill="#39365A" d="M253.799,139.606v4.852c0,0.484-0.4,0.882-0.884,0.882l0,0c-0.493,0-0.889-0.397-0.889-0.882v-4.852
								H253.799z"/>
							<path fill="#39365A" d="M260.02,139.606v4.852c0,0.484-0.391,0.882-0.879,0.882l0,0c-0.488,0-0.884-0.397-0.884-0.882v-4.852
								H260.02z"/>
							<path fill="#39365A" d="M266.25,139.606v4.852c0,0.484-0.391,0.882-0.884,0.882l0,0c-0.483,0-0.884-0.397-0.884-0.882v-4.852
								H266.25z"/>
						</g>
					</g>
					<polygon fill="#005492" points="271.274,137.061 270.132,137.061 248.149,137.061 247.305,137.061 241.606,137.061 
						241.606,141.081 247.305,141.081 248.149,141.081 270.132,141.081 271.274,141.081 276.675,141.081 276.675,137.061 					"/>
					<g>
						<path fill="#39365A" d="M247.002,180.844c0,0.969-0.781,1.75-1.753,1.75l0,0c-0.972,0-1.758-0.781-1.758-1.75v-5.257
							c0-0.965,0.786-1.75,1.758-1.75l0,0c0.972,0,1.753,0.785,1.753,1.75V180.844z"/>
						<path fill="#39365A" d="M274.79,180.844c0,0.969-0.786,1.75-1.758,1.75l0,0c-0.967,0-1.753-0.781-1.753-1.75v-5.257
							c0-0.965,0.786-1.75,1.753-1.75l0,0c0.972,0,1.758,0.785,1.758,1.75V180.844z"/>
					</g>
				</g>
			</g>
			<g>
				<g>
					<polygon fill="#78CAC5" points="234.238,140.076 231.016,140.076 215.493,140.076 212.266,140.076 207.598,140.076 
						210.898,173.953 210.898,182.594 215.854,182.594 216.05,182.594 230.454,182.594 230.654,182.594 235.61,182.594 
						235.61,173.953 238.906,140.076 					"/>
					<g>
						<path fill="#FFFFFF" d="M229.844,164.321l-1.396-2.509l-2.559,1.482l1.729,3.051h-2.92v-0.937l-1.382,2.391l1.382,2.382
							v-0.958h2.222c0.542-0.021,0.85-0.567,0.85-0.567l1.592-2.606l0.376-0.618C230.088,164.799,229.844,164.321,229.844,164.321z"
							/>
						<path fill="#FFFFFF" d="M218.823,166.284l1.46-2.52l0.811,0.47l-1.377-2.394l-2.769,0.008l0.84,0.477l-1.113,1.917
							c-0.249,0.484,0.068,1.02,0.068,1.02l1.47,2.675l0.352,0.633c0.371,0.618,0.908,0.651,0.908,0.651l2.876,0.047l-0.01-2.95
							L218.823,166.284z"/>
						<path fill="#FFFFFF" d="M223.906,161.696l2.769,0.008l1.382-2.394l-0.835,0.48l-1.108-1.912
							c-0.293-0.463-0.923-0.452-0.923-0.452l-3.057-0.068l-0.723-0.015c-0.723,0.011-1.021,0.459-1.021,0.459l-1.479,2.462
							l2.568,1.468l1.782-3.019l1.465,2.517L223.906,161.696z"/>
					</g>
					<g>
						<path fill="#39365A" d="M217.91,139.606v4.852c0,0.484-0.4,0.882-0.889,0.882l0,0c-0.488,0-0.879-0.397-0.879-0.882v-4.852
							H217.91z"/>
						<path fill="#39365A" d="M224.136,139.606v4.852c0,0.484-0.396,0.882-0.884,0.882l0,0c-0.488,0-0.884-0.397-0.884-0.882v-4.852
							H224.136z"/>
						<path fill="#39365A" d="M230.361,139.606v4.852c0,0.484-0.391,0.882-0.884,0.882l0,0c-0.483,0-0.884-0.397-0.884-0.882v-4.852
							H230.361z"/>
					</g>
					<polygon fill="#64A8A6" points="235.381,137.061 234.243,137.061 212.261,137.061 211.421,137.061 205.718,137.061 
						205.718,141.081 211.421,141.081 212.261,141.081 234.243,141.081 235.381,141.081 240.786,141.081 240.786,137.061 					"/>
					<g>
						<path fill="#39365A" d="M211.113,180.844c0,0.969-0.781,1.75-1.753,1.75l0,0c-0.972,0-1.758-0.781-1.758-1.75v-5.257
							c0-0.965,0.786-1.75,1.758-1.75l0,0c0.972,0,1.753,0.785,1.753,1.75V180.844z"/>
						<path fill="#39365A" d="M238.901,180.844c0,0.969-0.786,1.75-1.758,1.75l0,0c-0.967,0-1.753-0.781-1.753-1.75v-5.257
							c0-0.965,0.786-1.75,1.753-1.75l0,0c0.972,0,1.758,0.785,1.758,1.75V180.844z"/>
					</g>
				</g>
			</g>
			<g>
				<g>
					<path fill="#005A9E" d="M254.409,84.753v-6.729l-1.748,0.781v-1.635l2.036-0.939h1.689v8.521H254.409z"/>
					<path fill="#005A9E" d="M260.332,84.753h-1.934v-1.924h1.934V84.753z"/>
					<path fill="#005A9E" d="M263.608,84.753v-6.729l-1.743,0.781v-1.635l2.031-0.939h1.694v8.521H263.608z"/>
				</g>
			</g>
			<g>
				<g>
					<path fill="#6D6E70" d="M219.976,80.732v-6.16l-1.733,0.77v-0.733l1.836-0.824h0.654v6.948H219.976z"/>
					<path fill="#6D6E70" d="M223.872,80.732h-0.845v-1.056h0.845V80.732z"/>
					<path fill="#6D6E70" d="M228.511,77.363l-2.412,2.726h3.184v0.644h-4.17V80.14l2.793-3.167
						c0.386-0.434,0.527-0.796,0.527-1.251c0-0.824-0.508-1.41-1.338-1.41c-0.845,0-1.333,0.597-1.333,1.41v0.195h-0.757v-0.203
						c0-1.116,0.737-2.046,2.09-2.046s2.1,0.93,2.1,2.046C229.194,76.336,229.038,76.771,228.511,77.363z"/>
				</g>
			</g>
		</g>
		<g>
			<g>
				<g>
					<rect x="32.637" y="116.8" fill="#C7E2EF" width="16.226" height="3.258"/>
					<rect x="32.637" y="131.797" fill="#C7E2EF" width="16.226" height="4.194"/>
					<path fill="#D1EDFB" d="M31.528,147.459c0,0,0.303,2.527,3.242,2.426c0,0,1.929,0,2.334-1.818c0,0,0.508,2.122,3.345,2.024
						h0.61c2.837,0.098,3.345-2.024,3.345-2.024c0.405,1.818,2.329,1.818,2.329,1.818c2.944,0.102,3.247-2.426,3.247-2.426v-12.788
						H31.528V147.459z"/>
					<rect x="31.528" y="119.208" fill="#D1EDFB" width="18.452" height="13.341"/>
					<path fill="#D1EDFB" d="M49.98,111.507c-0.405-9.104-7.095-10.314-7.095-10.314h-4.263c0,0-6.689,1.211-7.095,10.314v5.861
						H49.98V111.507z"/>
					<rect x="38.218" y="99.681" fill="#D1EDFB" width="5.073" height="2.723"/>
					<rect x="37.153" y="94.825" fill="#64A8A6" width="7.197" height="5.156"/>
				</g>
			</g>
			<g>
				<g>
					<rect x="68.53" y="121.073" fill="#C7E2EF" width="16.226" height="3.258"/>
					<rect x="68.53" y="136.07" fill="#C7E2EF" width="16.226" height="4.194"/>
					<path fill="#D1EDFB" d="M67.412,151.732c0,0,0.308,2.531,3.247,2.43c0,0,1.929,0,2.334-1.822c0,0,0.508,2.122,3.345,2.024h0.61
						c2.837,0.098,3.345-2.024,3.345-2.024c0.405,1.822,2.329,1.822,2.329,1.822c2.944,0.102,3.247-2.43,3.247-2.43v-12.784H67.412
						V151.732z"/>
					<rect x="67.412" y="123.481" fill="#D1EDFB" width="18.457" height="13.341"/>
					<path fill="#D1EDFB" d="M85.869,115.78c-0.405-9.096-7.1-10.311-7.1-10.311h-4.258c0,0-6.694,1.215-7.1,10.311v5.861h18.457
						V115.78z"/>
					<rect x="74.106" y="103.954" fill="#D1EDFB" width="5.073" height="2.73"/>
					<rect x="73.047" y="99.099" fill="#005A9E" width="7.192" height="5.159"/>
				</g>
			</g>
			<g>
				<g>
					<polygon fill="#005A9E" points="87.627,140.076 84.404,140.076 68.877,140.076 65.654,140.076 60.981,140.076 64.282,173.953 
						64.282,182.594 69.238,182.594 69.438,182.594 83.843,182.594 84.043,182.594 88.999,182.594 88.999,173.953 92.3,140.076 
											"/>
					<g>
						<g>
							<path fill="#FFFFFF" d="M83.237,164.321l-1.401-2.509l-2.559,1.482l1.724,3.051h-2.91v-0.937l-1.392,2.391l1.392,2.382
								v-0.958h2.217c0.547-0.021,0.85-0.567,0.85-0.567l1.592-2.606l0.376-0.618C83.477,164.799,83.237,164.321,83.237,164.321z"/>
							<path fill="#FFFFFF" d="M72.217,166.284l1.455-2.52l0.815,0.47l-1.377-2.394l-2.769,0.008l0.83,0.477l-1.108,1.917
								c-0.254,0.484,0.068,1.02,0.068,1.02l1.47,2.675l0.347,0.633c0.381,0.618,0.913,0.651,0.913,0.651l2.876,0.047l-0.01-2.95
								L72.217,166.284z"/>
							<path fill="#FFFFFF" d="M77.3,161.696l2.769,0.008l1.377-2.394l-0.835,0.48l-1.108-1.912
								c-0.293-0.463-0.913-0.452-0.913-0.452l-3.062-0.068l-0.728-0.015c-0.723,0.011-1.021,0.459-1.021,0.459l-1.479,2.462
								l2.568,1.468l1.787-3.019l1.46,2.517L77.3,161.696z"/>
						</g>
					</g>
					<g>
						<g>
							<path fill="#39365A" d="M71.299,139.606v4.852c0,0.484-0.396,0.882-0.889,0.882l0,0c-0.483,0-0.884-0.397-0.884-0.882v-4.852
								H71.299z"/>
							<path fill="#39365A" d="M77.529,139.606v4.852c0,0.484-0.4,0.882-0.889,0.882l0,0c-0.488,0-0.884-0.397-0.884-0.882v-4.852
								H77.529z"/>
							<path fill="#39365A" d="M83.755,139.606v4.852c0,0.484-0.396,0.882-0.884,0.882l0,0c-0.493,0-0.889-0.397-0.889-0.882v-4.852
								H83.755z"/>
						</g>
					</g>
					<polygon fill="#005492" points="88.779,137.061 87.632,137.061 65.654,137.061 64.814,137.061 59.106,137.061 59.106,141.081 
						64.814,141.081 65.654,141.081 87.632,141.081 88.779,141.081 94.175,141.081 94.175,137.061 					"/>
					<g>
						<path fill="#39365A" d="M64.507,180.844c0,0.969-0.791,1.75-1.763,1.75l0,0c-0.962,0-1.753-0.781-1.753-1.75v-5.257
							c0-0.965,0.791-1.75,1.753-1.75l0,0c0.972,0,1.763,0.785,1.763,1.75V180.844z"/>
						<path fill="#39365A" d="M92.295,180.844c0,0.969-0.791,1.75-1.758,1.75l0,0c-0.972,0-1.758-0.781-1.758-1.75v-5.257
							c0-0.965,0.786-1.75,1.758-1.75l0,0c0.967,0,1.758,0.785,1.758,1.75V180.844z"/>
					</g>
				</g>
			</g>
			<g>
				<g>
					<polygon fill="#78CAC5" points="51.738,140.076 48.516,140.076 32.993,140.076 29.766,140.076 25.098,140.076 28.394,173.953 
						28.394,182.594 33.354,182.594 33.555,182.594 47.959,182.594 48.154,182.594 53.115,182.594 53.115,173.953 56.411,140.076 
											"/>
					<g>
						<path fill="#FFFFFF" d="M47.349,164.321l-1.401-2.509l-2.559,1.482l1.724,3.051h-2.91v-0.937l-1.392,2.391l1.392,2.382v-0.958
							h2.217c0.542-0.021,0.854-0.567,0.854-0.567l1.587-2.606l0.376-0.618C47.588,164.799,47.349,164.321,47.349,164.321z"/>
						<path fill="#FFFFFF" d="M36.328,166.284l1.455-2.52l0.815,0.47l-1.382-2.394l-2.764,0.008l0.835,0.477l-1.113,1.917
							c-0.254,0.484,0.068,1.02,0.068,1.02l1.47,2.675l0.352,0.633c0.376,0.618,0.908,0.651,0.908,0.651l2.876,0.047l-0.01-2.95
							L36.328,166.284z"/>
						<path fill="#FFFFFF" d="M41.406,161.696l2.773,0.008l1.377-2.394l-0.835,0.48l-1.108-1.912
							c-0.293-0.463-0.913-0.452-0.913-0.452l-3.062-0.068l-0.728-0.015c-0.723,0.011-1.021,0.459-1.021,0.459l-1.479,2.462
							l2.568,1.468l1.792-3.019l1.45,2.517L41.406,161.696z"/>
					</g>
					<g>
						<path fill="#39365A" d="M35.41,139.606v4.852c0,0.484-0.396,0.882-0.884,0.882l0,0c-0.488,0-0.889-0.397-0.889-0.882v-4.852
							H35.41z"/>
						<path fill="#39365A" d="M41.641,139.606v4.852c0,0.484-0.4,0.882-0.884,0.882l0,0c-0.488,0-0.889-0.397-0.889-0.882v-4.852
							H41.641z"/>
						<path fill="#39365A" d="M47.866,139.606v4.852c0,0.484-0.396,0.882-0.884,0.882l0,0c-0.488,0-0.884-0.397-0.884-0.882v-4.852
							H47.866z"/>
					</g>
					<polygon fill="#64A8A6" points="52.886,137.061 51.743,137.061 29.761,137.061 28.921,137.061 23.218,137.061 23.218,141.081 
						28.921,141.081 29.761,141.081 51.743,141.081 52.886,141.081 58.291,141.081 58.291,137.061 					"/>
					<g>
						<path fill="#39365A" d="M28.613,180.844c0,0.969-0.781,1.75-1.753,1.75l0,0c-0.972,0-1.758-0.781-1.758-1.75v-5.257
							c0-0.965,0.786-1.75,1.758-1.75l0,0c0.972,0,1.753,0.785,1.753,1.75V180.844z"/>
						<path fill="#39365A" d="M56.406,180.844c0,0.969-0.786,1.75-1.758,1.75l0,0c-0.967,0-1.758-0.781-1.758-1.75v-5.257
							c0-0.965,0.791-1.75,1.758-1.75l0,0c0.972,0,1.758,0.785,1.758,1.75V180.844z"/>
					</g>
				</g>
			</g>
			<g>
				<g>
					<path fill="#6D6E70" d="M37.476,89.283v-6.164l-1.733,0.773v-0.737l1.841-0.824h0.649v6.952H37.476z"/>
					<path fill="#6D6E70" d="M41.377,89.283h-0.845v-1.056h0.845V89.283z"/>
					<path fill="#6D6E70" d="M46.182,88.759c-0.356,0.419-0.889,0.64-1.577,0.64c-0.679,0-1.216-0.221-1.572-0.64
						c-0.459-0.557-0.684-1.355-0.684-2.95c0-1.598,0.225-2.397,0.684-2.957c0.356-0.416,0.894-0.637,1.572-0.637
						c0.688,0,1.221,0.221,1.577,0.637c0.464,0.56,0.679,1.359,0.679,2.957C46.86,87.403,46.646,88.202,46.182,88.759z
						 M45.664,83.343c-0.244-0.311-0.596-0.48-1.06-0.48c-0.449,0-0.806,0.17-1.06,0.48c-0.308,0.397-0.439,1.07-0.439,2.466
						c0,1.389,0.122,2.075,0.439,2.473c0.244,0.312,0.61,0.471,1.06,0.471c0.464,0,0.82-0.159,1.06-0.471
						c0.313-0.397,0.449-1.084,0.449-2.473C46.113,84.413,45.977,83.74,45.664,83.343z"/>
				</g>
			</g>
			<g>
				<g>
					<path fill="#005A9E" d="M74.395,92.627c-0.474,0.55-1.177,0.824-2.124,0.824c-0.952,0-1.655-0.274-2.124-0.824
						c-0.625-0.723-0.894-1.814-0.894-3.586s0.269-2.86,0.894-3.587c0.469-0.542,1.172-0.82,2.124-0.82
						c0.947,0,1.65,0.278,2.124,0.82c0.62,0.727,0.889,1.815,0.889,3.587S75.015,91.904,74.395,92.627z M73.013,86.568
						c-0.186-0.282-0.415-0.398-0.742-0.398c-0.322,0-0.576,0.116-0.747,0.398c-0.225,0.368-0.298,1.142-0.298,2.473
						c0,1.338,0.073,2.093,0.298,2.48c0.171,0.274,0.425,0.394,0.747,0.394c0.327,0,0.557-0.119,0.742-0.394
						c0.225-0.388,0.303-1.143,0.303-2.48C73.315,87.71,73.237,86.937,73.013,86.568z"/>
					<path fill="#005A9E" d="M77.837,93.3h-1.943v-1.92h1.943V93.3z"/>
					<path fill="#005A9E" d="M80.625,91.167c0.044,0.542,0.288,0.81,0.762,0.81c0.698,0,0.996-0.65,1.021-2.357
						c-0.269,0.438-0.796,0.694-1.45,0.694c-1.357,0-2.451-1.013-2.451-2.81c0-1.761,1.113-2.87,2.881-2.87
						c1.05,0,1.895,0.383,2.402,1.218c0.449,0.734,0.562,1.772,0.562,2.979c0,3.37-0.942,4.62-2.988,4.62
						c-1.577,0-2.578-0.853-2.686-2.284H80.625z M81.431,86.181c-0.62,0-0.952,0.46-0.952,1.334c0,0.875,0.332,1.338,0.952,1.338
						c0.601,0,0.942-0.463,0.942-1.338C82.373,86.641,82.031,86.181,81.431,86.181z"/>
				</g>
			</g>
		</g>
		<rect x="13.413" y="182.369" width="273.066" height="0.449"/>
	</g>
	<g>
		<g>
			<g>
				<path fill="#005A9E" d="M162.534,65.565h6.24v0.807h-2.666v2.458h-0.957v-2.458h-2.617V65.565z M166.162,61.871v0.351
					c0,0.289,0.093,0.575,0.278,0.856c0.19,0.286,0.464,0.528,0.82,0.734c0.366,0.202,0.786,0.34,1.279,0.412l-0.366,0.788
					c-0.586-0.094-1.094-0.278-1.528-0.55c-0.43-0.274-0.757-0.607-0.981-0.998c-0.229,0.398-0.557,0.73-0.991,1.002
					s-0.942,0.452-1.528,0.546l-0.381-0.788c0.503-0.072,0.928-0.21,1.289-0.412c0.361-0.206,0.635-0.448,0.82-0.73
					c0.186-0.278,0.278-0.564,0.278-0.86v-0.351H166.162z"/>
				<path fill="#005A9E" d="M174.785,62.149v0.803h-3.833v1.908h3.882v0.796h-1.978v1.533h2.661v0.816h-6.25v-0.816h2.637v-1.533
					h-1.909v-3.507H174.785z"/>
				<path fill="#005A9E" d="M178.76,64.304c0.078-0.563,0.122-1.063,0.137-1.496h-2.329v-0.785h3.281v0.25
					c0,0.304-0.005,0.607-0.024,0.907c-0.015,0.3-0.049,0.647-0.117,1.045c0.156-0.019,0.386-0.047,0.684-0.091l0.049,0.705
					c-0.527,0.095-1.099,0.17-1.724,0.225v1.544h-0.879v1.294h4.146v0.792h-5.098V66.51h0.879v-1.382
					c-0.679,0.025-1.245,0.036-1.704,0.036l-0.117-0.788C177.07,64.376,178.003,64.351,178.76,64.304z M181.826,61.657v5.395h-0.952
					v-0.795h-1.348v-0.76h1.348v-3.84H181.826z"/>
			</g>
		</g>
		<path fill="#005A9E" d="M158.916,65.482c0,2.784-2.266,5.04-5.054,5.04s-5.054-2.256-5.054-5.04c0-2.78,2.266-5.036,5.054-5.036
			S158.916,62.702,158.916,65.482z"/>
		<g>
			<path fill="#289197" d="M124.766,64.412c0.283-0.415,0.42-0.863,0.42-1.352v-0.116h-1.382v-0.795h3.711v0.795h-1.362v0.108
				c0,0.456,0.132,0.875,0.4,1.266c0.273,0.391,0.664,0.673,1.177,0.857l-0.469,0.766c-0.371-0.126-0.688-0.314-0.947-0.563
				c-0.269-0.25-0.479-0.539-0.635-0.875c-0.151,0.372-0.366,0.697-0.649,0.973c-0.278,0.274-0.615,0.478-1.001,0.611l-0.488-0.785
				C124.072,65.121,124.482,64.824,124.766,64.412z M124.795,66.444h0.957v1.457h3.75v0.792h-4.707V66.444z M128.384,63.526v-1.861
				h0.957v5.221h-0.957v-2.567h-1.113v-0.792H128.384z"/>
			<path fill="#289197" d="M135.82,61.976v0.557c0,0.376-0.005,0.701-0.024,0.987c-0.015,0.282-0.054,0.597-0.117,0.937h0.889v0.788
				h-2.661v1.041h1.929v2.545h-0.952v-1.76h-3.94v-0.785h2.012v-1.041h-2.637v-0.788h4.414c0.103-0.535,0.151-1.1,0.151-1.699
				h-3.789v-0.781H135.82z"/>
		</g>
		<path fill="#78CAC5" d="M119.966,65.482c0,2.784-2.266,5.04-5.054,5.04c-2.793,0-5.054-2.256-5.054-5.04
			c0-2.78,2.261-5.036,5.054-5.036C117.7,60.446,119.966,62.702,119.966,65.482z"/>
	</g>
	<path fill="#D0D1D2" d="M300,206H0V0h300V206z M1.768,204.229h296.465V1.765H1.768V204.229z"/>
</g>
</svg>
