<?xml version="1.0" encoding="utf-8"?>
<!-- Generator: Adobe Illustrator 15.1.0, SVG Export Plug-In . SVG Version: 6.00 Build 0)  -->
<!DOCTYPE svg PUBLIC "-//W3C//DTD SVG 1.1//EN" "http://www.w3.org/Graphics/SVG/1.1/DTD/svg11.dtd">
<svg version="1.1" id="Layer_1" xmlns="http://www.w3.org/2000/svg" xmlns:xlink="http://www.w3.org/1999/xlink" x="0px" y="0px"
	 width="16.039px" height="16.72px" viewBox="0 0 16.039 16.72" enable-background="new 0 0 16.039 16.72" xml:space="preserve">
<g>
	<g>
		<g>
			<path fill="#0C713C" d="M11.958,10.238c-0.096,0-0.186-0.039-0.25-0.107c-0.13-0.139-0.123-0.357,0.016-0.486
				c1.02-0.955,1.58-2.228,1.58-3.587c0-2.773-2.37-5.029-5.285-5.029c-2.914,0-5.284,2.256-5.284,5.029
				c0,1.286,0.51,2.51,1.437,3.447c0.064,0.064,0.1,0.152,0.1,0.244C4.27,9.838,4.233,9.926,4.167,9.99
				c-0.064,0.064-0.15,0.1-0.24,0.1c-0.094,0-0.18-0.037-0.245-0.104c-1.054-1.065-1.636-2.46-1.636-3.929
				c0-3.152,2.68-5.717,5.973-5.717c3.294,0,5.974,2.564,5.974,5.717c0,1.552-0.639,3.003-1.798,4.089
				C12.13,10.205,12.046,10.238,11.958,10.238z"/>
			<path fill="#0C713C" d="M8.019,16.379c-0.754,0-1.366-0.613-1.366-1.367c0-0.092-0.075-0.168-0.169-0.168H6.228
				c-0.612,0-1.111-0.498-1.111-1.111c0-0.238,0.08-0.469,0.229-0.666c0.046-0.059,0.046-0.143,0-0.203
				c-0.148-0.195-0.229-0.426-0.229-0.666c0-0.611,0.499-1.111,1.111-1.111h0.256c0.094,0,0.169-0.074,0.169-0.168V9.383
				c0-0.189,0.153-0.344,0.343-0.344c0.19,0,0.344,0.154,0.344,0.344v1.535c0,0.094,0.076,0.168,0.169,0.168H8.53
				c0.094,0,0.169-0.074,0.169-0.168V9.383c0-0.189,0.153-0.344,0.344-0.344c0.189,0,0.343,0.154,0.343,0.344v1.535
				c0,0.094,0.076,0.168,0.168,0.168h0.257c0.612,0,1.111,0.5,1.111,1.111c0,0.24-0.079,0.471-0.229,0.666
				c-0.046,0.061-0.046,0.145,0,0.203c0.149,0.197,0.229,0.428,0.229,0.666c0,0.613-0.499,1.111-1.111,1.111H9.554
				c-0.092,0-0.168,0.076-0.168,0.168C9.386,15.766,8.773,16.379,8.019,16.379z M7.508,14.844c-0.093,0-0.169,0.076-0.169,0.168
				c0,0.375,0.306,0.68,0.68,0.68c0.375,0,0.681-0.305,0.681-0.68c0-0.092-0.075-0.168-0.169-0.168H7.508z M6.228,13.309
				c-0.229,0-0.424,0.195-0.424,0.424c0,0.23,0.195,0.424,0.424,0.424h3.583c0.229,0,0.423-0.193,0.423-0.424
				c0-0.229-0.193-0.424-0.423-0.424H6.228z M6.228,11.773c-0.229,0-0.424,0.195-0.424,0.424c0,0.23,0.195,0.424,0.424,0.424h3.583
				c0.229,0,0.423-0.193,0.423-0.424c0-0.229-0.193-0.424-0.423-0.424H6.228z"/>
			<path fill="#0C713C" d="M14.671,2.051c-0.092,0-0.178-0.036-0.242-0.101c-0.135-0.134-0.135-0.352,0-0.486l1.023-1.023
				c0.064-0.065,0.151-0.101,0.242-0.101c0.093,0,0.179,0.036,0.244,0.101c0.133,0.134,0.133,0.352,0,0.486l-1.023,1.023
				C14.85,2.016,14.764,2.051,14.671,2.051z"/>
			<path fill="#0C713C" d="M1.366,2.051c-0.092,0-0.178-0.036-0.242-0.101L0.101,0.927c-0.135-0.134-0.135-0.352,0-0.486
				C0.165,0.376,0.251,0.34,0.344,0.34c0.091,0,0.178,0.036,0.243,0.101L1.61,1.464c0.133,0.134,0.133,0.352,0,0.486
				C1.545,2.016,1.459,2.051,1.366,2.051z"/>
			<path fill="#0C713C" d="M0.344,11.773c-0.093,0-0.179-0.035-0.243-0.1c-0.135-0.135-0.135-0.352,0-0.486l1.023-1.023
				c0.064-0.064,0.15-0.102,0.242-0.102c0.093,0,0.179,0.037,0.244,0.102c0.133,0.133,0.133,0.352,0,0.486l-1.023,1.023
				C0.521,11.738,0.435,11.773,0.344,11.773z"/>
			<path fill="#0C713C" d="M15.694,11.773c-0.091,0-0.178-0.035-0.242-0.1l-1.023-1.023c-0.135-0.135-0.135-0.354,0-0.486
				c0.064-0.064,0.15-0.102,0.242-0.102c0.093,0,0.179,0.037,0.244,0.102l1.023,1.023c0.133,0.135,0.133,0.352,0,0.486
				C15.873,11.738,15.787,11.773,15.694,11.773z"/>
		</g>
		<g>
			<g>
				<path fill="#0C713C" d="M5.408,9.904c-0.143,0-0.272-0.09-0.322-0.225C4.868,9.1,5.003,8.685,5.154,8.442
					c0.438-0.707,1.492-0.845,1.637-0.86C7.685,7.548,8.363,7.26,8.864,6.703c1.035-1.149,1.032-3.098,0.983-3.884
					C9.845,2.768,9.817,2.72,9.774,2.691C9.746,2.672,9.714,2.662,9.68,2.662c-0.018,0-0.034,0.003-0.052,0.008
					c-1.518,0.49-3.35,1.43-3.943,2.598C5.446,5.737,5.412,6.211,5.58,6.716c0.06,0.18-0.038,0.375-0.218,0.435
					C5.327,7.163,5.29,7.168,5.255,7.168c-0.148,0-0.281-0.094-0.328-0.235C4.702,6.254,4.75,5.589,5.071,4.957
					c0.852-1.673,3.351-2.623,4.386-2.953c0.081-0.026,0.165-0.039,0.25-0.039c0.141,0,0.28,0.036,0.401,0.104
					c0.246,0.136,0.403,0.382,0.422,0.659c0.062,0.88,0.07,3.075-1.154,4.436C8.749,7.858,7.897,8.229,6.843,8.267
					c-0.004,0-0.009,0-0.013,0C6.617,8.292,5.96,8.445,5.738,8.806C5.7,8.867,5.585,9.055,5.729,9.439
					c0.066,0.178-0.023,0.377-0.201,0.443C5.489,9.896,5.449,9.904,5.408,9.904z"/>
				<path fill="#0C713C" d="M6.995,6.657c-0.146,0-0.278-0.095-0.325-0.235c-0.06-0.18,0.038-0.375,0.218-0.435
					C7.774,5.691,8.019,5.45,8.196,4.699C8.233,4.542,8.37,4.434,8.528,4.434c0.027,0,0.055,0.003,0.08,0.01
					c0.186,0.043,0.301,0.229,0.257,0.414C8.606,5.959,8.091,6.31,7.104,6.639C7.069,6.651,7.032,6.657,6.995,6.657z"/>
			</g>
		</g>
	</g>
</g>
</svg>
