<?xml version="1.0" encoding="utf-8"?>
<!-- Generator: Adobe Illustrator 15.1.0, SVG Export Plug-In . SVG Version: 6.00 Build 0)  -->
<!DOCTYPE svg PUBLIC "-//W3C//DTD SVG 1.1//EN" "http://www.w3.org/Graphics/SVG/1.1/DTD/svg11.dtd">
<svg version="1.1" id="Layer_1" xmlns="http://www.w3.org/2000/svg" xmlns:xlink="http://www.w3.org/1999/xlink" x="0px" y="0px"
	 width="15.764px" height="16.72px" viewBox="0 0 15.764 16.72" enable-background="new 0 0 15.764 16.72" xml:space="preserve">
<g>
	<g>
		<path fill="#B1313A" d="M10.327,14.747H8.153c-0.15,0-0.272-0.123-0.272-0.272V7.409c0-0.151,0.122-0.272,0.272-0.272h2.174
			c0.151,0,0.271,0.122,0.271,0.272v7.066C10.599,14.624,10.479,14.747,10.327,14.747z M8.425,14.203h1.631V7.681H8.425V14.203z"/>
		<path fill="#B1313A" d="M6.795,14.747H4.62c-0.15,0-0.272-0.123-0.272-0.272V10.67c0-0.151,0.122-0.272,0.272-0.272h2.175
			c0.149,0,0.271,0.121,0.271,0.272v3.804C7.065,14.624,6.944,14.747,6.795,14.747z M4.893,14.203h1.631v-3.261H4.893V14.203z"/>
		<path fill="#B1313A" d="M3.261,14.747H1.087c-0.149,0-0.271-0.123-0.271-0.272V12.3c0-0.149,0.121-0.271,0.271-0.271h2.174
			c0.151,0,0.272,0.122,0.272,0.271v2.175C3.533,14.624,3.412,14.747,3.261,14.747z M1.358,14.203h1.631v-1.631H1.358V14.203z"/>
		<path fill="#B1313A" d="M13.861,14.747h-2.176c-0.149,0-0.271-0.123-0.271-0.272V2.245c0-0.151,0.122-0.272,0.271-0.272h2.176
			c0.149,0,0.271,0.122,0.271,0.272v12.229C14.133,14.624,14.011,14.747,13.861,14.747z M11.958,14.203h1.63V2.517h-1.63V14.203z"/>
		<path fill="#B1313A" d="M15.49,14.747H0.271C0.122,14.747,0,14.624,0,14.475c0-0.15,0.122-0.272,0.271-0.272H15.49
			c0.151,0,0.273,0.122,0.273,0.272C15.764,14.624,15.642,14.747,15.49,14.747z"/>
		<path fill="#B1313A" d="M2.719,10.305c-0.073,0-0.143-0.029-0.193-0.08L0.988,8.688C0.883,8.583,0.882,8.411,0.986,8.305
			l5.152-5.244L5.515,2.438C5.437,2.359,5.414,2.243,5.456,2.141c0.042-0.102,0.142-0.168,0.251-0.168h0.001l3.261,0.004
			C9.118,1.977,9.24,2.1,9.24,2.25v2.984c0,0.11-0.066,0.209-0.167,0.252c-0.103,0.042-0.219,0.02-0.297-0.059l-0.62-0.621
			l-5.243,5.416c-0.051,0.052-0.119,0.082-0.192,0.083H2.719z M1.563,8.494l1.151,1.152L7.957,4.23
			c0.052-0.052,0.121-0.083,0.194-0.083h0.002c0.07,0,0.141,0.029,0.191,0.081l0.354,0.351V2.521L6.363,2.517l0.352,0.351
			C6.82,2.973,6.82,3.143,6.716,3.251L1.563,8.494z"/>
	</g>
</g>
</svg>
