<?xml version="1.0" encoding="utf-8"?>
<!-- Generator: Adobe Illustrator 15.1.0, SVG Export Plug-In . SVG Version: 6.00 Build 0)  -->
<!DOCTYPE svg PUBLIC "-//W3C//DTD SVG 1.1//EN" "http://www.w3.org/Graphics/SVG/1.1/DTD/svg11.dtd">
<svg version="1.1" id="Layer_1" xmlns="http://www.w3.org/2000/svg" xmlns:xlink="http://www.w3.org/1999/xlink" x="0px" y="0px"
	 width="16.72px" height="16.72px" viewBox="0 0 16.72 16.72" enable-background="new 0 0 16.72 16.72" xml:space="preserve">
<path fill="#0C713C" d="M16.64,8.136c-0.806-0.978-1.922-1.649-3.155-1.902c0.694-1.052,1.009-2.313,0.887-3.573
	c-0.016-0.167-0.148-0.299-0.314-0.314c-1.264-0.122-2.525,0.191-3.576,0.885c-0.254-1.235-0.923-2.35-1.899-3.154
	c-0.126-0.103-0.321-0.102-0.445,0C7.16,0.884,6.489,1.999,6.235,3.232C5.182,2.536,3.927,2.224,2.661,2.346
	C2.496,2.362,2.364,2.494,2.347,2.66C2.227,3.922,2.54,5.185,3.231,6.236c-1.234,0.253-2.348,0.923-3.153,1.9
	c-0.105,0.129-0.105,0.316,0,0.445C0.886,9.559,2,10.23,3.233,10.483c-0.694,1.051-1.008,2.313-0.887,3.574
	c0.017,0.167,0.149,0.298,0.315,0.314c1.275,0.122,2.52-0.193,3.575-0.89c0.252,1.236,0.923,2.353,1.901,3.159
	c0.063,0.051,0.142,0.079,0.222,0.079c0.082,0,0.159-0.027,0.224-0.079c0.975-0.807,1.646-1.921,1.9-3.152
	c1.053,0.695,2.307,1.007,3.574,0.884c0.166-0.016,0.298-0.148,0.314-0.314c0.122-1.262-0.193-2.525-0.885-3.577
	c1.235-0.253,2.348-0.923,3.153-1.899C16.747,8.453,16.747,8.265,16.64,8.136z M9.884,9.644c0.186-0.219,0.32-0.473,0.397-0.746
	c0.752,0.232,1.443,0.646,1.999,1.203c0.95,0.95,1.463,2.254,1.416,3.594c-1.132,0.041-2.21-0.306-3.108-0.995
	c0.007-0.111,0.013-0.224,0.013-0.336C10.6,11.411,10.353,10.473,9.884,9.644z M6.835,7.074C6.651,7.292,6.516,7.546,6.439,7.818
	c-0.752-0.231-1.443-0.646-2-1.203c-0.95-0.95-1.461-2.254-1.416-3.594c1.135-0.042,2.211,0.306,3.108,0.995
	C6.125,4.128,6.121,4.24,6.121,4.353C6.121,5.306,6.368,6.246,6.835,7.074z M9.067,9.445C8.907,9.552,8.726,9.619,8.53,9.644
	C8.391,9.662,8.239,9.659,8.092,9.628c-0.188-0.039-0.364-0.121-0.52-0.241C7.454,9.296,7.354,9.189,7.274,9.066
	C7.167,8.903,7.1,8.72,7.074,8.525c-0.006-0.055-0.011-0.11-0.011-0.167c0-0.091,0.009-0.181,0.028-0.269
	c0.04-0.188,0.121-0.363,0.241-0.519c0.09-0.118,0.199-0.218,0.32-0.298C7.816,7.166,7.997,7.099,8.19,7.074
	c0.056-0.007,0.112-0.013,0.17-0.013c0.089,0,0.179,0.009,0.268,0.028C8.816,7.129,8.991,7.21,9.147,7.33
	c0.119,0.091,0.219,0.199,0.299,0.321c0.106,0.163,0.173,0.343,0.199,0.538c0.007,0.055,0.013,0.112,0.013,0.17
	c0,0.088-0.009,0.179-0.027,0.268C9.59,8.814,9.508,8.99,9.389,9.146C9.299,9.265,9.19,9.365,9.067,9.445z M12.701,6.131
	C11.643,6.063,10.57,6.31,9.645,6.833C9.426,6.648,9.172,6.513,8.9,6.437c0.231-0.752,0.646-1.442,1.203-2
	c0.955-0.955,2.24-1.461,3.593-1.415C13.736,4.142,13.386,5.239,12.701,6.131z M9.608,3.942C8.935,4.616,8.445,5.455,8.19,6.371
	C7.906,6.396,7.63,6.48,7.383,6.619C7.015,5.923,6.82,5.142,6.82,4.353c0-1.343,0.56-2.627,1.541-3.541
	C9.18,1.574,9.708,2.598,9.854,3.713C9.771,3.786,9.687,3.863,9.608,3.942z M3.714,6.863C3.79,6.948,3.865,7.03,3.944,7.11
	c0.67,0.669,1.507,1.157,2.429,1.414C6.396,8.809,6.48,9.086,6.621,9.335C5.924,9.705,5.144,9.899,4.354,9.899
	c-1.342,0-2.626-0.561-3.541-1.541C1.575,7.539,2.601,7.01,3.714,6.863z M4.018,10.587c1.059,0.067,2.131-0.18,3.057-0.704
	c0.219,0.185,0.475,0.32,0.746,0.397c-0.23,0.752-0.646,1.442-1.203,1.999c-0.956,0.956-2.239,1.465-3.594,1.415
	C2.983,12.576,3.333,11.478,4.018,10.587z M7.111,12.774c0.674-0.673,1.164-1.511,1.418-2.428c0.285-0.024,0.56-0.109,0.808-0.248
	C9.706,10.794,9.9,11.575,9.9,12.364c0,1.343-0.561,2.627-1.541,3.541C7.539,15.141,7.011,14.115,6.865,13
	C6.949,12.927,7.032,12.854,7.111,12.774z M13.005,9.854c-0.074-0.084-0.149-0.167-0.23-0.246c-0.673-0.674-1.511-1.163-2.427-1.417
	c-0.024-0.286-0.108-0.562-0.249-0.808c0.695-0.369,1.478-0.563,2.266-0.563c1.343,0,2.628,0.56,3.541,1.54
	C15.144,9.179,14.119,9.707,13.005,9.854z"/>
</svg>
