<?xml version="1.0" encoding="utf-8"?>
<!-- Generator: Adobe Illustrator 15.1.0, SVG Export Plug-In . SVG Version: 6.00 Build 0)  -->
<!DOCTYPE svg PUBLIC "-//W3C//DTD SVG 1.1//EN" "http://www.w3.org/Graphics/SVG/1.1/DTD/svg11.dtd">
<svg version="1.1" id="Layer_1" xmlns="http://www.w3.org/2000/svg" xmlns:xlink="http://www.w3.org/1999/xlink" x="0px" y="0px"
	 width="16.699px" height="16.72px" viewBox="0 0 16.699 16.72" enable-background="new 0 0 16.699 16.72" xml:space="preserve">
<g>
	<g>
		<path fill="#134D87" d="M8.351,12.42c-0.09,0-0.178-0.035-0.247-0.104c-0.587-0.588-1.187-1.059-1.716-1.479
			c-1.036-0.814-1.931-1.521-2.163-2.645c-0.139-0.672,0.014-1.375,0.417-1.93c0.376-0.516,0.921-0.838,1.536-0.906
			c0.829-0.092,1.669,0.256,2.173,0.83c0.502-0.574,1.348-0.922,2.172-0.83c0.614,0.068,1.161,0.391,1.537,0.906
			c0.402,0.555,0.554,1.258,0.415,1.93c-0.231,1.123-1.126,1.83-2.162,2.645c-0.529,0.42-1.129,0.891-1.717,1.479
			C8.527,12.385,8.439,12.42,8.351,12.42z M6.436,6.039c-0.062,0-0.121,0.002-0.183,0.01c-0.417,0.047-0.79,0.268-1.05,0.623
			c-0.287,0.396-0.396,0.9-0.296,1.381c0.181,0.875,0.944,1.477,1.911,2.24c0.472,0.371,0.998,0.789,1.532,1.293
			c0.532-0.504,1.059-0.922,1.531-1.293c0.966-0.764,1.73-1.365,1.911-2.24c0.099-0.48-0.009-0.982-0.298-1.381
			c-0.258-0.355-0.631-0.576-1.049-0.623c-0.729-0.08-1.521,0.34-1.779,0.914C8.61,7.088,8.486,7.166,8.351,7.166
			c-0.137,0-0.261-0.078-0.317-0.203C7.795,6.436,7.108,6.039,6.436,6.039z"/>
		<path fill="#134D87" d="M8.351,14.969c-3.645,0-6.61-2.965-6.61-6.609c0-3.646,2.966-6.609,6.61-6.609s6.609,2.963,6.609,6.609
			C14.96,12.004,11.995,14.969,8.351,14.969z M8.351,2.445c-3.262,0-5.915,2.652-5.915,5.914s2.653,5.916,5.915,5.916
			c3.261,0,5.914-2.654,5.914-5.916S11.611,2.445,8.351,2.445z"/>
		<path fill="#134D87" d="M3.479,8.707H0.349C0.156,8.707,0,8.551,0,8.359c0-0.193,0.156-0.348,0.349-0.348h3.131
			c0.192,0,0.348,0.154,0.348,0.348C3.827,8.551,3.672,8.707,3.479,8.707z"/>
		<path fill="#134D87" d="M16.353,8.707H13.22c-0.191,0-0.347-0.156-0.347-0.348c0-0.193,0.155-0.348,0.347-0.348h3.133
			c0.192,0,0.347,0.154,0.347,0.348C16.699,8.551,16.545,8.707,16.353,8.707z"/>
		<path fill="#134D87" d="M8.351,3.836c-0.192,0-0.349-0.156-0.349-0.348V0.357c0-0.193,0.156-0.348,0.349-0.348
			s0.348,0.154,0.348,0.348v3.131C8.698,3.68,8.543,3.836,8.351,3.836z"/>
		<path fill="#134D87" d="M8.351,16.709c-0.192,0-0.349-0.156-0.349-0.348v-3.133c0-0.191,0.156-0.346,0.349-0.346
			s0.348,0.154,0.348,0.346v3.133C8.698,16.553,8.543,16.709,8.351,16.709z"/>
	</g>
</g>
</svg>
