<?xml version="1.0" encoding="utf-8"?>
<!-- Generator: Adobe Illustrator 15.1.0, SVG Export Plug-In . SVG Version: 6.00 Build 0)  -->
<!DOCTYPE svg PUBLIC "-//W3C//DTD SVG 1.1//EN" "http://www.w3.org/Graphics/SVG/1.1/DTD/svg11.dtd">
<svg version="1.1" id="Layer_1" xmlns="http://www.w3.org/2000/svg" xmlns:xlink="http://www.w3.org/1999/xlink" x="0px" y="0px"
	 width="17.575px" height="16.72px" viewBox="0 0 17.575 16.72" enable-background="new 0 0 17.575 16.72" xml:space="preserve">
<g>
	<path fill="#B1313A" d="M3.261,8.343c-0.004,0-0.007,0-0.01,0V7.647c0.003,0,0.006,0,0.01,0c0.71,0,1.995-0.173,2.687-1.329
		c1.028-1.72,1.035-3.869,0.056-5.269c-0.706,0.643-1.641,1.063-2.55,1.472C2.345,3.019,1.297,3.488,0.941,4.266
		C0.138,5.998,1.43,7.176,2.27,7.725l-0.377,0.58C0.167,7.182-0.425,5.563,0.309,3.974C0.777,2.961,1.94,2.44,3.17,1.89
		c0.973-0.438,1.98-0.892,2.604-1.593l0.261-0.293l0.26,0.295c1.398,1.599,1.504,4.279,0.249,6.375
		C5.676,8.123,4.119,8.343,3.261,8.343z"/>
	<path fill="#B1313A" d="M9.743,16.716c-4.319,0-7.832-3.514-7.832-7.832c0-2.346,1.039-4.55,2.849-6.042l0.442,0.534
		C3.551,4.737,2.606,6.744,2.606,8.884c0,3.937,3.201,7.138,7.137,7.138s7.138-3.201,7.138-7.138c0-3.935-3.202-7.136-7.138-7.136
		c-0.604,0-1.209,0.075-1.795,0.226L7.775,1.302c0.642-0.165,1.305-0.249,1.968-0.249c4.318,0,7.832,3.514,7.832,7.831
		C17.575,13.202,14.062,16.716,9.743,16.716z"/>
	<polygon fill="#B1313A" points="14.047,8.979 13.165,8.1 11.689,8.1 10.95,7.357 10.212,7.357 9.842,6.989 7.792,6.989 
		7.792,5.563 9.464,4.816 10.007,4.816 10.007,4.255 11.718,2.97 13.308,2.97 13.308,3.665 11.948,3.665 10.702,4.601 10.702,5.512 
		9.541,5.512 8.488,6.005 8.488,6.294 10.128,6.294 10.498,6.662 11.238,6.662 11.977,7.405 13.45,7.405 14.047,7.998 14.642,7.405 
		16.265,7.405 16.265,8.1 14.93,8.1 	"/>
	<path fill="#B1313A" d="M11.238,14.376H9.841L9.27,13.805v-1.848l-0.535-0.536H7.997L6.172,9.599l1.825-1.828h1.764l1.108,1.108
		h0.739l1.823,1.826l-1.249,1.252v1.478L11.238,14.376z M10.129,13.682h0.82l0.536-0.536v-1.477l0.964-0.964l-1.13-1.131h-0.738
		L9.473,8.466H8.285L7.152,9.599l1.132,1.126h0.738l0.942,0.944v1.848L10.129,13.682z"/>
</g>
</svg>
