<?xml version="1.0" encoding="utf-8"?>
<!-- Generator: Adobe Illustrator 16.0.0, SVG Export Plug-In . SVG Version: 6.00 Build 0)  -->
<!DOCTYPE svg PUBLIC "-//W3C//DTD SVG 1.1//EN" "http://www.w3.org/Graphics/SVG/1.1/DTD/svg11.dtd">
<svg version="1.1" id="Layer_1" xmlns="http://www.w3.org/2000/svg" xmlns:xlink="http://www.w3.org/1999/xlink" x="0px" y="0px"
	 width="70px" height="70px" viewBox="0 0 70 70" enable-background="new 0 0 70 70" xml:space="preserve">
<g>
	<g>
		<g>
			<path fill="#05703C" d="M52.202,43.205c-0.418,0-0.81-0.17-1.092-0.473c-0.567-0.605-0.537-1.561,0.068-2.124
				c4.452-4.167,6.9-9.728,6.9-15.664c0-12.111-10.35-21.962-23.08-21.962c-12.725,0-23.075,9.851-23.075,21.962
				c0,5.617,2.226,10.96,6.273,15.05c0.282,0.286,0.435,0.665,0.435,1.066c-0.004,0.397-0.162,0.776-0.452,1.058
				c-0.281,0.282-0.657,0.435-1.049,0.435c-0.41,0-0.785-0.162-1.07-0.448c-4.602-4.652-7.143-10.747-7.143-17.161
				c0-13.766,11.702-24.964,26.082-24.964c14.384,0,26.086,11.199,26.086,24.964c0,6.776-2.789,13.118-7.851,17.856
				C52.953,43.06,52.586,43.205,52.202,43.205z"/>
			<path fill="#05703C" d="M34.999,70.02c-3.292,0-5.966-2.678-5.966-5.97c0-0.405-0.329-0.733-0.738-0.733h-1.117
				c-2.674,0-4.853-2.179-4.853-4.853c0-1.041,0.35-2.051,0.998-2.909c0.201-0.26,0.201-0.626,0-0.887
				c-0.648-0.857-0.998-1.864-0.998-2.909c0-2.674,2.179-4.853,4.853-4.853h1.117c0.409,0,0.738-0.328,0.738-0.733v-6.704
				c0-0.828,0.669-1.501,1.497-1.501c0.832,0,1.501,0.674,1.501,1.501v6.704c0,0.405,0.333,0.733,0.738,0.733h4.465
				c0.409,0,0.738-0.328,0.738-0.733v-6.704c0-0.828,0.669-1.501,1.501-1.501c0.827,0,1.497,0.674,1.497,1.501v6.704
				c0,0.405,0.333,0.733,0.733,0.733h1.122c2.674,0,4.853,2.179,4.853,4.853c0,1.045-0.346,2.051-0.998,2.909
				c-0.2,0.26-0.2,0.627,0,0.887c0.652,0.857,0.998,1.868,0.998,2.909c0,2.674-2.179,4.853-4.853,4.853h-1.122
				c-0.401,0-0.733,0.328-0.733,0.733C40.97,67.342,38.296,70.02,34.999,70.02z M32.769,63.316c-0.405,0-0.738,0.328-0.738,0.733
				c0,1.638,1.334,2.968,2.968,2.968c1.638,0,2.973-1.331,2.973-2.968c0-0.405-0.329-0.733-0.738-0.733H32.769z M27.178,56.612
				c-0.998,0-1.851,0.849-1.851,1.851c0,1.002,0.853,1.851,1.851,1.851h15.646c1.002,0,1.847-0.849,1.847-1.851
				c0-1.002-0.845-1.851-1.847-1.851H27.178z M27.178,49.909c-0.998,0-1.851,0.849-1.851,1.851c0,1.002,0.853,1.851,1.851,1.851
				h15.646c1.002,0,1.847-0.849,1.847-1.851c0-1.002-0.845-1.851-1.847-1.851H27.178z"/>
			<path fill="#05703C" d="M64.049,7.451c-0.401,0-0.776-0.156-1.058-0.439c-0.589-0.586-0.589-1.538,0-2.124l4.469-4.469
				c0.281-0.284,0.661-0.439,1.058-0.439c0.405,0,0.78,0.156,1.066,0.439c0.58,0.586,0.58,1.537,0,2.124l-4.469,4.469
				C64.83,7.295,64.454,7.451,64.049,7.451z"/>
			<path fill="#05703C" d="M5.949,7.451c-0.401,0-0.776-0.156-1.058-0.439L0.422,2.542c-0.588-0.586-0.588-1.538,0-2.124
				c0.281-0.284,0.657-0.439,1.062-0.439c0.396,0,0.776,0.156,1.062,0.439l4.469,4.469c0.58,0.586,0.58,1.537,0,2.124
				C6.729,7.295,6.354,7.451,5.949,7.451z"/>
			<path fill="#05703C" d="M1.484,49.909c-0.405,0-0.781-0.158-1.062-0.439c-0.588-0.584-0.588-1.535,0-2.124l4.469-4.469
				c0.281-0.281,0.657-0.439,1.058-0.439c0.405,0,0.78,0.158,1.066,0.439c0.58,0.584,0.58,1.54,0,2.124l-4.469,4.469
				C2.26,49.751,1.881,49.909,1.484,49.909z"/>
			<path fill="#05703C" d="M68.519,49.909c-0.397,0-0.776-0.158-1.058-0.439L62.992,45c-0.589-0.584-0.589-1.54,0-2.124
				c0.281-0.281,0.657-0.439,1.058-0.439c0.405,0,0.78,0.158,1.066,0.439l4.469,4.469c0.58,0.588,0.58,1.54,0,2.124
				C69.299,49.751,68.923,49.909,68.519,49.909z"/>
		</g>
		<g>
			<g>
				<path fill="#05703C" d="M23.6,41.742c-0.623,0-1.19-0.393-1.407-0.977c-0.951-2.54-0.363-4.344,0.298-5.408
					c1.915-3.087,6.516-3.688,7.147-3.757c3.902-0.147,6.866-1.403,9.054-3.836c4.521-5.017,4.507-13.529,4.294-16.96
					c-0.013-0.224-0.132-0.433-0.32-0.559c-0.124-0.085-0.265-0.128-0.414-0.128c-0.077,0-0.149,0.013-0.226,0.036
					C35.4,12.295,27.4,16.4,24.807,21.5c-1.041,2.047-1.19,4.117-0.457,6.322c0.26,0.785-0.167,1.638-0.951,1.897
					c-0.153,0.051-0.315,0.077-0.469,0.077c-0.648,0-1.229-0.411-1.433-1.027c-0.981-2.966-0.772-5.87,0.631-8.632
					C25.848,12.833,36.76,8.686,41.281,7.242c0.354-0.113,0.721-0.168,1.092-0.168c0.614,0,1.224,0.155,1.753,0.454
					c1.074,0.593,1.761,1.667,1.842,2.876c0.269,3.844,0.307,13.429-5.041,19.369c-2.738,3.037-6.457,4.657-11.062,4.819
					c-0.017,0-0.039,0.002-0.056,0.004c-0.93,0.109-3.799,0.774-4.768,2.35c-0.167,0.269-0.669,1.083-0.039,2.77
					c0.29,0.776-0.102,1.642-0.878,1.932C23.954,41.708,23.779,41.742,23.6,41.742z"/>
				<path fill="#05703C" d="M30.53,27.564c-0.64,0-1.215-0.414-1.42-1.027c-0.26-0.787,0.167-1.638,0.951-1.9
					c3.872-1.292,4.938-2.346,5.714-5.623c0.162-0.685,0.759-1.16,1.45-1.16c0.12,0,0.239,0.013,0.35,0.042
					c0.81,0.19,1.313,1,1.122,1.806c-1.13,4.814-3.382,6.346-7.689,7.783C30.854,27.537,30.692,27.564,30.53,27.564z"/>
			</g>
		</g>
	</g>
</g>
<g>
</g>
<g>
</g>
<g>
</g>
<g>
</g>
<g>
</g>
<g>
</g>
<g>
</g>
<g>
</g>
<g>
</g>
<g>
</g>
<g>
</g>
<g>
</g>
<g>
</g>
<g>
</g>
<g>
</g>
</svg>
