<?xml version="1.0" encoding="utf-8"?>
<!-- Generator: Adobe Illustrator 15.1.0, SVG Export Plug-In . SVG Version: 6.00 Build 0)  -->
<!DOCTYPE svg PUBLIC "-//W3C//DTD SVG 1.1//EN" "http://www.w3.org/Graphics/SVG/1.1/DTD/svg11.dtd">
<svg version="1.1" id="Layer_1" xmlns="http://www.w3.org/2000/svg" xmlns:xlink="http://www.w3.org/1999/xlink" x="0px" y="0px"
	 width="19.432px" height="16.72px" viewBox="0 0 19.432 16.72" enable-background="new 0 0 19.432 16.72" xml:space="preserve">
<g>
	<g>
		<g>
			<g>
				<g>
					<g>
						<g>
							<g>
								<g>
									<path fill="#0C713C" d="M9.716,15.929H1.171C0.525,15.929,0,15.403,0,14.758V3.23C0,2.585,0.525,2.06,1.171,2.06h0.996
										c0.211,0,0.383,0.171,0.383,0.382S2.378,2.824,2.167,2.824H1.171c-0.225,0-0.406,0.183-0.406,0.407v11.527
										c0,0.224,0.182,0.406,0.406,0.406h8.545c0.211,0,0.382,0.171,0.382,0.382S9.927,15.929,9.716,15.929z"/>
								</g>
							</g>
						</g>
					</g>
				</g>
			</g>
		</g>
		<g>
			<g>
				<g>
					<g>
						<g>
							<g>
								<g>
									<path fill="#0C713C" d="M18.261,15.929H9.716c-0.211,0-0.383-0.172-0.383-0.383s0.172-0.382,0.383-0.382h8.545
										c0.225,0,0.406-0.183,0.406-0.406V3.23c0-0.224-0.182-0.407-0.406-0.407h-0.996c-0.211,0-0.383-0.171-0.383-0.382
										s0.172-0.382,0.383-0.382h0.996c0.646,0,1.171,0.525,1.171,1.171v11.527C19.432,15.403,18.906,15.929,18.261,15.929z"/>
								</g>
							</g>
						</g>
					</g>
				</g>
			</g>
		</g>
		<g>
			<g>
				<g>
					<g>
						<g>
							<g>
								<g>
									<path fill="#0C713C" d="M9.716,15.929c-0.09,0-0.18-0.033-0.252-0.095c-1.449-1.263-3.473-1.78-6.561-1.679
										c-0.295,0.011-0.574-0.099-0.786-0.304c-0.214-0.208-0.332-0.485-0.332-0.783V1.927c0-0.578,0.454-1.056,1.034-1.088
										c2.731-0.147,5.49-0.053,7.166,1.611c0.072,0.072,0.112,0.169,0.112,0.271v12.824c0,0.15-0.087,0.286-0.224,0.348
										C9.823,15.917,9.769,15.929,9.716,15.929z M3.639,13.378c2.485,0,4.294,0.441,5.694,1.392V2.886
										C7.854,1.535,5.352,1.468,2.86,1.603C2.687,1.612,2.55,1.755,2.55,1.927v11.141c0,0.089,0.035,0.171,0.099,0.233
										c0.063,0.061,0.144,0.094,0.229,0.09C3.139,13.382,3.392,13.378,3.639,13.378z"/>
								</g>
							</g>
						</g>
					</g>
				</g>
			</g>
		</g>
		<g>
			<g>
				<g>
					<g>
						<g>
							<g>
								<g>
									<path fill="#0C713C" d="M9.716,15.929c-0.054,0-0.107-0.012-0.159-0.035c-0.136-0.062-0.224-0.197-0.224-0.348V2.722
										c0-0.102,0.041-0.199,0.113-0.271c1.676-1.664,4.434-1.757,7.165-1.611c0.581,0.032,1.035,0.51,1.035,1.088v11.141
										c0,0.298-0.118,0.575-0.332,0.783c-0.212,0.206-0.496,0.312-0.787,0.304c-3.087-0.102-5.11,0.416-6.561,1.679
										C9.896,15.896,9.806,15.929,9.716,15.929z M10.098,2.886V14.77c1.54-1.046,3.573-1.475,6.456-1.378
										c0.084,0.004,0.167-0.029,0.23-0.09c0.063-0.063,0.098-0.145,0.098-0.233V1.927c0-0.172-0.137-0.315-0.313-0.324
										C14.079,1.468,11.578,1.535,10.098,2.886z"/>
								</g>
							</g>
						</g>
					</g>
				</g>
			</g>
		</g>
	</g>
</g>
</svg>
