<?xml version="1.0" encoding="utf-8"?>
<!-- Generator: Adobe Illustrator 15.1.0, SVG Export Plug-In . SVG Version: 6.00 Build 0)  -->
<!DOCTYPE svg PUBLIC "-//W3C//DTD SVG 1.1//EN" "http://www.w3.org/Graphics/SVG/1.1/DTD/svg11.dtd">
<svg version="1.1" id="Layer_1" xmlns="http://www.w3.org/2000/svg" xmlns:xlink="http://www.w3.org/1999/xlink" x="0px" y="0px"
	 width="17.006px" height="16.72px" viewBox="0 0 17.006 16.72" enable-background="new 0 0 17.006 16.72" xml:space="preserve">
<g>
	<path fill="#B1313A" d="M11.883,10.054h-2.18c-0.119,0-0.226,0.074-0.269,0.185C9.39,10.35,9.42,10.476,9.506,10.557
		c0.17,0.157,0.27,0.348,0.27,0.511c0,0.493-0.461,0.878-0.96,0.781c-0.326-0.064-0.583-0.355-0.627-0.707
		c-0.018-0.145,0.002-0.174,0.114-0.332c0.058-0.083,0.13-0.187,0.208-0.328c0.048-0.09,0.046-0.198-0.005-0.288
		c-0.053-0.087-0.146-0.141-0.249-0.141H6.373V8.672C6.51,8.726,6.657,8.755,6.808,8.755c0.744,0,1.361-0.606,1.375-1.35
		C8.192,6.902,7.88,6.412,7.387,6.154c-0.344-0.179-0.692-0.198-1.01-0.062V4.551c0-0.16-0.13-0.29-0.29-0.29H4.478
		c0.056-0.137,0.085-0.28,0.085-0.425c0-0.759-0.617-1.376-1.377-1.376c-0.758,0-1.375,0.617-1.375,1.376
		c0,0.143,0.03,0.288,0.085,0.425H0.29C0.13,4.261,0,4.391,0,4.551v11.88c0,0.16,0.13,0.289,0.29,0.289h11.593
		c0.16,0,0.289-0.129,0.289-0.289v-6.086C12.172,10.184,12.043,10.054,11.883,10.054z M2.461,4.841c0.125,0,0.234-0.079,0.275-0.196
		c0.04-0.117,0.002-0.247-0.095-0.322C2.488,4.203,2.39,4.013,2.39,3.836c0-0.439,0.357-0.796,0.796-0.796
		c0.44,0,0.798,0.357,0.798,0.796c0,0.173-0.098,0.357-0.26,0.493C3.631,4.407,3.596,4.536,3.638,4.649
		C3.68,4.765,3.789,4.841,3.91,4.841h1.887v1.814c0,0.118,0.071,0.225,0.182,0.269c0.11,0.043,0.236,0.016,0.318-0.07
		c0.272-0.286,0.519-0.342,0.821-0.186c0.3,0.157,0.49,0.441,0.486,0.725C7.595,7.825,7.238,8.174,6.808,8.174
		c-0.19,0-0.378-0.094-0.493-0.245C6.24,7.829,6.11,7.788,5.991,7.828c-0.118,0.04-0.197,0.15-0.197,0.275v1.951H4.475
		c0.058-0.14,0.088-0.288,0.088-0.435c0-0.758-0.617-1.375-1.377-1.375c-0.758,0-1.375,0.617-1.375,1.375
		c0,0.147,0.03,0.295,0.087,0.435H0.58V4.841H2.461z M0.58,10.633h1.881c0.125,0,0.234-0.077,0.275-0.196
		c0.04-0.115,0.002-0.245-0.095-0.321C2.492,9.999,2.39,9.799,2.39,9.62c0-0.438,0.357-0.796,0.796-0.796
		c0.44,0,0.798,0.358,0.798,0.796c0,0.176-0.1,0.369-0.26,0.502c-0.093,0.079-0.128,0.207-0.086,0.322
		c0.042,0.115,0.151,0.189,0.272,0.189h1.887v1.25c-0.141-0.056-0.29-0.086-0.435-0.086c-0.759,0-1.376,0.617-1.376,1.375
		c0,0.758,0.617,1.375,1.376,1.375c0.142,0,0.292-0.032,0.435-0.088v1.682H0.58V10.633z M11.592,16.141H6.377v-2.245
		c0-0.126-0.082-0.238-0.203-0.277c-0.119-0.037-0.251,0.006-0.324,0.108c-0.081,0.114-0.301,0.24-0.487,0.24
		c-0.438,0-0.797-0.358-0.797-0.796c0-0.439,0.358-0.796,0.797-0.796c0.197,0,0.406,0.124,0.487,0.238
		c0.072,0.104,0.203,0.148,0.324,0.11c0.12-0.038,0.203-0.151,0.203-0.277v-1.814h1.346c-0.085,0.146-0.143,0.314-0.11,0.582
		c0.074,0.596,0.523,1.091,1.091,1.202c0.091,0.017,0.184,0.027,0.274,0.027c0.76,0,1.376-0.618,1.376-1.376
		c0-0.145-0.032-0.291-0.093-0.435h1.33V16.141z"/>
	<path fill="#B1313A" d="M17.006,4.387c0-0.078-0.032-0.151-0.087-0.205l-1.137-1.139c0.14-0.057,0.266-0.141,0.369-0.244
		c0.26-0.261,0.403-0.606,0.403-0.974c0-0.367-0.144-0.713-0.403-0.973c-0.259-0.26-0.605-0.402-0.973-0.402
		c-0.366,0-0.713,0.143-0.973,0.402c-0.104,0.104-0.187,0.23-0.246,0.369l-1.137-1.136C12.769,0.031,12.695,0,12.62,0
		c-0.077,0-0.152,0.031-0.205,0.086L8.319,4.182C8.265,4.236,8.233,4.309,8.233,4.387c0,0.077,0.031,0.15,0.085,0.205l1.536,1.535
		c0.056,0.057,0.13,0.085,0.206,0.085c0.002,0,0.004,0,0.006,0c0.159,0,0.289-0.13,0.289-0.291c0-0.028-0.004-0.055-0.012-0.081
		c-0.008-0.177,0.06-0.365,0.176-0.481c0.3-0.301,0.824-0.301,1.126,0c0.15,0.15,0.233,0.35,0.233,0.563
		c0,0.213-0.083,0.414-0.233,0.563c-0.122,0.124-0.333,0.191-0.536,0.172c-0.12-0.013-0.237,0.057-0.29,0.168
		c-0.05,0.109-0.027,0.24,0.059,0.326l1.537,1.536c0.053,0.055,0.128,0.084,0.205,0.084c0.075,0,0.148-0.03,0.203-0.084l1.135-1.135
		c0.059,0.136,0.143,0.261,0.248,0.367c0.26,0.259,0.606,0.403,0.973,0.403c0.357,0,0.696-0.138,0.954-0.385
		c0.362-0.349,0.489-0.917,0.321-1.448c-0.116-0.369-0.35-0.627-0.675-0.758l1.14-1.14C16.974,4.537,17.006,4.464,17.006,4.387z
		 M14.974,5.716c-0.085,0.085-0.107,0.211-0.061,0.32c0.045,0.109,0.151,0.181,0.272,0.176l0.04-0.001
		c0.369,0,0.578,0.139,0.676,0.454c0.102,0.321,0.036,0.658-0.169,0.854c-0.304,0.292-0.819,0.287-1.116-0.009
		c-0.134-0.134-0.201-0.334-0.175-0.523c0.017-0.124-0.045-0.244-0.156-0.299c-0.112-0.056-0.246-0.034-0.334,0.054L12.62,8.072
		L11.687,7.14c0.14-0.06,0.266-0.142,0.369-0.246c0.26-0.26,0.403-0.604,0.403-0.973c0-0.367-0.144-0.713-0.403-0.973
		c-0.26-0.26-0.605-0.403-0.973-0.403s-0.713,0.143-0.972,0.403c-0.104,0.104-0.189,0.23-0.246,0.369L8.933,4.387L12.62,0.7
		l1.331,1.332c0.086,0.088,0.22,0.11,0.33,0.056c0.111-0.055,0.177-0.173,0.162-0.296c-0.022-0.189,0.045-0.402,0.173-0.528
		c0.301-0.301,0.823-0.301,1.125,0c0.151,0.15,0.235,0.35,0.235,0.562c0,0.213-0.084,0.414-0.235,0.564
		c-0.122,0.122-0.329,0.19-0.536,0.171c-0.122-0.012-0.237,0.056-0.29,0.166c-0.05,0.111-0.027,0.243,0.059,0.328l1.333,1.332
		L14.974,5.716z"/>
</g>
</svg>
