<?xml version="1.0" encoding="utf-8"?>
<!-- Generator: Adobe Illustrator 16.0.0, SVG Export Plug-In . SVG Version: 6.00 Build 0)  -->
<!DOCTYPE svg PUBLIC "-//W3C//DTD SVG 1.1//EN" "http://www.w3.org/Graphics/SVG/1.1/DTD/svg11.dtd">
<svg version="1.1" id="Layer_1" xmlns="http://www.w3.org/2000/svg" xmlns:xlink="http://www.w3.org/1999/xlink" x="0px" y="0px"
	 width="70px" height="70px" viewBox="0 0 70 70" enable-background="new 0 0 70 70" xml:space="preserve">
<g>
	<g>
		<path fill="#0F4C86" d="M35.026,52.049c-0.376,0-0.745-0.143-1.034-0.427c-2.466-2.463-4.979-4.442-7.2-6.196
			c-4.343-3.427-8.095-6.386-9.07-11.098c-0.581-2.82,0.055-5.772,1.746-8.095c1.575-2.167,3.865-3.514,6.44-3.799
			c3.478-0.384,7.006,1.074,9.118,3.481c2.108-2.407,5.655-3.865,9.111-3.481c2.579,0.285,4.869,1.633,6.444,3.799
			c1.69,2.323,2.326,5.275,1.746,8.095c-0.972,4.712-4.728,7.671-9.074,11.098c-2.218,1.754-4.734,3.733-7.197,6.196
			C35.771,51.906,35.398,52.049,35.026,52.049z M26.993,25.294c-0.256,0-0.508,0.011-0.764,0.04
			c-1.753,0.194-3.317,1.122-4.402,2.616c-1.209,1.659-1.662,3.77-1.246,5.787c0.76,3.668,3.96,6.195,8.019,9.396
			c1.98,1.563,4.187,3.31,6.426,5.421c2.236-2.111,4.442-3.857,6.422-5.421c4.055-3.2,7.262-5.728,8.019-9.396
			c0.416-2.017-0.037-4.121-1.246-5.787c-1.085-1.494-2.652-2.422-4.402-2.616c-3.058-0.339-6.378,1.425-7.463,3.829
			c-0.241,0.522-0.76,0.858-1.33,0.858c-0.577,0-1.096-0.336-1.33-0.858C32.695,26.956,29.816,25.294,26.993,25.294z"/>
		<path fill="#0F4C86" d="M35.026,62.749c-15.292,0-27.727-12.436-27.727-27.727c0-15.288,12.435-27.727,27.727-27.727
			c15.285,0,27.727,12.438,27.727,27.727C62.753,50.313,50.311,62.749,35.026,62.749z M35.026,10.214
			c-13.681,0-24.812,11.131-24.812,24.808c0,13.681,11.131,24.812,24.812,24.812c13.677,0,24.804-11.131,24.804-24.812
			C59.83,21.345,48.703,10.214,35.026,10.214z"/>
		<path fill="#0F4C86" d="M14.594,36.483H1.461C0.65,36.483,0,35.83,0,35.022c0-0.804,0.65-1.458,1.461-1.458h13.133
			c0.807,0,1.458,0.654,1.458,1.458C16.052,35.83,15.401,36.483,14.594,36.483z"/>
		<path fill="#0F4C86" d="M68.59,36.483H55.454c-0.804,0-1.462-0.654-1.462-1.461c0-0.804,0.658-1.458,1.462-1.458H68.59
			c0.804,0,1.458,0.654,1.458,1.458C70.048,35.83,69.394,36.483,68.59,36.483z"/>
		<path fill="#0F4C86" d="M35.026,16.052c-0.811,0-1.461-0.654-1.461-1.458V1.458c0-0.804,0.65-1.458,1.461-1.458
			c0.804,0,1.458,0.654,1.458,1.458v13.137C36.483,15.398,35.83,16.052,35.026,16.052z"/>
		<path fill="#0F4C86" d="M35.026,70.048c-0.811,0-1.461-0.654-1.461-1.461V55.454c0-0.808,0.65-1.458,1.461-1.458
			c0.804,0,1.458,0.65,1.458,1.458v13.133C36.483,69.394,35.83,70.048,35.026,70.048z"/>
	</g>
</g>
<g>
</g>
<g>
</g>
<g>
</g>
<g>
</g>
<g>
</g>
<g>
</g>
<g>
</g>
<g>
</g>
<g>
</g>
<g>
</g>
<g>
</g>
<g>
</g>
<g>
</g>
<g>
</g>
<g>
</g>
</svg>
