<?xml version="1.0" encoding="utf-8"?>
<!-- Generator: Adobe Illustrator 15.1.0, SVG Export Plug-In . SVG Version: 6.00 Build 0)  -->
<!DOCTYPE svg PUBLIC "-//W3C//DTD SVG 1.1//EN" "http://www.w3.org/Graphics/SVG/1.1/DTD/svg11.dtd">
<svg version="1.1" id="Layer_1" xmlns="http://www.w3.org/2000/svg" xmlns:xlink="http://www.w3.org/1999/xlink" x="0px" y="0px"
	 width="13.07px" height="16.72px" viewBox="0 0 13.07 16.72" enable-background="new 0 0 13.07 16.72" xml:space="preserve">
<g>
	<g>
		<g>
			<path fill="#134D87" d="M6.528,15.711c-0.159,0-0.284-0.125-0.284-0.283v-1.283c0-0.51,0.417-0.926,0.929-0.926h2.688
				l-0.445-1.377c-0.054-0.152,0.033-0.311,0.179-0.357c0.153-0.051,0.313,0.033,0.365,0.182l0.564,1.752
				c0.026,0.09,0.013,0.184-0.04,0.258c-0.053,0.072-0.14,0.117-0.232,0.117H7.173c-0.199,0-0.358,0.16-0.358,0.352v1.283
				C6.814,15.586,6.688,15.711,6.528,15.711z"/>
			<path fill="#134D87" d="M6.528,15.711c-0.159,0-0.284-0.125-0.284-0.283v-1.283c0-0.191-0.16-0.352-0.354-0.352H2.911
				c-0.093,0-0.179-0.043-0.232-0.111c-0.054-0.074-0.073-0.166-0.046-0.254l0.497-1.738c0.04-0.152,0.2-0.238,0.353-0.195
				s0.246,0.201,0.199,0.355l-0.393,1.369h2.602c0.512,0,0.924,0.416,0.924,0.926v1.283C6.814,15.586,6.688,15.711,6.528,15.711z"/>
		</g>
		<g>
			<path fill="#134D87" d="M6.535,6.785c-1.507,0-2.521-1.162-2.521-2.895C4.014,2.162,5.028,1,6.535,1
				c1.506,0,2.522,1.162,2.522,2.891C9.058,5.623,8.041,6.785,6.535,6.785z M6.535,1.574c-1.434,0-1.945,1.248-1.945,2.316
				c0,1.072,0.512,2.32,1.945,2.32S8.48,4.963,8.48,3.891C8.48,2.822,7.969,1.574,6.535,1.574z"/>
		</g>
		<path fill="#134D87" d="M11.745,15.719H1.324c-0.576,0-0.895-0.27-1.062-0.492c-0.292-0.396-0.345-0.99-0.14-1.625l1.148-3.57
			c0.558-1.57,1.461-2.33,2.769-2.33h4.997c1.301,0,2.204,0.76,2.762,2.322l1.148,3.572c0.205,0.641,0.152,1.234-0.14,1.631
			C12.642,15.449,12.322,15.719,11.745,15.719z M4.04,8.271c-1.05,0-1.753,0.617-2.224,1.945l-1.148,3.557
			c-0.141,0.451-0.119,0.869,0.06,1.115c0.126,0.166,0.325,0.252,0.597,0.252h10.421c0.272,0,0.479-0.086,0.597-0.252
			c0.18-0.246,0.207-0.664,0.061-1.115l-1.148-3.564c-0.471-1.32-1.175-1.938-2.217-1.938H4.04z"/>
	</g>
</g>
</svg>
