<?xml version="1.0" encoding="utf-8"?>
<!-- Generator: Adobe Illustrator 15.1.0, SVG Export Plug-In . SVG Version: 6.00 Build 0)  -->
<!DOCTYPE svg PUBLIC "-//W3C//DTD SVG 1.1//EN" "http://www.w3.org/Graphics/SVG/1.1/DTD/svg11.dtd">
<svg version="1.1" id="Layer_1" xmlns="http://www.w3.org/2000/svg" xmlns:xlink="http://www.w3.org/1999/xlink" x="0px" y="0px"
	 width="15.603px" height="16.72px" viewBox="0 0 15.603 16.72" enable-background="new 0 0 15.603 16.72" xml:space="preserve">
<g>
	<path fill="#134D87" d="M6.066,5.804C6.385,5.997,6.771,6.095,7.22,6.095c0.694,0,1.298-0.236,1.323-0.248l0.19-0.074L8.711,5.569
		C8.706,5.505,8.541,4.007,7.529,3.394C6.567,2.812,4.357,2.792,4.263,2.792L3.814,2.79l0.209,0.396
		C4.067,3.271,5.105,5.222,6.066,5.804z M7.25,3.854c0.588,0.357,0.815,1.172,0.893,1.559C7.932,5.474,7.586,5.556,7.22,5.556
		c-0.348,0-0.642-0.072-0.874-0.213C5.792,5.007,5.12,4.005,4.731,3.347C5.494,3.388,6.696,3.519,7.25,3.854z"/>
	<path fill="#134D87" d="M15.509,8.716c-0.186-0.25-0.684-0.42-1.154-0.402c-0.359,0.014-0.691,0.135-0.984,0.344l-1.137-0.908
		h-0.875L10.5,7.173H9.909L9.513,6.976c0.289-1.982,1.627-3.063,2.818-4.02c0.221-0.176,0.436-0.348,0.635-0.52l-0.35-0.408
		c-0.199,0.166-0.408,0.336-0.623,0.51c-0.789,0.633-1.699,1.365-2.325,2.41C9.19,4.173,9.3,3.063,9.666,2.612
		c0.725-0.898,1.604-1.1,2.535-1.314c0.553-0.125,1.121-0.256,1.656-0.541c0.508,1.188,0.109,2.945-0.961,4.063
		c-0.723,0.754-1.719,0.66-2.246,0.537L10.527,5.88c0.221,0.051,0.512,0.1,0.832,0.1c0.609,0,1.332-0.168,1.926-0.787
		c1.299-1.357,1.711-3.576,0.918-4.947l-0.141-0.246l-0.24,0.154c-0.525,0.342-1.117,0.477-1.742,0.621
		c-0.979,0.225-1.992,0.457-2.834,1.498C8.731,2.911,8.557,4.468,9.39,5.478C9.176,5.954,9.019,6.485,8.951,7.091l0.004,0.002
		L8.357,7.69l-0.521-0.26L6.505,8.097L5.848,9.083v0.1H5.543c-0.787,0-1.53,0.584-1.91,0.939c-0.182,0.18-0.417,0.418-0.655,0.66
		c-0.042,0.043-0.083,0.084-0.125,0.127l-0.69-0.689L0,12.384l4.339,4.336l2.163-2.162L6.003,14.06
		c0.048-0.023,0.097-0.037,0.148-0.037h4.336l0.063-0.035c0.408-0.229,2.656-2.109,2.91-2.324l0.023-0.021
		c0.07-0.076,1.709-1.848,2.059-2.658l0.061-0.143L15.509,8.716z M6.875,8.513l0.962-0.48l0.627,0.314l0.862-0.863l0.456,0.229
		h0.556l0.859,0.576h0.848l0.93,0.742c-0.061,0.07-0.117,0.146-0.17,0.227l-1.484,0.951c-0.205-0.275-0.533-0.453-0.9-0.453H8.697
		c-0.117,0-0.34-0.123-0.538-0.232c-0.301-0.168-0.613-0.34-0.931-0.34h-0.8L6.875,8.513z M4.338,15.96l-3.577-3.576l1.401-1.4
		l0.311,0.309l0.381,0.381l2.372,2.371l0.381,0.381l0.131,0.133L4.338,15.96z M13.841,10.425c-0.135,0.156-0.264,0.309-0.385,0.441
		c-0.139,0.158-0.262,0.295-0.355,0.396c-0.932,0.781-2.373,1.965-2.758,2.221H6.152c-0.214,0-0.386,0.072-0.539,0.184L3.233,11.29
		c0.042-0.043,0.082-0.084,0.127-0.129c0.238-0.24,0.472-0.479,0.646-0.652c0.315-0.293,0.935-0.787,1.537-0.787h0.304h0.539h0.842
		c0.179,0,0.44,0.145,0.669,0.271c0.278,0.154,0.542,0.301,0.799,0.301h1.723c0.066,0,0.129,0.016,0.189,0.035
		c0.225,0.078,0.389,0.287,0.398,0.537c0,0.006,0,0.014,0,0.02c0,0.324-0.264,0.59-0.588,0.59H7.55v0.539h2.869
		c0.621,0,1.127-0.508,1.127-1.129c0-0.006-0.002-0.014-0.002-0.02c0-0.051-0.004-0.104-0.012-0.156l0.596-0.381l1.068-0.684
		l0.031-0.051c0.025-0.041,0.051-0.072,0.076-0.107c0.16-0.229,0.336-0.381,0.508-0.477c0.191-0.105,0.379-0.146,0.533-0.158
		c0.256-0.018,0.475,0.043,0.605,0.104C14.724,9.349,14.267,9.925,13.841,10.425z"/>
</g>
</svg>
