<?xml version="1.0" encoding="utf-8"?>
<!-- Generator: Adobe Illustrator 15.1.0, SVG Export Plug-In . SVG Version: 6.00 Build 0)  -->
<!DOCTYPE svg PUBLIC "-//W3C//DTD SVG 1.1//EN" "http://www.w3.org/Graphics/SVG/1.1/DTD/svg11.dtd">
<svg version="1.1" id="Layer_1" xmlns="http://www.w3.org/2000/svg" xmlns:xlink="http://www.w3.org/1999/xlink" x="0px" y="0px"
	 width="29.499px" height="16.72px" viewBox="0 0 29.499 16.72" enable-background="new 0 0 29.499 16.72" xml:space="preserve">
<g>
	<g>
		<path fill="#134D87" d="M28.293,14.411h-7.129c-0.159,0-0.285-0.133-0.285-0.289c0-0.158,0.126-0.287,0.285-0.287h7.129
			c0.192,0,0.371-0.088,0.497-0.236c0.112-0.143,0.159-0.314,0.126-0.488c-0.345-1.686-1.545-2.652-3.299-2.652h-2.874
			c-0.511,0-0.975,0.076-1.38,0.236c-0.146,0.053-0.319-0.02-0.372-0.166c-0.054-0.148,0.021-0.314,0.167-0.371
			c0.471-0.18,1.008-0.271,1.585-0.271h2.874c2.025,0,3.465,1.162,3.857,3.109c0.072,0.342-0.021,0.693-0.239,0.965
			C29.003,14.245,28.659,14.411,28.293,14.411z"/>
		<path fill="#134D87" d="M24.192,8.165c-1.441,0-2.377-1.094-2.377-2.793c0-1.693,0.936-2.791,2.377-2.791
			c1.439,0,2.369,1.098,2.369,2.791C26.561,7.071,25.631,8.165,24.192,8.165z M24.192,3.155c-1.328,0-1.8,1.148-1.8,2.217
			c0,1.074,0.472,2.223,1.8,2.223c1.327,0,1.798-1.148,1.798-2.223C25.99,4.304,25.519,3.155,24.192,3.155z"/>
	</g>
	<g>
		<path fill="#134D87" d="M8.528,14.411H1.212c-0.371,0-0.716-0.166-0.948-0.451c-0.22-0.271-0.313-0.623-0.239-0.965
			c0.392-1.947,1.839-3.109,3.856-3.109h2.88c0.685,0,1.302,0.129,1.846,0.383c0.14,0.068,0.198,0.24,0.133,0.381
			c-0.066,0.145-0.239,0.205-0.378,0.139c-0.465-0.219-1.002-0.33-1.601-0.33h-2.88c-1.752,0-2.953,0.967-3.299,2.652
			c-0.033,0.174,0.014,0.346,0.125,0.488c0.127,0.148,0.307,0.236,0.505,0.236h7.315c0.159,0,0.291,0.129,0.291,0.287
			C8.819,14.278,8.687,14.411,8.528,14.411z"/>
		<path fill="#134D87" d="M5.308,8.165c-1.44,0-2.37-1.094-2.37-2.793c0-1.693,0.93-2.791,2.37-2.791s2.376,1.098,2.376,2.791
			C7.684,7.071,6.749,8.165,5.308,8.165z M5.308,3.155c-1.32,0-1.798,1.148-1.798,2.217c0,1.074,0.478,2.223,1.798,2.223
			c1.328,0,1.798-1.148,1.798-2.223C7.106,4.304,6.636,3.155,5.308,3.155z"/>
	</g>
	<g>
		<g>
			<path fill="#134D87" d="M14.912,15.712c-0.159,0-0.284-0.125-0.284-0.285v-1.281c0-0.512,0.418-0.926,0.929-0.926h2.688
				l-0.445-1.377c-0.053-0.152,0.033-0.313,0.18-0.357c0.152-0.051,0.313,0.031,0.365,0.182l0.564,1.752
				c0.025,0.09,0.013,0.184-0.041,0.256c-0.053,0.072-0.139,0.119-0.231,0.119h-3.08c-0.199,0-0.358,0.16-0.358,0.352v1.281
				C15.198,15.587,15.072,15.712,14.912,15.712z"/>
			<path fill="#134D87" d="M14.912,15.712c-0.159,0-0.284-0.125-0.284-0.285v-1.281c0-0.191-0.16-0.352-0.354-0.352h-2.979
				c-0.094,0-0.18-0.043-0.232-0.111c-0.054-0.074-0.073-0.166-0.047-0.254l0.498-1.738c0.039-0.152,0.199-0.238,0.352-0.195
				s0.246,0.201,0.199,0.355l-0.393,1.369h2.602c0.513,0,0.924,0.414,0.924,0.926v1.281C15.198,15.587,15.072,15.712,14.912,15.712z
				"/>
		</g>
		<g>
			<path fill="#134D87" d="M14.918,6.786c-1.506,0-2.521-1.162-2.521-2.895c0-1.73,1.016-2.891,2.521-2.891
				c1.507,0,2.523,1.16,2.523,2.891C17.442,5.624,16.425,6.786,14.918,6.786z M14.918,1.575c-1.434,0-1.945,1.248-1.945,2.316
				c0,1.072,0.512,2.32,1.945,2.32c1.435,0,1.945-1.248,1.945-2.32C16.864,2.823,16.353,1.575,14.918,1.575z"/>
		</g>
		<path fill="#134D87" d="M20.129,15.72H9.708c-0.577,0-0.896-0.27-1.062-0.492c-0.293-0.398-0.346-0.992-0.14-1.625l1.147-3.572
			c0.559-1.568,1.461-2.328,2.77-2.328h4.996c1.302,0,2.205,0.76,2.762,2.322l1.148,3.57c0.206,0.641,0.152,1.234-0.139,1.633
			C21.026,15.45,20.707,15.72,20.129,15.72z M12.424,8.272c-1.05,0-1.753,0.617-2.225,1.943l-1.147,3.559
			c-0.141,0.451-0.12,0.869,0.06,1.115c0.126,0.166,0.324,0.252,0.597,0.252h10.421c0.271,0,0.478-0.086,0.597-0.252
			c0.18-0.246,0.206-0.664,0.06-1.115l-1.148-3.564c-0.47-1.32-1.174-1.938-2.217-1.938H12.424z"/>
	</g>
</g>
</svg>
